<?xml version="1.0" encoding="UTF-8" standalone="no"?>
<svg width="138px" height="2624px" viewBox="0 0 138 2624" version="1.1" xmlns="http://www.w3.org/2000/svg" xmlns:xlink="http://www.w3.org/1999/xlink" xmlns:sketch="http://www.bohemiancoding.com/sketch/ns">
    <title>Slice 1</title>
    <description>Created with Sketch (http://www.bohemiancoding.com/sketch)</description>
    <defs></defs>
    <g id="Page 1" stroke="none" stroke-width="1" fill="none" fill-rule="evenodd">
        <g id="cat-icons" transform="translate(-1.000000, -1.000000)" fill="#C7C7C6">
            <g id="Page 1">
                <g id="Iconography">
                    <path d="M115.434447,2544.43907 C113.576447,2543.99307 111.772447,2543.73407 110.020447,2543.61207 C109.036447,2542.45707 107.499447,2541.81507 105.885447,2542.04707 L89.2694471,2544.44307 C87.6694471,2544.67307 86.3834471,2545.70907 85.7604471,2547.07707 C79.7904471,2547.74907 72.1344471,2547.84807 69.9994471,2547.86407 C67.8644471,2547.84807 60.2084471,2547.74907 54.2384471,2547.07707 C53.6134471,2545.70807 52.3294471,2544.67307 50.7274471,2544.44307 L34.1124471,2542.04707 C32.5004471,2541.81507 30.9624471,2542.45707 29.9754471,2543.61207 C28.2254471,2543.73407 26.4234471,2543.99207 24.5664471,2544.43907 C14.2134471,2546.92907 -3.03855289,2591.43107 11.9134471,2615.08007 C26.8674471,2638.72907 39.8434471,2614.29307 48.7214471,2601.69607 C54.4664471,2593.54307 65.7934471,2592.71307 69.4254471,2592.66507 L69.4254471,2592.67607 C69.4254471,2592.67607 69.6304471,2592.66607 69.9994471,2592.66307 C70.3684471,2592.66607 70.5734471,2592.67607 70.5734471,2592.67607 L70.5734471,2592.66507 C74.2034471,2592.71307 85.5324471,2593.54307 91.2804471,2601.69607 C100.155447,2614.29407 113.131447,2638.73007 128.086447,2615.08007 C143.037447,2591.43107 125.785447,2546.92907 115.434447,2544.43907 L115.434447,2544.43907 L115.434447,2544.43907 Z M35.6634471,2589.24707 C26.8124471,2589.24707 19.6394471,2582.08207 19.6394471,2573.24407 C19.6394471,2564.40507 26.8124471,2557.24107 35.6634471,2557.24107 C44.5104471,2557.24107 51.6864471,2564.40507 51.6864471,2573.24407 C51.6864471,2582.08307 44.5104471,2589.24707 35.6634471,2589.24707 L35.6634471,2589.24707 L35.6634471,2589.24707 Z M104.335447,2557.24107 C107.285447,2557.24107 109.678447,2559.62907 109.678447,2562.57607 C109.678447,2565.52307 107.285447,2567.91007 104.335447,2567.91007 C101.386447,2567.91007 98.9944471,2565.52307 98.9944471,2562.57607 C98.9944471,2559.62907 101.386447,2557.24107 104.335447,2557.24107 L104.335447,2557.24107 L104.335447,2557.24107 Z M93.6544471,2578.57807 C90.7034471,2578.57807 88.3114471,2576.19107 88.3114471,2573.24407 C88.3114471,2570.29807 90.7034471,2567.91007 93.6544471,2567.91007 C96.6034471,2567.91007 98.9944471,2570.29907 98.9944471,2573.24407 C98.9944471,2576.19107 96.6034471,2578.57807 93.6544471,2578.57807 L93.6544471,2578.57807 L93.6544471,2578.57807 Z M104.335447,2589.24707 C101.386447,2589.24707 98.9944471,2586.86007 98.9944471,2583.91407 C98.9944471,2580.96707 101.386447,2578.57907 104.335447,2578.57907 C107.285447,2578.57907 109.678447,2580.96707 109.678447,2583.91407 C109.678447,2586.86007 107.285447,2589.24707 104.335447,2589.24707 L104.335447,2589.24707 L104.335447,2589.24707 Z M115.017447,2578.57807 C112.070447,2578.57807 109.678447,2576.18907 109.678447,2573.24407 C109.678447,2570.29807 112.070447,2567.91007 115.017447,2567.91007 C117.968447,2567.91007 120.359447,2570.29907 120.359447,2573.24407 C120.358447,2576.19007 117.968447,2578.57807 115.017447,2578.57807 L115.017447,2578.57807 L115.017447,2578.57807 Z M35.6634471,2561.00607 C29.9364471,2561.00607 25.2944471,2565.64307 25.2944471,2571.36307 C25.2944471,2577.08007 29.9364471,2581.71607 35.6634471,2581.71607 C41.3884471,2581.71607 46.0314471,2577.08107 46.0314471,2571.36307 C46.0304471,2565.64307 41.3884471,2561.00607 35.6634471,2561.00607 L35.6634471,2561.00607 L35.6634471,2561.00607 Z M35.6634471,2561.00607" id="Shape"></path>
                    <path d="M115.434447,3.42701744 C113.576447,2.98101744 111.772447,2.72201744 110.020447,2.60001744 C109.036447,1.44501744 107.499447,0.803017444 105.885447,1.03501744 L89.2694471,3.43101744 C87.6694471,3.66101744 86.3834471,4.69701744 85.7604471,6.06501744 C79.7904471,6.73701744 72.1344471,6.83601744 69.9994471,6.85201744 C67.8644471,6.83601744 60.2084471,6.73701744 54.2384471,6.06501744 C53.6134471,4.69601744 52.3294471,3.66101744 50.7274471,3.43101744 L34.1124471,1.03501744 C32.5004471,0.803017444 30.9624471,1.44501744 29.9754471,2.60001744 C28.2254471,2.72201744 26.4234471,2.98001744 24.5664471,3.42701744 C14.2134471,5.91701744 -3.03855289,50.4190174 11.9134471,74.0680174 C26.8674471,97.7170174 39.8434471,73.2810174 48.7214471,60.6840174 C54.4664471,52.5310174 65.7934471,51.7010174 69.4254471,51.6530174 L69.4254471,51.6640174 C69.4254471,51.6640174 69.6304471,51.6540174 69.9994471,51.6510174 C70.3684471,51.6540174 70.5734471,51.6640174 70.5734471,51.6640174 L70.5734471,51.6530174 C74.2034471,51.7010174 85.5324471,52.5310174 91.2804471,60.6840174 C100.155447,73.2820174 113.131447,97.7180174 128.086447,74.0680174 C143.037447,50.4190174 125.785447,5.91701744 115.434447,3.42701744 L115.434447,3.42701744 L115.434447,3.42701744 Z M35.6634471,48.2350174 C26.8124471,48.2350174 19.6394471,41.0700174 19.6394471,32.2320174 C19.6394471,23.3930174 26.8124471,16.2290174 35.6634471,16.2290174 C44.5104471,16.2290174 51.6864471,23.3930174 51.6864471,32.2320174 C51.6864471,41.0710174 44.5104471,48.2350174 35.6634471,48.2350174 L35.6634471,48.2350174 L35.6634471,48.2350174 Z M104.335447,16.2290174 C107.285447,16.2290174 109.678447,18.6170174 109.678447,21.5640174 C109.678447,24.5110174 107.285447,26.8980174 104.335447,26.8980174 C101.386447,26.8980174 98.9944471,24.5110174 98.9944471,21.5640174 C98.9944471,18.6170174 101.386447,16.2290174 104.335447,16.2290174 L104.335447,16.2290174 L104.335447,16.2290174 Z M93.6544471,37.5660174 C90.7034471,37.5660174 88.3114471,35.1790174 88.3114471,32.2320174 C88.3114471,29.2860174 90.7034471,26.8980174 93.6544471,26.8980174 C96.6034471,26.8980174 98.9944471,29.2870174 98.9944471,32.2320174 C98.9944471,35.1790174 96.6034471,37.5660174 93.6544471,37.5660174 L93.6544471,37.5660174 L93.6544471,37.5660174 Z M104.335447,48.2350174 C101.386447,48.2350174 98.9944471,45.8480174 98.9944471,42.9020174 C98.9944471,39.9550174 101.386447,37.5670174 104.335447,37.5670174 C107.285447,37.5670174 109.678447,39.9550174 109.678447,42.9020174 C109.678447,45.8480174 107.285447,48.2350174 104.335447,48.2350174 L104.335447,48.2350174 L104.335447,48.2350174 Z M115.017447,37.5660174 C112.070447,37.5660174 109.678447,35.1770174 109.678447,32.2320174 C109.678447,29.2860174 112.070447,26.8980174 115.017447,26.8980174 C117.968447,26.8980174 120.359447,29.2870174 120.359447,32.2320174 C120.358447,35.1780174 117.968447,37.5660174 115.017447,37.5660174 L115.017447,37.5660174 L115.017447,37.5660174 Z M35.6634471,19.9940174 C29.9364471,19.9940174 25.2944471,24.6310174 25.2944471,30.3510174 C25.2944471,36.0680174 29.9364471,40.7040174 35.6634471,40.7040174 C41.3884471,40.7040174 46.0314471,36.0690174 46.0314471,30.3510174 C46.0304471,24.6310174 41.3884471,19.9940174 35.6634471,19.9940174 L35.6634471,19.9940174 L35.6634471,19.9940174 Z M35.6634471,19.9940174" id="Shape"></path>
                    <path d="M133.999656,177.614 L127.003656,169.625 L129.589656,159.339 L119.933656,154.874 L118.092656,144.428 L107.448656,144.263 L101.505656,135.467 L91.7176559,139.623 L82.6956559,134 L75.4516559,141.768 L64.9086559,140.284 L61.4636559,150.315 L51.2286559,153.229 L52.1726559,163.789 L44.3176559,170.35 L60.0956559,170.35 C64.2196559,158.75 75.2926559,150.427 88.3496559,150.427 C104.913656,150.427 118.344656,163.808 118.344656,180.315 C118.344656,190.8 112.310656,199.639 104.110656,204.974 C104.096656,210.109 104.122656,215.67 104.110656,220.013 L109.269656,212.332 L119.886656,211.601 L121.168656,201.074 L130.571656,196.105 L127.440656,185.97 L133.999656,177.614 L133.999656,177.614 Z M90.7346559,229.036 C90.6906559,229.036 90.6476559,229.03 90.6026559,229.029 C90.5766559,229.029 90.5506559,229.033 90.5246559,229.033 L90.7346559,229.036 L90.7346559,229.036 Z M100.346656,179.687 C99.7246559,179.687 99.5796559,180.289 99.5796559,180.911 L99.5796559,224.521 C99.5796559,228.045 95.5666559,232.04 92.0336559,232.04 L15.0566559,232.04 C11.5216559,232.04 9.0176559,229.549 9.0176559,226.025 L9.0176559,177.903 C9.0286559,177.471 9.1436559,176.4 10.5276559,176.4 L84.4866559,176.4 C84.5026559,176.4 84.5106559,176.396 84.5226559,176.394 C84.5056559,176.445 84.4956559,176.533 84.5036559,176.686 L84.5036559,222.832 C84.5036559,226.208 87.2286559,228.959 90.6016559,229.029 C93.9996559,228.989 96.5616559,226.411 96.5616559,223.018 L96.5616559,179.407 C96.5616559,178.784 96.6566559,178.181 96.0306559,178.181 C95.4066559,178.181 94.8986559,178.686 94.8986559,179.308 L94.8986559,222.831 C94.8986559,225.008 92.7116559,226.024 90.5236559,226.024 C88.3376559,226.024 87.5036559,225.192 87.5036559,223.017 L87.5036559,176.399 C87.4936559,175.269 86.6466559,173.391 84.4856559,173.391 L10.5276559,173.391 C7.7756559,173.391 6.0196559,176.257 5.9996559,177.903 L5.9996559,226.025 C5.9996559,230.794 10.2716559,235.048 15.0566559,235.048 L92.0346559,235.048 C96.8156559,235.048 101.090656,229.289 101.090656,224.521 L101.090656,180.911 C101.089656,180.288 100.972656,179.687 100.346656,179.687 L100.346656,179.687 L100.346656,179.687 Z M79.9576559,180.911 L13.5466559,180.911 L13.5466559,185.423 L79.9576559,185.423 L79.9576559,180.911 L79.9576559,180.911 Z M79.9576559,191.437 L60.3376559,191.437 L60.3376559,194.445 L79.9576559,194.445 C80.1166559,194.446 79.9576559,191.437 79.9576559,191.437 L79.9576559,191.437 L79.9576559,191.437 Z M91.1036559,223.253 C91.7276559,223.253 92.0346559,222.136 92.0346559,221.514 L92.0346559,177.903 C92.0346559,177.281 91.7276559,176.151 91.1036559,176.151 C90.4796559,176.151 90.5246559,177.281 90.5246559,177.903 L90.5246559,221.514 C90.5246559,222.136 90.4796559,223.253 91.1036559,223.253 L91.1036559,223.253 L91.1036559,223.253 Z M40.3276559,212.662 C39.9116559,214.786 35.0626559,213.835 37.4176559,215.205 C39.7726559,216.58 45.1766559,216.027 46.4236559,218.237 C47.6696559,220.446 48.9166559,223.159 49.3326559,225.182 C49.3416559,225.215 49.7836559,225.992 49.7706559,226.024 L52.7916559,226.024 C53.9376559,226.024 55.8096559,224.158 55.8096559,223.017 L55.8096559,194.445 C55.8096559,193.303 53.9376559,191.437 52.7916559,191.437 L16.5646559,191.437 C15.4186559,191.437 13.5466559,193.304 13.5466559,194.445 L13.5466559,223.017 C13.5466559,224.158 15.4186559,226.024 16.5646559,226.024 L18.0746559,226.024 C18.1656559,223.667 18.4076559,218.756 21.3456559,217.682 C25.5026559,216.165 30.2116559,214.785 30.3506559,213.817 C30.4896559,212.855 28.8276559,209.542 28.5516559,206.092 C28.2736559,202.64 30.7686559,199.738 32.1536559,198.91 C33.5376559,198.082 37.2806559,198.136 39.0816559,199.835 C40.8836559,201.533 41.5556559,201.812 41.2196559,205.951 C40.8826559,210.093 40.7436559,210.539 40.3276559,212.662 L40.3276559,212.662 L40.3276559,212.662 Z M79.9576559,197.453 L60.3376559,197.453 L60.3376559,200.46 L79.9576559,200.46 C80.1166559,200.46 79.9576559,197.453 79.9576559,197.453 L79.9576559,197.453 L79.9576559,197.453 Z M79.9576559,203.468 L60.3376559,203.468 L60.3376559,206.475 L79.9576559,206.475 C80.1166559,206.474 79.9576559,203.468 79.9576559,203.468 L79.9576559,203.468 L79.9576559,203.468 Z M79.9576559,209.484 L60.3376559,209.484 L60.3376559,212.491 L79.9576559,212.491 C80.1166559,212.491 79.9576559,209.484 79.9576559,209.484 L79.9576559,209.484 L79.9576559,209.484 Z M79.9576559,215.499 L60.3376559,215.499 L60.3376559,218.506 L79.9576559,218.506 C80.1166559,218.506 79.9576559,215.499 79.9576559,215.499 L79.9576559,215.499 L79.9576559,215.499 Z M79.9576559,215.499" id="Shape"></path>
                    <path d="M118.916156,306.069646 C115.465156,305.610646 97.5621559,303.102646 85.7641559,299.220646 C74.6841559,295.575646 59.2871559,288.294646 54.7981559,286.135646 C53.9801559,285.742646 53.5251559,286.257646 53.5251559,286.987646 L53.5251559,289.103646 L53.5251559,316.771646 L53.5251559,373.391646 C50.0771559,370.488646 44.9901559,368.642646 39.3021559,368.642646 C28.9171559,368.642646 20.4991559,374.766646 20.4991559,382.318646 C20.4991559,389.874646 28.9171559,395.998646 39.3021559,395.998646 C49.6851559,395.998646 58.1031559,389.874646 58.1031559,382.318646 L58.1031559,319.092646 C64.1331559,322.072646 75.0661559,327.192646 84.4101559,330.050646 C94.2081559,333.047646 107.889156,335.508646 114.924156,336.673646 L114.924156,391.290646 C111.475156,388.387646 106.389156,386.540646 100.699156,386.540646 C90.3141559,386.540646 81.8961559,392.663646 81.8961559,400.220646 C81.8961559,407.771646 90.3141559,413.895646 100.699156,413.895646 C111.086156,413.895646 119.500156,407.771646 119.500156,400.220646 L119.500156,337.397646 L119.500156,306.999646 L119.500156,306.759646 C119.499156,306.517646 119.296156,306.120646 118.916156,306.069646 L118.916156,306.069646 L118.916156,306.069646 Z M118.916156,306.069646" id="Shape"></path>
                    <path d="M138.396,542.514446 C139.81,537.088446 138.418,532.428446 137.51,530.206446 C96.18,519.248446 78.912,520.503446 68.355,523.432446 L103.667,539.050446 L103.804,539.110446 L134.489,544.590446 C133.603,544.799446 134.597,544.382446 134.489,544.590446 C133.27,546.974446 130.887,550.133446 125.305,548.637446 C121.191,547.535446 98.7,541.629446 75.423,535.272446 C47.03,527.518446 14.774,519.022446 7.402,517.046446 C5.006,516.403446 4.268,514.568446 3.681,512.795446 C2.505,509.253446 6.035,505.085446 8.447,501.056446 C9.264,499.688446 10.108,499.333446 10.77,498.425446 L65.05,521.972446 C75.4,518.558446 91.654,515.986446 134.49,526.980446 C130.874,524.175446 123.512,518.443446 115.181,511.868446 C116.084,510.088446 115.734,507.798446 114.15,506.281446 C113.543,505.700446 112.798,505.281446 112.001,505.067446 C110.495,504.664446 108.942,505.054446 107.829,506.041446 C106.882,505.285446 105.934,504.529446 104.986,503.770446 C106.055,501.963446 105.728,499.517446 104.072,497.932446 C103.465,497.350446 102.72,496.930446 101.923,496.715446 C100.448,496.320446 98.931,496.693446 97.824,497.634446 C96.881,496.685446 95.984,495.714446 95.13,494.724446 C96.084,492.933446 95.741,490.596446 94.136,489.061446 C93.527,488.479446 92.782,488.059446 91.985,487.844446 C91.269,487.653446 90.547,487.662446 89.858,487.801446 C88.75,486.197446 87.687,484.603446 86.684,483.070446 C82.483,476.663446 78.857,471.129446 73.763,469.683446 C70.766,468.880446 66.61,471.622446 64.012,474.510446 C61.75,477.025446 60.63,479.547446 60.759,481.660446 C57.276,482.364446 53.318,482.408446 49.116,481.281446 C38.204,478.358446 35.493,473.844446 31.713,467.103446 C29.747,463.593446 26.425,463.599446 25.259,464.518446 C16.107,471.721446 9.668,487.404446 7.718,496.103446 C5.664,498.929446 -0.679,508.388446 1.419,514.714446 C2.263,517.261446 3.415,519.231446 6.587,520.081446 C13.955,522.056446 46.219,530.554446 74.608,538.307446 C97.887,544.666446 120.676,550.712446 124.796,551.816446 C132.893,553.985446 137.019,547.511446 138.072,543.784446 L138.427,542.519446 L138.396,542.514446 L138.396,542.514446 Z M111.393,507.343446 C111.813,507.456446 112.205,507.678446 112.531,507.987446 C113.505,508.921446 113.618,510.396446 112.785,511.275446 L109.622,514.602446 C108.816,515.450446 107.295,515.414446 106.343,514.501446 C105.366,513.566446 105.252,512.090446 106.086,511.211446 L109.249,507.885446 C109.78,507.329446 110.58,507.126446 111.393,507.343446 L111.393,507.343446 L111.393,507.343446 Z M101.312,498.991446 C101.732,499.103446 102.127,499.326446 102.452,499.638446 C103.426,500.571446 103.539,502.047446 102.706,502.925446 L99.543,506.250446 C98.735,507.099446 97.211,507.062446 96.262,506.154446 C95.287,505.217446 95.173,503.742446 96.005,502.864446 L99.17,499.538446 C99.7,498.978446 100.502,498.775446 101.312,498.991446 L101.312,498.991446 L101.312,498.991446 Z M92.516,490.768446 C93.49,491.699446 93.603,493.172446 92.768,494.054446 L89.607,497.379446 C88.798,498.227446 87.275,498.191446 86.325,497.281446 C85.349,496.346446 85.234,494.870446 86.069,493.991446 L89.232,490.663446 C89.764,490.105446 90.563,489.902446 91.377,490.120446 C91.795,490.234446 92.188,490.457446 92.516,490.768446 L92.516,490.768446 L92.516,490.768446 Z M65.753,476.086446 C68.235,473.325446 71.487,471.512446 73.174,471.965446 C77.375,473.156446 80.778,478.351446 84.721,484.368446 C85.678,485.826446 86.694,487.344446 87.745,488.872446 C87.679,488.933446 87.597,488.974446 87.535,489.039446 L87.255,489.333446 C81.991,484.930446 77.895,481.333446 76.198,479.456446 C74.049,477.081446 70.886,477.232446 67.937,478.975446 C66.535,479.807446 64.891,480.516446 63.098,481.069446 C63.218,479.673446 64.165,477.852446 65.753,476.086446 L65.753,476.086446 L65.753,476.086446 Z M58.906,493.453446 C66.46,493.322446 69.865,494.165446 73.222,496.971446 C76.653,499.841446 77.726,504.146446 76.054,507.675446 C74.202,511.586446 69.383,514.182446 63.153,512.562446 C46.043,508.115446 49.757,496.949446 49.757,496.949446 C49.757,496.949446 53.813,505.785446 61.304,506.435446 C64.359,506.702446 67.378,503.643446 65.112,500.597446 C62.824,497.516446 54.151,498.103446 50.05,492.584446 C47.607,489.294446 48.788,485.110446 48.676,484.994446 C48.561,484.876446 51.154,493.589446 58.906,493.453446 L58.906,493.453446 L58.906,493.453446 Z M58.906,493.453446" id="Shape"></path>
                    <path d="M120.967156,962.644 C118.053156,962.644 115.373156,963.612 113.204156,965.227 C113.167156,964.357 112.944156,963.502 112.474156,962.683 C108.949156,956.168 93.1701559,950.957 72.7511559,949.362 C75.2471559,946.467 78.6301559,941.151 78.6301559,933.577 C78.6301559,921.583 70.1381559,920.525 70.1381559,908.001 C70.1381559,908.001 63.9951559,923.347 70.1381559,932.342 C74.3881559,938.569 72.7531559,945.55 71.3461559,949.261 C70.3351559,949.191 69.3241559,949.126 68.2931559,949.074 C68.4601559,947.7 68.5801559,946.287 68.5801559,944.79 C68.5801559,927.537 56.3621559,926.015 56.3621559,908 C56.3621559,908 47.5281559,930.075 56.3621559,943.015 C57.6691559,944.93 58.5531559,946.894 59.1721559,948.852 C57.6921559,948.856 56.2201559,948.873 54.7711559,948.913 C52.4841559,942.518 47.3671559,939.691 47.3671559,929.959 C47.3671559,929.959 43.1031559,940.673 45.2811559,949.445 C25.4401559,951.147 10.2181559,956.293 6.7601559,962.681 C6.2451559,963.573 6.0001559,964.503 6.0001559,965.452 L6.0001559,971.62 C6.0001559,1001.227 30.0101559,1025.237 59.6161559,1025.237 C84.7021559,1025.237 105.761156,1008 111.610156,984.73 C113.978156,987.175 117.293156,988.702 120.966156,988.702 C128.164156,988.702 133.999156,982.869 133.999156,975.672 C134.000156,968.477 128.165156,962.644 120.967156,962.644 L120.967156,962.644 L120.967156,962.644 Z M107.877156,967.491 C107.862156,967.494 107.844156,967.498 107.829156,967.504 C107.803156,967.609 107.788156,967.717 107.755156,967.821 C105.616156,975.476 84.8641559,981.485 59.5911559,981.485 C34.3181559,981.485 13.5621559,975.476 11.4241559,967.821 C11.4131559,967.795 11.4131559,967.769 11.4051559,967.745 C11.3901559,967.739 11.3711559,967.735 11.3571559,967.732 C11.3571559,967.699 11.3721559,967.665 11.3791559,967.632 C11.3711559,967.599 11.3601559,967.565 11.3571559,967.532 C11.3721559,967.527 11.3901559,967.521 11.4051559,967.517 C11.4271559,967.409 11.4461559,967.304 11.4791559,967.202 C13.2541559,960.848 27.8541559,955.632 47.2161559,954.041 C47.2691559,954.126 47.3081559,954.219 47.3661559,954.303 C53.5081559,963.299 47.3661559,973.882 47.3661559,973.882 C47.3661559,973.882 55.8621559,967.532 55.8621559,955.537 C55.8621559,954.849 55.8271559,954.207 55.7741559,953.587 C57.0511559,953.555 58.3391559,953.536 59.6431559,953.536 C59.8091559,953.536 59.9741559,953.539 60.1411559,953.54 C61.0801559,963 56.3621559,971.179 56.3621559,971.179 C56.3621559,971.179 64.3761559,965.181 67.4221559,953.733 C89.0601559,954.818 105.896156,960.348 107.811156,967.202 C107.822156,967.228 107.822156,967.252 107.830156,967.276 C107.845156,967.281 107.863156,967.285 107.878156,967.291 C107.875156,967.322 107.863156,967.357 107.857156,967.391 C107.862156,967.422 107.874156,967.454 107.877156,967.491 L107.877156,967.491 L107.877156,967.491 Z M120.967156,983.318 C116.748156,983.318 113.323156,979.897 113.323156,975.674 C113.323156,971.452 116.748156,968.03 120.967156,968.03 C125.189156,968.03 128.611156,971.451 128.611156,975.674 C128.610156,979.897 125.188156,983.318 120.967156,983.318 L120.967156,983.318 L120.967156,983.318 Z M120.967156,983.318" id="Shape"></path>
                    <path d="M69.9996559,603 L5.9996559,634.789 L29.6196559,646.522 L29.6196559,640.327 C29.6196559,640.327 43.9896559,627.499 70.1866559,627.499 C96.3836559,627.499 109.061656,640.327 109.061656,640.327 L109.061656,647.178 L118.781656,642.348 L118.781656,627.231 L69.9996559,603 L69.9996559,603 Z M121.317656,628.49 L121.317656,641.088 L133.999656,634.789 L121.317656,628.49 L121.317656,628.49 Z M122.719656,662.485 C123.638656,661.715 124.236656,660.568 124.236656,659.27 C124.236656,657.391 123.005656,655.819 121.318656,655.287 L121.318656,641.089 L118.782656,642.348 L118.782656,655.312 C117.137656,655.869 115.942656,657.421 115.942656,659.271 C115.942656,660.57 116.541656,661.717 117.458656,662.486 C114.435656,665.995 113.855656,674.479 113.833656,674.803 C113.833656,674.804 113.831656,674.807 113.831656,674.807 L113.831656,674.808 C113.831656,674.809 113.833656,674.81 113.833656,674.811 C113.833656,674.814 113.831656,674.838 113.831656,674.838 L113.847656,674.838 C113.924656,675.575 116.683656,676.169 120.091656,676.169 C123.498656,676.169 126.257656,675.575 126.334656,674.838 L126.350656,674.838 L126.350656,674.811 L126.350656,674.808 C126.350656,674.808 126.347656,674.804 126.347656,674.803 C126.326656,674.478 125.747656,665.994 122.719656,662.485 L122.719656,662.485 L122.719656,662.485 Z M76.8856559,665.633 C74.3876559,665.434 71.7926559,667.894 69.1306559,667.894 C66.3506559,667.894 63.6446559,665.442 61.0496559,665.659 C45.5666559,666.951 33.9796559,671.875 33.5196559,677.801 C33.5106559,677.922 33.4746559,678.04 33.4746559,678.161 C33.4746559,685.248 49.4396559,690.993 69.1306559,690.993 C88.8226559,690.993 104.784656,685.248 104.784656,678.161 C104.784656,678.039 104.751656,677.921 104.742656,677.801 C104.280656,671.835 92.5316559,666.883 76.8856559,665.633 L76.8856559,665.633 L76.8856559,665.633 Z M33.7306559,643.27 L33.7306559,648.563 L33.7306559,671.558 C37.5946559,667.003 48.0236559,663.479 61.0736559,662.437 C63.6666559,662.232 66.3626559,664.687 69.1306559,664.687 C71.9026559,664.687 74.6026559,662.232 77.2016559,662.44 C90.7196559,663.52 101.451656,667.262 104.950656,672.058 L104.950656,649.219 L104.950656,643.269 C104.950656,643.269 93.5866559,631.769 70.0986559,631.769 C46.6136559,631.77 33.7306559,643.27 33.7306559,643.27 L33.7306559,643.27 L33.7306559,643.27 Z M33.7306559,643.27" id="Shape"></path>
                    <path d="M121.603428,776.190833 C117.290428,780.523833 111.659428,782.669833 106.134428,782.608833 C105.347428,782.643833 102.641428,782.811833 99.4664278,783.523833 C95.6884278,784.372833 93.4824278,787.223833 93.4824278,787.223833 L58.4964278,821.902833 C58.4964278,821.902833 55.6574278,824.118833 54.8134278,827.913833 C54.0744278,831.222833 53.9244278,834.031833 53.8974278,834.698833 C54.0594278,840.365833 51.9214278,846.179833 47.5104278,850.610833 C42.4674278,855.674833 35.6224278,857.753833 29.2564278,856.805833 L37.7764278,843.635833 L37.3174278,838.086833 L31.3354278,833.462833 L24.8884278,833.462833 L15.1364278,847.236833 C10.5894278,839.357833 11.8754278,828.858833 18.8654278,821.837833 C23.1774278,817.505833 28.8094278,815.359833 34.3324278,815.420833 C35.1224278,815.383833 37.8284278,815.217833 41.0004278,814.503833 C44.7784278,813.655833 46.9874278,810.804833 46.9874278,810.804833 L81.9724278,776.125833 C81.9724278,776.125833 84.8114278,773.908833 85.6564278,770.114833 C86.3914278,766.805833 86.5454278,763.996833 86.5714278,763.329833 C86.4074278,757.661833 88.5484278,751.847833 92.9584278,747.417833 C98.0014278,742.353833 104.846428,740.274833 111.213428,741.222833 L102.690428,754.392833 L103.150428,759.941833 L109.135428,764.565833 L115.581428,764.565833 L125.333428,750.791833 C129.881428,758.670833 128.594428,769.171833 121.603428,776.190833 L121.603428,776.190833 L121.603428,776.190833 Z M72.0844278,781.224833 L60.8574278,792.497833 C60.0444278,791.156833 59.9284278,790.531833 59.4164278,789.535833 C56.0474278,782.992833 47.9064278,773.350833 47.9064278,773.350833 C47.9064278,773.350833 44.0474278,769.434833 40.0804278,769.188833 C36.1124278,768.942833 31.8034278,772.787833 31.7944278,774.274833 C31.7834278,775.762833 32.7144278,777.048833 32.7144278,777.048833 L25.8084278,783.521833 L21.2054278,783.059833 L11.9994278,773.814833 L11.9994278,768.727833 C11.9994278,768.727833 18.4484278,764.964833 20.7454278,763.179833 C23.0424278,761.394833 21.1474278,760.079833 26.7294278,753.468833 C32.9704278,746.078833 36.7194278,742.575833 49.7484278,741.446833 C64.8544278,740.137833 72.3054278,746.533833 72.3054278,746.533833 L69.0844278,746.533833 L71.3854278,749.307833 C71.3854278,749.307833 65.3814278,746.332833 59.8764278,746.069833 C54.3714278,745.807833 51.0094278,747.913833 48.8264278,751.618833 C47.0354278,754.661833 49.4284278,758.628833 52.5104278,762.715833 C54.8574278,765.826833 61.0614278,770.446833 72.0844278,781.224833 L72.0844278,781.224833 L72.0844278,781.224833 Z M113.739428,828.377833 C116.832428,832.916833 119.550428,835.574833 122.025428,837.625833 C124.502428,839.674833 125.249428,840.861833 125.249428,840.861833 C125.249428,840.861833 124.002428,846.567833 117.883428,852.422833 C111.763428,858.276833 106.833428,855.658833 106.833428,855.658833 L103.609428,853.809833 C103.609428,853.809833 103.410428,844.704833 101.770428,840.861833 C100.127428,837.019833 91.5394278,831.849833 82.4344278,821.441833 C79.5894278,818.189833 76.6044278,814.495833 73.7424278,810.750833 L87.3854278,797.047833 C103.223428,814.204833 110.830428,824.108833 113.739428,828.377833 L113.739428,828.377833 L113.739428,828.377833 Z M113.739428,828.377833" id="Shape"></path>
                    <path d="M48.3406559,1135.258 L56.6886559,1143.608 L86.8926559,1113.387 L94.0436559,1120.546 L111.250656,1103.328 L107.039656,1099.115 L94.0436559,1112.12 L86.8926559,1104.961 L56.6886559,1135.183 L48.3406559,1126.833 L29.1486559,1146.038 L33.3596559,1150.251 L48.3406559,1135.258 L48.3406559,1135.258 Z M129.999656,1087.242 L129.999656,1076 L9.9996559,1076 L9.9996559,1087.242 L18.0946559,1087.242 L18.0946559,1160.737 L9.9996559,1160.737 L9.9996559,1171.979 L129.999656,1171.979 L129.999656,1160.737 L122.104656,1160.737 L122.104656,1087.242 L129.999656,1087.242 L129.999656,1087.242 Z M119.078656,1160.737 L21.1206559,1160.737 L21.1206559,1087.242 L119.078656,1087.242 L119.078656,1160.737 L119.078656,1160.737 Z M119.078656,1160.737" id="Shape"></path>
                    <path d="M49.8901559,1255.01 L55.6241559,1243.371 L43.9601559,1243.371 L48.4481559,1252.357 L49.8901559,1255.01 L49.8901559,1255.01 Z M91.5521559,1252.358 L96.0381559,1243.372 L84.3761559,1243.372 L90.1081559,1255.011 L91.5521559,1252.358 L91.5521559,1252.358 Z M68.6911559,1289.546 L69.1131559,1290.319 L69.1131559,1291.248 C69.4101559,1291.235 69.7011559,1291.204 70.0001559,1291.204 C70.2991559,1291.204 70.5901559,1291.235 70.8871559,1291.248 L70.8871559,1290.319 L71.3091559,1289.546 L88.0881559,1258.722 L70.0001559,1222 L51.9121559,1258.724 L68.6911559,1289.546 L68.6911559,1289.546 Z M134.000156,1268.591 L106.562156,1264.596 L87.3381559,1299.912 C90.0641559,1303.546 91.6971559,1308.047 91.6971559,1312.944 C91.6971559,1319.94 88.3851559,1326.148 83.2601559,1330.126 L109.552156,1343.976 L101.998156,1299.843 L134.000156,1268.591 L134.000156,1268.591 Z M48.3021559,1312.945 C48.3021559,1308.05 49.9381559,1303.547 52.6611559,1299.913 L33.4371559,1264.597 L5.9991559,1268.592 L37.9991559,1299.844 L30.4451559,1343.977 L56.7371559,1330.127 C51.6131559,1326.149 48.3021559,1319.941 48.3021559,1312.945 L48.3021559,1312.945 L48.3021559,1312.945 Z M65.6601559,1291.64 L65.6601559,1291.202 L39.6231559,1243.371 L35.2811559,1243.371 L35.2811559,1260.765 L55.0971559,1297.168 C57.9871559,1294.429 61.6121559,1292.462 65.6601559,1291.64 L65.6601559,1291.64 L65.6601559,1291.64 Z M74.3401559,1291.64 C78.3881559,1292.462 82.0131559,1294.427 84.9011559,1297.166 L104.717156,1260.765 L104.717156,1243.371 L100.377156,1243.371 L74.3401559,1291.202 L74.3401559,1291.64 L74.3401559,1291.64 Z M70.0001559,1295.55 C60.4121559,1295.55 52.6421559,1303.336 52.6421559,1312.945 C52.6421559,1322.55 60.4131559,1330.337 70.0001559,1330.337 C79.5871559,1330.337 87.3581559,1322.551 87.3581559,1312.945 C87.3581559,1303.337 79.5881559,1295.55 70.0001559,1295.55 L70.0001559,1295.55 L70.0001559,1295.55 Z M70.0001559,1295.55" id="Shape"></path>
                    <path d="M99.0701557,1424.79559 L106.023156,1424.79559 C106.023156,1424.79559 84.0091557,1396.10759 83.0441557,1394.96659 C82.0791557,1393.82559 80.3561557,1393.67359 79.1951557,1394.62359 C78.0391557,1395.57459 77.8821557,1397.26959 78.8471557,1398.41059 C79.8141557,1399.54959 99.0701557,1424.79559 99.0701557,1424.79559 L99.0701557,1424.79559 L99.0701557,1424.79559 Z M61.1921557,1398.41059 C62.1581557,1397.26959 62.0011557,1395.57459 60.8421557,1394.62359 C59.6841557,1393.67359 57.9631557,1393.82559 56.9951557,1394.96659 C56.0311557,1396.10759 34.0141557,1424.79559 34.0141557,1424.79559 L40.9661557,1424.79559 C40.9671557,1424.79559 60.2261557,1399.54959 61.1921557,1398.41059 L61.1921557,1398.41059 L61.1921557,1398.41059 Z M120.171156,1448.68559 L18.2741557,1448.68559 C15.6001557,1448.68559 15.8011557,1448.68559 15.3071557,1449.20259 C14.8121557,1449.72059 15.8011557,1452.31059 15.8011557,1452.31059 L27.6721557,1492.21159 C27.6721557,1492.21159 28.3391557,1495.26059 30.6401557,1497.39259 C33.8551557,1500.37159 37.0711557,1499.98359 37.0711557,1499.98359 L101.305156,1499.96759 C101.305156,1499.96759 104.508156,1500.35459 107.714156,1497.38959 C110.007156,1495.26759 110.672156,1492.23259 110.672156,1492.23259 L122.507156,1452.52359 C122.507156,1452.52359 123.492156,1449.94359 122.999156,1449.42759 C122.260156,1448.65459 122.223156,1448.68559 120.171156,1448.68559 L120.171156,1448.68559 L120.171156,1448.68559 Z M39.7521557,1489.97159 C36.0391557,1489.97159 35.2891557,1486.97359 35.2891557,1486.97359 L27.8521557,1461.49759 C27.8521557,1461.49759 26.3071557,1457.00259 31.3231557,1457.00259 C35.5031557,1457.00259 36.2811557,1461.49759 36.2811557,1461.49759 L43.2231557,1486.97359 C43.2221557,1486.97359 43.4651557,1489.97159 39.7521557,1489.97159 L39.7521557,1489.97159 L39.7521557,1489.97159 Z M54.6281557,1489.97159 C50.9141557,1489.97159 50.1651557,1486.97359 50.1651557,1486.97359 L47.1891557,1461.49759 C47.1891557,1461.49759 46.1411557,1457.00259 51.1581557,1457.00259 C55.3391557,1457.00259 55.6221557,1461.49759 55.6221557,1461.49759 L58.1001557,1486.97359 C58.0991557,1486.97359 58.3421557,1489.97159 54.6281557,1489.97159 L54.6281557,1489.97159 L54.6281557,1489.97159 Z M73.9661557,1486.47359 C73.9661557,1486.47359 73.7231557,1489.97159 70.0001557,1489.97159 C66.2771557,1489.97159 66.0341557,1486.47359 66.0341557,1486.47359 L65.5381557,1461.49759 C65.5381557,1461.49759 65.5941557,1457.00259 70.0001557,1457.00259 C74.4061557,1457.00259 74.4621557,1461.49759 74.4621557,1461.49759 L73.9661557,1486.47359 L73.9661557,1486.47359 Z M92.7321557,1461.49759 L89.7791557,1486.97359 C89.7791557,1486.97359 89.0361557,1489.97159 85.3481557,1489.97159 C81.6601557,1489.97159 81.9021557,1486.97359 81.9021557,1486.97359 L84.3621557,1461.49759 C84.3621557,1461.49759 84.6451557,1457.00259 88.7951557,1457.00259 C93.7741557,1457.00259 92.7321557,1461.49759 92.7321557,1461.49759 L92.7321557,1461.49759 L92.7321557,1461.49759 Z M111.933156,1461.49759 L104.549156,1486.97359 C104.549156,1486.97359 103.806156,1489.97159 100.118156,1489.97159 C96.4301557,1489.97159 96.6721557,1486.97359 96.6721557,1486.97359 L103.563156,1461.49759 C103.563156,1461.49759 104.337156,1457.00259 108.487156,1457.00259 C113.468156,1457.00259 111.933156,1461.49759 111.933156,1461.49759 L111.933156,1461.49759 L111.933156,1461.49759 Z M126.430156,1428.37959 L13.5701557,1428.37959 C11.5981557,1428.37959 10.0001557,1429.98259 10.0001557,1431.95859 L10.0001557,1441.70859 C10.0001557,1443.68759 11.5991557,1445.28959 13.5701557,1445.28959 L126.429156,1445.28959 C128.401156,1445.28959 129.999156,1443.68659 129.999156,1441.70859 L129.999156,1431.95859 C130.000156,1429.98159 128.401156,1428.37959 126.430156,1428.37959 L126.430156,1428.37959 L126.430156,1428.37959 Z M126.430156,1428.37959" id="Shape"></path>
                    <path d="M69.9996559,1586.332 C69.5186559,1586.332 69.1286559,1586.726 69.1286559,1587.21 C69.1286559,1587.691 69.5186559,1588.085 69.9996559,1588.085 C77.1956559,1588.085 83.0506559,1593.98 83.0506559,1601.229 C83.0506559,1601.714 83.4396559,1602.106 83.9216559,1602.106 C84.3986559,1602.106 84.7896559,1601.714 84.7896559,1601.229 C84.7896559,1593.016 78.1556559,1586.332 69.9996559,1586.332 L69.9996559,1586.332 L69.9996559,1586.332 Z M69.9976559,1572.576 C54.3136559,1572.576 41.5576559,1585.429 41.5576559,1601.228 C41.5576559,1617.03 54.3136559,1629.881 69.9976559,1629.881 C85.6806559,1629.881 98.4386559,1617.029 98.4386559,1601.228 C98.4396559,1585.429 85.6806559,1572.576 69.9976559,1572.576 L69.9976559,1572.576 L69.9976559,1572.576 Z M69.9996559,1620.575 C59.3936559,1620.575 50.7986559,1611.912 50.7986559,1601.228 C50.7986559,1590.546 59.3936559,1581.885 69.9996559,1581.885 C80.6016559,1581.885 89.2036559,1590.546 89.2036559,1601.228 C89.2046559,1611.912 80.6016559,1620.575 69.9996559,1620.575 L69.9996559,1620.575 L69.9996559,1620.575 Z M119.395656,1563.438 L87.6406559,1563.438 C85.7556559,1558.894 83.5526559,1551 82.3476559,1551 L57.6506559,1551 C56.4476559,1551 54.2426559,1558.895 52.3596559,1563.438 L20.6036559,1563.438 C14.9166559,1563.438 9.9996559,1568.778 9.9996559,1574.508 L9.9996559,1631.502 C9.9996559,1637.235 14.9166559,1641.636 20.6036559,1641.636 L62.9426559,1641.636 L51.9246559,1659.765 L54.9796559,1661.673 L68.2356559,1641.636 L68.2356559,1662.961 L71.7626559,1662.961 L71.7626559,1641.636 L84.4446559,1661.673 L87.4996559,1659.765 L77.0566559,1641.636 L119.395656,1641.636 C125.086656,1641.636 129.999656,1637.236 129.999656,1631.502 L129.999656,1574.508 C129.999656,1568.777 125.086656,1563.438 119.395656,1563.438 L119.395656,1563.438 L119.395656,1563.438 Z M40.0086559,1629.194 C38.2366559,1629.194 36.4816559,1627.426 36.4816559,1625.641 C36.4816559,1623.852 38.2366559,1622.086 40.0086559,1622.086 C41.7856559,1622.086 43.5386559,1623.852 43.5386559,1625.641 C43.5386559,1627.427 41.7856559,1629.194 40.0086559,1629.194 L40.0086559,1629.194 L40.0086559,1629.194 Z M69.9976559,1632.079 C53.1116559,1632.079 39.3766559,1618.241 39.3766559,1601.228 C39.3766559,1584.219 53.1116559,1570.379 69.9976559,1570.379 C86.8826559,1570.379 100.620656,1584.219 100.620656,1601.228 C100.621656,1618.241 86.8826559,1632.079 69.9976559,1632.079 L69.9976559,1632.079 L69.9976559,1632.079 Z M119.395656,1579.435 C119.395656,1580.343 118.538656,1581.211 117.631656,1581.211 L105.281656,1581.211 C104.377656,1581.211 103.517656,1580.343 103.517656,1579.435 L103.517656,1574.102 C103.517656,1573.187 104.376656,1572.325 105.281656,1572.325 L117.631656,1572.325 C118.537656,1572.325 119.395656,1573.187 119.395656,1574.102 L119.395656,1579.435 L119.395656,1579.435 Z M119.395656,1579.435" id="Shape"></path>
                    <path d="M17.2866559,1823.42845 C15.7776559,1822.08145 14.9536559,1821.97145 14.5376559,1822.09145 L9.9996559,1830.56745 L18.9916559,1825.76845 C18.9396559,1825.31945 18.5786559,1824.57945 17.2866559,1823.42845 L17.2866559,1823.42845 L17.2866559,1823.42845 Z M23.7276559,1804.92545 L15.4016559,1820.47745 C15.9286559,1820.23145 17.2746559,1819.85945 18.9336559,1821.36345 C20.5686559,1822.84345 20.5156559,1824.37245 20.3966559,1825.01845 L35.6906559,1816.85645 C35.7086559,1815.45745 35.5556559,1810.60145 32.7176559,1807.88645 C29.8806559,1805.17345 25.1016559,1804.93645 23.7276559,1804.92545 L23.7276559,1804.92545 L23.7276559,1804.92545 Z M90.4926559,1750.20245 C85.7216559,1745.66745 80.6276559,1746.74945 80.6186559,1746.75145 L71.7296559,1755.62545 C71.7326559,1755.62545 77.4716559,1755.08945 81.6056559,1759.07645 C85.7376559,1763.06745 85.0606559,1768.93845 85.0606559,1768.93845 L84.9686559,1769.03045 L93.4566559,1760.55545 C93.4566559,1760.55445 95.2706559,1754.74145 90.4926559,1750.20245 L90.4926559,1750.20245 L90.4926559,1750.20245 Z M129.999656,1731.46745 L127.036656,1728.50945 L123.085656,1732.45345 C123.085656,1732.45345 123.952656,1732.75445 123.085656,1733.93245 C122.323656,1734.96645 102.382656,1756.56645 97.4956559,1761.85545 L96.3006559,1757.71645 L126.541656,1727.52445 C126.541656,1727.52445 128.698656,1721.29545 124.071656,1716.67745 C119.444656,1712.05745 113.208656,1714.21245 113.208656,1714.21245 L108.765656,1718.64945 C108.774656,1718.64845 114.512656,1718.11345 118.640656,1722.10045 C122.774656,1726.08845 122.097656,1731.96045 122.097656,1731.96045 L120.121656,1733.93245 C120.121656,1733.93245 121.935656,1728.11845 117.158656,1723.57945 C112.386656,1719.04245 107.288656,1720.12745 107.283656,1720.12845 L90.3306559,1737.05445 L85.0596559,1718.81345 L77.1636559,1721.15645 L75.6726559,1715.59845 C75.1706559,1713.73045 73.2446559,1712.62045 71.3696559,1713.11945 C69.4976559,1713.62145 68.3856559,1715.54345 68.8876559,1717.41345 L70.4286559,1723.15445 L66.5326559,1724.31045 L65.1356559,1719.10445 C64.6356559,1717.23445 62.7076559,1716.12445 60.8376559,1716.62545 C58.9626559,1717.12745 57.8516559,1719.04845 58.3536559,1720.91845 L59.8006559,1726.30945 L55.9066559,1727.46445 L54.6036559,1722.61045 C54.0996559,1720.74045 52.1756559,1719.63145 50.3016559,1720.13145 C48.4266559,1720.63145 47.3166559,1722.55445 47.8186559,1724.42545 L49.1716559,1729.46345 L45.2766559,1730.61945 L44.0686559,1726.11645 C43.5686559,1724.24545 41.6406559,1723.13645 39.7676559,1723.63745 C37.8956559,1724.13745 36.7816559,1726.06045 37.2856559,1727.93045 L38.5436559,1732.61845 L34.6476559,1733.77445 L33.5336559,1729.62245 C33.0316559,1727.75245 31.1066559,1726.64245 29.2336559,1727.14345 C27.3586559,1727.64345 26.2496559,1729.56745 26.7486559,1731.43745 L27.9126559,1735.77445 L20.0976559,1738.09345 L35.3606559,1791.93545 L25.3196559,1801.95945 C26.8116559,1801.96845 31.3996559,1802.26945 35.1856559,1805.41845 C38.9706559,1808.56845 38.8646559,1813.55545 38.7106559,1815.21145 L41.2416559,1812.68545 L46.4336559,1831.00245 L111.397656,1809.96645 L98.5116559,1765.36645 L129.503656,1734.42345 L129.999656,1731.46745 L129.999656,1731.46745 Z M71.8276559,1714.81345 L76.8256559,1733.44045 C75.8876559,1733.68945 74.9266559,1733.13445 74.6746559,1732.20045 L70.5846559,1716.96145 C70.3336559,1716.02545 70.8896559,1715.06345 71.8276559,1714.81345 L71.8276559,1714.81345 L71.8276559,1714.81345 Z M61.2916559,1718.32045 L66.2906559,1736.94645 C65.3526559,1737.19645 64.3896559,1736.64145 64.1396559,1735.70645 L60.0496559,1720.46745 C59.7996559,1719.53245 60.3546559,1718.57045 61.2916559,1718.32045 L61.2916559,1718.32045 L61.2916559,1718.32045 Z M50.7576559,1721.82745 L55.7536559,1740.45245 C54.8186559,1740.70245 53.8576559,1740.14745 53.6056559,1739.21245 L49.5156559,1723.97445 C49.2636559,1723.03845 49.8206559,1722.07645 50.7576559,1721.82745 L50.7576559,1721.82745 L50.7576559,1721.82745 Z M40.2206559,1725.33345 L45.2216559,1743.95945 C44.2836559,1744.20945 43.3206559,1743.65345 43.0716559,1742.71945 L38.9806559,1727.48045 C38.7316559,1726.54345 39.2866559,1725.58345 40.2206559,1725.33345 L40.2206559,1725.33345 L40.2206559,1725.33345 Z M29.6866559,1728.83645 L34.6856559,1747.46245 C33.7476559,1747.71445 32.7866559,1747.15945 32.5366559,1746.22545 L28.4466559,1730.98645 C28.1946559,1730.05045 28.7516559,1729.08845 29.6866559,1728.83645 L29.6866559,1728.83645 L29.6866559,1728.83645 Z M103.726656,1795.67945 C103.135656,1796.09845 102.232656,1796.54045 100.859656,1796.97545 C95.5576559,1798.65445 91.5056559,1796.23545 91.5116559,1796.24845 C91.5116559,1796.24845 92.4176559,1800.35245 91.3276559,1805.60845 C90.5756559,1809.23245 89.1966559,1811.40645 88.0606559,1812.66045 L48.7516559,1825.43245 L44.2506559,1809.68045 L83.0856559,1770.90845 C83.0906559,1770.89045 84.8906559,1765.08945 80.1226559,1760.55445 C75.3456559,1756.01545 70.2466559,1757.10345 70.2466559,1757.10345 L70.9916559,1756.35945 L38.3306559,1788.96745 L24.6026559,1740.92645 L28.9476559,1739.63745 L30.8376559,1746.67745 C31.3416559,1748.54745 33.2646559,1749.65645 35.1396559,1749.15545 C37.0146559,1748.65645 38.1236559,1746.73245 37.6216559,1744.86245 L35.6836559,1737.63945 L39.5796559,1736.48445 L41.3736559,1743.17145 C41.8736559,1745.04145 43.8016559,1746.15145 45.6736559,1745.65045 C47.5466559,1745.15045 48.6606559,1743.22745 48.1566559,1741.35645 L46.3126559,1734.48745 L50.2076559,1733.33245 L51.9076559,1739.66545 C52.4096559,1741.53645 54.3356559,1742.64545 56.2086559,1742.14545 C58.0826559,1741.64445 59.1926559,1739.72045 58.6926559,1737.85045 L56.9436559,1731.33345 L60.8376559,1730.17845 L62.4426559,1736.15845 C62.9446559,1738.02845 64.8696559,1739.13845 66.7446559,1738.63845 C68.6146559,1738.13645 69.7286559,1736.21345 69.2246559,1734.34345 L67.5706559,1728.18045 L71.4666559,1727.02445 L72.9776559,1732.65245 C73.4796559,1734.52445 75.4056559,1735.63445 77.2806559,1735.13245 C79.1526559,1734.63045 80.2646559,1732.70845 79.7626559,1730.83845 L78.2026559,1725.02645 L82.7396559,1723.68045 L87.4686559,1739.90845 L82.0966559,1745.27145 C82.1106559,1745.27045 87.8446559,1744.73945 91.9716559,1748.72245 C96.1066559,1752.71245 95.4296559,1758.58145 95.4296559,1758.58145 L93.4796559,1760.52945 L94.1686559,1762.89545 C93.2566559,1763.03545 92.2396559,1763.45445 91.4786559,1764.49945 C88.4586559,1768.64045 92.4666559,1771.40045 92.4666559,1771.40045 L95.7056559,1768.16645 L103.726656,1795.67945 L103.726656,1795.67945 Z M103.726656,1795.67945" id="Shape"></path>
                    <path d="M84.8991559,1924.828 C97.1281559,1924.828 108.220156,1928.297 116.386156,1933.928 C118.820156,1929.627 120.170156,1924.95 120.170156,1920.053 C120.170156,1899.036 95.5781559,1882 65.2441559,1882 C34.9111559,1882 10.3221559,1899.036 10.3221559,1920.053 C10.3221559,1930.031 15.8731559,1939.107 24.9421559,1945.892 C24.3861559,1947.843 23.4851559,1950.363 22.1331559,1952.422 C19.5291559,1956.389 10.9131559,1956.967 10.9131559,1956.967 C10.9131559,1956.967 20.1031559,1959.922 29.2201559,1958.669 C33.0161559,1958.148 36.6181559,1956.978 39.5321559,1955.789 C40.6821559,1938.551 60.5511559,1924.828 84.8991559,1924.828 L84.8991559,1924.828 L84.8991559,1924.828 Z M119.635156,1983.088 C118.083156,1981 117.243156,1977.843 116.890156,1976.207 C123.120156,1971.127 126.887156,1964.548 126.887156,1957.355 C126.887156,1941.274 108.090156,1928.235 84.8991559,1928.235 C61.7111559,1928.235 42.9141559,1941.274 42.9141559,1957.355 C42.9141559,1973.438 61.7111559,1986.476 84.8991559,1986.476 C91.3951559,1986.476 97.5451559,1985.452 103.036156,1983.625 C104.243156,1984.777 107.564156,1987.5 113.140156,1988.768 C120.681156,1990.481 129.677156,1988.2 129.677156,1988.2 C129.677156,1988.2 121.805156,1986.011 119.635156,1983.088 L119.635156,1983.088 L119.635156,1983.088 Z M119.635156,1983.088" id="Shape"></path>
                    <path d="M106.372656,2052.977 L99.6246559,2054.989 L97.5896559,2047.921 L79.4396559,2053.325 L77.0586559,2045.059 L70.3086559,2047.069 L68.2736559,2040 L9.9996559,2057.354 L10.1766559,2057.982 C10.1676559,2057.964 10.1586559,2057.944 10.1546559,2057.926 C12.0826559,2065.002 31.5706559,2136.421 33.6236559,2140.979 C35.7836559,2145.774 42.4106559,2146.04 42.4106559,2146.04 L60.2096559,2140.255 C61.5706559,2144.886 62.5576559,2148.052 62.9416559,2148.898 C65.0996559,2153.695 71.7246559,2153.959 71.7246559,2153.959 L129.999656,2135.023 L106.372656,2052.977 L106.372656,2052.977 Z M20.9156559,2061.779 C16.0236559,2062.453 14.0416559,2059.902 14.0416559,2059.902 L66.1936559,2044.381 L67.2386559,2047.984 L20.9156559,2061.779 L20.9156559,2061.779 Z M95.5096559,2052.301 L96.5566559,2055.902 L50.2306559,2069.7 C45.3406559,2070.372 43.3586559,2067.823 43.3586559,2067.823 L95.5096559,2052.301 L95.5096559,2052.301 Z M64.5676559,2144.432 C62.6226559,2138.153 43.4846559,2071.333 43.4846559,2071.333 C43.4846559,2071.333 45.2966559,2072.652 47.1076559,2072.982 C48.6016559,2073.253 49.5796559,2073.147 49.5796559,2073.147 L70.4976559,2149.546 C70.4976559,2149.547 66.0486559,2149.217 64.5676559,2144.432 L64.5676559,2144.432 L64.5676559,2144.432 Z M52.3616559,2072.832 L104.513656,2057.139 L126.177656,2132.526 L74.0256559,2149.714 L52.3616559,2072.832 L52.3616559,2072.832 Z M96.0306559,2077.248 L70.8766559,2085.129 L72.2536559,2089.539 L97.4076559,2081.658 L96.0306559,2077.248 L96.0306559,2077.248 Z M73.2376559,2092.689 L74.6126559,2097.096 L99.7646559,2089.218 L98.3896559,2084.809 L73.2376559,2092.689 L73.2376559,2092.689 Z M73.2376559,2092.689" id="Shape"></path>
                    <path d="M129.999656,2204 C127.460656,2204.111 121.441656,2205.641 116.138656,2208.023 C109.401656,2211.048 105.318656,2214.609 105.318656,2214.609 L93.1676559,2226.555 C92.1556559,2227.247 91.0386559,2228.052 89.8156559,2228.978 L78.3416559,2228.274 C81.6266559,2225.083 82.9106559,2222.895 82.9106559,2222.895 C82.9106559,2222.895 82.7666559,2220.146 80.1266559,2217.661 C77.4876559,2215.177 75.1656559,2214.33 75.1656559,2214.33 C75.1656559,2214.33 72.7446559,2214.628 66.4206559,2221.978 C65.4146559,2223.148 64.5226559,2224.382 63.7306559,2225.631 L25.4586559,2213.087 L18.7586559,2216.126 L36.7686559,2227.156 C34.5476559,2229.207 32.7966559,2231.868 33.1876559,2232.337 C33.5206559,2232.737 37.4676559,2231.032 39.7056559,2228.955 L49.5406559,2234.978 C46.9106559,2237.061 44.5946559,2240.417 45.0376559,2240.948 C45.3786559,2241.362 49.5366559,2239.552 51.7326559,2237.402 C51.8686559,2237.269 51.9946559,2237.137 52.1226559,2237.005 L57.4016559,2241.456 L61.3646559,2245.884 C61.0716559,2246.088 60.7786559,2246.298 60.4916559,2246.52 C57.8086559,2248.595 55.4076559,2252.062 55.8556559,2252.6 C56.1996559,2253.011 60.3556559,2251.204 62.5536559,2249.054 C62.8596559,2248.755 63.1386559,2248.457 63.4046559,2248.163 L66.3006559,2251.398 C64.8486559,2253.249 63.6346559,2254.978 62.6356559,2256.571 L42.4596559,2276.407 C42.4596559,2276.407 41.5736559,2277.282 40.1066559,2279.679 L9.9996559,2281.477 L9.9996559,2283.5 L33.6636559,2293.991 C32.9396559,2296.118 32.4056559,2297.924 32.0676559,2299.127 L32.1456559,2299.204 C32.1456559,2299.204 31.7296559,2299.873 32.1456559,2300.218 C32.5626559,2300.563 33.1766559,2300.218 33.1766559,2300.218 L33.2096559,2300.317 C34.4326559,2299.987 36.2856559,2299.458 38.4736559,2298.738 L49.1406559,2321.993 L51.2016559,2321.993 L53.0256559,2292.405 C55.4636559,2290.963 56.3536559,2290.091 56.3536559,2290.091 L76.5256559,2270.256 C78.1426559,2269.275 79.8986559,2268.083 81.7776559,2266.657 L85.0706559,2269.506 C84.7706559,2269.767 84.4686559,2270.041 84.1656559,2270.341 C81.9766559,2272.501 80.1396559,2276.589 80.5586559,2276.924 C81.1086559,2277.365 84.6286559,2275.007 86.7386559,2272.367 C86.9646559,2272.085 87.1786559,2271.798 87.3856559,2271.509 L91.8886559,2275.405 L96.4116559,2280.593 C96.2766559,2280.718 96.1426559,2280.842 96.0086559,2280.975 C93.8216559,2283.136 91.9846559,2287.223 92.4046559,2287.557 C92.9446559,2287.992 96.3546559,2285.716 98.4726559,2283.133 L104.596656,2292.798 C102.483656,2294.997 100.749656,2298.877 101.159656,2299.205 C101.632656,2299.589 104.338656,2297.866 106.425656,2295.685 L117.639656,2313.382 L120.730656,2306.803 L107.975656,2269.184 C109.246656,2268.405 110.502656,2267.527 111.693656,2266.538 C119.165656,2260.326 119.464656,2257.946 119.464656,2257.946 C119.464656,2257.946 118.609656,2255.663 116.079656,2253.068 C113.553656,2250.473 110.759656,2250.331 110.759656,2250.331 C110.759656,2250.331 108.532656,2251.596 105.289656,2254.825 L104.572656,2243.547 C105.513656,2242.347 106.331656,2241.249 107.035656,2240.256 L119.184656,2228.31 C119.184656,2228.31 122.799656,2224.296 125.878656,2217.676 C128.300656,2212.464 129.855656,2206.544 129.967656,2204.051 L64.5596559,2268.352 L129.999656,2204 L129.999656,2204 Z M129.999656,2204" id="Shape"></path>
                    <g id="Group" transform="translate(19.499656, 2372.000000)">
                        <path d="M5.02,0.619 C2.247,0.619 0,2.85 0,5.638 L0,39.349 C0,42.123 2.226,44.369 5.02,44.369 L38.731,44.369 C41.504,44.369 43.75,42.139 43.75,39.349 L43.75,5.638 C43.75,2.865 41.523,0.619 38.731,0.619 L5.02,0.619 L5.02,0.619 Z M5.02,0.619" id="Shape"></path>
                        <path d="M61.271,0.619 C58.497,0.619 56.25,2.85 56.25,5.638 L56.25,39.349 C56.25,42.123 58.477,44.369 61.271,44.369 L94.981,44.369 C97.754,44.369 100.001,42.139 100.001,39.349 L100.001,5.638 C100.001,2.865 97.774,0.619 94.981,0.619 L61.271,0.619 L61.271,0.619 Z M61.271,0.619" id="Shape"></path>
                        <path d="M5.02,56.868 C2.247,56.868 0,59.101 0,61.888 L0,95.6 C0,98.373 2.226,100.619 5.02,100.619 L38.731,100.619 C41.504,100.619 43.75,98.389 43.75,95.6 L43.75,61.888 C43.75,59.115 41.523,56.868 38.731,56.868 L5.02,56.868 L5.02,56.868 Z M5.02,56.868" id="Shape"></path>
                        <path d="M61.271,56.868 C58.497,56.868 56.25,59.101 56.25,61.888 L56.25,95.6 C56.25,98.373 58.477,100.619 61.271,100.619 L94.981,100.619 C97.754,100.619 100.001,98.389 100.001,95.6 L100.001,61.888 C100.001,59.115 97.774,56.868 94.981,56.868 L61.271,56.868 L61.271,56.868 Z M61.271,56.868" id="Shape"></path>
                    </g>
                </g>
            </g>
        </g>
    </g>
</svg>