<?xml version="1.0" encoding="UTF-8" standalone="no"?>
<svg width="18px" height="18px" viewBox="0 0 18 18" version="1.1" xmlns="http://www.w3.org/2000/svg" xmlns:xlink="http://www.w3.org/1999/xlink">
    <title>Close_Active</title>
    <defs></defs>
    <g id="Assets" fill="#D8D8D8" fill-rule="evenodd">
        <g id="Close_Active">
            <path d="M1.28571429,16.7142857 C0.575633893,16.0042053 0.576659717,14.8519117 1.28889424,14.1396772 L6.42857143,9 L1.28889424,3.86032281 C0.576659717,3.14808829 0.575633893,1.99579468 1.28571429,1.28571429 C2.00074523,0.570683343 3.14848618,0.577057605 3.86032281,1.28889424 L9,6.42857143 L14.1396772,1.28889424 C14.8515138,0.577057605 15.9992548,0.570683343 16.7142857,1.28571429 C17.4243661,1.99579468 17.4233403,3.14808829 16.7111058,3.86032281 L11.5714286,9 L16.7111058,14.1396772 C17.4233403,14.8519117 17.4243661,16.0042053 16.7142857,16.7142857 C15.9992548,17.4293167 14.8515138,17.4229424 14.1396772,16.7111058 L9,11.5714286 L3.86032281,16.7111058 C3.14848618,17.4229424 2.00074523,17.4293167 1.28571429,16.7142857 Z M1.28571429,16.7142857" id="Rectangle 92" fill="#0096DC"></path>
        </g>
    </g>
</svg>