<?xml version="1.0" encoding="UTF-8" standalone="no"?>
<svg width="24px" height="22px" viewBox="0 0 24 22" version="1.1" xmlns="http://www.w3.org/2000/svg" xmlns:xlink="http://www.w3.org/1999/xlink">
    <title>List_View_Active</title>
    <defs></defs>
    <g id="Assets" fill="#D8D8D8" fill-rule="evenodd">
        <g id="List_View_Active">
            <g id="Group" fill="#D6D6D6">
                <g fill="#D8D8D8">
                    <path d="M7.99508929,1 C6.8932319,1 6,1.88772964 6,3 L6,3 C6,4.1045695 6.8926228,5 7.99508929,5 L22.0049107,5 C23.1067681,5 24,4.11227036 24,3 L24,3 C24,1.8954305 23.1073772,1 22.0049107,1 L7.99508929,1 Z M7.99508929,1" id="Rectangle 226" fill="#0096DC" transform="translate(15.000000, 3.000000) rotate(-180.000000) translate(-15.000000, -3.000000)"></path>
                    <path d="M2,1 C0.8954305,1 0,1.88772964 0,3 L0,3 C0,4.1045695 0.887729645,5 2,5 L2,5 C3.1045695,5 4,4.11227036 4,3 L4,3 C4,1.8954305 3.11227036,1 2,1 L2,1 Z M2,1" id="Rectangle 226" fill="#0096DC" transform="translate(2.000000, 3.000000) rotate(-180.000000) translate(-2.000000, -3.000000)"></path>
                </g>
                <g fill="#C7C7C7">
                    <path d="M7.99508929,9 C6.8932319,9 6,9.88772964 6,11 L6,11 C6,12.1045695 6.8926228,13 7.99508929,13 L22.0049107,13 C23.1067681,13 24,12.1122704 24,11 L24,11 C24,9.8954305 23.1073772,9 22.0049107,9 L7.99508929,9 Z M7.99508929,9" id="Rectangle 226" fill="#0096DC" transform="translate(15.000000, 11.000000) rotate(-180.000000) translate(-15.000000, -11.000000)"></path>
                    <path d="M2,9 C0.8954305,9 0,9.88772964 0,11 L0,11 C0,12.1045695 0.887729645,13 2,13 L2,13 C3.1045695,13 4,12.1122704 4,11 L4,11 C4,9.8954305 3.11227036,9 2,9 L2,9 Z M2,9" id="Rectangle 226" fill="#0096DC" transform="translate(2.000000, 11.000000) rotate(-180.000000) translate(-2.000000, -11.000000)"></path>
                </g>
                <g fill="#D8D8D8">
                    <path d="M7.99508929,17 C6.8932319,17 6,17.8877296 6,19 L6,19 C6,20.1045695 6.8926228,21 7.99508929,21 L22.0049107,21 C23.1067681,21 24,20.1122704 24,19 L24,19 C24,17.8954305 23.1073772,17 22.0049107,17 L7.99508929,17 Z M7.99508929,17" id="Rectangle 226" fill="#0096DC" transform="translate(15.000000, 19.000000) rotate(-180.000000) translate(-15.000000, -19.000000)"></path>
                    <path d="M2,17 C0.8954305,17 0,17.8877296 0,19 L0,19 C0,20.1045695 0.887729645,21 2,21 L2,21 C3.1045695,21 4,20.1122704 4,19 L4,19 C4,17.8954305 3.11227036,17 2,17 L2,17 Z M2,17" id="Rectangle 226" fill="#0096DC" transform="translate(2.000000, 19.000000) rotate(-180.000000) translate(-2.000000, -19.000000)"></path>
                </g>
            </g>
        </g>
    </g>
</svg>