<?xml version="1.0" encoding="UTF-8" standalone="no"?>
<svg width="64px" height="13px" viewBox="0 0 64 13" version="1.1" xmlns="http://www.w3.org/2000/svg" xmlns:xlink="http://www.w3.org/1999/xlink">
    <title>Ratings_Blue</title>
    <defs></defs>
    <g id="Assets" fill="#D8D8D8" fill-rule="evenodd">
        <g id="Ratings_Blue">
            <g id="Group">
                <path d="M31.9999999,9.75 L28.2381747,11.7586107 L28.9566192,7.50430536 L25.9132383,4.49138968 L30.1190878,3.87069432 L32.0000001,0 L33.8809135,3.87069528 L38.0867627,4.49139277 L35.0433806,7.50430617 L35.7618252,11.7586108 L31.9999999,9.75 Z M31.9999999,9.75" id="Star 1" fill="#0096DD"></path>
                <path d="M19.1999999,9.75 L15.4381747,11.7586107 L16.1566192,7.50430536 L13.1132383,4.49138968 L17.3190878,3.87069432 L19.2000001,0 L21.0809135,3.87069528 L25.2867627,4.49139277 L22.2433806,7.50430617 L22.9618252,11.7586108 L19.1999999,9.75 Z M19.1999999,9.75" id="Star 1" fill="#0096DD"></path>
                <path d="M6.39999986,9.75 L2.63817469,11.7586107 L3.35661919,7.50430536 L0.31323825,4.49138968 L4.5190878,3.87069432 L6.40000008,0 L8.2809135,3.87069528 L12.4867627,4.49139277 L9.44338055,7.50430617 L10.1618252,11.7586108 L6.39999986,9.75 Z M6.39999986,9.75" id="Star 1" fill="#0096DD"></path>
                <path d="M57.5999999,9.75 L53.8381747,11.7586107 L54.5566192,7.50430536 L51.5132383,4.49138968 L55.7190878,3.87069432 L57.6000001,0 L59.4809135,3.87069528 L63.6867627,4.49139277 L60.6433806,7.50430617 L61.3618252,11.7586108 L57.5999999,9.75 Z M57.5999999,9.75" id="Star 1" fill="#0096DC"></path>
                <path d="M44.7999999,9.75 L41.0381747,11.7586107 L41.7566192,7.50430536 L38.7132383,4.49138968 L42.9190878,3.87069432 L44.8000001,0 L46.6809135,3.87069528 L50.8867627,4.49139277 L47.8433806,7.50430617 L48.5618252,11.7586108 L44.7999999,9.75 Z M44.7999999,9.75" id="Star 1" fill="#0096DD"></path>
            </g>
        </g>
    </g>
</svg>