<?xml version="1.0" encoding="UTF-8" standalone="no"?>
<svg width="45px" height="9px" viewBox="0 0 45 9" version="1.1" xmlns="http://www.w3.org/2000/svg" xmlns:xlink="http://www.w3.org/1999/xlink">
    <title>Ratings_Blue_Small</title>
    <defs></defs>
    <g id="Assets" fill="#D8D8D8" fill-rule="evenodd">
        <g id="Ratings_Blue_Small">
            <g id="Group">
                <path d="M22.4999999,6.75 L19.8549666,8.14057663 L20.3601229,5.19528832 L18.2202456,3.10942362 L21.1774836,2.67971145 L22.5000001,0 L23.8225173,2.67971212 L26.7797551,3.10942577 L24.639877,5.19528889 L25.1450333,8.14057669 L22.4999999,6.75 Z M22.4999999,6.75" id="Star 1" fill="#0096DD"></path>
                <path d="M13.4999999,6.75 L10.8549666,8.14057663 L11.3601229,5.19528832 L9.22024564,3.10942362 L12.1774836,2.67971145 L13.5000001,0 L14.8225173,2.67971212 L17.7797551,3.10942577 L15.639877,5.19528889 L16.1450333,8.14057669 L13.4999999,6.75 Z M13.4999999,6.75" id="Star 1" fill="#0096DD"></path>
                <path d="M4.4999999,6.75 L1.85496658,8.14057663 L2.36012287,5.19528832 L0.220245645,3.10942362 L3.17748361,2.67971145 L4.50000005,0 L5.82251731,2.67971212 L8.77975505,3.10942577 L6.63987695,5.19528889 L7.14503334,8.14057669 L4.4999999,6.75 Z M4.4999999,6.75" id="Star 1" fill="#0096DD"></path>
                <path d="M40.4999999,6.75 L37.8549666,8.14057663 L38.3601229,5.19528832 L36.2202456,3.10942362 L39.1774836,2.67971145 L40.5000001,0 L41.8225173,2.67971212 L44.7797551,3.10942577 L42.639877,5.19528889 L43.1450333,8.14057669 L40.4999999,6.75 Z M40.4999999,6.75" id="Star 1" fill="#0096DD"></path>
                <path d="M31.4999999,6.75 L28.8549666,8.14057663 L29.3601229,5.19528832 L27.2202456,3.10942362 L30.1774836,2.67971145 L31.5000001,0 L32.8225173,2.67971212 L35.7797551,3.10942577 L33.639877,5.19528889 L34.1450333,8.14057669 L31.4999999,6.75 Z M31.4999999,6.75" id="Star 1" fill="#0096DD"></path>
            </g>
        </g>
    </g>
</svg>