<?xml version="1.0" encoding="UTF-8" standalone="no"?>
<svg width="24px" height="22px" viewBox="0 0 24 22" version="1.1" xmlns="http://www.w3.org/2000/svg" xmlns:xlink="http://www.w3.org/1999/xlink">
    <title>Screenshot_View_Active</title>
    <defs></defs>
    <g id="Assets" fill="#D8D8D8" fill-rule="evenodd">
        <g id="Screenshot_View">
            <g id="Group">
                <g fill="#C7C7C7">
                    <path d="M7.99508929,1 C6.8932319,1 6,1.88772964 6,3 L6,3 C6,4.1045695 6.8926228,5 7.99508929,5 L22.0049107,5 C23.1067681,5 24,4.11227036 24,3 L24,3 C24,1.8954305 23.1073772,1 22.0049107,1 L7.99508929,1 Z M7.99508929,1" id="Rectangle 226" fill="#0096DC" transform="translate(15.000000, 3.000000) rotate(-180.000000) translate(-15.000000, -3.000000)"></path>
                    <path d="M2,1 C0.8954305,1 0,1.88772964 0,3 L0,3 C0,4.1045695 0.887729645,5 2,5 L2,5 C3.1045695,5 4,4.11227036 4,3 L4,3 C4,1.8954305 3.11227036,1 2,1 L2,1 Z M2,1" id="Rectangle 226" fill="#0096DC" transform="translate(2.000000, 3.000000) rotate(-180.000000) translate(-2.000000, -3.000000)"></path>
                </g>
                <path d="M2.00494659,9 C0.897645164,9 0,9.90195036 0,11.0085302 L0,18.9914698 C0,20.1007504 0.897026226,21 2.00494659,21 L21.9950534,21 C23.1023548,21 24,20.0980496 24,18.9914698 L24,11.0085302 C24,9.8992496 23.1029738,9 21.9950534,9 L2.00494659,9 Z M2.00494659,9" id="Rectangle 226" fill="#0096DC" transform="translate(12.000000, 15.000000) rotate(-180.000000) translate(-12.000000, -15.000000)"></path>
            </g>
        </g>
    </g>
</svg>