<?xml version="1.0" encoding="utf-8"?>
<!DOCTYPE svg PUBLIC "-//W3C//DTD SVG 1.1//EN" "http://www.w3.org/Graphics/SVG/1.1/DTD/svg11.dtd">
<svg version="1.1" id="Layer_1" xmlns="http://www.w3.org/2000/svg" xmlns:xlink="http://www.w3.org/1999/xlink" x="0px" y="0px"
	 width="30px" height="30px" viewBox="0 0 30 30" enable-background="new 0 0 30 30" xml:space="preserve">
<g>
	<path fill-rule="evenodd" clip-rule="evenodd" fill="#C8C6C6" d="M28.882,18.146c-0.696-0.247-1.188-1.64-1.188-3.146
		c0-1.51,0.492-2.902,1.188-3.148l1.095-0.384c-0.39-1.636-1.009-3.182-1.872-4.57l-1.065,0.51
		c-0.665,0.319-1.996-0.316-3.063-1.383c-1.067-1.065-1.702-2.4-1.385-3.066l0.511-1.06c-1.39-0.859-2.924-1.513-4.561-1.896
		L18.15,1.12C17.902,1.816,16.508,2.306,15,2.306c-1.507,0-2.9-0.489-3.146-1.186L11.461,0c-1.639,0.387-3.159,1.06-4.55,1.923
		L7.41,2.959C7.732,3.625,7.093,4.96,6.026,6.025C4.96,7.092,3.627,7.728,2.96,7.408L1.922,6.909C1.059,8.301,0.386,9.82,0,11.459
		l1.121,0.394c0.698,0.246,1.188,1.639,1.188,3.148c0,1.506-0.489,2.898-1.188,3.146l-1.095,0.383
		c0.389,1.636,1.007,3.186,1.87,4.57l1.064-0.51c0.667-0.319,2,0.316,3.065,1.383c1.067,1.069,1.706,2.398,1.384,3.065l-0.511,1.062
		C8.29,28.964,9.824,29.613,11.462,30l0.392-1.119c0.246-0.693,1.64-1.187,3.146-1.187c1.508,0,2.901,0.493,3.149,1.187l0.383,1.096
		c1.636-0.39,3.182-1.01,4.571-1.872l-0.513-1.066c-0.317-0.667,0.317-1.996,1.385-3.065c1.067-1.066,2.398-1.702,3.063-1.383
		l1.063,0.51c0.859-1.389,1.511-2.925,1.896-4.561L28.882,18.146z M15,23.133c-4.492,0-8.135-3.641-8.135-8.132
		c0-4.495,3.643-8.139,8.135-8.139c4.494,0,8.138,3.644,8.138,8.139C23.138,19.492,19.495,23.133,15,23.133z"/>
</g>
</svg>
