<?xml version="1.0" encoding="UTF-8" standalone="no"?>
<svg width="521px" height="40px" viewBox="0 0 521 40" version="1.1" xmlns="http://www.w3.org/2000/svg" xmlns:xlink="http://www.w3.org/1999/xlink" xmlns:sketch="http://www.bohemiancoding.com/sketch/ns">
    <title>Review_Stars_large</title>
    <description>Created with Sketch (http://www.bohemiancoding.com/sketch)</description>
    <defs></defs>
    <g id="Assets" stroke="none" stroke-width="1" fill="none" fill-rule="evenodd">
        <g id="Review_Stars_large">
            <g id="Group" transform="translate(-1.000000, 0.000000)">
                <path d="M128,33 L115.547061,39.7983746 L117.92536,25.3991874 L107.85072,15.2016266 L121.773532,13.1008116 L128,2.44249065e-15 L134.226472,13.1008148 L148.149284,15.2016371 L138.074639,25.3991901 L140.452939,39.7983749 L128,33 Z M128,33" id="Star 1" fill="#0096DD"></path>
                <path d="M74.593103,33 L62.1401645,39.7983746 L64.5184635,25.3991874 L54.4438232,15.2016266 L68.3666355,13.1008116 L74.5931037,2.44249065e-15 L80.8195757,13.1008148 L94.742387,15.2016371 L84.6677425,25.3991901 L87.046042,39.7983749 L74.593103,33 Z M74.593103,33" id="Star 1" fill="#0096DD"></path>
                <path d="M21.1862064,33 L8.73326793,39.7983746 L11.111567,25.3991874 L1.03692662,15.2016266 L14.9597389,13.1008116 L21.1862071,2.44249065e-15 L27.4126792,13.1008148 L41.3354904,15.2016371 L31.260846,25.3991901 L33.6391455,39.7983749 L21.1862064,33 Z M21.1862064,33" id="Star 1" fill="#0096DD"></path>
                <path d="M234.813793,33 L222.360854,39.7983746 L224.739153,25.3991874 L214.664513,15.2016266 L228.587325,13.1008116 L234.813793,2.44249065e-15 L241.040265,13.1008148 L254.963077,15.2016371 L244.888432,25.3991901 L247.266732,39.7983749 L234.813793,33 Z M234.813793,33" id="Star 1" fill="#0096DC"></path>
                <path d="M181.406896,33 L168.953958,39.7983746 L171.332257,25.3991874 L161.257616,15.2016266 L175.180429,13.1008116 L181.406897,-1.56569914e-15 L187.633369,13.1008148 L201.55618,15.2016371 L191.481536,25.3991901 L193.859835,39.7983749 L181.406896,33 Z M181.406896,33" id="Star 1" fill="#0096DD"></path>
            </g>
            <g id="Group" transform="translate(266.000000, 0.000000)" fill="#A7A7A7">
                <path d="M128,33 L115.547061,39.7983746 L117.92536,25.3991874 L107.85072,15.2016266 L121.773532,13.1008116 L128,2.44249065e-15 L134.226472,13.1008148 L148.149284,15.2016371 L138.074639,25.3991901 L140.452939,39.7983749 L128,33 Z M128,33" id="Star 1"></path>
                <path d="M74.593103,33 L62.1401645,39.7983746 L64.5184635,25.3991874 L54.4438232,15.2016266 L68.3666355,13.1008116 L74.5931037,2.44249065e-15 L80.8195757,13.1008148 L94.742387,15.2016371 L84.6677425,25.3991901 L87.046042,39.7983749 L74.593103,33 Z M74.593103,33" id="Star 1"></path>
                <path d="M21.1862064,33 L8.73326793,39.7983746 L11.111567,25.3991874 L1.03692662,15.2016266 L14.9597389,13.1008116 L21.1862071,2.44249065e-15 L27.4126792,13.1008148 L41.3354904,15.2016371 L31.260846,25.3991901 L33.6391455,39.7983749 L21.1862064,33 Z M21.1862064,33" id="Star 1"></path>
                <path d="M234.813793,33 L222.360854,39.7983746 L224.739153,25.3991874 L214.664513,15.2016266 L228.587325,13.1008116 L234.813793,2.44249065e-15 L241.040265,13.1008148 L254.963077,15.2016371 L244.888432,25.3991901 L247.266732,39.7983749 L234.813793,33 Z M234.813793,33" id="Star 1"></path>
                <path d="M181.406896,33 L168.953958,39.7983746 L171.332257,25.3991874 L161.257616,15.2016266 L175.180429,13.1008116 L181.406897,-1.56569914e-15 L187.633369,13.1008148 L201.55618,15.2016371 L191.481536,25.3991901 L193.859835,39.7983749 L181.406896,33 Z M181.406896,33" id="Star 1"></path>
            </g>
        </g>
    </g>
</svg>