<?xml version="1.0" encoding="UTF-8" standalone="no"?>
<svg width="150px" height="36px" viewBox="0 0 150 36" version="1.1" xmlns="http://www.w3.org/2000/svg" xmlns:xlink="http://www.w3.org/1999/xlink">
    <title>Tab</title>
    <defs>
        <linearGradient x1="50%" y1="0%" x2="50%" y2="100%" id="linearGradient-1">
            <stop stop-color="#FF9500" offset="0%"></stop>
            <stop stop-color="#E66000" offset="100%"></stop>
        </linearGradient>
        <path d="M73.6609717,6.5004833 C73.6609717,6.5004833 73.7773454,6.5004833 74,6.5004833 C78.6447988,6.50048322 129.541069,6.50048247 135.062456,6.5004833 C140.848518,6.50048416 122.946009,5.49832958 118.584953,20.4754225 C114.223879,35.4525154 104.170617,35.9999999 99.2996548,35.9999997 L74.3390283,36 L74,36 L73.6609717,36 L48.7003452,35.9999997 C43.8293828,35.9999999 33.7761206,35.4525154 29.4150466,20.4754225 C25.0539911,5.49832958 7.15148232,6.50048416 12.9375442,6.5004833 C18.4589311,6.50048247 69.3552014,6.50048322 73.6609717,6.5004833 Z M73.6609717,6.5004833" id="path-2"></path>
        <path d="M0,0 L0,7 L150,7 L150,0 L0,0 Z M0,0" id="path-3"></path>
    </defs>
    <g id="Assets" fill="#D8D8D8" fill-rule="evenodd">
        <g id="Tab">
            <use id="Path 3" fill="url(#linearGradient-1)" xlink:href="#path-2"></use>
            <use id="Path 3-1" stroke="none" fill="none" xlink:href="#path-2"></use>
            <use id="Rectangle 26" fill="#FF9500" xlink:href="#path-3"></use>
            <use id="Rectangle 26-1" stroke="none" fill="none" xlink:href="#path-3"></use>
        </g>
    </g>
</svg>