
<svg width="46px" height="46px" viewBox="0 0 46 46" version="1.1" xmlns="http://www.w3.org/2000/svg" xmlns:xlink="http://www.w3.org/1999/xlink">
    <!-- Generator: Sketch 41 (35326) - http://www.bohemiancoding.com/sketch -->
    <desc>Created with Sketch.</desc>
    <defs></defs>
    <path d="M30.9396266,37.1806419 L30.9396266,29.6091212 C30.9396266,29.6091212 31.1529089,27.6362602 32.4326025,27.6362602 C33.7122962,27.6362602 33.605655,29.7157623 36.0050806,29.7157623 C37.2314537,29.7157623 39.3109559,29.0759155 39.3109559,25.3434757 C39.3109559,21.6110359 37.2314537,21.1311508 36.0050806,21.1311508 C33.605655,21.1311508 33.7122962,23.1040118 32.4326025,23.1040118 C31.1529089,23.1040118 30.9396266,21.0778302 30.9396266,21.0778302 L30.9396266,17.9852372 C30.9396266,16.8121847 29.9798564,15.8524145 28.8068039,15.8524145 L23.2081442,15.8524145 C23.2081442,15.8524145 21.3952448,15.5324911 21.3952448,14.2527974 C21.3952448,12.9731038 23.4214264,12.8664626 23.4214264,10.467037 C23.4214264,9.24066396 22.728259,7.32112349 18.9958192,7.32112349 C15.2633794,7.32112349 14.7301737,9.24066396 14.7301737,10.467037 C14.7301737,12.8664626 16.5430731,12.9731038 16.5430731,14.2527974 C16.5430731,15.5324911 14.7301737,15.8524145 14.7301737,15.8524145 L9.61139915,15.8524145 C8.43834664,15.8524145 7.4785764,16.8121847 7.4785764,17.9852372 L7.4785764,22.1442416 C7.4785764,22.1442416 7.26529413,25.3434757 9.82468142,25.3434757 C11.4776191,25.3434757 11.5309396,23.1573324 13.7170829,23.1573324 C14.7834943,23.1573324 15.8499057,24.1704232 15.8499057,26.3565665 C15.8499057,28.5960304 14.7834943,29.7157623 13.7170829,29.7157623 C11.5842602,29.7157623 11.4776191,27.529619 9.82468142,27.529619 C7.26529413,27.529619 7.4785764,30.622212 7.4785764,30.622212 L7.4785764,37.1806419 C7.4785764,38.3536945 8.43834664,39.3134647 9.61139915,39.3134647 L16.5430731,39.3134647 C16.5430731,39.3134647 19.9022689,39.526747 19.9022689,36.9673597 C19.9022689,35.314422 17.7694462,35.0478192 17.7694462,32.8616759 C17.7694462,31.7952645 18.9424987,30.4622503 21.1819625,30.4622503 C23.4214264,30.4622503 24.7011201,31.7952645 24.7011201,32.8616759 C24.7011201,34.9944986 22.6216179,35.314422 22.6216179,36.9673597 C22.6216179,39.5800675 25.9808137,39.3134647 25.9808137,39.3134647 L28.8068039,39.3134647 C29.9798564,39.3134647 30.9396266,38.3536945 30.9396266,37.1806419 Z" id="Shape" stroke="none" fill="#FFFFFF" fill-rule="evenodd" transform="translate(23.392590, 23.321123) rotate(-45.000000) translate(-23.392590, -23.321123) "></path>
</svg>
