<?xml version="1.0" encoding="UTF-8"?>
<svg viewBox="0 0 360 351" xmlns="http://www.w3.org/2000/svg">
  <path d="M159.8 18.7L116.4 62s-16.7 12.3-26.8-.3C74.8 43 101.6 32 79 8.7 61.6-9 30.6 4 16 18.7 1 33.3-7 63 8.7 79.2c11.3 11.4 23 9.2 32.2 8 4-.4 7.2-1 9.6-.5 8 1.4 14 6.2 14.5 15 .7 8.6-5.4 16-5.4 16S6 166.8 5 175.6c-.7 8.6 5.3 13.3 5.3 13.3l34 35.6s17.3 8 27.8-1.4c17-15.2-5-33 12.4-51 13.2-13.6 40.2-7.6 57.8 9.7 17.2 16.8 26.2 43.7 10 59.6-8.8 8.6-19.8 7.8-29.7 7-8.5-.6-16.2-1.2-21.3 3.8-10 10-3.3 23.7-3.3 23.7s60 62 64.8 66.5c4.7 4.6 8 8 17.2 8s12.5-3.4 17.3-8C202 338 262 276 262 276s7-13.7-3.2-23.6c-5-5-12.8-4.4-21.2-3.7-10 .7-21 1.5-29.8-7-16.2-16-7-43 10-59.8 17.6-17.4 44.6-23.4 57.8-10 17.5 18.2-4.6 36 12.3 51.2 10.5 9.5 27.7 1.4 27.7 1.4l34-35.6s6-4.7 5.3-13.4c-.8-8.7-54.5-58-54.5-58s-6.2-7.3-5.6-16c.5-8.7 6.5-13.5 14.5-15 2.3-.3 5.6.2 9.5.7 9.3 1 21 3.3 32.2-8 16-16.4 7.8-46-7-60.6-15-14.6-46-27.7-63-10-22.8 23.4 4 34.4-10.8 53-10 12.6-26.8.3-26.8.3l-43.4-43.3C196 14.5 189 6.5 180 6.5s-16 8-20.2 12.2z" fill="#fff" fill-rule="evenodd"/>
</svg>
