<svg xmlns="http://www.w3.org/2000/svg" width="13" height="13" viewBox="0 0 13 13">
  <path fill="#FFF" d="M12.61,0.39 C12.09,-0.13 11.31,-0.13 10.79,0.39 L6.5,4.68 L2.21,0.39 C1.69,-0.13 0.91,-0.13 0.39,0.39 C-0.13,0.91 -0.13,1.69 0.39,2.21 L4.68,6.5 L0.39,10.79 C-0.13,11.31 -0.13,12.09 0.39,12.61 C0.65,12.87 0.91,13 1.3,13 C1.69,13 1.95,12.87 2.21,12.61 L6.5,8.32 L10.79,12.61 C11.05,12.87 11.44,13 11.7,13 C11.96,13 12.35,12.87 12.61,12.61 C13.13,12.09 13.13,11.31 12.61,10.79 L8.32,6.5 L12.61,2.21 C13.13,1.69 13.13,0.91 12.61,0.39 Z"/>
</svg>
