<!-- This Source Code Form is subject to the terms of the Mozilla Public
   - License, v. 2.0. If a copy of the MPL was not distributed with this
   - file, You can obtain one at http://mozilla.org/MPL/2.0/. -->
<svg xmlns="http://www.w3.org/2000/svg" width="16" height="16" viewBox="0 0 16 16"><path fill="context-fill" d="M15.207 2.793a1 1 0 0 0-.932-.268l-6.5 1.5a1 1 0 1 0 .45 1.949l3.1-.716L6.5 10.086 5.207 8.793a1 1 0 0 0-1.414 0l-3 3a1 1 0 1 0 1.414 1.414L4.5 10.914l1.293 1.293a1 1 0 0 0 1.414 0l5.535-5.535-.716 3.1a1 1 0 0 0 .75 1.2A1.025 1.025 0 0 0 13 11a1 1 0 0 0 .974-.775l1.5-6.5a1 1 0 0 0-.267-.932z"></path></svg>