<svg width="800" height="148" xmlns:xlink="http://www.w3.org/1999/xlink" xmlns="http://www.w3.org/2000/svg"><defs><clipPath id="E"><use xlink:href="#a"/></clipPath><clipPath id="F"><use xlink:href="#b"/></clipPath><clipPath id="G"><use xlink:href="#c"/></clipPath><clipPath id="H"><use xlink:href="#d"/></clipPath><clipPath id="I"><use xlink:href="#e"/></clipPath><clipPath id="J"><use xlink:href="#f"/></clipPath><clipPath id="K"><use xlink:href="#g"/></clipPath><clipPath id="L"><use xlink:href="#h"/></clipPath><clipPath id="M"><use xlink:href="#i"/></clipPath><clipPath id="P"><use xlink:href="#j"/></clipPath><clipPath id="S"><use xlink:href="#k"/></clipPath><clipPath id="V"><use xlink:href="#l"/></clipPath><clipPath id="Y"><use xlink:href="#m"/></clipPath><clipPath id="ab"><use xlink:href="#n"/></clipPath><clipPath id="ae"><use xlink:href="#o"/></clipPath><clipPath id="af"><use xlink:href="#p"/></clipPath><clipPath id="ag"><use xlink:href="#q"/></clipPath><clipPath id="ah"><use xlink:href="#r"/></clipPath><clipPath id="ai"><use xlink:href="#s"/></clipPath><clipPath id="aj"><use xlink:href="#t"/></clipPath><clipPath id="ak"><use xlink:href="#u"/></clipPath><clipPath id="al"><use xlink:href="#v"/></clipPath><clipPath id="am"><use xlink:href="#w"/></clipPath><clipPath id="an"><use xlink:href="#x"/></clipPath><clipPath id="ao"><use xlink:href="#y"/></clipPath><clipPath id="ap"><use xlink:href="#z"/></clipPath><clipPath id="aq"><use xlink:href="#A"/></clipPath><clipPath id="ar"><use xlink:href="#B"/></clipPath><clipPath id="as"><use xlink:href="#C"/></clipPath><clipPath id="at"><use xlink:href="#D"/></clipPath><path d="M4.168 0l-.024 51.462s36.134-16.1 40.81 18.104c4.17 30.486-27.311 42.531-27.311 42.531s18.151 3.621 14.661 21.748C28.887 151.732 0 164.911 0 164.911v44.825L4.168 0z" transform="translate(.757 .747)" id="a"/><path d="M.049 2.414L0 214.515a2.426 2.426 0 002.423 2.414 2.426 2.426 0 002.424-2.414L4.895 2.414A2.426 2.426 0 002.472 0 2.426 2.426 0 00.049 2.414zm10.638.893v28.966c0 .675.534 1.206 1.212 1.206.679 0 1.212-.53 1.212-1.206V3.307c0-.676-.533-1.207-1.212-1.207-.678 0-1.212.531-1.212 1.207zm13.28 47.962c0-.603.461-1.134 1.067-1.207a41.686 41.686 0 012.496-.217c.679-.048 1.236.459 1.285 1.135a1.23 1.23 0 01-1.14 1.279c-.8.048-1.575.12-2.35.217a1.235 1.235 0 01-1.357-1.062v-.145zm-13.28 3.5v-3.186c0-.676.534-1.207 1.212-1.207.679 0 1.212.531 1.212 1.207v1.4a97.544 97.544 0 012.23-.772 1.237 1.237 0 011.526.772 1.228 1.228 0 01-.775 1.52c-2.254.725-3.684 1.352-3.708 1.352-.364.17-.8.145-1.164-.096a1.127 1.127 0 01-.533-.99zm35.261 3.693c0-.362.146-.7.46-.941a1.203 1.203 0 011.697.193c3.005 3.717 4.944 8.786 5.792 15.014.655 4.755.485 9.341-.484 13.662a1.22 1.22 0 01-2.375-.53c.896-4.056 1.066-8.353.436-12.818-.8-5.793-2.569-10.452-5.283-13.831a1.375 1.375 0 01-.243-.749zm-8.797 48.494a1.15 1.15 0 00-.46.941c0 .266.097.531.29.748a1.205 1.205 0 001.697.194 47.195 47.195 0 005.428-5.069c.461-.507.437-1.256-.072-1.714a1.225 1.225 0 00-1.72.072c-1.528 1.69-3.272 3.307-5.163 4.828zm-9.984 6.324a1.192 1.192 0 00-.679 1.086 1.01 1.01 0 00.121.531 1.213 1.213 0 001.624.555c.63-.313 1.381-.675 2.205-1.134a1.22 1.22 0 00.485-1.641 1.228 1.228 0 00-1.648-.483c-.8.434-1.502.796-2.108 1.086zm2.35 39.997c0-.29.122-.604.34-.845 5.016-5.214 8.046-10.428 9.015-15.521.654-3.476.533-6.638-.388-9.365a1.178 1.178 0 01.776-1.521 1.196 1.196 0 011.526.772c1.043 3.138 1.212 6.711.46 10.597-1.065 5.552-4.313 11.176-9.644 16.728a1.227 1.227 0 01-1.721.048c-.218-.266-.364-.58-.364-.893zM9.21 168.218v1.352c0 .676.533 1.207 1.212 1.207.678 0 1.212-.531 1.212-1.207v-.628a84.51 84.51 0 004.58-2.655c.557-.362.751-1.11.388-1.665a1.225 1.225 0 00-1.673-.387 77.214 77.214 0 01-5.04 2.897 1.234 1.234 0 00-.679 1.086zm0 13.421v-2.414c0-.676.533-1.207 1.212-1.207.678 0 1.212.531 1.212 1.207v2.414c0 .676-.534 1.207-1.212 1.207a1.198 1.198 0 01-1.212-1.207zm-.024 31.403v-9.679c0-.676.533-1.207 1.212-1.207.678 0 1.211.531 1.211 1.207v9.679c0 .676-.533 1.207-1.211 1.207a1.213 1.213 0 01-1.212-1.207z" transform="translate(.078 .308)" id="b"/><path d="M.013 52.797a47.89 47.89 0 017.163-26.362 43.133 43.133 0 006.578-24.019C13.754 1.087 14.851 0 16.191 0c1.34 0 2.436 1.087 2.436 2.416a47.783 47.783 0 01-7.163 26.314A43.134 43.134 0 004.886 52.75a43.134 43.134 0 006.578 24.018 47.783 47.783 0 017.163 26.315 47.786 47.786 0 01-7.163 26.314 47.207 47.207 0 000 48.012 51.917 51.917 0 010 52.628 47.14 47.14 0 000 48.038 51.917 51.917 0 010 52.628 43.134 43.134 0 00-6.578 24.018c0 1.329-1.096 2.416-2.436 2.416-1.34 0-2.437-1.087-2.437-2.416a47.785 47.785 0 017.163-26.314 47.138 47.138 0 000-48.037 51.917 51.917 0 010-52.628 47.138 47.138 0 000-48.037 51.917 51.917 0 010-52.628 43.108 43.108 0 006.578-23.994c.195-8.458-2.07-16.794-6.578-23.97A47.784 47.784 0 01.013 52.796z" transform="translate(.294 .375)" id="c"/><path d="M14.374 1.457c0-.628.415-1.208 1.048-1.4a1.496 1.496 0 011.827.966c.877 2.923 1.413 6.016 1.633 9.423.097.798-.56 1.498-1.365 1.547-.804.048-1.51-.556-1.56-1.353-.194-3.19-.681-6.065-1.51-8.772a1.332 1.332 0 01-.073-.41zm1 20.612c0-.072 0-.17.024-.242.121-.7.219-1.45.316-2.199a1.49 1.49 0 011.633-1.28c.804.096 1.388.846 1.29 1.619-.096.821-.218 1.595-.34 2.368-.146.797-.902 1.329-1.681 1.184-.731-.145-1.243-.75-1.243-1.45zM.535 55.415c-.024.096-.024.169-.024.266a1.477 1.477 0 001.193 1.45c.382.07.776-.013 1.095-.23.32-.218.54-.552.61-.93 1.316-6.936 4.167-11.357 7.188-16.045l.146-.218a1.44 1.44 0 00-.438-2.005 1.47 1.47 0 00-2.022.435l-.147.217C5.092 43.043 1.95 47.924.536 55.415zm.78 12.637A1.467 1.467 0 000 69.502v.145c.317 3.359.999 6.427 2.046 9.351a1.47 1.47 0 001.877.894c.78-.29 1.169-1.111.9-1.86-.974-2.707-1.583-5.558-1.9-8.675a1.486 1.486 0 00-1.607-1.305zM6.09 86.803c0-.483.244-.966.706-1.233a1.504 1.504 0 012.022.484c.415.652.804 1.305 1.219 1.933a1.44 1.44 0 01-.439 2.006 1.466 1.466 0 01-2.022-.435c-.414-.653-.828-1.305-1.242-1.982a1.21 1.21 0 01-.244-.773zm10.346 17.182a1.458 1.458 0 00-1.307 1.448c0 .097 0 .194.048.314.585 2.803.877 5.824.877 9.182 0 3.142-.268 5.969-.78 8.626a1.451 1.451 0 001.17 1.692 1.461 1.461 0 001.706-1.159c.56-2.852.828-5.848.828-9.183 0-3.576-.317-6.766-.95-9.786a1.465 1.465 0 00-1.592-1.134zM5.384 143.756a1.544 1.544 0 00-.195.726c0 .507.268.99.707 1.231.706.387 1.583.17 1.998-.531.877-1.474 1.778-2.875 2.68-4.277.755-1.16 1.51-2.344 2.241-3.552a1.428 1.428 0 00-.511-1.981 1.474 1.474 0 00-1.998.507c-.707 1.184-1.462 2.32-2.193 3.479-.926 1.451-1.852 2.876-2.729 4.398zM.828 155.162c0-.097.025-.218.05-.339.194-.797.389-1.571.608-2.319a1.456 1.456 0 011.827-.967c.78.241 1.219 1.039.975 1.812-.22.677-.414 1.402-.585 2.151-.17.773-.974 1.256-1.754 1.087a1.496 1.496 0 01-1.12-1.425zM.39 173.55a1.454 1.454 0 011.218-1.426 1.43 1.43 0 011.681 1.185c1.267 7.272 4.24 11.863 7.114 16.31a1.44 1.44 0 01-.438 2.005 1.466 1.466 0 01-2.023-.435c-2.899-4.47-6.163-9.544-7.528-17.397 0-.073-.024-.17-.024-.242zm14.97 27.727a1.469 1.469 0 00-1.254 1.414c0 .145.025.29.073.483.902 2.707 1.462 5.558 1.706 8.723.073.798.78 1.402 1.583 1.33.804-.073 1.438-.726 1.34-1.571-.267-3.407-.877-6.476-1.827-9.4a1.478 1.478 0 00-1.621-.979zm.184 21.784c-.025.072-.025.145-.025.218 0 .7.512 1.328 1.267 1.425.78.121 1.535-.41 1.657-1.208.122-.774.22-1.546.292-2.368.041-.385-.075-.77-.322-1.07a1.469 1.469 0 00-.993-.525 1.47 1.47 0 00-1.608 1.305c-.073.773-.17 1.498-.268 2.223zM4.196 246.973h3.315c.96-1.704 2-3.32 3.063-4.968l.609-.966a1.44 1.44 0 00-.439-2.006 1.474 1.474 0 00-1.102-.2c-.38.082-.71.31-.92.635l-.609.967c-1.334 2.078-2.693 4.187-3.917 6.538z" transform="translate(.436 .027)" id="d"/><path d="M19.932 151.056H0L3 0l-.025 51.462s36.1-16.1 40.773 18.103c4.165 30.487-27.287 42.532-27.287 42.532s18.135 3.62 14.648 21.749c-1.239 6.492-5.83 12.363-11.177 17.21z" transform="translate(.987 .944)" id="e"/><path d="M0 153.47h4.842L4.877 2.414A2.425 2.425 0 002.456 0 2.425 2.425 0 00.035 2.414L0 153.47zM10.664 32.273V3.307c0-.675.532-1.207 1.21-1.207.678 0 1.21.531 1.21 1.207v28.966c0 .675-.532 1.207-1.21 1.207-.678 0-1.21-.556-1.21-1.207zm14.333 17.79a1.224 1.224 0 00-1.065 1.207v.144c.088.663.69 1.134 1.356 1.062.774-.096 1.55-.169 2.348-.217a1.229 1.229 0 001.138-1.279c-.048-.676-.605-1.183-1.283-1.135-.848.049-1.67.12-2.494.217zm-14.333 1.52v3.186c0 .411.169.749.532.99.363.242.8.266 1.162.097.025 0 1.453-.628 3.705-1.352.63-.217.968-.893.775-1.52a1.235 1.235 0 00-1.526-.773c-.871.29-1.622.555-2.227.773v-1.4c0-.676-.533-1.208-1.21-1.208-.679 0-1.211.532-1.211 1.207zm43.178 21.184V83.69a35.52 35.52 0 01-.493 2.677 1.218 1.218 0 01-2.373-.53c.896-4.056 1.066-8.352.436-12.818-.799-5.793-2.566-10.452-5.278-13.831a1.204 1.204 0 01-.242-.749c0-.361.145-.7.46-.94a1.2 1.2 0 011.695.192c3.002 3.717 4.939 8.787 5.786 15.014l.009.063zm-16.739 34.189c-.315.241-.46.579-.46.942 0 .265.097.53.29.748a1.203 1.203 0 001.695.193 47.168 47.168 0 005.424-5.069c.46-.507.436-1.256-.073-1.714a1.224 1.224 0 00-1.719.072c-1.525 1.69-3.268 3.307-5.157 4.828zm-10.653 7.411c0-.459.242-.87.678-1.087a45.35 45.35 0 002.106-1.086 1.227 1.227 0 011.646.483 1.22 1.22 0 01-.484 1.641c-.823.459-1.573.821-2.203 1.135a1.209 1.209 0 01-1.743-1.086zm3.044 39.103h2.68c4.962-5.34 7.997-10.741 9.02-16.076.751-3.886.582-7.458-.46-10.597a1.194 1.194 0 00-1.525-.772 1.183 1.183 0 00-.774 1.521c.92 2.727 1.04 5.889.387 9.365-.969 5.093-3.995 10.307-9.007 15.521a1.293 1.293 0 00-.339.845c0 .064.006.129.018.193z" transform="translate(.158 .53)" id="f"/><path d="M.358 37.491l13.001-34.02A5.4 5.4 0 0120.326.357l46.736 17.858a5.412 5.412 0 013.123 6.981L62.09 46.38a5.4 5.4 0 01-2.84 3.006l-17.682 7.936a5.378 5.378 0 01-4.142.116L3.488 44.465a5.389 5.389 0 01-3.13-6.974z" transform="translate(.013 .01)" id="g"/><path d="M12.803 32.336a3.344 3.344 0 01-4.418-1.667L.297 12.804a3.341 3.341 0 011.667-4.42L19.828.298a3.341 3.341 0 014.419 1.667 3.341 3.341 0 01-1.667 4.419l-10.512 4.76 41.08 15.478a3.354 3.354 0 011.95 4.31 3.353 3.353 0 01-4.31 1.95L9.71 17.406l4.761 10.512a3.342 3.342 0 01-1.667 4.419z" transform="translate(.11 .019)" id="h"/><path d="M4.966 0l16.321 6.15a3.354 3.354 0 011.951 4.309 3.353 3.353 0 01-4.31 1.95L0 5.28 4.966 0z" transform="translate(.086 .02)" id="i"/><path d="M32.796 15.011c-9.871 4.558-20.944 5.045-31.157 1.369A2.461 2.461 0 01.16 13.184L3.444 4.47c.051.13.124.262.211.393.335.488.881.895 1.522 1.128 10.497 3.83 21.431 4.543 30.771 2.017C41.815 6.42 46.635 3.669 50.107 0c-4.186 6.5-10.133 11.699-17.311 15.011z" transform="translate(.088 .293)" id="j"/><path d="M2.308 10.537c-.634-.247-1.31-.305-1.886-.16a2.42 2.42 0 00-.422.16l3.37-8.94c.234-.62.706-1.12 1.31-1.39A2.508 2.508 0 016.589.171c10.104 3.99 18.097 11.655 22.509 21.592 3.29 7.411 4.302 15.455 3.021 23.289-.117-5.155-1.915-10.535-5.358-15.718-5.35-8.066-14.035-14.742-24.452-18.797z" transform="translate(.1 .26)" id="k"/><path d="M1.747 17.923c-.64-.233-1.186-.64-1.536-1.128A1.876 1.876 0 010 16.402L6.18 0c.088.131.226.27.415.415.4.298.976.604 1.61.837C18.534 5.09 28.681 7.477 36.77 7.964c6.58.4 11.188-.487 13.322-2.526a41.757 41.757 0 01-3.415 6.494c-3.472 3.669-8.291 6.42-14.159 8.008-9.34 2.526-20.266 1.805-30.77-2.017z" transform="translate(.202 .108)" id="l"/><path d="M.597 15.621a1.695 1.695 0 00-.597.037L5.81.238a1.95 1.95 0 01.421-.16c.575-.145 1.26-.087 1.893.16C18.541 4.302 27.226 10.97 32.577 19.037c3.443 5.183 5.241 10.563 5.357 15.717a41.586 41.586 0 01-1.36 5.722c-.3-2.926-3.167-6.603-8.329-10.614-6.399-4.972-15.593-9.879-25.886-13.81-.626-.24-1.267-.393-1.762-.43z" transform="translate(.3 .023)" id="m"/><path d="M45.214 24.86c-.233.742-.48 1.484-.75 2.22-.174.458-.364.91-.553 1.361-2.14 2.031-6.748 2.927-13.322 2.526-8.095-.495-18.235-2.875-28.565-6.712-.634-.233-1.209-.531-1.609-.837A1.85 1.85 0 010 23.003L8.648.042c.153-.036.35-.051.59-.036.502.036 1.136.189 1.762.43 10.293 3.938 19.487 8.837 25.886 13.81 5.161 4.003 8.03 7.687 8.328 10.613z" transform="translate(.08 .278)" id="n"/><path d="M.644 67.656l23.38-61.39c1.91-5.02 7.527-7.542 12.527-5.623l84.042 32.225c5.014 1.918 7.527 7.568 5.616 12.6l-14.557 38.23a9.732 9.732 0 01-5.105 5.425L74.75 103.442a9.64 9.64 0 01-7.449.211L6.273 80.242A9.705 9.705 0 01.85 75.124a9.758 9.758 0 01-.206-7.468z" transform="translate(.024 .018)" id="o"/><path d="M23.023 58.353a6.005 6.005 0 01-7.946-3.008L.534 23.105C-.831 20.074.51 16.505 3.53 15.132L35.657.536a6 6 0 017.946 3.008c1.364 3.033.023 6.602-2.998 7.974L21.701 20.11l73.87 27.93c3.103 1.183 4.674 4.664 3.51 7.778-1.179 3.113-4.648 4.69-7.75 3.52L17.46 31.408l8.561 18.97c1.365 3.034.023 6.602-2.998 7.975z" transform="translate(.198 .034)" id="p"/><path d="M8.93 0l29.35 11.097c3.102 1.182 4.673 4.664 3.508 7.777-1.179 3.114-4.648 4.69-7.75 3.52L0 9.526 8.93 0z" transform="translate(.155 .037)" id="q"/><path d="M58.975 27.089c-17.75 8.224-37.662 9.104-56.028 2.47A4.431 4.431 0 01.41 27.236a4.456 4.456 0 01-.12-3.445L6.195 8.066c.091.237.222.473.38.71.601.88 1.583 1.615 2.735 2.036 18.877 6.91 38.54 8.198 55.335 3.639C75.194 11.587 83.86 6.62 90.103 0c-7.526 11.732-18.221 21.111-31.129 27.089z" transform="translate(.16 .528)" id="r"/><path d="M4.15 19.016c-1.14-.447-2.357-.552-3.39-.29-.276.08-.524.171-.76.29L6.061 2.883A4.473 4.473 0 018.417.373a4.496 4.496 0 013.43-.065c18.17 7.2 32.543 21.033 40.476 38.965C58.24 52.647 60.06 67.164 57.756 81.3c-.21-9.301-3.443-19.01-9.635-28.364C38.5 38.38 22.882 26.333 4.15 19.016z" transform="translate(.18 .47)" id="s"/><path d="M3.142 32.344c-1.152-.42-2.134-1.156-2.762-2.036a3.385 3.385 0 01-.38-.71L11.114 0c.157.237.406.486.746.749.72.538 1.754 1.09 2.893 1.51C33.33 9.184 51.577 13.493 66.121 14.373c11.834.723 20.12-.88 23.956-4.558-1.7 4.079-3.754 8-6.14 11.718-6.244 6.622-14.91 11.587-25.461 14.451-16.795 4.559-36.444 3.258-55.334-3.639z" transform="translate(.364 .196)" id="t"/><path d="M1.073 28.19c-.432-.04-.785-.013-1.073.066L10.446.43c.236-.118.485-.223.76-.289 1.034-.263 2.264-.158 3.403.289 18.733 7.33 34.35 19.364 43.972 33.92 6.191 9.355 9.425 19.063 9.634 28.364a75.291 75.291 0 01-2.448 10.326c-.536-5.28-5.694-11.915-14.975-19.154-11.507-8.973-28.04-17.828-46.55-24.922-1.126-.433-2.278-.71-3.169-.775z" transform="translate(.538 .04)" id="u"/><path d="M81.306 44.861a89.94 89.94 0 01-1.348 4.007 80.543 80.543 0 01-.995 2.457c-3.849 3.665-12.135 5.281-23.956 4.558C40.45 54.99 22.215 50.694 3.639 43.77c-1.139-.42-2.173-.959-2.893-1.51-.34-.263-.589-.513-.746-.749L15.552.076c.275-.066.628-.092 1.06-.066.903.066 2.042.342 3.168.775 18.51 7.107 35.044 15.949 46.55 24.922 9.282 7.225 14.44 13.873 14.976 19.154z" transform="translate(.145 .502)" id="v"/><path d="M.543 56.452l19.73-51.224C21.886 1.04 26.627-1.064 30.846.536l70.923 26.89c4.231 1.6 6.352 6.313 4.739 10.512L94.224 69.836a8.16 8.16 0 01-4.309 4.528L63.081 86.311a8.22 8.22 0 01-6.285.175L5.293 66.953a8.152 8.152 0 01-4.576-4.27 8.058 8.058 0 01-.174-6.231z" transform="translate(.02 .015)" id="w"/><path d="M19.43 48.69c-2.55 1.14-5.55.017-6.706-2.51L.45 19.28C-.7 16.748.431 13.77 2.98 12.624L30.09.447c2.55-1.143 5.552-.02 6.706 2.51 1.151 2.53.02 5.509-2.53 6.654L18.314 16.78l62.34 23.305c2.618.986 3.943 3.891 2.96 6.49-.994 2.597-3.922 3.912-6.54 2.937l-62.34-23.305 7.225 15.829c1.152 2.53.02 5.508-2.53 6.654z" transform="translate(.167 .028)" id="x"/><path d="M7.536 0l24.768 9.26c2.618.986 3.944 3.89 2.96 6.489-.994 2.597-3.921 3.913-6.54 2.937L0 7.948 7.536 0z" transform="translate(.131 .03)" id="y"/><path d="M49.77 22.603c-14.98 6.862-31.784 7.596-47.283 2.06a3.724 3.724 0 01-2.142-1.937 3.68 3.68 0 01-.1-2.874L5.227 6.73c.077.198.188.395.32.592.508.735 1.337 1.348 2.31 1.7 15.93 5.765 32.522 6.84 46.696 3.036C63.457 9.668 70.77 5.525 76.04 0c-6.353 9.789-15.378 17.615-26.27 22.603z" transform="translate(.134 .44)" id="z"/><path d="M3.502 15.867c-.961-.373-1.988-.46-2.861-.242a3.694 3.694 0 00-.641.242L5.115 2.405A3.75 3.75 0 017.103.312 3.834 3.834 0 019.998.257C25.33 6.264 37.46 17.807 44.156 32.77c4.993 11.159 6.529 23.271 4.584 35.066-.176-7.76-2.905-15.861-8.13-23.666-8.12-12.146-21.3-22.198-37.108-28.303z" transform="translate(.152 .392)" id="A"/><path d="M2.651 26.988c-.972-.35-1.8-.965-2.33-1.7A2.815 2.815 0 010 24.698L9.38 0c.132.197.342.406.629.625.607.45 1.48.91 2.441 1.26 15.676 5.777 31.076 9.373 43.35 10.107 9.986.603 16.98-.734 20.216-3.804a62.714 62.714 0 01-5.181 9.778c-5.27 5.525-12.583 9.669-21.487 12.058-14.174 3.804-30.755 2.719-46.697-3.036z" transform="translate(.307 .163)" id="B"/><path d="M.906 23.522a2.593 2.593 0 00-.906.055L8.816.36c.199-.099.408-.187.64-.242.873-.219 1.912-.131 2.873.242 15.808 6.116 28.988 16.157 37.107 28.303 5.226 7.805 7.954 15.905 8.131 23.666a62.223 62.223 0 01-2.066 8.616c-.453-4.406-4.805-9.942-12.638-15.982C33.153 37.476 19.2 30.088 3.58 24.17c-.95-.362-1.922-.592-2.673-.647z" transform="translate(.454 .034)" id="C"/><path d="M68.614 37.432a74.441 74.441 0 01-1.138 3.343c-.265.69-.552 1.37-.839 2.05-3.248 3.058-10.24 4.407-20.217 3.804-12.284-.746-27.673-4.33-43.349-10.107-.961-.35-1.834-.8-2.441-1.26-.288-.22-.497-.428-.63-.625L13.124.063c.232-.055.53-.077.895-.055.762.055 1.723.285 2.673.647 15.621 5.93 29.574 13.308 39.284 20.795 7.833 6.029 12.186 11.575 12.638 15.982z" transform="translate(.122 .419)" id="D"/><linearGradient x1="1.334" y1=".011" x2="-4.878" y2=".011" id="N"><stop offset="0" stop-color="#0A5CC7"/><stop offset="1" stop-color="#82229D"/></linearGradient><linearGradient x1=".008" y1=".759" x2="1.334" y2=".759" id="O"><stop offset="0" stop-color="#0A5CC7"/><stop offset="1" stop-color="#82229D"/></linearGradient><linearGradient x1=".817" y1=".886" x2="-.218" y2=".886" id="Q"><stop offset="0" stop-color="#FA357F"/><stop offset="1" stop-color="#7977FE"/></linearGradient><linearGradient x1=".967" y1=".816" x2=".543" y2=".961" id="R"><stop offset="0" stop-color="#FA357F"/><stop offset="1" stop-color="#7977FE"/></linearGradient><linearGradient x1=".853" y1=".631" x2="-.183" y2=".631" id="T"><stop offset="0" stop-color="#FFF361"/><stop offset="1" stop-color="#FFA90B"/></linearGradient><linearGradient x1=".806" y1=".659" x2=".648" y2=".983" id="U"><stop offset="0" stop-color="#FFF361"/><stop offset="1" stop-color="#FFA90B"/></linearGradient><linearGradient x1=".835" y1=".836" x2="-.2" y2=".836" id="W"><stop offset="0" stop-color="#FF5162"/><stop offset="1" stop-color="#84219C"/></linearGradient><linearGradient x1=".889" y1=".819" x2=".503" y2=".923" id="X"><stop offset="0" stop-color="#FF5162"/><stop offset="1" stop-color="#84219C"/></linearGradient><linearGradient x1=".85" y1=".674" x2="-.185" y2=".674" id="Z"><stop offset="0" stop-color="#FFD943"/><stop offset="1" stop-color="#FFA90B"/></linearGradient><linearGradient x1=".834" y1=".731" x2=".718" y2=".775" id="aa"><stop offset="0" stop-color="#FFD943"/><stop offset="1" stop-color="#FFA90B"/></linearGradient><linearGradient x1=".842" y1=".74" x2="-.193" y2=".74" id="ac"><stop offset="0" stop-color="#FF8748"/><stop offset="1" stop-color="#FA357F"/></linearGradient><linearGradient x1=".895" y1=".777" x2=".584" y2=".827" id="ad"><stop offset="0" stop-color="#FF8748"/><stop offset="1" stop-color="#FA357F"/></linearGradient></defs><path d="M67.746 52.075l51.463.024s-16.1-36.133 18.103-40.81C167.798 7.12 179.843 38.6 179.843 38.6s3.621-18.151 21.748-14.661c17.887 3.417 31.066 32.304 31.066 32.304h44.825L67.746 52.075z" fill="none"/><g clip-path="url(#E)" transform="rotate(-90 62 -5)"><path d="M49.186-2.347v215.923H-2.337V-2.347h51.523z" fill="#EDEDF0" fill-opacity=".502"/></g><path d="M67.722 56.873l212.101.049a2.426 2.426 0 002.414-2.424 2.426 2.426 0 00-2.414-2.423l-212.1-.049a2.426 2.426 0 00-2.415 2.424 2.426 2.426 0 002.414 2.423zm.893-10.639h28.966c.676 0 1.207-.533 1.207-1.211 0-.679-.531-1.212-1.207-1.212H68.615c-.675 0-1.206.533-1.206 1.212 0 .678.53 1.211 1.206 1.211zm47.963-13.28c-.604 0-1.135-.46-1.207-1.066a41.686 41.686 0 01-.217-2.497c-.049-.678.458-1.236 1.134-1.284a1.23 1.23 0 011.28 1.14c.048.799.12 1.574.217 2.35.07.666-.4 1.269-1.062 1.357h-.145zm3.5 13.28h-3.186a1.198 1.198 0 01-1.207-1.211c0-.679.53-1.212 1.207-1.212h1.4a97.544 97.544 0 01-.773-2.23 1.237 1.237 0 01.772-1.526 1.228 1.228 0 011.521.775c.724 2.254 1.352 3.684 1.352 3.708.169.363.145.8-.097 1.163-.24.364-.579.533-.99.533zm3.693-35.26c-.362 0-.7-.146-.942-.461a1.203 1.203 0 01.194-1.697c3.717-3.005 8.786-4.943 15.013-5.792 4.756-.654 9.342-.484 13.663.485a1.22 1.22 0 01-.531 2.375c-4.056-.897-8.352-1.066-12.818-.436-5.793.8-10.452 2.569-13.83 5.283a1.375 1.375 0 01-.75.242zm48.493 8.796c.241.315.58.46.941.46.266 0 .531-.096.748-.29a1.205 1.205 0 00.194-1.696 47.195 47.195 0 00-5.069-5.429c-.507-.46-1.256-.436-1.714.073a1.225 1.225 0 00.072 1.72c1.69 1.527 3.307 3.272 4.828 5.162zm6.324 9.985c.217.436.628.679 1.086.679a1.01 1.01 0 00.531-.122 1.213 1.213 0 00.555-1.623c-.313-.63-.675-1.382-1.134-2.206a1.22 1.22 0 00-1.64-.484 1.228 1.228 0 00-.484 1.648c.434.8.796 1.502 1.086 2.108zm39.997-2.35c-.29 0-.604-.122-.845-.34-5.214-5.017-10.428-8.046-15.52-9.015-3.477-.655-6.639-.533-9.366.387a1.178 1.178 0 01-1.52-.775 1.196 1.196 0 01.771-1.527c3.138-1.042 6.711-1.212 10.597-.46 5.552 1.066 11.176 4.313 16.728 9.645.482.46.506 1.236.048 1.72-.266.219-.58.364-.893.364zm14.941 20.308h1.352c.676 0 1.207-.534 1.207-1.212 0-.679-.53-1.212-1.207-1.212h-.628a84.51 84.51 0 00-2.655-4.58c-.362-.558-1.11-.751-1.665-.388a1.225 1.225 0 00-.387 1.672 77.214 77.214 0 012.897 5.041c.217.412.627.679 1.086.679zm13.421 0h-2.414a1.198 1.198 0 01-1.207-1.212c0-.679.531-1.212 1.207-1.212h2.414c.676 0 1.207.533 1.207 1.212 0 .678-.53 1.212-1.207 1.212zm31.403.024h-9.679a1.198 1.198 0 01-1.207-1.212c0-.678.531-1.212 1.207-1.212h9.68c.675 0 1.206.534 1.206 1.212 0 .654-.53 1.212-1.207 1.212z" fill="none"/><g clip-path="url(#F)" transform="rotate(-90 61 -4)"><path d="M57.46-2.785V220.33H-3.014V-2.785H57.46z" fill="#EDEDF0" fill-opacity=".502"/></g><path d="M115.172 136.693a47.89 47.89 0 01-26.362-7.163 43.133 43.133 0 00-24.019-6.578c-1.329 0-2.416-1.096-2.416-2.436 0-1.34 1.087-2.437 2.416-2.437a47.783 47.783 0 0126.314 7.163 43.134 43.134 0 0024.02 6.578 43.134 43.134 0 0024.018-6.578 47.783 47.783 0 0126.314-7.163 47.786 47.786 0 0126.314 7.163 47.207 47.207 0 0048.012 0 51.917 51.917 0 0152.628 0 47.14 47.14 0 0048.038 0 51.917 51.917 0 0152.628 0 43.134 43.134 0 0024.018 6.578c1.33 0 2.416 1.097 2.416 2.437 0 1.34-1.087 2.436-2.416 2.436a47.785 47.785 0 01-26.314-7.163 47.138 47.138 0 00-48.037 0 51.917 51.917 0 01-52.628 0 47.138 47.138 0 00-48.037 0 51.917 51.917 0 01-52.628 0 43.108 43.108 0 00-23.994-6.578c-8.458-.195-16.794 2.07-23.97 6.578a47.784 47.784 0 01-26.315 7.163z" fill="none"/><g clip-path="url(#G)" transform="rotate(-90 99.5 37.5)"><path d="M37.078-2.719v497.627H-2.8V-2.719h39.878z" fill="#EDEDF0" fill-opacity=".502"/></g><g><path d="M253.484 106.19a1.473 1.473 0 01-1.401-1.048 1.496 1.496 0 01.966-1.827c2.924-.877 6.017-1.413 9.424-1.632.798-.098 1.498.56 1.547 1.364.048.804-.556 1.51-1.353 1.56-3.19.194-6.066.682-8.772 1.51-.145.049-.29.073-.41.073zm20.612-.999c-.073 0-.17 0-.242-.024-.7-.122-1.45-.22-2.199-.317a1.49 1.49 0 01-1.28-1.632c.096-.804.845-1.389 1.619-1.292.821.098 1.594.22 2.368.342.797.146 1.329.901 1.184 1.68-.145.731-.75 1.243-1.45 1.243zm33.345 14.837c.097.025.17.025.266.025a1.477 1.477 0 001.45-1.194 1.471 1.471 0 00-.23-1.095 1.448 1.448 0 00-.93-.61c-6.935-1.316-11.357-4.167-16.044-7.188l-.218-.146a1.44 1.44 0 00-2.005.439 1.47 1.47 0 00.435 2.022l.217.146c4.688 3.045 9.569 6.188 17.06 7.601zm12.638-.78a1.467 1.467 0 001.45 1.316h.145c3.358-.316 6.427-.999 9.35-2.046a1.47 1.47 0 00.895-1.876c-.29-.78-1.111-1.17-1.86-.902-2.707.975-5.558 1.584-8.675 1.9a1.486 1.486 0 00-1.305 1.609zm18.75-4.774c-.482 0-.966-.244-1.232-.707a1.504 1.504 0 01.484-2.022c.652-.414 1.304-.804 1.933-1.218a1.44 1.44 0 012.005.438 1.466 1.466 0 01-.435 2.022c-.652.415-1.304.829-1.98 1.243a1.21 1.21 0 01-.774.244zm17.183-10.347c.08.745.705 1.309 1.448 1.308.097 0 .194 0 .314-.049 2.803-.585 5.824-.877 9.182-.877 3.142 0 5.969.268 8.626.78a1.451 1.451 0 001.692-1.17 1.461 1.461 0 00-1.16-1.705c-2.851-.56-5.847-.829-9.182-.829-3.576 0-6.766.317-9.786.95a1.465 1.465 0 00-1.134 1.592zm39.77 11.053c.219.122.485.195.727.195.507 0 .99-.268 1.23-.707.388-.706.17-1.583-.53-1.997-1.474-.877-2.875-1.779-4.277-2.68-1.16-.756-2.344-1.51-3.552-2.242a1.428 1.428 0 00-1.981.512 1.474 1.474 0 00.507 1.998c1.184.706 2.32 1.461 3.479 2.192 1.45.926 2.876 1.852 4.398 2.73zm11.407 4.556c-.097 0-.218-.024-.34-.049a53.157 53.157 0 01-2.318-.609 1.456 1.456 0 01-.967-1.827c.24-.78 1.039-1.218 1.812-.975.677.22 1.402.415 2.15.585.774.17 1.257.975 1.088 1.754a1.496 1.496 0 01-1.425 1.121zm18.388.439a1.454 1.454 0 01-1.426-1.219 1.43 1.43 0 011.185-1.68c7.272-1.268 11.863-4.24 16.31-7.115a1.44 1.44 0 012.005.439 1.466 1.466 0 01-.435 2.022c-4.47 2.9-9.544 6.164-17.397 7.528-.073 0-.17.025-.242.025zm27.727-14.97a1.469 1.469 0 001.414 1.253c.145 0 .29-.024.483-.073 2.707-.902 5.558-1.462 8.723-1.706a1.468 1.468 0 001.33-1.583c-.073-.804-.726-1.438-1.571-1.34-3.407.268-6.476.877-9.4 1.827a1.478 1.478 0 00-.98 1.622zm21.784-.184a.666.666 0 00.218.024c.7 0 1.328-.512 1.425-1.267a1.452 1.452 0 00-1.208-1.657 35.07 35.07 0 00-2.368-.292c-.385-.04-.77.075-1.07.322a1.469 1.469 0 00-.525.994 1.47 1.47 0 001.305 1.608c.773.073 1.498.17 2.223.268zM499 116.368v-3.315c-1.704-.96-3.32-2-4.968-3.062l-.966-.61a1.44 1.44 0 00-2.006.44 1.474 1.474 0 00-.2 1.101c.082.38.31.711.635.92l.967.61c2.078 1.333 4.187 2.692 6.538 3.916z" fill="none"/><g clip-path="url(#H)" transform="rotate(-90 186.5 -65.5)"><path d="M22.508-3.067V321.16H-2.658V-3.067h25.166z" fill="#EDEDF0" fill-opacity=".502"/></g></g><g><path d="M805 106.081v19.932l-151.056-3 51.462.025s-16.1-36.1 18.103-40.773c30.487-4.165 42.532 27.287 42.532 27.287s3.62-18.135 21.749-14.649c6.492 1.24 12.363 5.831 17.21 11.178z" fill="none"/><g clip-path="url(#I)" transform="rotate(-90 390 -263)"><path d="M48.209-2.15v215.923h-51.48V-2.15h51.48z" fill="#EDEDF0" fill-opacity=".502"/></g><g><path d="M805 127.842V123l-151.056-.035a2.425 2.425 0 00-2.414 2.421 2.425 2.425 0 002.414 2.421l151.056.035zm-121.198-10.663h-28.965a1.197 1.197 0 01-1.207-1.211c0-.678.531-1.21 1.207-1.21h28.965c.676 0 1.207.532 1.207 1.21 0 .678-.555 1.21-1.207 1.21zm17.79-14.334a1.224 1.224 0 001.207 1.065h.145a1.233 1.233 0 001.062-1.355 36.857 36.857 0 01-.217-2.35 1.229 1.229 0 00-1.28-1.137c-.676.048-1.182.605-1.134 1.283.048.848.12 1.67.217 2.494zm1.52 14.334h3.187c.41 0 .748-.17.99-.533.241-.363.265-.8.096-1.162 0-.025-.627-1.453-1.352-3.705a1.228 1.228 0 00-1.52-.775 1.235 1.235 0 00-.773 1.526c.29.871.555 1.622.773 2.227h-1.4c-.676 0-1.207.533-1.207 1.21 0 .679.531 1.212 1.207 1.212zM724.298 74h10.922c.903.13 1.795.295 2.677.493a1.218 1.218 0 01-.53 2.373c-4.056-.896-8.353-1.066-12.818-.436-5.794.799-10.452 2.566-13.832 5.278a1.204 1.204 0 01-.748.242c-.362 0-.7-.145-.941-.46a1.2 1.2 0 01.193-1.695c3.717-3.002 8.786-4.939 15.014-5.786l.063-.009zm34.189 16.739c.24.315.579.46.942.46.265 0 .53-.097.748-.29a1.203 1.203 0 00.193-1.695 47.168 47.168 0 00-5.07-5.424c-.506-.46-1.255-.436-1.713.073-.46.508-.41 1.259.072 1.719 1.69 1.525 3.307 3.269 4.828 5.157zm7.41 10.653c-.458 0-.87-.242-1.086-.678a45.35 45.35 0 00-1.086-2.106 1.227 1.227 0 01.483-1.646 1.22 1.22 0 011.64.484c.46.823.822 1.574 1.136 2.203a1.209 1.209 0 01-1.086 1.743zM805 98.348v-2.68c-5.34-4.961-10.741-7.997-16.076-9.02-3.886-.751-7.458-.582-10.597.46a1.194 1.194 0 00-.772 1.525 1.183 1.183 0 001.52.774c2.728-.92 5.89-1.04 9.366-.387 5.093.969 10.307 3.995 15.52 9.007.242.218.556.339.846.339.064 0 .129-.006.193-.018z" fill="none"/><g clip-path="url(#J)" transform="rotate(-90 389.5 -261.5)"><path d="M57.476-2.564v223.116H-2.95V-2.564h60.426z" fill="#EDEDF0" fill-opacity=".502"/></g></g></g><g><path d="M216.501 113.629l-34.019-13.002a5.4 5.4 0 01-3.116-6.966l17.858-46.736a5.412 5.412 0 016.981-3.123l21.185 8.095a5.4 5.4 0 013.007 2.84l7.935 17.682c.59 1.31.633 2.802.116 4.142l-12.973 33.938a5.389 5.389 0 01-6.974 3.13z" fill="none"/><g clip-path="url(#K)" transform="rotate(-90 146.5 -32.5)"><path d="M71.484-.921v59.66H-.917V-.922h72.401z" fill="#45A1FF"/></g><path d="M226.708 81.234a3.344 3.344 0 01-1.667 4.42l-17.865 8.087a3.341 3.341 0 01-4.42-1.667L194.67 74.21a3.341 3.341 0 011.667-4.42 3.341 3.341 0 014.419 1.668l4.76 10.512 15.478-41.08a3.354 3.354 0 014.31-1.95 3.353 3.353 0 011.95 4.31l-15.476 41.078 10.512-4.76a3.342 3.342 0 014.419 1.666z" fill="none"/><g clip-path="url(#L)" transform="rotate(-90 144.25 -50.103)"><path d="M56.353-.912v34.958H-.821V-.912h57.174z" fill="#0060DF"/></g><path d="M214.844 57.211l6.149-16.32a3.354 3.354 0 014.31-1.952 3.353 3.353 0 011.95 4.31l-7.13 18.928-5.28-4.966z" fill="none"/><g clip-path="url(#M)" transform="rotate(-90 138.544 -76.28)"><path d="M0 15.654h30.68V0H0v15.654z" transform="translate(-6.617 -2.408)" fill="url(#N)"/></g><path d="M214.844 57.211l6.149-16.32a3.354 3.354 0 014.31-1.952 3.353 3.353 0 011.95 4.31l-7.13 18.928-5.28-4.966z" fill="none"/><g clip-path="url(#M)" transform="rotate(-90 138.544 -76.28)"><path d="M0 15.654h30.68V0H0v15.654z" transform="translate(-6.617 -2.408)" fill="url(#O)"/></g><g><path d="M262.037 23.965c4.558 9.871 5.045 20.944 1.369 31.157a2.461 2.461 0 01-3.196 1.478l-8.714-3.283c.13-.051.262-.124.393-.211.488-.335.895-.881 1.128-1.522 3.83-10.497 4.543-21.431 2.017-30.771-1.587-5.867-4.339-10.686-8.008-14.159 6.501 4.186 11.699 10.133 15.011 17.311z" fill="none"/><g clip-path="url(#P)" transform="rotate(-90 151.792 -94.942)"><path d="M0 238.422h184.084V0H0v238.422z" transform="translate(-100.164 -211.028)" fill="url(#Q)"/></g><g><path d="M262.037 23.965c4.558 9.871 5.045 20.944 1.369 31.157a2.461 2.461 0 01-3.196 1.478l-8.714-3.283c.13-.051.262-.124.393-.211.488-.335.895-.881 1.128-1.522 3.83-10.497 4.543-21.431 2.017-30.771-1.587-5.867-4.339-10.686-8.008-14.159 6.501 4.186 11.699 10.133 15.011 17.311z" fill="none"/><g clip-path="url(#P)" transform="rotate(-90 151.792 -94.942)"><path d="M0 238.422h184.084V0H0v238.422z" transform="translate(-100.164 -211.028)" fill="url(#R)"/></g></g></g><g><path d="M196.722 30.379c-.248.633-.306 1.31-.16 1.885.043.153.094.291.16.422l-8.94-3.37a2.482 2.482 0 01-1.39-1.31 2.508 2.508 0 01-.037-1.908c3.99-10.104 11.655-18.097 21.592-22.509C215.358.3 223.403-.713 231.236.57c-5.154.116-10.534 1.914-15.718 5.357-8.066 5.35-14.741 14.035-18.796 24.453z" fill="none"/><g clip-path="url(#S)" transform="rotate(-90 109.355 -76.569)"><path d="M0 238.422h184.084V0H0v238.422z" transform="translate(-124.227 -150.218)" fill="url(#T)"/></g><g><path d="M196.722 30.379c-.248.633-.306 1.31-.16 1.885.043.153.094.291.16.422l-8.94-3.37a2.482 2.482 0 01-1.39-1.31 2.508 2.508 0 01-.037-1.908c3.99-10.104 11.655-18.097 21.592-22.509C215.358.3 223.403-.713 231.236.57c-5.154.116-10.534 1.914-15.718 5.357-8.066 5.35-14.741 14.035-18.796 24.453z" fill="none"/><g clip-path="url(#S)" transform="rotate(-90 109.355 -76.569)"><path d="M0 238.422h184.084V0H0v238.422z" transform="translate(-124.227 -150.218)" fill="url(#U)"/></g></g></g><g><path d="M253.025 51.592c-.233.64-.64 1.186-1.129 1.536-.123.087-.262.16-.393.21l-16.402-6.18c.132-.087.27-.225.415-.415.299-.4.605-.975.838-1.609 3.836-10.33 6.224-20.477 6.712-28.565.4-6.58-.488-11.189-2.526-13.322a41.757 41.757 0 016.493 3.414c3.67 3.473 6.421 8.292 8.008 14.16 2.526 9.34 1.806 20.266-2.016 30.77z" fill="none"/><g clip-path="url(#V)" transform="rotate(-90 144.267 -90.726)"><path d="M0 238.422h184.084V0H0v238.422z" transform="translate(-103.472 -199.287)" fill="url(#W)"/></g><g><path d="M253.025 51.592c-.233.64-.64 1.186-1.129 1.536-.123.087-.262.16-.393.21l-16.402-6.18c.132-.087.27-.225.415-.415.299-.4.605-.975.838-1.609 3.836-10.33 6.224-20.477 6.712-28.565.4-6.58-.488-11.189-2.526-13.322a41.757 41.757 0 016.493 3.414c3.67 3.473 6.421 8.292 8.008 14.16 2.526 9.34 1.806 20.266-2.016 30.77z" fill="none"/><g clip-path="url(#V)" transform="rotate(-90 144.267 -90.726)"><path d="M0 238.422h184.084V0H0v238.422z" transform="translate(-103.472 -199.287)" fill="url(#X)"/></g></g></g><g><path d="M212.104 37.906c-.022.24-.007.437.036.597l-15.418-5.81a1.95 1.95 0 01-.16-.422c-.146-.575-.088-1.26.16-1.892 4.062-10.418 10.73-19.102 18.796-24.453 5.184-3.443 10.564-5.241 15.718-5.358 1.922.313 3.836.772 5.722 1.362-2.927.298-6.603 3.166-10.614 8.328-4.973 6.398-9.88 15.593-13.81 25.886-.24.626-.394 1.267-.43 1.762z" fill="none"/><g clip-path="url(#Y)" transform="rotate(-90 117.631 -78.829)"><path d="M0 238.422h184.084V0H0v238.422z" transform="translate(-118.211 -160.754)" fill="url(#Z)"/></g><g><path d="M212.104 37.906c-.022.24-.007.437.036.597l-15.418-5.81a1.95 1.95 0 01-.16-.422c-.146-.575-.088-1.26.16-1.892 4.062-10.418 10.73-19.102 18.796-24.453 5.184-3.443 10.564-5.241 15.718-5.358 1.922.313 3.836.772 5.722 1.362-2.927.298-6.603 3.166-10.614 8.328-4.973 6.398-9.88 15.593-13.81 25.886-.24.626-.394 1.267-.43 1.762z" fill="none"/><g clip-path="url(#Y)" transform="rotate(-90 117.631 -78.829)"><path d="M0 238.422h184.084V0H0v238.422z" transform="translate(-118.211 -160.754)" fill="url(#aa)"/></g></g></g><g><path d="M236.95 1.93c.743.232 1.486.48 2.221.75.459.174.91.363 1.361.553 2.031 2.14 2.927 6.748 2.526 13.321-.495 8.095-2.875 18.236-6.712 28.566-.233.633-.531 1.208-.837 1.609a1.85 1.85 0 01-.415.415l-22.96-8.649a2.056 2.056 0 01-.037-.59c.036-.502.19-1.135.43-1.76 3.938-10.294 8.837-19.489 13.81-25.887 4.003-5.162 7.687-8.03 10.614-8.328z" fill="none"/><g clip-path="url(#ab)" transform="rotate(-90 129.519 -82.294)"><path d="M0 238.422h184.084V0H0v238.422z" transform="translate(-109.789 -176.107)" fill="url(#ac)"/></g><g><path d="M236.95 1.93c.743.232 1.486.48 2.221.75.459.174.91.363 1.361.553 2.031 2.14 2.927 6.748 2.526 13.321-.495 8.095-2.875 18.236-6.712 28.566-.233.633-.531 1.208-.837 1.609a1.85 1.85 0 01-.415.415l-22.96-8.649a2.056 2.056 0 01-.037-.59c.036-.502.19-1.135.43-1.76 3.938-10.294 8.837-19.489 13.81-25.887 4.003-5.162 7.687-8.03 10.614-8.328z" fill="none"/><g clip-path="url(#ab)" transform="rotate(-90 129.519 -82.294)"><path d="M0 238.422h184.084V0H0v238.422z" transform="translate(-109.789 -176.107)" fill="url(#ad)"/></g></g></g></g><g><path d="M322.675 300.333l-61.391-23.38c-5.019-1.911-7.541-7.527-5.623-12.528l32.226-84.042c1.918-5.014 7.567-7.527 12.599-5.616l38.23 14.557a9.732 9.732 0 015.425 5.105l14.32 31.798a9.64 9.64 0 01.21 7.448l-23.41 61.029a9.705 9.705 0 01-5.119 5.423 9.758 9.758 0 01-7.467.206z" fill="none"/><g clip-path="url(#ae)" transform="rotate(-90 278 23)"><path d="M128.546-1.662V106H-1.65V-1.662h130.196z" fill="#45A1FF"/></g><path d="M341.093 242.08a6.005 6.005 0 01-3.008 7.946l-32.24 14.543c-3.032 1.365-6.601.023-7.974-2.998l-14.595-32.124a6 6 0 013.008-7.946c3.033-1.364 6.602-.023 7.975 2.998l8.591 18.903 27.93-73.871c1.183-3.102 4.664-4.673 7.778-3.508 3.113 1.178 4.69 4.647 3.52 7.75l-27.93 73.87 18.97-8.561c3.034-1.365 6.602-.023 7.975 2.997z" fill="none"/><g clip-path="url(#af)" transform="rotate(-90 274.003 -8.703)"><path d="M101.336-1.647V61.44H-1.476V-1.647h102.812z" fill="#0060DF"/></g><path d="M319.684 198.88l11.096-29.349c1.183-3.102 4.664-4.673 7.778-3.508 3.113 1.178 4.69 4.647 3.52 7.75l-12.87 34.037-9.524-8.93z" fill="none"/><g clip-path="url(#ag)" transform="rotate(-90 263.806 -55.84)"><path d="M0 28.25h55.172V0H0v28.25z" transform="translate(-11.9 -4.346)" fill="url(#N)"/></g><path d="M319.684 198.88l11.096-29.349c1.183-3.102 4.664-4.673 7.778-3.508 3.113 1.178 4.69 4.647 3.52 7.75l-12.87 34.037-9.524-8.93z" fill="none"/><g clip-path="url(#ag)" transform="rotate(-90 263.806 -55.84)"><path d="M0 28.25h55.172V0H0v28.25z" transform="translate(-11.9 -4.346)" fill="url(#O)"/></g><g><path d="M404.849 139.095c8.224 17.751 9.104 37.662 2.47 56.028a4.431 4.431 0 01-2.323 2.539 4.456 4.456 0 01-3.445.119l-15.725-5.904c.236-.092.473-.223.71-.38.88-.602 1.615-1.584 2.036-2.736 6.91-18.877 8.197-38.539 3.639-55.334-2.864-10.551-7.83-19.217-14.451-25.461 11.731 7.527 21.111 18.222 27.089 31.13z" fill="none"/><g clip-path="url(#ah)" transform="rotate(-90 287.73 -89.501)"><path d="M0 430.256h331.029V0H0v430.256z" transform="translate(-180.119 -380.82)" fill="url(#Q)"/></g><g><path d="M404.849 139.095c8.224 17.751 9.104 37.662 2.47 56.028a4.431 4.431 0 01-2.323 2.539 4.456 4.456 0 01-3.445.119l-15.725-5.904c.236-.092.473-.223.71-.38.88-.602 1.615-1.584 2.036-2.736 6.91-18.877 8.197-38.539 3.639-55.334-2.864-10.551-7.83-19.217-14.451-25.461 11.731 7.527 21.111 18.222 27.089 31.13z" fill="none"/><g clip-path="url(#ah)" transform="rotate(-90 287.73 -89.501)"><path d="M0 430.256h331.029V0H0v430.256z" transform="translate(-180.119 -380.82)" fill="url(#R)"/></g></g></g><g><path d="M286.98 150.628c-.446 1.139-.551 2.356-.289 3.39.08.276.171.524.29.76l-16.133-6.061a4.473 4.473 0 01-2.51-2.356 4.496 4.496 0 01-.065-3.43c7.199-18.17 21.033-32.544 38.965-40.477 13.374-5.916 27.89-7.736 42.027-5.432-9.302.21-19.01 3.443-28.364 9.635-14.556 9.621-26.603 25.238-33.92 43.971z" fill="none"/><g clip-path="url(#ai)" transform="rotate(-90 211.226 -56.268)"><path d="M0 430.256h331.029V0H0v430.256z" transform="translate(-223.39 -271.083)" fill="url(#T)"/></g><g><path d="M286.98 150.628c-.446 1.139-.551 2.356-.289 3.39.08.276.171.524.29.76l-16.133-6.061a4.473 4.473 0 01-2.51-2.356 4.496 4.496 0 01-.065-3.43c7.199-18.17 21.033-32.544 38.965-40.477 13.374-5.916 27.89-7.736 42.027-5.432-9.302.21-19.01 3.443-28.364 9.635-14.556 9.621-26.603 25.238-33.92 43.971z" fill="none"/><g clip-path="url(#ai)" transform="rotate(-90 211.226 -56.268)"><path d="M0 430.256h331.029V0H0v430.256z" transform="translate(-223.39 -271.083)" fill="url(#U)"/></g></g></g><g><path d="M388.585 188.774c-.42 1.152-1.156 2.134-2.037 2.762a3.385 3.385 0 01-.709.38l-29.598-11.114c.236-.157.486-.406.749-.746.538-.72 1.09-1.754 1.51-2.893 6.924-18.576 11.233-36.824 12.113-51.368.723-11.834-.88-20.12-4.559-23.956 4.08 1.7 8 3.755 11.719 6.14 6.621 6.244 11.587 14.91 14.45 25.461 4.56 16.795 3.259 36.445-3.638 55.334z" fill="none"/><g clip-path="url(#aj)" transform="rotate(-90 274.162 -81.883)"><path d="M0 430.256h331.029V0H0v430.256z" transform="translate(-186.069 -359.633)" fill="url(#W)"/></g><g><path d="M388.585 188.774c-.42 1.152-1.156 2.134-2.037 2.762a3.385 3.385 0 01-.709.38l-29.598-11.114c.236-.157.486-.406.749-.746.538-.72 1.09-1.754 1.51-2.893 6.924-18.576 11.233-36.824 12.113-51.368.723-11.834-.88-20.12-4.559-23.956 4.08 1.7 8 3.755 11.719 6.14 6.621 6.244 11.587 14.91 14.45 25.461 4.56 16.795 3.259 36.445-3.638 55.334z" fill="none"/><g clip-path="url(#aj)" transform="rotate(-90 274.162 -81.883)"><path d="M0 430.256h331.029V0H0v430.256z" transform="translate(-186.069 -359.633)" fill="url(#X)"/></g></g></g><g><path d="M314.74 164.164c-.04.432-.013.785.065 1.073l-27.825-10.446a3.501 3.501 0 01-.289-.76c-.262-1.033-.157-2.264.29-3.403 7.33-18.733 19.364-34.35 33.92-43.971 9.354-6.192 19.062-9.426 28.364-9.635a75.291 75.291 0 0110.326 2.448c-5.282.537-11.916 5.694-19.155 14.976-8.973 11.506-17.827 28.04-24.921 46.55-.434 1.126-.71 2.278-.775 3.168z" fill="none"/><g clip-path="url(#ak)" transform="rotate(-90 226.142 -60.366)"><path d="M0 430.256h331.029V0H0v430.256z" transform="translate(-212.573 -290.097)" fill="url(#Z)"/></g><g><path d="M314.74 164.164c-.04.432-.013.785.065 1.073l-27.825-10.446a3.501 3.501 0 01-.289-.76c-.262-1.033-.157-2.264.29-3.403 7.33-18.733 19.364-34.35 33.92-43.971 9.354-6.192 19.062-9.426 28.364-9.635a75.291 75.291 0 0110.326 2.448c-5.282.537-11.916 5.694-19.155 14.976-8.973 11.506-17.827 28.04-24.921 46.55-.434 1.126-.71 2.278-.775 3.168z" fill="none"/><g clip-path="url(#ak)" transform="rotate(-90 226.142 -60.366)"><path d="M0 430.256h331.029V0H0v430.256z" transform="translate(-212.573 -290.097)" fill="url(#aa)"/></g></g></g><g><path d="M359.577 99.47c1.34.419 2.68.864 4.008 1.348.827.314 1.642.655 2.456.995 3.665 3.849 5.281 12.135 4.559 23.956-.894 14.557-5.19 32.792-12.113 51.368-.42 1.139-.959 2.173-1.51 2.893-.263.34-.513.589-.75.746l-41.435-15.552c-.065-.275-.092-.628-.065-1.06.065-.903.341-2.042.775-3.168 7.107-18.51 15.948-35.044 24.921-46.55 7.226-9.282 13.873-14.44 19.154-14.976z" fill="none"/><g clip-path="url(#al)" transform="rotate(-90 247.568 -66.647)"><path d="M0 430.256h331.029V0H0v430.256z" transform="translate(-197.427 -317.803)" fill="url(#ac)"/></g><g><path d="M359.577 99.47c1.34.419 2.68.864 4.008 1.348.827.314 1.642.655 2.456.995 3.665 3.849 5.281 12.135 4.559 23.956-.894 14.557-5.19 32.792-12.113 51.368-.42 1.139-.959 2.173-1.51 2.893-.263.34-.513.589-.75.746l-41.435-15.552c-.065-.275-.092-.628-.065-1.06.065-.903.341-2.042.775-3.168 7.107-18.51 15.948-35.044 24.921-46.55 7.226-9.282 13.873-14.44 19.154-14.976z" fill="none"/><g clip-path="url(#al)" transform="rotate(-90 247.568 -66.647)"><path d="M0 430.256h331.029V0H0v430.256z" transform="translate(-197.427 -317.803)" fill="url(#ad)"/></g></g></g></g><g><path d="M56.467 180.437l-51.224-19.73c-4.187-1.613-6.292-6.353-4.692-10.573l26.89-70.923c1.6-4.23 6.314-6.352 10.512-4.739l31.899 12.284a8.16 8.16 0 014.527 4.309l11.948 26.834a8.22 8.22 0 01.176 6.286l-19.534 51.502a8.152 8.152 0 01-4.27 4.576 8.058 8.058 0 01-6.232.174z" fill="none"/><g clip-path="url(#am)" transform="rotate(-90 90.5 90.5)"><path d="M108.48-1.387v89.832H-1.391V-1.387H108.48z" fill="#45A1FF"/></g><path d="M71.836 131.277c1.14 2.55.017 5.55-2.51 6.705l-26.9 12.274c-2.531 1.151-5.51.02-6.654-2.53l-12.179-27.11c-1.142-2.55-.019-5.551 2.51-6.705 2.53-1.152 5.509-.02 6.654 2.53l7.169 15.952 23.305-62.34c.986-2.618 3.891-3.944 6.49-2.96 2.597.994 3.913 3.921 2.937 6.54l-23.305 62.339 15.829-7.225c2.53-1.151 5.508-.02 6.654 2.53z" fill="none"/><g clip-path="url(#an)" transform="rotate(-90 86.995 63.878)"><path d="M85.518-1.374v52.639H-1.245V-1.374h86.763z" fill="#0060DF"/></g><path d="M53.972 94.82l9.259-24.767c.986-2.618 3.891-3.944 6.49-2.96 2.597.994 3.913 3.921 2.937 6.54L61.92 102.356l-7.948-7.536z" fill="none"/><g clip-path="url(#ao)" transform="rotate(-90 78.215 24.273)"><path d="M0 23.57h46.56V0H0v23.57z" transform="translate(-10.042 -3.626)" fill="url(#N)"/></g><path d="M53.972 94.82l9.259-24.767c.986-2.618 3.891-3.944 6.49-2.96 2.597.994 3.913 3.921 2.937 6.54L61.92 102.356l-7.948-7.536z" fill="none"/><g clip-path="url(#ao)" transform="rotate(-90 78.215 24.273)"><path d="M0 23.57h46.56V0H0v23.57z" transform="translate(-10.042 -3.626)" fill="url(#O)"/></g><g><path d="M125.033 44.368c6.862 14.98 7.597 31.783 2.06 47.282a3.724 3.724 0 01-1.937 2.143 3.68 3.68 0 01-2.874.1L109.16 88.91c.197-.078.394-.188.591-.32.735-.509 1.349-1.337 1.7-2.31 5.765-15.93 6.84-32.523 3.036-46.696-2.39-8.904-6.533-16.218-12.058-21.487 9.789 6.352 17.615 15.378 22.603 26.27z" fill="none"/><g clip-path="url(#ap)" transform="rotate(-90 98.13 -3.859)"><path d="M0 359.003h279.356V0H0v359.003z" transform="translate(-152.003 -317.754)" fill="url(#Q)"/></g><g><path d="M125.033 44.368c6.862 14.98 7.597 31.783 2.06 47.282a3.724 3.724 0 01-1.937 2.143 3.68 3.68 0 01-2.874.1L109.16 88.91c.197-.078.394-.188.591-.32.735-.509 1.349-1.337 1.7-2.31 5.765-15.93 6.84-32.523 3.036-46.696-2.39-8.904-6.533-16.218-12.058-21.487 9.789 6.352 17.615 15.378 22.603 26.27z" fill="none"/><g clip-path="url(#ap)" transform="rotate(-90 98.13 -3.859)"><path d="M0 359.003h279.356V0H0v359.003z" transform="translate(-152.003 -317.754)" fill="url(#R)"/></g></g></g><g><path d="M26.684 54.1c-.372.962-.46 1.99-.24 2.862.065.232.142.442.24.64l-13.46-5.114a3.75 3.75 0 01-2.094-1.989 3.834 3.834 0 01-.055-2.894c6.007-15.334 17.55-27.463 32.512-34.158 11.16-4.993 23.272-6.529 35.067-4.585-7.76.177-15.862 2.906-23.666 8.131-12.146 8.12-22.198 21.3-28.304 37.108z" fill="none"/><g clip-path="url(#aq)" transform="rotate(-90 34.09 23.664)"><path d="M0 359.003h279.356V0H0v359.003z" transform="translate(-188.52 -226.19)" fill="url(#T)"/></g><g><path d="M26.684 54.1c-.372.962-.46 1.99-.24 2.862.065.232.142.442.24.64l-13.46-5.114a3.75 3.75 0 01-2.094-1.989 3.834 3.834 0 01-.055-2.894c6.007-15.334 17.55-27.463 32.512-34.158 11.16-4.993 23.272-6.529 35.067-4.585-7.76.177-15.862 2.906-23.666 8.131-12.146 8.12-22.198 21.3-28.304 37.108z" fill="none"/><g clip-path="url(#aq)" transform="rotate(-90 34.09 23.664)"><path d="M0 359.003h279.356V0H0v359.003z" transform="translate(-188.52 -226.19)" fill="url(#U)"/></g></g></g><g><path d="M111.462 86.292c-.35.973-.964 1.801-1.699 2.331a2.815 2.815 0 01-.591.32l-24.697-9.378c.197-.133.405-.343.625-.63.449-.608.91-1.48 1.26-2.441 5.777-15.676 9.372-31.076 10.107-43.35.603-9.986-.735-16.98-3.804-20.216a62.714 62.714 0 019.778 5.18c5.525 5.27 9.668 12.584 12.058 21.488 3.804 14.173 2.718 30.755-3.037 46.696z" fill="none"/><g clip-path="url(#ar)" transform="rotate(-90 86.781 2.47)"><path d="M0 359.003h279.356V0H0v359.003z" transform="translate(-157.024 -300.076)" fill="url(#W)"/></g><g><path d="M111.462 86.292c-.35.973-.964 1.801-1.699 2.331a2.815 2.815 0 01-.591.32l-24.697-9.378c.197-.133.405-.343.625-.63.449-.608.91-1.48 1.26-2.441 5.777-15.676 9.372-31.076 10.107-43.35.603-9.986-.735-16.98-3.804-20.216a62.714 62.714 0 019.778 5.18c5.525 5.27 9.668 12.584 12.058 21.488 3.804 14.173 2.718 30.755-3.037 46.696z" fill="none"/><g clip-path="url(#ar)" transform="rotate(-90 86.781 2.47)"><path d="M0 359.003h279.356V0H0v359.003z" transform="translate(-157.024 -300.076)" fill="url(#X)"/></g></g></g><g><path d="M49.846 65.524c-.032.364-.01.663.055.906l-23.217-8.816a2.973 2.973 0 01-.24-.64c-.22-.874-.132-1.912.24-2.873 6.117-15.809 16.158-28.988 28.304-37.108 7.804-5.225 15.905-7.954 23.666-8.13a62.223 62.223 0 018.616 2.065c-4.407.453-9.942 4.806-15.982 12.638C63.8 33.276 56.413 47.23 50.493 62.85c-.362.95-.592 1.922-.647 2.674z" fill="none"/><g clip-path="url(#as)" transform="rotate(-90 46.587 20.297)"><path d="M0 359.003h279.356V0H0v359.003z" transform="translate(-179.39 -242.055)" fill="url(#Z)"/></g><g><path d="M49.846 65.524c-.032.364-.01.663.055.906l-23.217-8.816a2.973 2.973 0 01-.24-.64c-.22-.874-.132-1.912.24-2.873 6.117-15.809 16.158-28.988 28.304-37.108 7.804-5.225 15.905-7.954 23.666-8.13a62.223 62.223 0 018.616 2.065c-4.407.453-9.942 4.806-15.982 12.638C63.8 33.276 56.413 47.23 50.493 62.85c-.362.95-.592 1.922-.647 2.674z" fill="none"/><g clip-path="url(#as)" transform="rotate(-90 46.587 20.297)"><path d="M0 359.003h279.356V0H0v359.003z" transform="translate(-179.39 -242.055)" fill="url(#aa)"/></g></g></g><g><path d="M87.259 10.928c1.118.354 2.236.73 3.343 1.138.69.265 1.37.552 2.05.84 3.058 3.248 4.407 10.24 3.804 20.216-.746 12.285-4.33 27.673-10.107 43.35-.35.96-.8 1.833-1.26 2.44-.22.288-.428.498-.625.63L49.89 66.42a3.144 3.144 0 01-.054-.895c.054-.763.285-1.724.646-2.674 5.93-15.62 13.308-29.573 20.795-39.284 6.029-7.832 11.575-12.185 15.982-12.638z" fill="none"/><g clip-path="url(#at)" transform="rotate(-90 64.537 15.128)"><path d="M0 359.003h279.356V0H0v359.003z" transform="translate(-166.61 -265.173)" fill="url(#ac)"/></g><g><path d="M87.259 10.928c1.118.354 2.236.73 3.343 1.138.69.265 1.37.552 2.05.84 3.058 3.248 4.407 10.24 3.804 20.216-.746 12.285-4.33 27.673-10.107 43.35-.35.96-.8 1.833-1.26 2.44-.22.288-.428.498-.625.63L49.89 66.42a3.144 3.144 0 01-.054-.895c.054-.763.285-1.724.646-2.674 5.93-15.62 13.308-29.573 20.795-39.284 6.029-7.832 11.575-12.185 15.982-12.638z" fill="none"/><g clip-path="url(#at)" transform="rotate(-90 64.537 15.128)"><path d="M0 359.003h279.356V0H0v359.003z" transform="translate(-166.61 -265.173)" fill="url(#ad)"/></g></g></g></g></svg>
