<?xml version="1.0" encoding="utf-8"?>
<svg width="800px" height="148px" viewBox="0 0 800 148" version="1.1" xmlns:xlink="http://www.w3.org/1999/xlink" xmlns="http://www.w3.org/2000/svg">
  <desc>Created with Lunacy</desc>
  <defs>
    <linearGradient x1="1.33395779" y1="0.0108211534" x2="-4.87780666" y2="0.0108211534" id="gradient_1">
      <stop offset="0" stop-color="#0A5CC7" />
      <stop offset="1" stop-color="#82229D" />
    </linearGradient>
    <linearGradient x1="0.00784495752" y1="0.7587212" x2="1.33405745" y2="0.7587212" id="gradient_2">
      <stop offset="0" stop-color="#0A5CC7" />
      <stop offset="1" stop-color="#82229D" />
    </linearGradient>
    <linearGradient x1="0.8167941" y1="0.886328161" x2="-0.2185" y2="0.886328161" id="gradient_3">
      <stop offset="0" stop-color="#FA357F" />
      <stop offset="1" stop-color="#7977FE" />
    </linearGradient>
    <linearGradient x1="0.966965556" y1="0.8164258" x2="0.5429036" y2="0.961426139" id="gradient_4">
      <stop offset="0" stop-color="#FA357F" />
      <stop offset="1" stop-color="#7977FE" />
    </linearGradient>
    <linearGradient x1="0.8527724" y1="0.6311428" x2="-0.182521731" y2="0.6311428" id="gradient_5">
      <stop offset="0" stop-color="#FFF361" />
      <stop offset="1" stop-color="#FFA90B" />
    </linearGradient>
    <linearGradient x1="0.805760264" y1="0.6593487" x2="0.648037" y2="0.9825556" id="gradient_6">
      <stop offset="0" stop-color="#FFF361" />
      <stop offset="1" stop-color="#FFA90B" />
    </linearGradient>
    <linearGradient x1="0.835301459" y1="0.836313248" x2="-0.199992642" y2="0.836313248" id="gradient_7">
      <stop offset="0" stop-color="#FF5162" />
      <stop offset="1" stop-color="#84219C" />
    </linearGradient>
    <linearGradient x1="0.8888746" y1="0.8186094" x2="0.503182054" y2="0.923073351" id="gradient_8">
      <stop offset="0" stop-color="#FF5162" />
      <stop offset="1" stop-color="#84219C" />
    </linearGradient>
    <linearGradient x1="0.8498541" y1="0.674337149" x2="-0.185440034" y2="0.674337149" id="gradient_9">
      <stop offset="0" stop-color="#FFD943" />
      <stop offset="1" stop-color="#FFA90B" />
    </linearGradient>
    <linearGradient x1="0.8344481" y1="0.73146677" x2="0.718221" y2="0.774909437" id="gradient_10">
      <stop offset="0" stop-color="#FFD943" />
      <stop offset="1" stop-color="#FFA90B" />
    </linearGradient>
    <linearGradient x1="0.842459142" y1="0.7398029" x2="-0.192834973" y2="0.7398029" id="gradient_11">
      <stop offset="0" stop-color="#FF8748" />
      <stop offset="1" stop-color="#FA357F" />
    </linearGradient>
    <linearGradient x1="0.8948605" y1="0.7768153" x2="0.5842104" y2="0.827033937" id="gradient_12">
      <stop offset="0" stop-color="#FF8748" />
      <stop offset="1" stop-color="#FA357F" />
    </linearGradient>
    <path d="M4.1684 0L4.1441 51.4623C4.1441 51.4623 40.2776 35.3622 44.9548 69.5658C49.1231 100.052 17.6427 112.097 17.6427 112.097C17.6427 112.097 35.7942 115.718 32.3045 133.845C28.8874 151.732 0 164.911 0 164.911L0 209.736L4.1684 0Z" transform="translate(0.7568 0.7465)" id="path_1" />
    <path d="M0.0485 2.4138L0 214.515C0 215.842 1.0906 216.929 2.4234 216.929C3.7563 216.929 4.8469 215.842 4.8469 214.515L4.8953 2.4138C4.8953 1.0863 3.8048 0 2.4719 0C1.139 0 0.0485 1.0863 0.0485 2.4138ZM10.6874 3.3069L10.6874 32.2726C10.6874 32.9485 11.2205 33.4795 11.8991 33.4795C12.5776 33.4795 13.1108 32.9485 13.1108 32.2726L13.1108 3.3069C13.1108 2.6311 12.5776 2.1001 11.8991 2.1001C11.2205 2.1001 10.6874 2.6311 10.6874 3.3069ZM23.9678 51.2692C23.9678 50.6658 24.4283 50.1347 25.0341 50.0624C25.8581 49.9658 26.6821 49.8934 27.5302 49.8451C28.2088 49.7968 28.7662 50.3037 28.8147 50.9796C28.8389 51.6313 28.3542 52.2107 27.6756 52.2589C26.8759 52.3072 26.1004 52.3796 25.3249 52.4762C24.6582 52.5474 24.056 52.0762 23.9678 51.4141L23.9678 51.2692ZM10.6874 54.7692L10.6874 51.5831C10.6874 50.9072 11.2205 50.3761 11.8991 50.3761C12.5776 50.3761 13.1108 50.9072 13.1108 51.5831L13.1108 52.983C13.7166 52.7658 14.4679 52.5003 15.3404 52.2107C15.9749 52.0183 16.6487 52.3593 16.8671 52.983C17.061 53.6106 16.7217 54.2865 16.0917 54.5037C13.8379 55.2279 12.408 55.8555 12.3838 55.8555C12.0203 56.0244 11.5841 56.0003 11.2205 55.7589C10.857 55.5176 10.6874 55.1796 10.6874 54.7692ZM45.9484 58.4624C45.9484 58.1004 46.0938 57.7624 46.4088 57.521C46.6587 57.3205 46.9788 57.2281 47.2976 57.2644C47.6163 57.3007 47.9072 57.4627 48.1052 57.7141C51.1103 61.4314 53.049 66.5004 53.8973 72.728C54.5516 77.4832 54.3819 82.0694 53.4125 86.3901C53.2355 87.0094 52.6039 87.3833 51.9731 87.2423C51.3424 87.1012 50.9319 86.4943 51.0376 85.8591C51.9342 81.8039 52.1039 77.5073 51.4738 73.0418C50.6741 67.2486 48.905 62.59 46.1907 59.2107C46.0453 58.9935 45.9484 58.7279 45.9484 58.4624ZM37.1513 106.956C36.8362 107.197 36.6908 107.535 36.6908 107.897C36.6908 108.163 36.7878 108.428 36.9816 108.645C37.3936 109.176 38.1691 109.249 38.6781 108.839C40.6411 107.27 42.4828 105.556 44.1065 103.77C44.567 103.263 44.5428 102.514 44.0338 102.056C43.5249 101.597 42.7736 101.645 42.3132 102.128C40.7865 103.818 39.0416 105.435 37.1513 106.956ZM27.1667 113.28C26.7305 113.497 26.4881 113.908 26.4881 114.366C26.4792 114.551 26.5211 114.735 26.6093 114.897C26.7503 115.186 27.0008 115.406 27.3054 115.511C27.6101 115.615 27.9439 115.594 28.2331 115.452C28.8631 115.139 29.6144 114.777 30.4384 114.318C31.02 114.004 31.2381 113.256 30.9231 112.677C30.5976 112.095 29.8647 111.881 29.2751 112.194C28.4754 112.628 27.7726 112.99 27.1667 113.28ZM29.5175 153.277C29.5175 152.987 29.6386 152.673 29.8567 152.432C34.8733 147.218 37.9026 142.004 38.8719 136.911C39.5263 133.435 39.4051 130.273 38.4842 127.546C38.3771 127.242 38.3994 126.907 38.5458 126.62C38.6923 126.333 38.9501 126.118 39.2597 126.025C39.8898 125.808 40.5683 126.146 40.7865 126.797C41.8286 129.935 41.9982 133.508 41.2469 137.394C40.1806 142.946 36.9332 148.57 31.6016 154.122C31.1411 154.604 30.3657 154.628 29.881 154.17C29.6629 153.904 29.5175 153.59 29.5175 153.277ZM9.209 168.218L9.209 169.57C9.209 170.246 9.7422 170.777 10.4208 170.777C11.0993 170.777 11.6325 170.246 11.6325 169.57L11.6325 168.942C12.5292 168.46 14.1529 167.566 16.2128 166.287C16.7702 165.925 16.9641 165.177 16.6006 164.622C16.2432 164.059 15.498 163.887 14.9284 164.235C12.2868 165.877 10.3966 166.866 9.8876 167.132C9.4757 167.349 9.209 167.759 9.209 168.218ZM9.209 181.639L9.209 179.225C9.209 178.549 9.7422 178.018 10.4208 178.018C11.0993 178.018 11.6325 178.549 11.6325 179.225L11.6325 181.639C11.6325 182.315 11.0993 182.846 10.4208 182.846C9.7422 182.846 9.209 182.315 9.209 181.639ZM9.1849 213.042L9.1849 203.363C9.1849 202.687 9.718 202.156 10.3966 202.156C11.0751 202.156 11.6083 202.687 11.6083 203.363L11.6083 213.042C11.6083 213.718 11.0751 214.249 10.3966 214.249C9.7422 214.249 9.1849 213.718 9.1849 213.042Z" transform="translate(0.0783 0.3085)" id="path_2" />
    <path d="M0.0133456 52.7972C-0.205854 43.4943 2.27915 34.3363 7.17615 26.4348C11.6833 19.2341 13.9735 10.8977 13.7542 2.4163C13.7542 1.0873 14.8505 0 16.1905 0C17.5305 0 18.6268 1.0873 18.6268 2.4163C18.8483 11.6893 16.3607 20.8278 11.464 28.7303C6.95685 35.9311 4.66675 44.2675 4.88595 52.7489C4.66755 61.2203 6.95425 69.5698 11.464 76.7674C16.3611 84.6688 18.8461 93.8026 18.6268 103.082C18.8483 112.354 16.3607 121.493 11.464 129.396C2.71785 144.224 2.71785 162.58 11.464 177.408C21.0143 193.673 21.0143 213.772 11.464 230.036C2.69335 244.873 2.69335 263.237 11.464 278.074C21.0143 294.338 21.0143 314.438 11.464 330.702C6.95685 337.903 4.66675 346.239 4.88595 354.72C4.88595 356.049 3.78965 357.136 2.44965 357.136C1.10965 357.136 0.0133456 356.049 0.0133456 354.72C-0.205854 345.441 2.27915 336.308 7.17615 328.406C15.9469 313.57 15.9469 295.206 7.17615 280.369C-2.37415 264.105 -2.37415 244.005 7.17615 227.741C15.9469 212.905 15.9469 194.54 7.17615 179.704C-2.37415 163.44 -2.37415 143.34 7.17615 127.076C11.6833 119.875 13.9735 111.539 13.7542 103.082C13.9491 94.6242 11.6833 86.2878 7.17615 79.1112C2.27915 71.2098 -0.205854 62.076 0.0133456 52.7972Z" transform="translate(0.2937544 0.3752)" id="path_3" />
    <path d="M14.3743 1.45746C14.3743 0.829261 14.7885 0.249361 15.422 0.0560611C16.2016 -0.161439 17.0055 0.273461 17.2492 1.02256C18.1263 3.94626 18.6622 7.03926 18.8815 10.4464C18.979 11.2437 18.3212 11.9445 17.5172 11.9928C16.7132 12.0411 16.0067 11.437 15.9579 10.6397C15.763 7.45006 15.2758 4.57456 14.4474 1.86826C14.3987 1.72326 14.3743 1.57826 14.3743 1.45746ZM15.3732 22.069C15.3732 21.9965 15.3732 21.8999 15.3976 21.8273C15.5194 21.1266 15.6169 20.3775 15.7143 19.6285C15.8195 18.8339 16.5428 18.2665 17.3467 18.3478C18.1507 18.4444 18.7354 19.1935 18.6379 19.9668C18.5405 20.7883 18.4186 21.5616 18.2968 22.3348C18.1507 23.1322 17.3954 23.6638 16.6157 23.5188C15.8849 23.3738 15.3732 22.7698 15.3732 22.069ZM0.536 55.4146C0.5116 55.5113 0.5116 55.5838 0.5116 55.6805C0.5094 56.3845 1.0094 56.9918 1.7054 57.1302C2.0867 57.2008 2.4806 57.1183 2.8004 56.9007C3.1203 56.6833 3.3399 56.3486 3.4109 55.9704C4.7264 49.0354 7.577 44.6135 10.598 39.9258L10.7442 39.7083C11.1827 39.0317 10.9878 38.1377 10.3057 37.7028C9.9796 37.4935 9.583 37.4218 9.2034 37.5034C8.8239 37.585 8.4928 37.8133 8.2835 38.1377L8.1373 38.3552C5.0919 43.0429 1.9491 47.9239 0.536 55.4146ZM1.3156 68.0522C0.5603 68.1246 0 68.777 0 69.502L0 69.6469C0.3167 73.0056 0.9989 76.0745 2.0465 78.998C2.3145 79.7715 3.1672 80.1582 3.9225 79.8921C4.7021 79.6026 5.0919 78.7809 4.8239 78.0316C3.8494 75.3251 3.2403 72.4741 2.9236 69.357C2.8261 68.5595 2.1196 67.9797 1.3156 68.0522ZM6.0908 86.803C6.0908 86.3197 6.3345 85.8365 6.7973 85.5704C7.4925 85.1645 8.3872 85.3786 8.8195 86.0537C9.2337 86.7064 9.6235 87.3586 10.0377 87.9872C10.4762 88.6635 10.2813 89.5576 9.5991 89.9926C8.9169 90.4276 8.0155 90.2345 7.577 89.5576C7.1628 88.9055 6.7486 88.2527 6.3345 87.5764C6.1395 87.3103 6.0908 87.069 6.0908 86.803ZM16.437 103.985C15.6922 104.065 15.1284 104.69 15.1296 105.433C15.1296 105.53 15.1296 105.627 15.1783 105.747C15.763 108.55 16.0554 111.571 16.0554 114.929C16.0554 118.071 15.7874 120.898 15.2758 123.555C15.1278 124.343 15.6513 125.1 16.4452 125.247C17.2391 125.394 18.0027 124.875 18.1507 124.088C18.711 121.236 18.979 118.24 18.979 114.905C18.979 111.329 18.6622 108.139 18.0288 105.119C17.8682 104.393 17.1818 103.904 16.437 103.985ZM5.3843 143.756C5.2625 143.974 5.1894 144.24 5.1894 144.482C5.1894 144.989 5.4574 145.472 5.8959 145.713C6.6024 146.1 7.4795 145.883 7.8937 145.182C8.7708 143.708 9.6722 142.307 10.5736 140.905C11.3289 139.745 12.0842 138.561 12.8151 137.353C13.2292 136.677 13.01 135.783 12.3035 135.372C11.6098 134.97 10.719 135.196 10.3057 135.879C9.5991 137.063 8.8439 138.199 8.113 139.358C7.1872 140.809 6.2614 142.234 5.3843 143.756ZM0.8283 155.162C0.8283 155.065 0.8527 154.944 0.8771 154.823C1.072 154.026 1.2669 153.252 1.4862 152.504C1.7298 151.73 2.5338 151.295 3.3134 151.537C4.093 151.778 4.5315 152.576 4.2879 153.349C4.0687 154.026 3.8737 154.751 3.7032 155.5C3.5327 156.273 2.7287 156.756 1.9491 156.587C1.2913 156.418 0.8283 155.814 0.8283 155.162ZM0.3898 173.55C0.3917 172.844 0.9061 172.242 1.6079 172.124C2.4119 171.979 3.1672 172.511 3.289 173.309C4.5559 180.581 7.5283 185.172 10.4031 189.619C10.8417 190.295 10.6468 191.189 9.9646 191.624C9.2824 192.059 8.381 191.866 7.9424 191.189C5.0432 186.719 1.7785 181.645 0.4142 173.792C0.4142 173.719 0.3898 173.622 0.3898 173.55ZM15.3597 201.277C14.6513 201.384 14.1227 201.981 14.1063 202.691C14.1063 202.836 14.1307 202.981 14.1794 203.174C15.0809 205.881 15.6412 208.732 15.8849 211.897C15.9579 212.695 16.6645 213.299 17.4685 213.227C18.2724 213.154 18.9059 212.501 18.8085 211.656C18.5405 208.249 17.9314 205.18 16.9812 202.256C16.752 201.583 16.0682 201.17 15.3597 201.277ZM15.5437 223.061C15.5194 223.133 15.5194 223.206 15.5194 223.279C15.5194 223.979 16.031 224.607 16.7863 224.704C17.5659 224.825 18.3212 224.294 18.443 223.496C18.5648 222.722 18.6622 221.95 18.7354 221.128C18.7762 220.743 18.66 220.358 18.4129 220.058C18.1658 219.759 17.8082 219.57 17.4197 219.533C16.6133 219.456 15.8951 220.038 15.8118 220.838C15.7386 221.611 15.6412 222.336 15.5437 223.061ZM4.19626 246.973L7.51093 246.973C8.47047 245.269 9.51057 243.653 10.5736 242.005L11.1827 241.039C11.6213 240.362 11.4264 239.468 10.7442 239.033C10.4182 238.824 10.0215 238.752 9.642 238.833C9.2624 238.915 8.9313 239.143 8.722 239.468L8.113 240.435C6.77944 242.513 5.42013 244.622 4.19626 246.973Z" transform="translate(0.4356 0.02683892)" id="path_4" />
    <path d="M19.9319 151.056L0 151.056L2.9993 0L2.9751 51.4621C2.9751 51.4621 39.0751 35.3622 43.748 69.5655C47.9125 100.052 16.4612 112.097 16.4612 112.097C16.4612 112.097 34.5959 115.717 31.1094 133.846C29.8703 140.338 25.2789 146.209 19.9319 151.056L19.9319 151.056Z" transform="translate(0.9871045 0.9439)" id="path_5" />
    <path d="M0 153.47L4.8424 153.47L4.87694 2.4143C4.87694 1.0865 3.78734 0 2.45574 0C1.12404 0 0.0345412 1.0865 0.0345412 2.4143L0 153.47ZM10.6635 32.2727L10.6635 3.3072C10.6635 2.6315 11.1962 2.1 11.8741 2.1C12.552 2.1 13.0847 2.6315 13.0847 3.3072L13.0847 32.2727C13.0847 32.9484 12.552 33.4799 11.8741 33.4799C11.1962 33.4799 10.6635 32.9243 10.6635 32.2727ZM24.997 50.0624C24.3917 50.1348 23.9317 50.6663 23.9317 51.2696L23.9317 51.4144C24.0198 52.0765 24.6214 52.5479 25.2875 52.4762C26.0623 52.3796 26.8371 52.3073 27.6361 52.259C28.314 52.2107 28.7983 51.6316 28.7741 50.98C28.7256 50.3037 28.1687 49.797 27.4908 49.8452C26.6434 49.8935 25.8202 49.9659 24.997 50.0624ZM10.6635 51.5833L10.6635 54.7693C10.6635 55.1801 10.833 55.5179 11.1962 55.7593C11.5594 56.0006 11.9952 56.0247 12.3584 55.8558C12.3826 55.8558 13.8111 55.2284 16.0628 54.5038C16.6923 54.2866 17.0312 53.611 16.8376 52.9835C16.6194 52.3592 15.9462 52.0183 15.3122 52.2107C14.4406 52.5003 13.69 52.7657 13.0847 52.9835L13.0847 51.5833C13.0847 50.9076 12.552 50.3761 11.8741 50.3761C11.1962 50.3761 10.6635 50.9076 10.6635 51.5833ZM53.842 72.7672L53.842 83.6894C53.7112 84.5922 53.5468 85.4848 53.3492 86.3663C53.1723 86.9857 52.5413 87.3594 51.9112 87.2184C51.281 87.0773 50.8708 86.4703 50.9764 85.8355C51.8722 81.7802 52.0417 77.4836 51.4123 73.0181C50.6133 67.2247 48.8458 62.5661 46.134 59.1865C45.9718 58.9712 45.8866 58.7076 45.8919 58.4384C45.8919 58.0765 46.0372 57.7386 46.3519 57.4973C46.6016 57.2968 46.9214 57.204 47.2399 57.2405C47.5583 57.2771 47.8489 57.4385 48.0468 57.6904C51.0491 61.4072 52.986 66.4766 53.8334 72.7043C53.8363 72.7253 53.8392 72.7463 53.842 72.7672ZM37.103 106.956C36.7882 107.197 36.643 107.535 36.643 107.898C36.643 108.163 36.7398 108.428 36.9335 108.646C37.3451 109.177 38.1198 109.249 38.6283 108.839C40.5895 107.27 42.4296 105.556 44.0518 103.77C44.5118 103.263 44.4877 102.514 43.9792 102.056C43.4707 101.597 42.7201 101.646 42.2602 102.128C40.7347 103.818 38.9915 105.435 37.103 106.956ZM26.4497 114.367C26.4497 113.908 26.6918 113.497 27.1276 113.28C27.733 112.991 28.4351 112.629 29.2341 112.194C29.8232 111.881 30.5553 112.095 30.8805 112.677C31.1952 113.256 30.9774 114.004 30.3962 114.318C29.5731 114.777 28.8225 115.139 28.193 115.453C27.8174 115.636 27.3734 115.613 27.0187 115.393C26.664 115.171 26.4489 114.783 26.4497 114.367ZM29.4941 153.47L32.1737 153.47C37.1355 148.13 40.1712 142.729 41.1948 137.394C41.9454 133.508 41.7759 129.936 40.7347 126.797C40.5169 126.146 39.8389 125.808 39.2094 126.025C38.9002 126.118 38.6425 126.333 38.4962 126.62C38.3499 126.907 38.3277 127.242 38.4346 127.546C39.3547 130.273 39.4758 133.435 38.822 136.911C37.8535 142.004 34.827 147.218 29.8152 152.432C29.5972 152.673 29.4762 152.987 29.4762 153.277C29.4762 153.341 29.4824 153.406 29.4941 153.47Z" transform="translate(0.1579588 0.5296)" id="path_6" />
    <path d="M0.35789 37.491L13.3594 3.47187C14.4222 0.690915 17.5452 -0.706835 20.3261 0.35604L67.0616 18.2137C69.8497 19.2766 71.2474 22.407 70.1846 25.1952L62.0896 46.3799C61.58 47.7194 60.5609 48.7969 59.2505 49.3864L41.5682 57.3216C40.2578 57.9113 38.7655 57.9549 37.426 57.438L3.48817 44.4653C2.14552 43.9592 1.06012 42.9384 0.472552 41.6292C-0.115015 40.3201 -0.156283 38.8307 0.35789 37.491Z" transform="translate(0.01310637 0.01017233)" id="path_7" />
    <path d="M12.8033 32.3359C11.1227 33.0929 9.14634 32.3472 8.38452 30.6688L0.296809 12.8037C-0.461938 11.1231 0.284116 9.1455 1.96386 8.38483L19.8282 0.296813C21.5088 -0.461953 23.4863 0.284139 24.2469 1.96393C25.0057 3.64457 24.2596 5.62221 22.5799 6.38284L12.068 11.1439L53.1473 26.6211C54.8726 27.2763 55.7461 29.2055 55.0982 30.9309C54.4431 32.6562 52.514 33.5299 50.7886 32.8818L9.70945 17.4047L14.4703 27.9169C15.2291 29.5975 14.483 31.5751 12.8033 32.3359Z" transform="translate(0.1100416 0.01891561)" id="path_8" />
    <path d="M4.96611 0L21.2871 6.14914C23.0123 6.80435 23.8859 8.73353 23.238 10.4589C22.5828 12.1843 20.6537 13.0579 18.9284 12.4099L0 5.27834L4.96611 4.27801e-14L4.96611 0Z" transform="translate(0.086384 0.02027047)" id="path_9" />
    <path d="M32.796 15.0111C22.9247 19.5685 11.8523 20.0561 1.63891 16.3798C1.01435 16.1583 0.505411 15.6945 0.227269 15.0929C-0.050843 14.4914 -0.0746958 13.8032 0.161155 13.1838L3.44429 4.46986C3.49525 4.6008 3.56804 4.73193 3.65539 4.86288C3.99026 5.35071 4.53623 5.75826 5.17685 5.99129C15.6741 9.82057 26.6082 10.534 35.9481 8.00782C41.8155 6.42082 46.6346 3.66909 50.107 0C45.9212 6.50091 39.9737 11.6987 32.796 15.0111Z" transform="translate(0.08847201 0.2925729)" id="path_10" />
    <path d="M2.30767 10.5373C1.67433 10.2898 0.997335 10.2316 0.422221 10.3771C0.269359 10.4208 0.131025 10.4718 0 10.5373L3.37049 1.59751C3.60426 0.977767 4.07606 0.47717 4.68083 0.207049C5.28506 -0.0550348 5.96933 -0.069575 6.58809 0.170653C16.6923 4.16007 24.6854 11.8259 29.0969 21.763C32.3873 29.174 33.3992 37.2183 32.118 45.0516C32.0015 39.8974 30.2034 34.5174 26.7601 29.3341C21.4095 21.2679 12.7249 14.5922 2.30767 10.5373Z" transform="translate(0.1000433 0.2604331)" id="path_11" />
    <path d="M1.74715 17.9232C1.10655 17.6904 0.560555 17.2826 0.211126 16.7948C0.123776 16.6711 0.0509541 16.5327 0 16.4018L6.18048 0C6.2678 0.131132 6.40614 0.269339 6.59543 0.415011C6.99578 0.7134 7.57089 1.01925 8.20421 1.25211C18.5341 5.08863 28.6819 7.47658 36.7697 7.96423C43.3505 8.3647 47.9585 7.47658 50.0915 5.43807C49.1462 7.69863 48.0037 9.87161 46.6773 11.9319C43.2049 15.601 38.3858 18.3527 32.5183 19.9397C23.1785 22.4659 12.2517 21.7452 1.74715 17.9232Z" transform="translate(0.2021921 0.1084038)" id="path_12" />
    <path d="M0.596951 15.6214C0.356709 15.5995 0.160141 15.6141 0 15.6577L5.80919 0.23885C5.94021 0.173314 6.07852 0.115093 6.23141 0.0786676C6.80649 -0.0669144 7.49079 -0.00869366 8.12414 0.23885C18.5414 4.30106 27.226 10.9695 32.5766 19.0356C36.0199 24.219 37.818 29.5989 37.9344 34.7531C37.6214 36.675 37.1628 38.5897 36.5731 40.4751C36.2747 37.5486 33.4065 33.8722 28.2451 29.861C21.8463 24.8887 12.6521 19.982 2.35863 16.0509C1.73256 15.8106 1.09196 15.6577 0.596951 15.6214Z" transform="translate(0.2994079 0.02257151)" id="path_13" />
    <path d="M45.2141 24.8593C44.9812 25.6019 44.7337 26.3444 44.4643 27.0798C44.2896 27.5383 44.1003 27.9897 43.9111 28.441C41.7708 30.472 37.1628 31.3676 30.5892 30.9672C22.4942 30.472 12.3536 28.0916 2.02376 24.255C1.39044 24.0222 0.815356 23.7236 0.414972 23.4179C0.225684 23.2723 0.0873799 23.1339 0 23.0029L8.64827 0.0419794C8.80113 0.00558389 8.9977 -0.00898636 9.23794 0.00558389C9.74023 0.0419794 10.3735 0.194847 10.9996 0.435075C21.2931 4.37353 30.4873 9.27295 36.8861 14.2452C42.0474 18.2492 44.9156 21.9328 45.2141 24.8593Z" transform="translate(0.08058206 0.2781445)" id="path_14" />
    <path d="M0.643574 67.6563L24.0235 6.26534C25.9347 1.24682 31.5506 -1.27555 36.5512 0.64251L120.593 32.8685C125.607 34.7865 128.12 40.4356 126.209 45.4672L111.652 83.6971C110.736 86.1142 108.903 88.0588 106.547 89.1227L74.7498 103.442C72.3935 104.507 69.7099 104.585 67.3012 103.653L6.27258 80.2419C3.85818 79.3286 1.90635 77.4865 0.849764 75.124C-0.206824 72.7616 -0.281036 70.0738 0.643574 67.6563Z" transform="translate(0.02356847 0.01835697)" id="path_15" />
    <path d="M23.0235 58.3532C20.0013 59.7193 16.4474 58.3737 15.0774 55.3448L0.533736 23.1056C-0.830677 20.0727 0.51091 16.5039 3.5315 15.1313L35.656 0.535628C38.6781 -0.83364 42.2342 0.512757 43.602 3.54411C44.9664 6.57698 43.6248 10.1458 40.6042 11.5185L21.7013 20.1103L95.5719 48.0404C98.6744 49.2227 100.245 52.7041 99.0802 55.8178C97.902 58.9314 94.433 60.5079 91.3305 59.3384L17.46 31.4085L26.0212 50.3787C27.3857 53.4117 26.0441 56.9804 23.0235 58.3532Z" transform="translate(0.1978819 0.03413506)" id="path_16" />
    <path d="M8.93028 0L38.2793 11.0967C41.3818 12.2791 42.9526 15.7605 41.7876 18.8742C40.6094 21.9877 37.1404 23.5643 34.0379 22.3948L0 9.52529L8.93028 7.72008e-14L8.93028 0Z" transform="translate(0.1553396 0.03658005)" id="path_17" />
    <path d="M58.9752 27.089C41.2242 35.3133 21.3134 36.1933 2.94717 29.5589C1.82405 29.1593 0.908853 28.3223 0.408685 27.2365C-0.0914282 26.1512 -0.134321 24.9091 0.289796 23.7915L6.19369 8.06629C6.28532 8.30259 6.41621 8.53924 6.57329 8.77554C7.17547 9.65588 8.15725 10.3914 9.30925 10.8119C28.186 17.7222 47.8481 19.0096 64.6435 14.4509C75.1945 11.587 83.8605 6.62123 90.1047 0C82.5776 11.7315 71.8826 21.1115 58.9752 27.089Z" transform="translate(0.1590944 0.5279763)" id="path_18" />
    <path d="M4.14976 19.0156C3.01085 18.5689 1.79345 18.4638 0.759257 18.7266C0.484373 18.8054 0.235615 18.8974 0 19.0156L6.06097 2.88287C6.48135 1.76448 7.32975 0.861101 8.41728 0.37364C9.50383 -0.0993158 10.7343 -0.125555 11.847 0.307961C30.0169 7.50725 44.3904 21.3409 52.3234 39.2734C58.2403 52.6473 60.0599 67.164 57.756 81.3C57.5465 71.9987 54.3131 62.2901 48.1212 52.9363C38.4996 38.3801 22.8825 26.3331 4.14976 19.0156Z" transform="translate(0.1799024 0.469977)" id="path_19" />
    <path d="M3.1418 32.3442C1.98985 31.924 1.00802 31.1882 0.379656 30.3078C0.222579 30.0847 0.091628 29.8349 0 29.5986L11.114 0C11.2711 0.236641 11.5198 0.486048 11.8602 0.748928C12.5801 1.2874 13.6143 1.83934 14.7532 2.25955C33.3288 9.18292 51.5772 13.4922 66.1209 14.3722C77.9549 15.0949 86.2412 13.4922 90.0768 9.81353C88.377 13.8929 86.3225 17.8143 83.9373 21.5323C77.693 28.1535 69.0271 33.1193 58.476 35.9832C41.6807 40.5419 22.0316 39.2414 3.1418 32.3442Z" transform="translate(0.363591 0.1956253)" id="path_20" />
    <path d="M1.07346 28.1903C0.64145 28.1509 0.287974 28.1772 0 28.2559L10.4463 0.431028C10.682 0.312762 10.9307 0.207697 11.2056 0.141963C12.2397 -0.120754 13.4703 -0.0156886 14.6092 0.431028C33.3419 7.76168 48.959 19.7955 58.5807 34.3517C64.7725 43.7055 68.006 53.4141 68.2154 62.7154C67.6525 66.1837 66.8278 69.6388 65.7675 73.0412C65.2307 67.7601 60.073 61.1258 50.7917 53.8871C39.285 44.9141 22.7515 36.0595 4.24139 28.9654C3.11557 28.5319 1.96362 28.2559 1.07346 28.1903Z" transform="translate(0.538409 0.0407325)" id="path_21" />
    <path d="M81.3061 44.861C80.8872 46.2012 80.4421 47.541 79.9577 48.8681C79.6435 49.6956 79.3032 50.5101 78.9629 51.3246C75.1142 54.9898 66.8278 56.606 55.007 55.8833C40.4501 54.9898 22.2149 50.694 3.63921 43.7705C2.50035 43.3504 1.46621 42.8115 0.746222 42.26C0.405835 41.9971 0.157131 41.7474 0 41.511L15.5517 0.0757559C15.8266 0.0100767 16.1801 -0.0162168 16.6121 0.0100767C17.5153 0.0757559 18.6542 0.35162 19.78 0.785135C38.2902 7.89245 54.8237 16.7339 66.3303 25.7068C75.6116 32.9325 80.7693 39.5799 81.3061 44.861Z" transform="translate(0.1449063 0.5019389)" id="path_22" />
    <path d="M0.543114 56.452L20.2735 5.22777C21.8864 1.04034 26.6257 -1.06431 30.8457 0.536107L101.769 27.4253C106 29.0257 108.121 33.7393 106.508 37.9376L94.2237 69.8364C93.4504 71.8533 91.9038 73.4758 89.9152 74.3635L63.0815 86.3119C61.093 87.1998 58.8283 87.2655 56.7956 86.4872L5.29345 66.9534C3.25593 66.1914 1.60878 64.6543 0.717118 62.6831C-0.17454 60.7119 -0.237167 58.4692 0.543114 56.452Z" transform="translate(0.01988949 0.01531696)" id="path_23" />
    <path d="M19.4296 48.6896C16.8791 49.8295 13.88 48.7067 12.7239 46.1794L0.450421 19.2792C-0.701011 16.7486 0.431158 13.7708 2.98024 12.6254L30.0902 0.446926C32.6405 -0.695585 35.6415 0.427842 36.7958 2.95718C37.9473 5.4878 36.8151 8.46562 34.266 9.61094L18.3138 16.7799L80.6534 40.0846C83.2716 41.0712 84.5972 43.9761 83.614 46.5741C82.6197 49.172 79.6922 50.4875 77.074 49.5117L14.7345 26.2071L21.9594 42.0358C23.1108 44.5664 21.9787 47.5442 19.4296 48.6896Z" transform="translate(0.166993 0.02848212)" id="path_24" />
    <path d="M7.53628 0L32.304 9.25906C34.9222 10.2456 36.2478 13.1505 35.2647 15.7485C34.2704 18.3465 31.3429 19.6619 28.7247 18.6861L0 7.94785L7.53628 6.4416e-14L7.53628 0Z" transform="translate(0.1310915 0.0305222)" id="path_25" />
    <path d="M49.7693 22.6029C34.7892 29.4652 17.9864 30.1995 2.48712 24.6638C1.53932 24.3303 0.766983 23.632 0.344891 22.726C-0.0771565 21.8204 -0.113354 20.7841 0.24456 19.8515L5.22687 6.73047C5.30419 6.92764 5.41466 7.12509 5.54722 7.32227C6.0554 8.05682 6.88393 8.67049 7.8561 9.02136C23.7862 14.7873 40.3791 15.8615 54.5528 12.0577C63.4568 9.66813 70.7701 5.52472 76.0396 0C69.6874 9.78873 60.6619 17.6153 49.7693 22.6029Z" transform="translate(0.1342602 0.4405408)" id="path_26" />
    <path d="M3.50199 15.8665C2.54086 15.4938 1.5135 15.4061 0.640739 15.6253C0.408764 15.6911 0.198836 15.7679 0 15.8665L5.11487 2.40545C5.46963 1.47227 6.18559 0.718498 7.10336 0.311763C8.02031 -0.0828686 9.05872 -0.104762 9.99771 0.256961C25.3313 6.26401 37.4612 17.8067 44.1558 32.7695C49.1491 43.9286 50.6847 56.0413 48.7404 67.8363C48.5637 60.0754 45.835 51.9745 40.6096 44.1698C32.4899 32.0241 19.3106 21.9722 3.50199 15.8665Z" transform="translate(0.15182 0.3921464)" id="path_27" />
    <path d="M2.65137 26.9878C1.67924 26.6372 0.850667 26.0233 0.320392 25.2887C0.187835 25.1025 0.0773251 24.8941 0 24.6969L9.37916 0C9.51167 0.197452 9.7216 0.405556 10.0088 0.624902C10.6164 1.0742 11.4892 1.53474 12.4502 1.88536C28.1263 7.66219 43.5261 11.2578 55.7996 11.9921C65.7863 12.5951 72.7792 11.2578 76.0161 8.18836C74.5815 11.5922 72.8477 14.8642 70.8349 17.9664C65.5654 23.4912 58.2521 27.6346 49.348 30.0242C35.1744 33.828 18.5925 32.7428 2.65137 26.9878Z" transform="translate(0.3068354 0.1632287)" id="path_28" />
    <path d="M0.905899 23.5218C0.541321 23.4889 0.243022 23.5109 0 23.5766L8.8157 0.359648C9.01453 0.260967 9.22441 0.173301 9.45644 0.118453C10.3292 -0.100756 11.3676 -0.0130904 12.3287 0.359648C28.1373 6.47631 41.3166 16.5173 49.4364 28.6629C54.6617 36.4676 57.3904 44.5685 57.5671 52.3294C57.0921 55.2233 56.3961 58.1063 55.5013 60.9452C55.0484 56.5387 50.6958 51.003 42.8632 44.9631C33.1527 37.4761 19.2001 30.0879 3.57932 24.1686C2.62923 23.8068 1.6571 23.5766 0.905899 23.5218Z" transform="translate(0.4543647 0.03398699)" id="path_29" />
    <path d="M68.6144 37.4318C68.2609 38.55 67.8853 39.668 67.4765 40.7753C67.2114 41.4658 66.9242 42.1454 66.637 42.825C63.389 45.8832 56.3961 47.2317 46.4205 46.6287C34.136 45.8832 18.7472 42.2988 3.07114 36.5219C2.11005 36.1713 1.23734 35.7217 0.629738 35.2615C0.342485 35.0422 0.132603 34.8338 0 34.6366L13.1241 0.0632103C13.3561 0.00840792 13.6544 -0.0135312 14.019 0.00840792C14.7812 0.0632103 15.7423 0.29339 16.6924 0.655113C32.3132 6.58542 46.2658 13.9627 55.9763 21.4497C63.8088 27.4787 68.1615 33.0253 68.6144 37.4318Z" transform="translate(0.1222868 0.4188153)" id="path_30" />
    <clipPath id="mask_1">
      <use xlink:href="#path_1" />
    </clipPath>
    <clipPath id="mask_2">
      <use xlink:href="#path_2" />
    </clipPath>
    <clipPath id="mask_3">
      <use xlink:href="#path_3" />
    </clipPath>
    <clipPath id="mask_4">
      <use xlink:href="#path_4" />
    </clipPath>
    <clipPath id="mask_5">
      <use xlink:href="#path_5" />
    </clipPath>
    <clipPath id="mask_6">
      <use xlink:href="#path_6" />
    </clipPath>
    <clipPath id="mask_7">
      <use xlink:href="#path_7" />
    </clipPath>
    <clipPath id="mask_8">
      <use xlink:href="#path_8" />
    </clipPath>
    <clipPath id="mask_9">
      <use xlink:href="#path_9" />
    </clipPath>
    <clipPath id="mask_10">
      <use xlink:href="#path_10" />
    </clipPath>
    <clipPath id="mask_11">
      <use xlink:href="#path_11" />
    </clipPath>
    <clipPath id="mask_12">
      <use xlink:href="#path_12" />
    </clipPath>
    <clipPath id="mask_13">
      <use xlink:href="#path_13" />
    </clipPath>
    <clipPath id="mask_14">
      <use xlink:href="#path_14" />
    </clipPath>
    <clipPath id="mask_15">
      <use xlink:href="#path_15" />
    </clipPath>
    <clipPath id="mask_16">
      <use xlink:href="#path_16" />
    </clipPath>
    <clipPath id="mask_17">
      <use xlink:href="#path_17" />
    </clipPath>
    <clipPath id="mask_18">
      <use xlink:href="#path_18" />
    </clipPath>
    <clipPath id="mask_19">
      <use xlink:href="#path_19" />
    </clipPath>
    <clipPath id="mask_20">
      <use xlink:href="#path_20" />
    </clipPath>
    <clipPath id="mask_21">
      <use xlink:href="#path_21" />
    </clipPath>
    <clipPath id="mask_22">
      <use xlink:href="#path_22" />
    </clipPath>
    <clipPath id="mask_23">
      <use xlink:href="#path_23" />
    </clipPath>
    <clipPath id="mask_24">
      <use xlink:href="#path_24" />
    </clipPath>
    <clipPath id="mask_25">
      <use xlink:href="#path_25" />
    </clipPath>
    <clipPath id="mask_26">
      <use xlink:href="#path_26" />
    </clipPath>
    <clipPath id="mask_27">
      <use xlink:href="#path_27" />
    </clipPath>
    <clipPath id="mask_28">
      <use xlink:href="#path_28" />
    </clipPath>
    <clipPath id="mask_29">
      <use xlink:href="#path_29" />
    </clipPath>
    <clipPath id="mask_30">
      <use xlink:href="#path_30" />
    </clipPath>
  </defs>
  <g id="Group-6007" transform="matrix(-4.371139E-08 -1 1 -4.371139E-08 65 57)">
    <g id="Group-6003" transform="translate(0 2)">
      <path d="M4.1684 0L4.1441 51.4623C4.1441 51.4623 40.2776 35.3622 44.9548 69.5658C49.1231 100.052 17.6427 112.097 17.6427 112.097C17.6427 112.097 35.7942 115.718 32.3045 133.845C28.8874 151.732 0 164.911 0 164.911L0 209.736L4.1684 0Z" transform="translate(0.7568 0.7465)" id="Clip-6002" fill="none" stroke="none" />
      <g clip-path="url(#mask_1)">
        <path d="M51.5225 0L51.5225 215.923L0 215.923L0 0L51.5225 0Z" transform="translate(-2.3369 -2.3473)" id="Fill-6001" fill="#EDEDF0" fill-opacity="0.5019608" stroke="none" />
      </g>
    </g>
    <g id="Group-6006">
      <path d="M0.0485 2.4138L0 214.515C0 215.842 1.0906 216.929 2.4234 216.929C3.7563 216.929 4.8469 215.842 4.8469 214.515L4.8953 2.4138C4.8953 1.0863 3.8048 0 2.4719 0C1.139 0 0.0485 1.0863 0.0485 2.4138ZM10.6874 3.3069L10.6874 32.2726C10.6874 32.9485 11.2205 33.4795 11.8991 33.4795C12.5776 33.4795 13.1108 32.9485 13.1108 32.2726L13.1108 3.3069C13.1108 2.6311 12.5776 2.1001 11.8991 2.1001C11.2205 2.1001 10.6874 2.6311 10.6874 3.3069ZM23.9678 51.2692C23.9678 50.6658 24.4283 50.1347 25.0341 50.0624C25.8581 49.9658 26.6821 49.8934 27.5302 49.8451C28.2088 49.7968 28.7662 50.3037 28.8147 50.9796C28.8389 51.6313 28.3542 52.2107 27.6756 52.2589C26.8759 52.3072 26.1004 52.3796 25.3249 52.4762C24.6582 52.5474 24.056 52.0762 23.9678 51.4141L23.9678 51.2692ZM10.6874 54.7692L10.6874 51.5831C10.6874 50.9072 11.2205 50.3761 11.8991 50.3761C12.5776 50.3761 13.1108 50.9072 13.1108 51.5831L13.1108 52.983C13.7166 52.7658 14.4679 52.5003 15.3404 52.2107C15.9749 52.0183 16.6487 52.3593 16.8671 52.983C17.061 53.6106 16.7217 54.2865 16.0917 54.5037C13.8379 55.2279 12.408 55.8555 12.3838 55.8555C12.0203 56.0244 11.5841 56.0003 11.2205 55.7589C10.857 55.5176 10.6874 55.1796 10.6874 54.7692ZM45.9484 58.4624C45.9484 58.1004 46.0938 57.7624 46.4088 57.521C46.6587 57.3205 46.9788 57.2281 47.2976 57.2644C47.6163 57.3007 47.9072 57.4627 48.1052 57.7141C51.1103 61.4314 53.049 66.5004 53.8973 72.728C54.5516 77.4832 54.3819 82.0694 53.4125 86.3901C53.2355 87.0094 52.6039 87.3833 51.9731 87.2423C51.3424 87.1012 50.9319 86.4943 51.0376 85.8591C51.9342 81.8039 52.1039 77.5073 51.4738 73.0418C50.6741 67.2486 48.905 62.59 46.1907 59.2107C46.0453 58.9935 45.9484 58.7279 45.9484 58.4624ZM37.1513 106.956C36.8362 107.197 36.6908 107.535 36.6908 107.897C36.6908 108.163 36.7878 108.428 36.9816 108.645C37.3936 109.176 38.1691 109.249 38.6781 108.839C40.6411 107.27 42.4828 105.556 44.1065 103.77C44.567 103.263 44.5428 102.514 44.0338 102.056C43.5249 101.597 42.7736 101.645 42.3132 102.128C40.7865 103.818 39.0416 105.435 37.1513 106.956ZM27.1667 113.28C26.7305 113.497 26.4881 113.908 26.4881 114.366C26.4792 114.551 26.5211 114.735 26.6093 114.897C26.7503 115.186 27.0008 115.406 27.3054 115.511C27.6101 115.615 27.9439 115.594 28.2331 115.452C28.8631 115.139 29.6144 114.777 30.4384 114.318C31.02 114.004 31.2381 113.256 30.9231 112.677C30.5976 112.095 29.8647 111.881 29.2751 112.194C28.4754 112.628 27.7726 112.99 27.1667 113.28ZM29.5175 153.277C29.5175 152.987 29.6386 152.673 29.8567 152.432C34.8733 147.218 37.9026 142.004 38.8719 136.911C39.5263 133.435 39.4051 130.273 38.4842 127.546C38.3771 127.242 38.3994 126.907 38.5458 126.62C38.6923 126.333 38.9501 126.118 39.2597 126.025C39.8898 125.808 40.5683 126.146 40.7865 126.797C41.8286 129.935 41.9982 133.508 41.2469 137.394C40.1806 142.946 36.9332 148.57 31.6016 154.122C31.1411 154.604 30.3657 154.628 29.881 154.17C29.6629 153.904 29.5175 153.59 29.5175 153.277ZM9.209 168.218L9.209 169.57C9.209 170.246 9.7422 170.777 10.4208 170.777C11.0993 170.777 11.6325 170.246 11.6325 169.57L11.6325 168.942C12.5292 168.46 14.1529 167.566 16.2128 166.287C16.7702 165.925 16.9641 165.177 16.6006 164.622C16.2432 164.059 15.498 163.887 14.9284 164.235C12.2868 165.877 10.3966 166.866 9.8876 167.132C9.4757 167.349 9.209 167.759 9.209 168.218ZM9.209 181.639L9.209 179.225C9.209 178.549 9.7422 178.018 10.4208 178.018C11.0993 178.018 11.6325 178.549 11.6325 179.225L11.6325 181.639C11.6325 182.315 11.0993 182.846 10.4208 182.846C9.7422 182.846 9.209 182.315 9.209 181.639ZM9.1849 213.042L9.1849 203.363C9.1849 202.687 9.718 202.156 10.3966 202.156C11.0751 202.156 11.6083 202.687 11.6083 203.363L11.6083 213.042C11.6083 213.718 11.0751 214.249 10.3966 214.249C9.7422 214.249 9.1849 213.718 9.1849 213.042Z" transform="translate(0.0783 0.3085)" id="Clip-6005" fill="none" fill-rule="evenodd" stroke="none" />
      <g clip-path="url(#mask_2)">
        <path d="M60.476 0L60.476 223.116L0 223.116L0 0L60.476 0Z" transform="translate(-3.0154 -2.7852)" id="Fill-6004" fill="#EDEDF0" fill-opacity="0.5019608" stroke="none" />
      </g>
    </g>
  </g>
  <g id="Group-6014" transform="matrix(-4.371139E-08 -1 1 -4.371139E-08 62 137)">
    <g id="Group-6010">
      <path d="M0.0133456 52.7972C-0.205854 43.4943 2.27915 34.3363 7.17615 26.4348C11.6833 19.2341 13.9735 10.8977 13.7542 2.4163C13.7542 1.0873 14.8505 0 16.1905 0C17.5305 0 18.6268 1.0873 18.6268 2.4163C18.8483 11.6893 16.3607 20.8278 11.464 28.7303C6.95685 35.9311 4.66675 44.2675 4.88595 52.7489C4.66755 61.2203 6.95425 69.5698 11.464 76.7674C16.3611 84.6688 18.8461 93.8026 18.6268 103.082C18.8483 112.354 16.3607 121.493 11.464 129.396C2.71785 144.224 2.71785 162.58 11.464 177.408C21.0143 193.673 21.0143 213.772 11.464 230.036C2.69335 244.873 2.69335 263.237 11.464 278.074C21.0143 294.338 21.0143 314.438 11.464 330.702C6.95685 337.903 4.66675 346.239 4.88595 354.72C4.88595 356.049 3.78965 357.136 2.44965 357.136C1.10965 357.136 0.0133456 356.049 0.0133456 354.72C-0.205854 345.441 2.27915 336.308 7.17615 328.406C15.9469 313.57 15.9469 295.206 7.17615 280.369C-2.37415 264.105 -2.37415 244.005 7.17615 227.741C15.9469 212.905 15.9469 194.54 7.17615 179.704C-2.37415 163.44 -2.37415 143.34 7.17615 127.076C11.6833 119.875 13.9735 111.539 13.7542 103.082C13.9491 94.6242 11.6833 86.2878 7.17615 79.1112C2.27915 71.2098 -0.205854 62.076 0.0133456 52.7972Z" transform="translate(0.2937544 0.3752)" id="Clip-6009" fill="none" stroke="none" />
      <g clip-path="url(#mask_3)">
        <path d="M39.8776 0L39.8776 497.627L0 497.627L0 0L39.8776 0Z" transform="translate(-2.8 -2.7186)" id="Fill-6008" fill="#EDEDF0" fill-opacity="0.5019608" stroke="none" />
      </g>
    </g>
    <g id="Group-6013" transform="translate(16 190)">
      <path d="M14.3743 1.45746C14.3743 0.829261 14.7885 0.249361 15.422 0.0560611C16.2016 -0.161439 17.0055 0.273461 17.2492 1.02256C18.1263 3.94626 18.6622 7.03926 18.8815 10.4464C18.979 11.2437 18.3212 11.9445 17.5172 11.9928C16.7132 12.0411 16.0067 11.437 15.9579 10.6397C15.763 7.45006 15.2758 4.57456 14.4474 1.86826C14.3987 1.72326 14.3743 1.57826 14.3743 1.45746ZM15.3732 22.069C15.3732 21.9965 15.3732 21.8999 15.3976 21.8273C15.5194 21.1266 15.6169 20.3775 15.7143 19.6285C15.8195 18.8339 16.5428 18.2665 17.3467 18.3478C18.1507 18.4444 18.7354 19.1935 18.6379 19.9668C18.5405 20.7883 18.4186 21.5616 18.2968 22.3348C18.1507 23.1322 17.3954 23.6638 16.6157 23.5188C15.8849 23.3738 15.3732 22.7698 15.3732 22.069ZM0.536 55.4146C0.5116 55.5113 0.5116 55.5838 0.5116 55.6805C0.5094 56.3845 1.0094 56.9918 1.7054 57.1302C2.0867 57.2008 2.4806 57.1183 2.8004 56.9007C3.1203 56.6833 3.3399 56.3486 3.4109 55.9704C4.7264 49.0354 7.577 44.6135 10.598 39.9258L10.7442 39.7083C11.1827 39.0317 10.9878 38.1377 10.3057 37.7028C9.9796 37.4935 9.583 37.4218 9.2034 37.5034C8.8239 37.585 8.4928 37.8133 8.2835 38.1377L8.1373 38.3552C5.0919 43.0429 1.9491 47.9239 0.536 55.4146ZM1.3156 68.0522C0.5603 68.1246 0 68.777 0 69.502L0 69.6469C0.3167 73.0056 0.9989 76.0745 2.0465 78.998C2.3145 79.7715 3.1672 80.1582 3.9225 79.8921C4.7021 79.6026 5.0919 78.7809 4.8239 78.0316C3.8494 75.3251 3.2403 72.4741 2.9236 69.357C2.8261 68.5595 2.1196 67.9797 1.3156 68.0522ZM6.0908 86.803C6.0908 86.3197 6.3345 85.8365 6.7973 85.5704C7.4925 85.1645 8.3872 85.3786 8.8195 86.0537C9.2337 86.7064 9.6235 87.3586 10.0377 87.9872C10.4762 88.6635 10.2813 89.5576 9.5991 89.9926C8.9169 90.4276 8.0155 90.2345 7.577 89.5576C7.1628 88.9055 6.7486 88.2527 6.3345 87.5764C6.1395 87.3103 6.0908 87.069 6.0908 86.803ZM16.437 103.985C15.6922 104.065 15.1284 104.69 15.1296 105.433C15.1296 105.53 15.1296 105.627 15.1783 105.747C15.763 108.55 16.0554 111.571 16.0554 114.929C16.0554 118.071 15.7874 120.898 15.2758 123.555C15.1278 124.343 15.6513 125.1 16.4452 125.247C17.2391 125.394 18.0027 124.875 18.1507 124.088C18.711 121.236 18.979 118.24 18.979 114.905C18.979 111.329 18.6622 108.139 18.0288 105.119C17.8682 104.393 17.1818 103.904 16.437 103.985ZM5.3843 143.756C5.2625 143.974 5.1894 144.24 5.1894 144.482C5.1894 144.989 5.4574 145.472 5.8959 145.713C6.6024 146.1 7.4795 145.883 7.8937 145.182C8.7708 143.708 9.6722 142.307 10.5736 140.905C11.3289 139.745 12.0842 138.561 12.8151 137.353C13.2292 136.677 13.01 135.783 12.3035 135.372C11.6098 134.97 10.719 135.196 10.3057 135.879C9.5991 137.063 8.8439 138.199 8.113 139.358C7.1872 140.809 6.2614 142.234 5.3843 143.756ZM0.8283 155.162C0.8283 155.065 0.8527 154.944 0.8771 154.823C1.072 154.026 1.2669 153.252 1.4862 152.504C1.7298 151.73 2.5338 151.295 3.3134 151.537C4.093 151.778 4.5315 152.576 4.2879 153.349C4.0687 154.026 3.8737 154.751 3.7032 155.5C3.5327 156.273 2.7287 156.756 1.9491 156.587C1.2913 156.418 0.8283 155.814 0.8283 155.162ZM0.3898 173.55C0.3917 172.844 0.9061 172.242 1.6079 172.124C2.4119 171.979 3.1672 172.511 3.289 173.309C4.5559 180.581 7.5283 185.172 10.4031 189.619C10.8417 190.295 10.6468 191.189 9.9646 191.624C9.2824 192.059 8.381 191.866 7.9424 191.189C5.0432 186.719 1.7785 181.645 0.4142 173.792C0.4142 173.719 0.3898 173.622 0.3898 173.55ZM15.3597 201.277C14.6513 201.384 14.1227 201.981 14.1063 202.691C14.1063 202.836 14.1307 202.981 14.1794 203.174C15.0809 205.881 15.6412 208.732 15.8849 211.897C15.9579 212.695 16.6645 213.299 17.4685 213.227C18.2724 213.154 18.9059 212.501 18.8085 211.656C18.5405 208.249 17.9314 205.18 16.9812 202.256C16.752 201.583 16.0682 201.17 15.3597 201.277ZM15.5437 223.061C15.5194 223.133 15.5194 223.206 15.5194 223.279C15.5194 223.979 16.031 224.607 16.7863 224.704C17.5659 224.825 18.3212 224.294 18.443 223.496C18.5648 222.722 18.6622 221.95 18.7354 221.128C18.7762 220.743 18.66 220.358 18.4129 220.058C18.1658 219.759 17.8082 219.57 17.4197 219.533C16.6133 219.456 15.8951 220.038 15.8118 220.838C15.7386 221.611 15.6412 222.336 15.5437 223.061ZM4.19626 246.973L7.51093 246.973C8.47047 245.269 9.51057 243.653 10.5736 242.005L11.1827 241.039C11.6213 240.362 11.4264 239.468 10.7442 239.033C10.4182 238.824 10.0215 238.752 9.642 238.833C9.2624 238.915 8.9313 239.143 8.722 239.468L8.113 240.435C6.77944 242.513 5.42013 244.622 4.19626 246.973Z" transform="translate(0.4356 0.02683892)" id="Clip-6012" fill="none" fill-rule="evenodd" stroke="none" />
      <g clip-path="url(#mask_4)">
        <path d="M25.1665 0L25.1665 324.227L0 324.227L0 0L25.1665 0Z" transform="translate(-2.6582 -3.0669)" id="Fill-6011" fill="#EDEDF0" fill-opacity="0.5019608" stroke="none" />
      </g>
    </g>
  </g>
  <g id="Group-6021" transform="matrix(-4.371139E-08 -1 1 -4.371139E-08 651 128)">
    <g id="Group-6017" transform="translate(1 2)">
      <path d="M19.9319 151.056L0 151.056L2.9993 0L2.9751 51.4621C2.9751 51.4621 39.0751 35.3622 43.748 69.5655C47.9125 100.052 16.4612 112.097 16.4612 112.097C16.4612 112.097 34.5959 115.717 31.1094 133.846C29.8703 140.338 25.2789 146.209 19.9319 151.056L19.9319 151.056Z" transform="translate(0.9871045 0.9439)" id="Clip-6016" fill="none" stroke="none" />
      <g clip-path="url(#mask_5)">
        <path d="M51.4804 0L51.4804 215.923L0 215.923L0 0L51.4804 0Z" transform="translate(-3.2717 -2.1498)" id="Fill-6015" fill="#EDEDF0" fill-opacity="0.5019608" stroke="none" />
      </g>
    </g>
    <g id="Group-6020">
      <path d="M0 153.47L4.8424 153.47L4.87694 2.4143C4.87694 1.0865 3.78734 0 2.45574 0C1.12404 0 0.0345412 1.0865 0.0345412 2.4143L0 153.47ZM10.6635 32.2727L10.6635 3.3072C10.6635 2.6315 11.1962 2.1 11.8741 2.1C12.552 2.1 13.0847 2.6315 13.0847 3.3072L13.0847 32.2727C13.0847 32.9484 12.552 33.4799 11.8741 33.4799C11.1962 33.4799 10.6635 32.9243 10.6635 32.2727ZM24.997 50.0624C24.3917 50.1348 23.9317 50.6663 23.9317 51.2696L23.9317 51.4144C24.0198 52.0765 24.6214 52.5479 25.2875 52.4762C26.0623 52.3796 26.8371 52.3073 27.6361 52.259C28.314 52.2107 28.7983 51.6316 28.7741 50.98C28.7256 50.3037 28.1687 49.797 27.4908 49.8452C26.6434 49.8935 25.8202 49.9659 24.997 50.0624ZM10.6635 51.5833L10.6635 54.7693C10.6635 55.1801 10.833 55.5179 11.1962 55.7593C11.5594 56.0006 11.9952 56.0247 12.3584 55.8558C12.3826 55.8558 13.8111 55.2284 16.0628 54.5038C16.6923 54.2866 17.0312 53.611 16.8376 52.9835C16.6194 52.3592 15.9462 52.0183 15.3122 52.2107C14.4406 52.5003 13.69 52.7657 13.0847 52.9835L13.0847 51.5833C13.0847 50.9076 12.552 50.3761 11.8741 50.3761C11.1962 50.3761 10.6635 50.9076 10.6635 51.5833ZM53.842 72.7672L53.842 83.6894C53.7112 84.5922 53.5468 85.4848 53.3492 86.3663C53.1723 86.9857 52.5413 87.3594 51.9112 87.2184C51.281 87.0773 50.8708 86.4703 50.9764 85.8355C51.8722 81.7802 52.0417 77.4836 51.4123 73.0181C50.6133 67.2247 48.8458 62.5661 46.134 59.1865C45.9718 58.9712 45.8866 58.7076 45.8919 58.4384C45.8919 58.0765 46.0372 57.7386 46.3519 57.4973C46.6016 57.2968 46.9214 57.204 47.2399 57.2405C47.5583 57.2771 47.8489 57.4385 48.0468 57.6904C51.0491 61.4072 52.986 66.4766 53.8334 72.7043C53.8363 72.7253 53.8392 72.7463 53.842 72.7672ZM37.103 106.956C36.7882 107.197 36.643 107.535 36.643 107.898C36.643 108.163 36.7398 108.428 36.9335 108.646C37.3451 109.177 38.1198 109.249 38.6283 108.839C40.5895 107.27 42.4296 105.556 44.0518 103.77C44.5118 103.263 44.4877 102.514 43.9792 102.056C43.4707 101.597 42.7201 101.646 42.2602 102.128C40.7347 103.818 38.9915 105.435 37.103 106.956ZM26.4497 114.367C26.4497 113.908 26.6918 113.497 27.1276 113.28C27.733 112.991 28.4351 112.629 29.2341 112.194C29.8232 111.881 30.5553 112.095 30.8805 112.677C31.1952 113.256 30.9774 114.004 30.3962 114.318C29.5731 114.777 28.8225 115.139 28.193 115.453C27.8174 115.636 27.3734 115.613 27.0187 115.393C26.664 115.171 26.4489 114.783 26.4497 114.367ZM29.4941 153.47L32.1737 153.47C37.1355 148.13 40.1712 142.729 41.1948 137.394C41.9454 133.508 41.7759 129.936 40.7347 126.797C40.5169 126.146 39.8389 125.808 39.2094 126.025C38.9002 126.118 38.6425 126.333 38.4962 126.62C38.3499 126.907 38.3277 127.242 38.4346 127.546C39.3547 130.273 39.4758 133.435 38.822 136.911C37.8535 142.004 34.827 147.218 29.8152 152.432C29.5972 152.673 29.4762 152.987 29.4762 153.277C29.4762 153.341 29.4824 153.406 29.4941 153.47Z" transform="translate(0.1579588 0.5296)" id="Clip-6019" fill="none" fill-rule="evenodd" stroke="none" />
      <g clip-path="url(#mask_6)">
        <path d="M60.4258 0L60.4258 223.116L0 223.116L0 0L60.4258 0Z" transform="translate(-2.9497 -2.5642)" id="Fill-6018" fill="#EDEDF0" fill-opacity="0.5019608" stroke="none" />
      </g>
    </g>
  </g>
  <g id="Group" transform="matrix(-4.371139E-08 -1 1 -4.371139E-08 179 114)">
    <g id="Group-6086">
      <path d="M0.35789 37.491L13.3594 3.47187C14.4222 0.690915 17.5452 -0.706835 20.3261 0.35604L67.0616 18.2137C69.8497 19.2766 71.2474 22.407 70.1846 25.1952L62.0896 46.3799C61.58 47.7194 60.5609 48.7969 59.2505 49.3864L41.5682 57.3216C40.2578 57.9113 38.7655 57.9549 37.426 57.438L3.48817 44.4653C2.14552 43.9592 1.06012 42.9384 0.472552 41.6292C-0.115015 40.3201 -0.156283 38.8307 0.35789 37.491Z" transform="translate(0.01310637 0.01017233)" id="Clip-6085" fill="none" stroke="none" />
      <g clip-path="url(#mask_7)">
        <path d="M72.4017 0L72.4017 59.6596L0 59.6596L0 0L72.4017 0Z" transform="translate(-0.9174744 -0.9211464)" id="Fill-6084" fill="#45A1FF" stroke="none" />
      </g>
    </g>
    <g id="Group-6089" transform="translate(19.85224 15.35294)">
      <path d="M12.8033 32.3359C11.1227 33.0929 9.14634 32.3472 8.38452 30.6688L0.296809 12.8037C-0.461938 11.1231 0.284116 9.1455 1.96386 8.38483L19.8282 0.296813C21.5088 -0.461953 23.4863 0.284139 24.2469 1.96393C25.0057 3.64457 24.2596 5.62221 22.5799 6.38284L12.068 11.1439L53.1473 26.6211C54.8726 27.2763 55.7461 29.2055 55.0982 30.9309C54.4431 32.6562 52.514 33.5299 50.7886 32.8818L9.70945 17.4047L14.4703 27.9169C15.2291 29.5975 14.483 31.5751 12.8033 32.3359Z" transform="translate(0.1100416 0.01891561)" id="Clip-6088" fill="none" stroke="none" />
      <g clip-path="url(#mask_8)">
        <path d="M57.1733 0L57.1733 34.9585L0 34.9585L0 0L57.1733 0Z" transform="translate(-0.8205293 -0.9124163)" id="Fill-6087" fill="#0060DF" stroke="none" />
      </g>
    </g>
    <g id="Group-6096" transform="translate(51.73615 35.82353)">
      <g id="Group-6092">
        <path d="M4.96611 0L21.2871 6.14914C23.0123 6.80435 23.8859 8.73353 23.238 10.4589C22.5828 12.1843 20.6537 13.0579 18.9284 12.4099L0 5.27834L4.96611 4.27801e-14L4.96611 0Z" transform="translate(0.086384 0.02027047)" id="Clip-6091" fill="none" stroke="none" />
        <g clip-path="url(#mask_9)">
          <path d="M0 15.654L30.6807 15.654L30.6807 0L0 0L0 15.654Z" transform="translate(-6.617414 -2.408304)" id="Fill-6090" fill="url(#gradient_1)" stroke="none" />
        </g>
      </g>
      <g id="Group-6095">
        <path d="M4.96611 0L21.2871 6.14914C23.0123 6.80435 23.8859 8.73353 23.238 10.4589C22.5828 12.1843 20.6537 13.0579 18.9284 12.4099L0 5.27834L4.96611 4.27801e-14L4.96611 0Z" transform="translate(0.086384 0.02027047)" id="Clip-6094" fill="none" stroke="none" />
        <g clip-path="url(#mask_9)">
          <path d="M0 15.654L30.6807 15.654L30.6807 0L0 0L0 15.654Z" transform="translate(-6.617414 -2.408304)" id="Fill-6093" fill="url(#gradient_2)" stroke="none" />
        </g>
      </g>
    </g>
    <g id="Group-6103" transform="translate(57.15039 67.73357)">
      <g id="Group-6099">
        <path d="M32.796 15.0111C22.9247 19.5685 11.8523 20.0561 1.63891 16.3798C1.01435 16.1583 0.505411 15.6945 0.227269 15.0929C-0.050843 14.4914 -0.0746958 13.8032 0.161155 13.1838L3.44429 4.46986C3.49525 4.6008 3.56804 4.73193 3.65539 4.86288C3.99026 5.35071 4.53623 5.75826 5.17685 5.99129C15.6741 9.82057 26.6082 10.534 35.9481 8.00782C41.8155 6.42082 46.6346 3.66909 50.107 0C45.9212 6.50091 39.9737 11.6987 32.796 15.0111Z" transform="translate(0.08847201 0.2925729)" id="Clip-6098" fill="none" stroke="none" />
        <g clip-path="url(#mask_10)">
          <path d="M0 238.422L184.084 238.422L184.084 0L0 0L0 238.422Z" transform="translate(-100.1636 -211.0277)" id="Fill-6097" fill="url(#gradient_3)" stroke="none" />
        </g>
      </g>
      <g id="Group-6102">
        <path d="M32.796 15.0111C22.9247 19.5685 11.8523 20.0561 1.63891 16.3798C1.01435 16.1583 0.505411 15.6945 0.227269 15.0929C-0.050843 14.4914 -0.0746958 13.8032 0.161155 13.1838L3.44429 4.46986C3.49525 4.6008 3.56804 4.73193 3.65539 4.86288C3.99026 5.35071 4.53623 5.75826 5.17685 5.99129C15.6741 9.82057 26.6082 10.534 35.9481 8.00782C41.8155 6.42082 46.6346 3.66909 50.107 0C45.9212 6.50091 39.9737 11.6987 32.796 15.0111Z" transform="translate(0.08847201 0.2925729)" id="Clip-6101" fill="none" stroke="none" />
        <g clip-path="url(#mask_10)">
          <path d="M0 238.422L184.084 238.422L184.084 0L0 0L0 238.422Z" transform="translate(-100.1636 -211.0277)" id="Fill-6100" fill="url(#gradient_4)" stroke="none" />
        </g>
      </g>
    </g>
    <g id="Group-6110" transform="translate(81.21372 6.923875)">
      <g id="Group-6106">
        <path d="M2.30767 10.5373C1.67433 10.2898 0.997335 10.2316 0.422221 10.3771C0.269359 10.4208 0.131025 10.4718 0 10.5373L3.37049 1.59751C3.60426 0.977767 4.07606 0.47717 4.68083 0.207049C5.28506 -0.0550348 5.96933 -0.069575 6.58809 0.170653C16.6923 4.16007 24.6854 11.8259 29.0969 21.763C32.3873 29.174 33.3992 37.2183 32.118 45.0516C32.0015 39.8974 30.2034 34.5174 26.7601 29.3341C21.4095 21.2679 12.7249 14.5922 2.30767 10.5373Z" transform="translate(0.1000433 0.2604331)" id="Clip-6105" fill="none" stroke="none" />
        <g clip-path="url(#mask_11)">
          <path d="M0 238.422L184.084 238.422L184.084 0L0 0L0 238.422Z" transform="translate(-124.2269 -150.218)" id="Fill-6104" fill="url(#gradient_5)" stroke="none" />
        </g>
      </g>
      <g id="Group-6109">
        <path d="M2.30767 10.5373C1.67433 10.2898 0.997335 10.2316 0.422221 10.3771C0.269359 10.4208 0.131025 10.4718 0 10.5373L3.37049 1.59751C3.60426 0.977767 4.07606 0.47717 4.68083 0.207049C5.28506 -0.0550348 5.96933 -0.069575 6.58809 0.170653C16.6923 4.16007 24.6854 11.8259 29.0969 21.763C32.3873 29.174 33.3992 37.2183 32.118 45.0516C32.0015 39.8974 30.2034 34.5174 26.7601 29.3341C21.4095 21.2679 12.7249 14.5922 2.30767 10.5373Z" transform="translate(0.1000433 0.2604331)" id="Clip-6108" fill="none" stroke="none" />
        <g clip-path="url(#mask_11)">
          <path d="M0 238.422L184.084 238.422L184.084 0L0 0L0 238.422Z" transform="translate(-124.2269 -150.218)" id="Fill-6107" fill="url(#gradient_6)" stroke="none" />
        </g>
      </g>
    </g>
    <g id="Group-6117" transform="translate(60.4591 55.99308)">
      <g id="Group-6113">
        <path d="M1.74715 17.9232C1.10655 17.6904 0.560555 17.2826 0.211126 16.7948C0.123776 16.6711 0.0509541 16.5327 0 16.4018L6.18048 0C6.2678 0.131132 6.40614 0.269339 6.59543 0.415011C6.99578 0.7134 7.57089 1.01925 8.20421 1.25211C18.5341 5.08863 28.6819 7.47658 36.7697 7.96423C43.3505 8.3647 47.9585 7.47658 50.0915 5.43807C49.1462 7.69863 48.0037 9.87161 46.6773 11.9319C43.2049 15.601 38.3858 18.3527 32.5183 19.9397C23.1785 22.4659 12.2517 21.7452 1.74715 17.9232Z" transform="translate(0.2021921 0.1084038)" id="Clip-6112" fill="none" stroke="none" />
        <g clip-path="url(#mask_12)">
          <path d="M0 238.422L184.084 238.422L184.084 0L0 0L0 238.422Z" transform="translate(-103.4723 -199.2872)" id="Fill-6111" fill="url(#gradient_7)" stroke="none" />
        </g>
      </g>
      <g id="Group-6116">
        <path d="M1.74715 17.9232C1.10655 17.6904 0.560555 17.2826 0.211126 16.7948C0.123776 16.6711 0.0509541 16.5327 0 16.4018L6.18048 0C6.2678 0.131132 6.40614 0.269339 6.59543 0.415011C6.99578 0.7134 7.57089 1.01925 8.20421 1.25211C18.5341 5.08863 28.6819 7.47658 36.7697 7.96423C43.3505 8.3647 47.9585 7.47658 50.0915 5.43807C49.1462 7.69863 48.0037 9.87161 46.6773 11.9319C43.2049 15.601 38.3858 18.3527 32.5183 19.9397C23.1785 22.4659 12.2517 21.7452 1.74715 17.9232Z" transform="translate(0.2021921 0.1084038)" id="Clip-6115" fill="none" stroke="none" />
        <g clip-path="url(#mask_12)">
          <path d="M0 238.422L184.084 238.422L184.084 0L0 0L0 238.422Z" transform="translate(-103.4723 -199.2872)" id="Fill-6114" fill="url(#gradient_8)" stroke="none" />
        </g>
      </g>
    </g>
    <g id="Group-6124" transform="translate(75.19789 17.46021)">
      <g id="Group-6120">
        <path d="M0.596951 15.6214C0.356709 15.5995 0.160141 15.6141 0 15.6577L5.80919 0.23885C5.94021 0.173314 6.07852 0.115093 6.23141 0.0786676C6.80649 -0.0669144 7.49079 -0.00869366 8.12414 0.23885C18.5414 4.30106 27.226 10.9695 32.5766 19.0356C36.0199 24.219 37.818 29.5989 37.9344 34.7531C37.6214 36.675 37.1628 38.5897 36.5731 40.4751C36.2747 37.5486 33.4065 33.8722 28.2451 29.861C21.8463 24.8887 12.6521 19.982 2.35863 16.0509C1.73256 15.8106 1.09196 15.6577 0.596951 15.6214Z" transform="translate(0.2994079 0.02257151)" id="Clip-6119" fill="none" stroke="none" />
        <g clip-path="url(#mask_13)">
          <path d="M0 238.422L184.084 238.422L184.084 0L0 0L0 238.422Z" transform="translate(-118.2111 -160.7543)" id="Fill-6118" fill="url(#gradient_9)" stroke="none" />
        </g>
      </g>
      <g id="Group-6123">
        <path d="M0.596951 15.6214C0.356709 15.5995 0.160141 15.6141 0 15.6577L5.80919 0.23885C5.94021 0.173314 6.07852 0.115093 6.23141 0.0786676C6.80649 -0.0669144 7.49079 -0.00869366 8.12414 0.23885C18.5414 4.30106 27.226 10.9695 32.5766 19.0356C36.0199 24.219 37.818 29.5989 37.9344 34.7531C37.6214 36.675 37.1628 38.5897 36.5731 40.4751C36.2747 37.5486 33.4065 33.8722 28.2451 29.861C21.8463 24.8887 12.6521 19.982 2.35863 16.0509C1.73256 15.8106 1.09196 15.6577 0.596951 15.6214Z" transform="translate(0.2994079 0.02257151)" id="Clip-6122" fill="none" stroke="none" />
        <g clip-path="url(#mask_13)">
          <path d="M0 238.422L184.084 238.422L184.084 0L0 0L0 238.422Z" transform="translate(-118.2111 -160.7543)" id="Fill-6121" fill="url(#gradient_10)" stroke="none" />
        </g>
      </g>
    </g>
    <g id="Group-6131" transform="translate(66.77573 32.81315)">
      <g id="Group-6127">
        <path d="M45.2141 24.8593C44.9812 25.6019 44.7337 26.3444 44.4643 27.0798C44.2896 27.5383 44.1003 27.9897 43.9111 28.441C41.7708 30.472 37.1628 31.3676 30.5892 30.9672C22.4942 30.472 12.3536 28.0916 2.02376 24.255C1.39044 24.0222 0.815356 23.7236 0.414972 23.4179C0.225684 23.2723 0.0873799 23.1339 0 23.0029L8.64827 0.0419794C8.80113 0.00558389 8.9977 -0.00898636 9.23794 0.00558389C9.74023 0.0419794 10.3735 0.194847 10.9996 0.435075C21.2931 4.37353 30.4873 9.27295 36.8861 14.2452C42.0474 18.2492 44.9156 21.9328 45.2141 24.8593Z" transform="translate(0.08058206 0.2781445)" id="Clip-6126" fill="none" stroke="none" />
        <g clip-path="url(#mask_14)">
          <path d="M0 238.422L184.084 238.422L184.084 0L0 0L0 238.422Z" transform="translate(-109.7889 -176.1073)" id="Fill-6125" fill="url(#gradient_11)" stroke="none" />
        </g>
      </g>
      <g id="Group-6130">
        <path d="M45.2141 24.8593C44.9812 25.6019 44.7337 26.3444 44.4643 27.0798C44.2896 27.5383 44.1003 27.9897 43.9111 28.441C41.7708 30.472 37.1628 31.3676 30.5892 30.9672C22.4942 30.472 12.3536 28.0916 2.02376 24.255C1.39044 24.0222 0.815356 23.7236 0.414972 23.4179C0.225684 23.2723 0.0873799 23.1339 0 23.0029L8.64827 0.0419794C8.80113 0.00558389 8.9977 -0.00898636 9.23794 0.00558389C9.74023 0.0419794 10.3735 0.194847 10.9996 0.435075C21.2931 4.37353 30.4873 9.27295 36.8861 14.2452C42.0474 18.2492 44.9156 21.9328 45.2141 24.8593Z" transform="translate(0.08058206 0.2781445)" id="Clip-6129" fill="none" stroke="none" />
        <g clip-path="url(#mask_14)">
          <path d="M0 238.422L184.084 238.422L184.084 0L0 0L0 238.422Z" transform="translate(-109.7889 -176.1073)" id="Fill-6128" fill="url(#gradient_12)" stroke="none" />
        </g>
      </g>
    </g>
  </g>
  <g id="Group-Copy-2" transform="matrix(-4.371139E-08 -1 1 -4.371139E-08 255 301)">
    <g id="Group-6086">
      <path d="M0.643574 67.6563L24.0235 6.26534C25.9347 1.24682 31.5506 -1.27555 36.5512 0.64251L120.593 32.8685C125.607 34.7865 128.12 40.4356 126.209 45.4672L111.652 83.6971C110.736 86.1142 108.903 88.0588 106.547 89.1227L74.7498 103.442C72.3935 104.507 69.7099 104.585 67.3012 103.653L6.27258 80.2419C3.85818 79.3286 1.90635 77.4865 0.849764 75.124C-0.206824 72.7616 -0.281036 70.0738 0.643574 67.6563Z" transform="translate(0.02356847 0.01835697)" id="Clip-6085" fill="none" stroke="none" />
      <g clip-path="url(#mask_15)">
        <path d="M130.196 0L130.196 107.662L0 107.662L0 0L130.196 0Z" transform="translate(-1.649844 -1.662299)" id="Fill-6084" fill="#45A1FF" stroke="none" />
      </g>
    </g>
    <g id="Group-6089" transform="translate(35.69921 27.70588)">
      <path d="M23.0235 58.3532C20.0013 59.7193 16.4474 58.3737 15.0774 55.3448L0.533736 23.1056C-0.830677 20.0727 0.51091 16.5039 3.5315 15.1313L35.656 0.535628C38.6781 -0.83364 42.2342 0.512757 43.602 3.54411C44.9664 6.57698 43.6248 10.1458 40.6042 11.5185L21.7013 20.1103L95.5719 48.0404C98.6744 49.2227 100.245 52.7041 99.0802 55.8178C97.902 58.9314 94.433 60.5079 91.3305 59.3384L17.46 31.4085L26.0212 50.3787C27.3857 53.4117 26.0441 56.9804 23.0235 58.3532Z" transform="translate(0.1978819 0.03413506)" id="Clip-6088" fill="none" stroke="none" />
      <g clip-path="url(#mask_16)">
        <path d="M102.812 0L102.812 63.086L0 63.086L0 0L102.812 0Z" transform="translate(-1.475513 -1.646544)" id="Fill-6087" fill="#0060DF" stroke="none" />
      </g>
    </g>
    <g id="Group-6096" transform="translate(93.0343 64.64706)">
      <g id="Group-6092">
        <path d="M8.93028 0L38.2793 11.0967C41.3818 12.2791 42.9526 15.7605 41.7876 18.8742C40.6094 21.9877 37.1404 23.5643 34.0379 22.3948L0 9.52529L8.93028 7.72008e-14L8.93028 0Z" transform="translate(0.1553396 0.03658005)" id="Clip-6091" fill="none" stroke="none" />
        <g clip-path="url(#mask_17)">
          <path d="M0 28.2491L55.1715 28.2491L55.1715 0L0 0L0 28.2491Z" transform="translate(-11.89974 -4.346021)" id="Fill-6090" fill="url(#gradient_1)" stroke="none" />
        </g>
      </g>
      <g id="Group-6095">
        <path d="M8.93028 0L38.2793 11.0967C41.3818 12.2791 42.9526 15.7605 41.7876 18.8742C40.6094 21.9877 37.1404 23.5643 34.0379 22.3948L0 9.52529L8.93028 7.72008e-14L8.93028 0Z" transform="translate(0.1553396 0.03658005)" id="Clip-6094" fill="none" stroke="none" />
        <g clip-path="url(#mask_17)">
          <path d="M0 28.2491L55.1715 28.2491L55.1715 0L0 0L0 28.2491Z" transform="translate(-11.89974 -4.346021)" id="Fill-6093" fill="url(#gradient_2)" stroke="none" />
        </g>
      </g>
    </g>
    <g id="Group-6103" transform="translate(102.7704 122.2318)">
      <g id="Group-6099">
        <path d="M58.9752 27.089C41.2242 35.3133 21.3134 36.1933 2.94717 29.5589C1.82405 29.1593 0.908853 28.3223 0.408685 27.2365C-0.0914282 26.1512 -0.134321 24.9091 0.289796 23.7915L6.19369 8.06629C6.28532 8.30259 6.41621 8.53924 6.57329 8.77554C7.17547 9.65588 8.15725 10.3914 9.30925 10.8119C28.186 17.7222 47.8481 19.0096 64.6435 14.4509C75.1945 11.587 83.8605 6.62123 90.1047 0C82.5776 11.7315 71.8826 21.1115 58.9752 27.089Z" transform="translate(0.1590944 0.5279763)" id="Clip-6098" fill="none" stroke="none" />
        <g clip-path="url(#mask_18)">
          <path d="M0 430.256L331.029 430.256L331.029 0L0 0L0 430.256Z" transform="translate(-180.1187 -380.8201)" id="Fill-6097" fill="url(#gradient_3)" stroke="none" />
        </g>
      </g>
      <g id="Group-6102">
        <path d="M58.9752 27.089C41.2242 35.3133 21.3134 36.1933 2.94717 29.5589C1.82405 29.1593 0.908853 28.3223 0.408685 27.2365C-0.0914282 26.1512 -0.134321 24.9091 0.289796 23.7915L6.19369 8.06629C6.28532 8.30259 6.41621 8.53924 6.57329 8.77554C7.17547 9.65588 8.15725 10.3914 9.30925 10.8119C28.186 17.7222 47.8481 19.0096 64.6435 14.4509C75.1945 11.587 83.8605 6.62123 90.1047 0C82.5776 11.7315 71.8826 21.1115 58.9752 27.089Z" transform="translate(0.1590944 0.5279763)" id="Clip-6101" fill="none" stroke="none" />
        <g clip-path="url(#mask_18)">
          <path d="M0 430.256L331.029 430.256L331.029 0L0 0L0 430.256Z" transform="translate(-180.1187 -380.8201)" id="Fill-6100" fill="url(#gradient_4)" stroke="none" />
        </g>
      </g>
    </g>
    <g id="Group-6110" transform="translate(146.0422 12.49481)">
      <g id="Group-6106">
        <path d="M4.14976 19.0156C3.01085 18.5689 1.79345 18.4638 0.759257 18.7266C0.484373 18.8054 0.235615 18.8974 0 19.0156L6.06097 2.88287C6.48135 1.76448 7.32975 0.861101 8.41728 0.37364C9.50383 -0.0993158 10.7343 -0.125555 11.847 0.307961C30.0169 7.50725 44.3904 21.3409 52.3234 39.2734C58.2403 52.6473 60.0599 67.164 57.756 81.3C57.5465 71.9987 54.3131 62.2901 48.1212 52.9363C38.4996 38.3801 22.8825 26.3331 4.14976 19.0156Z" transform="translate(0.1799024 0.469977)" id="Clip-6105" fill="none" stroke="none" />
        <g clip-path="url(#mask_19)">
          <path d="M0 430.256L331.029 430.256L331.029 0L0 0L0 430.256Z" transform="translate(-223.3905 -271.083)" id="Fill-6104" fill="url(#gradient_5)" stroke="none" />
        </g>
      </g>
      <g id="Group-6109">
        <path d="M4.14976 19.0156C3.01085 18.5689 1.79345 18.4638 0.759257 18.7266C0.484373 18.8054 0.235615 18.8974 0 19.0156L6.06097 2.88287C6.48135 1.76448 7.32975 0.861101 8.41728 0.37364C9.50383 -0.0993158 10.7343 -0.125555 11.847 0.307961C30.0169 7.50725 44.3904 21.3409 52.3234 39.2734C58.2403 52.6473 60.0599 67.164 57.756 81.3C57.5465 71.9987 54.3131 62.2901 48.1212 52.9363C38.4996 38.3801 22.8825 26.3331 4.14976 19.0156Z" transform="translate(0.1799024 0.469977)" id="Clip-6108" fill="none" stroke="none" />
        <g clip-path="url(#mask_19)">
          <path d="M0 430.256L331.029 430.256L331.029 0L0 0L0 430.256Z" transform="translate(-223.3905 -271.083)" id="Fill-6107" fill="url(#gradient_6)" stroke="none" />
        </g>
      </g>
    </g>
    <g id="Group-6117" transform="translate(108.7203 101.045)">
      <g id="Group-6113">
        <path d="M3.1418 32.3442C1.98985 31.924 1.00802 31.1882 0.379656 30.3078C0.222579 30.0847 0.091628 29.8349 0 29.5986L11.114 0C11.2711 0.236641 11.5198 0.486048 11.8602 0.748928C12.5801 1.2874 13.6143 1.83934 14.7532 2.25955C33.3288 9.18292 51.5772 13.4922 66.1209 14.3722C77.9549 15.0949 86.2412 13.4922 90.0768 9.81353C88.377 13.8929 86.3225 17.8143 83.9373 21.5323C77.693 28.1535 69.0271 33.1193 58.476 35.9832C41.6807 40.5419 22.0316 39.2414 3.1418 32.3442Z" transform="translate(0.363591 0.1956253)" id="Clip-6112" fill="none" stroke="none" />
        <g clip-path="url(#mask_20)">
          <path d="M0 430.256L331.029 430.256L331.029 0L0 0L0 430.256Z" transform="translate(-186.0686 -359.6332)" id="Fill-6111" fill="url(#gradient_7)" stroke="none" />
        </g>
      </g>
      <g id="Group-6116">
        <path d="M3.1418 32.3442C1.98985 31.924 1.00802 31.1882 0.379656 30.3078C0.222579 30.0847 0.091628 29.8349 0 29.5986L11.114 0C11.2711 0.236641 11.5198 0.486048 11.8602 0.748928C12.5801 1.2874 13.6143 1.83934 14.7532 2.25955C33.3288 9.18292 51.5772 13.4922 66.1209 14.3722C77.9549 15.0949 86.2412 13.4922 90.0768 9.81353C88.377 13.8929 86.3225 17.8143 83.9373 21.5323C77.693 28.1535 69.0271 33.1193 58.476 35.9832C41.6807 40.5419 22.0316 39.2414 3.1418 32.3442Z" transform="translate(0.363591 0.1956253)" id="Clip-6115" fill="none" stroke="none" />
        <g clip-path="url(#mask_20)">
          <path d="M0 430.256L331.029 430.256L331.029 0L0 0L0 430.256Z" transform="translate(-186.0686 -359.6332)" id="Fill-6114" fill="url(#gradient_8)" stroke="none" />
        </g>
      </g>
    </g>
    <g id="Group-6124" transform="translate(135.2243 31.50865)">
      <g id="Group-6120">
        <path d="M1.07346 28.1903C0.64145 28.1509 0.287974 28.1772 0 28.2559L10.4463 0.431028C10.682 0.312762 10.9307 0.207697 11.2056 0.141963C12.2397 -0.120754 13.4703 -0.0156886 14.6092 0.431028C33.3419 7.76168 48.959 19.7955 58.5807 34.3517C64.7725 43.7055 68.006 53.4141 68.2154 62.7154C67.6525 66.1837 66.8278 69.6388 65.7675 73.0412C65.2307 67.7601 60.073 61.1258 50.7917 53.8871C39.285 44.9141 22.7515 36.0595 4.24139 28.9654C3.11557 28.5319 1.96362 28.2559 1.07346 28.1903Z" transform="translate(0.538409 0.0407325)" id="Clip-6119" fill="none" stroke="none" />
        <g clip-path="url(#mask_21)">
          <path d="M0 430.256L331.029 430.256L331.029 0L0 0L0 430.256Z" transform="translate(-212.5726 -290.0969)" id="Fill-6118" fill="url(#gradient_9)" stroke="none" />
        </g>
      </g>
      <g id="Group-6123">
        <path d="M1.07346 28.1903C0.64145 28.1509 0.287974 28.1772 0 28.2559L10.4463 0.431028C10.682 0.312762 10.9307 0.207697 11.2056 0.141963C12.2397 -0.120754 13.4703 -0.0156886 14.6092 0.431028C33.3419 7.76168 48.959 19.7955 58.5807 34.3517C64.7725 43.7055 68.006 53.4141 68.2154 62.7154C67.6525 66.1837 66.8278 69.6388 65.7675 73.0412C65.2307 67.7601 60.073 61.1258 50.7917 53.8871C39.285 44.9141 22.7515 36.0595 4.24139 28.9654C3.11557 28.5319 1.96362 28.2559 1.07346 28.1903Z" transform="translate(0.538409 0.0407325)" id="Clip-6122" fill="none" stroke="none" />
        <g clip-path="url(#mask_21)">
          <path d="M0 430.256L331.029 430.256L331.029 0L0 0L0 430.256Z" transform="translate(-212.5726 -290.0969)" id="Fill-6121" fill="url(#gradient_10)" stroke="none" />
        </g>
      </g>
    </g>
    <g id="Group-6131" transform="translate(120.0792 59.21453)">
      <g id="Group-6127">
        <path d="M81.3061 44.861C80.8872 46.2012 80.4421 47.541 79.9577 48.8681C79.6435 49.6956 79.3032 50.5101 78.9629 51.3246C75.1142 54.9898 66.8278 56.606 55.007 55.8833C40.4501 54.9898 22.2149 50.694 3.63921 43.7705C2.50035 43.3504 1.46621 42.8115 0.746222 42.26C0.405835 41.9971 0.157131 41.7474 0 41.511L15.5517 0.0757559C15.8266 0.0100767 16.1801 -0.0162168 16.6121 0.0100767C17.5153 0.0757559 18.6542 0.35162 19.78 0.785135C38.2902 7.89245 54.8237 16.7339 66.3303 25.7068C75.6116 32.9325 80.7693 39.5799 81.3061 44.861Z" transform="translate(0.1449063 0.5019389)" id="Clip-6126" fill="none" stroke="none" />
        <g clip-path="url(#mask_22)">
          <path d="M0 430.256L331.029 430.256L331.029 0L0 0L0 430.256Z" transform="translate(-197.4274 -317.8028)" id="Fill-6125" fill="url(#gradient_11)" stroke="none" />
        </g>
      </g>
      <g id="Group-6130">
        <path d="M81.3061 44.861C80.8872 46.2012 80.4421 47.541 79.9577 48.8681C79.6435 49.6956 79.3032 50.5101 78.9629 51.3246C75.1142 54.9898 66.8278 56.606 55.007 55.8833C40.4501 54.9898 22.2149 50.694 3.63921 43.7705C2.50035 43.3504 1.46621 42.8115 0.746222 42.26C0.405835 41.9971 0.157131 41.7474 0 41.511L15.5517 0.0757559C15.8266 0.0100767 16.1801 -0.0162168 16.6121 0.0100767C17.5153 0.0757559 18.6542 0.35162 19.78 0.785135C38.2902 7.89245 54.8237 16.7339 66.3303 25.7068C75.6116 32.9325 80.7693 39.5799 81.3061 44.861Z" transform="translate(0.1449063 0.5019389)" id="Clip-6129" fill="none" stroke="none" />
        <g clip-path="url(#mask_22)">
          <path d="M0 430.256L331.029 430.256L331.029 0L0 0L0 430.256Z" transform="translate(-197.4274 -317.8028)" id="Fill-6128" fill="url(#gradient_12)" stroke="none" />
        </g>
      </g>
    </g>
  </g>
  <g id="Group-Copy" transform="matrix(-4.371139E-08 -1 1 -4.371139E-08 0 181)">
    <g id="Group-6086">
      <path d="M0.543114 56.452L20.2735 5.22777C21.8864 1.04034 26.6257 -1.06431 30.8457 0.536107L101.769 27.4253C106 29.0257 108.121 33.7393 106.508 37.9376L94.2237 69.8364C93.4504 71.8533 91.9038 73.4758 89.9152 74.3635L63.0815 86.3119C61.093 87.1998 58.8283 87.2655 56.7956 86.4872L5.29345 66.9534C3.25593 66.1914 1.60878 64.6543 0.717118 62.6831C-0.17454 60.7119 -0.237167 58.4692 0.543114 56.452Z" transform="translate(0.01988949 0.01531696)" id="Clip-6085" fill="none" stroke="none" />
      <g clip-path="url(#mask_23)">
        <path d="M109.873 0L109.873 89.8323L0 89.8323L0 0L109.873 0Z" transform="translate(-1.392308 -1.387013)" id="Fill-6084" fill="#45A1FF" stroke="none" />
      </g>
    </g>
    <g id="Group-6089" transform="translate(30.12665 23.11765)">
      <path d="M19.4296 48.6896C16.8791 49.8295 13.88 48.7067 12.7239 46.1794L0.450421 19.2792C-0.701011 16.7486 0.431158 13.7708 2.98024 12.6254L30.0902 0.446926C32.6405 -0.695585 35.6415 0.427842 36.7958 2.95718C37.9473 5.4878 36.8151 8.46562 34.266 9.61094L18.3138 16.7799L80.6534 40.0846C83.2716 41.0712 84.5972 43.9761 83.614 46.5741C82.6197 49.172 79.6922 50.4875 77.074 49.5117L14.7345 26.2071L21.9594 42.0358C23.1108 44.5664 21.9787 47.5442 19.4296 48.6896Z" transform="translate(0.166993 0.02848212)" id="Clip-6088" fill="none" stroke="none" />
      <g clip-path="url(#mask_24)">
        <path d="M86.7629 0L86.7629 52.6387L0 52.6387L0 0L86.7629 0Z" transform="translate(-1.245189 -1.373868)" id="Fill-6087" fill="#0060DF" stroke="none" />
      </g>
    </g>
    <g id="Group-6096" transform="translate(78.51187 53.94118)">
      <g id="Group-6092">
        <path d="M7.53628 0L32.304 9.25906C34.9222 10.2456 36.2478 13.1505 35.2647 15.7485C34.2704 18.3465 31.3429 19.6619 28.7247 18.6861L0 7.94785L7.53628 6.4416e-14L7.53628 0Z" transform="translate(0.1310915 0.0305222)" id="Clip-6091" fill="none" stroke="none" />
        <g clip-path="url(#mask_25)">
          <path d="M0 23.5709L46.5594 23.5709L46.5594 0L0 0L0 23.5709Z" transform="translate(-10.04222 -3.626297)" id="Fill-6090" fill="url(#gradient_1)" stroke="none" />
        </g>
      </g>
      <g id="Group-6095">
        <path d="M7.53628 0L32.304 9.25906C34.9222 10.2456 36.2478 13.1505 35.2647 15.7485C34.2704 18.3465 31.3429 19.6619 28.7247 18.6861L0 7.94785L7.53628 6.4416e-14L7.53628 0Z" transform="translate(0.1310915 0.0305222)" id="Clip-6094" fill="none" stroke="none" />
        <g clip-path="url(#mask_25)">
          <path d="M0 23.5709L46.5594 23.5709L46.5594 0L0 0L0 23.5709Z" transform="translate(-10.04222 -3.626297)" id="Fill-6093" fill="url(#gradient_2)" stroke="none" />
        </g>
      </g>
    </g>
    <g id="Group-6103" transform="translate(86.72823 101.9896)">
      <g id="Group-6099">
        <path d="M49.7693 22.6029C34.7892 29.4652 17.9864 30.1995 2.48712 24.6638C1.53932 24.3303 0.766983 23.632 0.344891 22.726C-0.0771565 21.8204 -0.113354 20.7841 0.24456 19.8515L5.22687 6.73047C5.30419 6.92764 5.41466 7.12509 5.54722 7.32227C6.0554 8.05682 6.88393 8.67049 7.8561 9.02136C23.7862 14.7873 40.3791 15.8615 54.5528 12.0577C63.4568 9.66813 70.7701 5.52472 76.0396 0C69.6874 9.78873 60.6619 17.6153 49.7693 22.6029Z" transform="translate(0.1342602 0.4405408)" id="Clip-6098" fill="none" stroke="none" />
        <g clip-path="url(#mask_26)">
          <path d="M0 359.003L279.356 359.003L279.356 0L0 0L0 359.003Z" transform="translate(-152.0026 -317.7543)" id="Fill-6097" fill="url(#gradient_3)" stroke="none" />
        </g>
      </g>
      <g id="Group-6102">
        <path d="M49.7693 22.6029C34.7892 29.4652 17.9864 30.1995 2.48712 24.6638C1.53932 24.3303 0.766983 23.632 0.344891 22.726C-0.0771565 21.8204 -0.113354 20.7841 0.24456 19.8515L5.22687 6.73047C5.30419 6.92764 5.41466 7.12509 5.54722 7.32227C6.0554 8.05682 6.88393 8.67049 7.8561 9.02136C23.7862 14.7873 40.3791 15.8615 54.5528 12.0577C63.4568 9.66813 70.7701 5.52472 76.0396 0C69.6874 9.78873 60.6619 17.6153 49.7693 22.6029Z" transform="translate(0.1342602 0.4405408)" id="Clip-6101" fill="none" stroke="none" />
        <g clip-path="url(#mask_26)">
          <path d="M0 359.003L279.356 359.003L279.356 0L0 0L0 359.003Z" transform="translate(-152.0026 -317.7543)" id="Fill-6100" fill="url(#gradient_4)" stroke="none" />
        </g>
      </g>
    </g>
    <g id="Group-6110" transform="translate(123.2454 10.42561)">
      <g id="Group-6106">
        <path d="M3.50199 15.8665C2.54086 15.4938 1.5135 15.4061 0.640739 15.6253C0.408764 15.6911 0.198836 15.7679 0 15.8665L5.11487 2.40545C5.46963 1.47227 6.18559 0.718498 7.10336 0.311763C8.02031 -0.0828686 9.05872 -0.104762 9.99771 0.256961C25.3313 6.26401 37.4612 17.8067 44.1558 32.7695C49.1491 43.9286 50.6847 56.0413 48.7404 67.8363C48.5637 60.0754 45.835 51.9745 40.6096 44.1698C32.4899 32.0241 19.3106 21.9722 3.50199 15.8665Z" transform="translate(0.15182 0.3921464)" id="Clip-6105" fill="none" stroke="none" />
        <g clip-path="url(#mask_27)">
          <path d="M0 359.003L279.356 359.003L279.356 0L0 0L0 359.003Z" transform="translate(-188.5198 -226.1903)" id="Fill-6104" fill="url(#gradient_5)" stroke="none" />
        </g>
      </g>
      <g id="Group-6109">
        <path d="M3.50199 15.8665C2.54086 15.4938 1.5135 15.4061 0.640739 15.6253C0.408764 15.6911 0.198836 15.7679 0 15.8665L5.11487 2.40545C5.46963 1.47227 6.18559 0.718498 7.10336 0.311763C8.02031 -0.0828686 9.05872 -0.104762 9.99771 0.256961C25.3313 6.26401 37.4612 17.8067 44.1558 32.7695C49.1491 43.9286 50.6847 56.0413 48.7404 67.8363C48.5637 60.0754 45.835 51.9745 40.6096 44.1698C32.4899 32.0241 19.3106 21.9722 3.50199 15.8665Z" transform="translate(0.15182 0.3921464)" id="Clip-6108" fill="none" stroke="none" />
        <g clip-path="url(#mask_27)">
          <path d="M0 359.003L279.356 359.003L279.356 0L0 0L0 359.003Z" transform="translate(-188.5198 -226.1903)" id="Fill-6107" fill="url(#gradient_6)" stroke="none" />
        </g>
      </g>
    </g>
    <g id="Group-6117" transform="translate(91.74934 84.31142)">
      <g id="Group-6113">
        <path d="M2.65137 26.9878C1.67924 26.6372 0.850667 26.0233 0.320392 25.2887C0.187835 25.1025 0.0773251 24.8941 0 24.6969L9.37916 0C9.51167 0.197452 9.7216 0.405556 10.0088 0.624902C10.6164 1.0742 11.4892 1.53474 12.4502 1.88536C28.1263 7.66219 43.5261 11.2578 55.7996 11.9921C65.7863 12.5951 72.7792 11.2578 76.0161 8.18836C74.5815 11.5922 72.8477 14.8642 70.8349 17.9664C65.5654 23.4912 58.2521 27.6346 49.348 30.0242C35.1744 33.828 18.5925 32.7428 2.65137 26.9878Z" transform="translate(0.3068354 0.1632287)" id="Clip-6112" fill="none" stroke="none" />
        <g clip-path="url(#mask_28)">
          <path d="M0 359.003L279.356 359.003L279.356 0L0 0L0 359.003Z" transform="translate(-157.0237 -300.0761)" id="Fill-6111" fill="url(#gradient_7)" stroke="none" />
        </g>
      </g>
      <g id="Group-6116">
        <path d="M2.65137 26.9878C1.67924 26.6372 0.850667 26.0233 0.320392 25.2887C0.187835 25.1025 0.0773251 24.8941 0 24.6969L9.37916 0C9.51167 0.197452 9.7216 0.405556 10.0088 0.624902C10.6164 1.0742 11.4892 1.53474 12.4502 1.88536C28.1263 7.66219 43.5261 11.2578 55.7996 11.9921C65.7863 12.5951 72.7792 11.2578 76.0161 8.18836C74.5815 11.5922 72.8477 14.8642 70.8349 17.9664C65.5654 23.4912 58.2521 27.6346 49.348 30.0242C35.1744 33.828 18.5925 32.7428 2.65137 26.9878Z" transform="translate(0.3068354 0.1632287)" id="Clip-6115" fill="none" stroke="none" />
        <g clip-path="url(#mask_28)">
          <path d="M0 359.003L279.356 359.003L279.356 0L0 0L0 359.003Z" transform="translate(-157.0237 -300.0761)" id="Fill-6114" fill="url(#gradient_8)" stroke="none" />
        </g>
      </g>
    </g>
    <g id="Group-6124" transform="translate(114.1161 26.29066)">
      <g id="Group-6120">
        <path d="M0.905899 23.5218C0.541321 23.4889 0.243022 23.5109 0 23.5766L8.8157 0.359648C9.01453 0.260967 9.22441 0.173301 9.45644 0.118453C10.3292 -0.100756 11.3676 -0.0130904 12.3287 0.359648C28.1373 6.47631 41.3166 16.5173 49.4364 28.6629C54.6617 36.4676 57.3904 44.5685 57.5671 52.3294C57.0921 55.2233 56.3961 58.1063 55.5013 60.9452C55.0484 56.5387 50.6958 51.003 42.8632 44.9631C33.1527 37.4761 19.2001 30.0879 3.57932 24.1686C2.62923 23.8068 1.6571 23.5766 0.905899 23.5218Z" transform="translate(0.4543647 0.03398699)" id="Clip-6119" fill="none" stroke="none" />
        <g clip-path="url(#mask_29)">
          <path d="M0 359.003L279.356 359.003L279.356 0L0 0L0 359.003Z" transform="translate(-179.3905 -242.0554)" id="Fill-6118" fill="url(#gradient_9)" stroke="none" />
        </g>
      </g>
      <g id="Group-6123">
        <path d="M0.905899 23.5218C0.541321 23.4889 0.243022 23.5109 0 23.5766L8.8157 0.359648C9.01453 0.260967 9.22441 0.173301 9.45644 0.118453C10.3292 -0.100756 11.3676 -0.0130904 12.3287 0.359648C28.1373 6.47631 41.3166 16.5173 49.4364 28.6629C54.6617 36.4676 57.3904 44.5685 57.5671 52.3294C57.0921 55.2233 56.3961 58.1063 55.5013 60.9452C55.0484 56.5387 50.6958 51.003 42.8632 44.9631C33.1527 37.4761 19.2001 30.0879 3.57932 24.1686C2.62923 23.8068 1.6571 23.5766 0.905899 23.5218Z" transform="translate(0.4543647 0.03398699)" id="Clip-6122" fill="none" stroke="none" />
        <g clip-path="url(#mask_29)">
          <path d="M0 359.003L279.356 359.003L279.356 0L0 0L0 359.003Z" transform="translate(-179.3905 -242.0554)" id="Fill-6121" fill="url(#gradient_10)" stroke="none" />
        </g>
      </g>
    </g>
    <g id="Group-6131" transform="translate(101.3351 49.40831)">
      <g id="Group-6127">
        <path d="M68.6144 37.4318C68.2609 38.55 67.8853 39.668 67.4765 40.7753C67.2114 41.4658 66.9242 42.1454 66.637 42.825C63.389 45.8832 56.3961 47.2317 46.4205 46.6287C34.136 45.8832 18.7472 42.2988 3.07114 36.5219C2.11005 36.1713 1.23734 35.7217 0.629738 35.2615C0.342485 35.0422 0.132603 34.8338 0 34.6366L13.1241 0.0632103C13.3561 0.00840792 13.6544 -0.0135312 14.019 0.00840792C14.7812 0.0632103 15.7423 0.29339 16.6924 0.655113C32.3132 6.58542 46.2658 13.9627 55.9763 21.4497C63.8088 27.4787 68.1615 33.0253 68.6144 37.4318Z" transform="translate(0.1222868 0.4188153)" id="Clip-6126" fill="none" stroke="none" />
        <g clip-path="url(#mask_30)">
          <path d="M0 359.003L279.356 359.003L279.356 0L0 0L0 359.003Z" transform="translate(-166.6095 -265.173)" id="Fill-6125" fill="url(#gradient_11)" stroke="none" />
        </g>
      </g>
      <g id="Group-6130">
        <path d="M68.6144 37.4318C68.2609 38.55 67.8853 39.668 67.4765 40.7753C67.2114 41.4658 66.9242 42.1454 66.637 42.825C63.389 45.8832 56.3961 47.2317 46.4205 46.6287C34.136 45.8832 18.7472 42.2988 3.07114 36.5219C2.11005 36.1713 1.23734 35.7217 0.629738 35.2615C0.342485 35.0422 0.132603 34.8338 0 34.6366L13.1241 0.0632103C13.3561 0.00840792 13.6544 -0.0135312 14.019 0.00840792C14.7812 0.0632103 15.7423 0.29339 16.6924 0.655113C32.3132 6.58542 46.2658 13.9627 55.9763 21.4497C63.8088 27.4787 68.1615 33.0253 68.6144 37.4318Z" transform="translate(0.1222868 0.4188153)" id="Clip-6129" fill="none" stroke="none" />
        <g clip-path="url(#mask_30)">
          <path d="M0 359.003L279.356 359.003L279.356 0L0 0L0 359.003Z" transform="translate(-166.6095 -265.173)" id="Fill-6128" fill="url(#gradient_12)" stroke="none" />
        </g>
      </g>
    </g>
  </g>
</svg>