<svg width="47" height="52" viewBox="974 1308 47 52" xmlns="http://www.w3.org/2000/svg" xmlns:xlink="http://www.w3.org/1999/xlink">
  <defs>
    <path d="M23.763 1.854c-1.698 1.697-.227 3.016-1.13 3.92-.907.906-2.49-.376-2.49-.376L17.956 3.21c-.83-.83-2.187-.83-3.016 0l-3.96 3.96s-1.507 1.056-2.412.15c-.905-.904.453-2.412-1.245-4.11-.866-.866-2.714-1.733-5.353.906-2.64 2.64-1.66 4.374-.792 5.24 1.697 1.698 3.054.49 3.96 1.395.904.907-.152 2.415-.152 2.415l-3.62 3.62c-.83.83-.83 2.186 0 3.016l2.94 2.94s2.113 2.414 3.923.605c1.168-1.17-.34-2.753 1.205-4.298.754-.755 2.225-.792 3.77.754 1.584 1.584 1.622 3.13.867 3.885-.8.8-1.63.76-2.41.723-.69-.033-1.34-.066-1.888.482-1.81 1.81.528 3.846.528 3.846l4.638 4.638c.83.83 2.186.83 3.016 0l4.9-4.902s2.528-2.224.718-4.034c-1.17-1.168-2.866.15-4.41-1.395-.755-.753-.87-2.526.715-4.11 1.582-1.583 3.43-1.546 4.184-.792 1.508 1.51.264 3.206 1.433 4.375 1.847 1.848 4.034-.716 4.034-.716l2-2c.83-.83.83-2.186 0-3.016l-5.354-5.353s-1.245-1.545-.34-2.45c.39-.39.87-.325 1.426-.26.735.086 1.604.17 2.57-.795.868-.868 1.886-2.79-.754-5.43-1.23-1.23-2.28-1.642-3.14-1.642-.982 0-1.713.538-2.175 1z" id="a"/>
    <path d="M23.763 1.854c-1.698 1.697-.227 3.016-1.13 3.92-.907.906-2.49-.376-2.49-.376L17.956 3.21c-.83-.83-2.187-.83-3.016 0l-3.96 3.96s-1.507 1.056-2.412.15c-.905-.904.453-2.412-1.245-4.11-.866-.866-2.714-1.733-5.353.906-2.64 2.64-1.66 4.374-.792 5.24 1.697 1.698 3.054.49 3.96 1.395.904.907-.152 2.415-.152 2.415l-3.62 3.62c-.83.83-.83 2.186 0 3.016l2.94 2.94s2.113 2.414 3.923.605c1.168-1.17-.34-2.753 1.205-4.298.754-.755 2.225-.792 3.77.754 1.584 1.584 1.622 3.13.867 3.885-.8.8-1.63.76-2.41.723-.69-.033-1.34-.066-1.888.482-1.81 1.81.528 3.846.528 3.846l4.638 4.638c.83.83 2.186.83 3.016 0l4.9-4.902s2.528-2.224.718-4.034c-1.17-1.168-2.866.15-4.41-1.395-.755-.753-.87-2.526.715-4.11 1.582-1.583 3.43-1.546 4.184-.792 1.508 1.51.264 3.206 1.433 4.375 1.847 1.848 4.034-.716 4.034-.716l2-2c.83-.83.83-2.186 0-3.016l-5.354-5.353s-1.245-1.545-.34-2.45c.39-.39.87-.325 1.426-.26.735.086 1.604.17 2.57-.795.868-.868 1.886-2.79-.754-5.43-1.23-1.23-2.28-1.642-3.14-1.642-.982 0-1.713.538-2.175 1z" id="c"/>
  </defs>
  <g fill="none" fill-rule="evenodd">
    <path d="M985.34 1339.084c-.625-.585-1.607-.553-2.194.074l-8.418 9.003c-.586.628-.552 1.61.074 2.195.626.586 1.608.554 2.195-.073l8.418-9.003c.586-.628.552-1.61-.074-2.196M992.297 1340.496c-.626-.585-1.608-.553-2.195.074l-14.805 15.834c-.586.627-.553 1.61.074 2.195.627.584 1.61.552 2.195-.075l14.806-15.834c.587-.626.553-1.608-.073-2.194M994.173 1347.342c-.626-.586-1.608-.553-2.195.074l-5.08 5.433c-.586.626-.553 1.608.074 2.194.626.585 1.608.553 2.194-.074l5.08-5.433c.587-.627.553-1.61-.073-2.195" fill="#D1D2D3"/>
    <path d="M1019.53 1324.784l-5.355-5.354s-1.244-1.546-.34-2.45c.906-.905 2.3.64 3.997-1.056.868-.867 1.886-2.79-.754-5.43-2.64-2.64-4.45-1.508-5.316-.64-1.697 1.696-.226 3.016-1.13 3.92-.906.906-2.49-.376-2.49-.376l-2.186-2.187c-.83-.83-2.187-.83-3.016 0l-3.96 3.96s-1.507 1.055-2.412.15c-.905-.904.452-2.412-1.245-4.11-.867-.866-2.714-1.733-5.353.906-2.64 2.64-1.66 4.373-.792 5.24 1.696 1.697 3.054.49 3.96 1.396.904.904-.152 2.413-.152 2.413l-3.62 3.62c-.83.83-.83 2.186 0 3.015l2.94 2.94s2.113 2.414 3.922.605c1.17-1.17-.34-2.753 1.207-4.3.754-.753 2.224-.79 3.77.755 1.584 1.584 1.62 3.13.867 3.884-1.508 1.508-3.13.037-4.298 1.206-1.81 1.81.528 3.846.528 3.846l4.638 4.638c.83.83 2.186.83 3.016 0l4.9-4.902s2.527-2.224.718-4.034c-1.17-1.17-2.866.15-4.412-1.395-.754-.754-.867-2.526.717-4.11 1.582-1.583 3.43-1.546 4.184-.792 1.508 1.51.264 3.206 1.432 4.375 1.848 1.847 4.035-.716 4.035-.716l2-2c.828-.83.828-2.186 0-3.016" fill="#00BDF4"/>
    <g transform="translate(988 1308)">
      <mask id="b" fill="#fff">
        <use xlink:href="#a"/>
      </mask>
      <path fill="#00BDF4" mask="url(#b)" d="M-161 2826h1280V-24H-161"/>
    </g>
    <g transform="translate(988 1308)">
      <mask id="d" fill="#fff">
        <use xlink:href="#c"/>
      </mask>
      <path fill="#00BDF4" mask="url(#d)" d="M-13.248 12.263L16.335-17.32l29.7 29.698L16.45 41.96"/>
    </g>
  </g>
</svg>