<svg width="47px" height="52px" viewBox="974 1308 47 52" version="1.1" xmlns="http://www.w3.org/2000/svg" xmlns:xlink="http://www.w3.org/1999/xlink">
    <!-- Generator: Sketch 41.2 (35397) - http://www.bohemiancoding.com/sketch -->
    <desc>Created with Sketch.</desc>
    <defs>
        <path d="M23.763,1.854 C22.065,3.551 23.536,4.87 22.632,5.775 C21.726,6.68 20.143,5.398 20.143,5.398 L17.956,3.211 C17.126,2.381 15.769,2.381 14.94,3.211 L10.981,7.17 C10.981,7.17 9.473,8.226 8.568,7.321 C7.663,6.416 9.021,4.908 7.323,3.211 C6.457,2.344 4.609,1.477 1.97,4.116 C-0.67,6.755 0.311,8.49 1.178,9.356 C2.875,11.054 4.232,9.847 5.137,10.751 C6.042,11.657 4.986,13.165 4.986,13.165 L1.366,16.784 C0.537,17.614 0.537,18.971 1.366,19.801 L4.307,22.741 C4.307,22.741 6.419,25.154 8.229,23.345 C9.398,22.176 7.889,20.592 9.435,19.047 C10.189,18.292 11.66,18.255 13.206,19.801 C14.789,21.384 14.827,22.93 14.072,23.685 C13.272,24.484 12.441,24.446 11.662,24.408 C10.972,24.375 10.323,24.342 9.774,24.89 C7.965,26.7 10.302,28.736 10.302,28.736 L14.94,33.374 C15.769,34.204 17.126,34.204 17.956,33.374 L22.857,28.472 C22.857,28.472 25.384,26.248 23.574,24.438 C22.405,23.27 20.708,24.589 19.163,23.043 C18.409,22.29 18.295,20.517 19.879,18.933 C21.462,17.35 23.31,17.387 24.064,18.141 C25.572,19.65 24.328,21.346 25.497,22.515 C27.344,24.363 29.531,21.799 29.531,21.799 L31.529,19.801 C32.359,18.971 32.359,17.614 31.529,16.784 L26.176,11.431 C26.176,11.431 24.931,9.885 25.836,8.98 C26.225,8.591 26.706,8.655 27.262,8.72 C27.997,8.806 28.866,8.891 29.832,7.925 C30.7,7.057 31.718,5.135 29.078,2.495 C27.848,1.264 26.797,0.853 25.939,0.853 C24.956,0.853 24.225,1.391 23.763,1.854 L23.763,1.854 Z" id="path-1"></path>
        <path d="M23.763,1.854 C22.065,3.551 23.536,4.87 22.632,5.775 C21.726,6.68 20.143,5.398 20.143,5.398 L17.956,3.211 C17.126,2.381 15.769,2.381 14.94,3.211 L10.981,7.17 C10.981,7.17 9.473,8.226 8.568,7.321 C7.663,6.416 9.021,4.908 7.323,3.211 C6.457,2.344 4.609,1.477 1.97,4.116 C-0.67,6.755 0.311,8.49 1.178,9.356 C2.875,11.054 4.232,9.847 5.137,10.751 C6.042,11.657 4.986,13.165 4.986,13.165 L1.366,16.784 C0.537,17.614 0.537,18.971 1.366,19.801 L4.307,22.741 C4.307,22.741 6.419,25.154 8.229,23.345 C9.398,22.176 7.889,20.592 9.435,19.047 C10.189,18.292 11.66,18.255 13.206,19.801 C14.789,21.384 14.827,22.93 14.072,23.685 C13.272,24.484 12.441,24.446 11.662,24.408 C10.972,24.375 10.323,24.342 9.774,24.89 C7.965,26.7 10.302,28.736 10.302,28.736 L14.94,33.374 C15.769,34.204 17.126,34.204 17.956,33.374 L22.857,28.472 C22.857,28.472 25.384,26.248 23.574,24.438 C22.405,23.27 20.708,24.589 19.163,23.043 C18.409,22.29 18.295,20.517 19.879,18.933 C21.462,17.35 23.31,17.387 24.064,18.141 C25.572,19.65 24.328,21.346 25.497,22.515 C27.344,24.363 29.531,21.799 29.531,21.799 L31.529,19.801 C32.359,18.971 32.359,17.614 31.529,16.784 L26.176,11.431 C26.176,11.431 24.931,9.885 25.836,8.98 C26.225,8.591 26.706,8.655 27.262,8.72 C27.997,8.806 28.866,8.891 29.832,7.925 C30.7,7.057 31.718,5.135 29.078,2.495 C27.848,1.264 26.798,0.853 25.939,0.853 C24.956,0.853 24.225,1.391 23.763,1.854 L23.763,1.854 Z" id="path-3"></path>
    </defs>
    <g id="Page-1" stroke="none" stroke-width="1" fill="none" fill-rule="evenodd" transform="translate(974.000000, 1308.000000)">
        <g id="Group-9">
            <path d="M11.3412,31.084 C10.7152,30.499 9.7332,30.531 9.1462,31.158 L0.7282,40.161 C0.1422,40.788 0.1762,41.77 0.8022,42.355 C1.4282,42.941 2.4102,42.909 2.9972,42.282 L11.4152,33.279 C12.0012,32.652 11.9672,31.67 11.3412,31.084" id="Fill-1" fill="#D1D2D3"></path>
            <path d="M18.2973,32.4961 C17.6713,31.9111 16.6893,31.9431 16.1023,32.5701 L1.2973,48.4041 C0.7113,49.0311 0.7443,50.0131 1.3713,50.5991 C1.9973,51.1841 2.9793,51.1521 3.5653,50.5251 L18.3713,34.6911 C18.9573,34.0641 18.9233,33.0821 18.2973,32.4961" id="Fill-3" fill="#D1D2D3"></path>
            <path d="M20.1728,39.3418 C19.5468,38.7558 18.5648,38.7888 17.9778,39.4158 L12.8978,44.8488 C12.3118,45.4758 12.3448,46.4578 12.9718,47.0438 C13.5978,47.6288 14.5798,47.5968 15.1658,46.9698 L20.2468,41.5368 C20.8328,40.9098 20.7988,39.9278 20.1728,39.3418" id="Fill-5" fill="#D1D2D3"></path>
            <path d="M45.5293,16.7842 L40.1753,11.4302 C40.1753,11.4302 38.9313,9.8842 39.8363,8.9802 C40.7413,8.0752 42.1363,9.6202 43.8323,7.9242 C44.7003,7.0572 45.7183,5.1342 43.0783,2.4942 C40.4393,-0.1448 38.6293,0.9862 37.7623,1.8542 C36.0653,3.5502 37.5363,4.8702 36.6313,5.7752 C35.7263,6.6802 34.1433,5.3982 34.1433,5.3982 L31.9563,3.2112 C31.1263,2.3812 29.7693,2.3812 28.9403,3.2112 L24.9813,7.1702 C24.9813,7.1702 23.4733,8.2252 22.5683,7.3212 C21.6633,6.4162 23.0203,4.9082 21.3233,3.2112 C20.4563,2.3442 18.6093,1.4772 15.9703,4.1162 C13.3303,6.7552 14.3113,8.4892 15.1783,9.3572 C16.8743,11.0532 18.2323,9.8472 19.1373,10.7522 C20.0423,11.6562 18.9863,13.1652 18.9863,13.1652 L15.3663,16.7842 C14.5373,17.6142 14.5373,18.9712 15.3663,19.8002 L18.3073,22.7412 C18.3073,22.7412 20.4193,25.1542 22.2283,23.3452 C23.3973,22.1762 21.8893,20.5922 23.4353,19.0462 C24.1893,18.2922 25.6593,18.2542 27.2053,19.8002 C28.7893,21.3842 28.8263,22.9302 28.0723,23.6842 C26.5643,25.1922 24.9433,23.7212 23.7743,24.8902 C21.9643,26.7002 24.3023,28.7362 24.3023,28.7362 L28.9403,33.3742 C29.7693,34.2032 31.1263,34.2032 31.9563,33.3742 L36.8573,28.4722 C36.8573,28.4722 39.3833,26.2482 37.5743,24.4382 C36.4053,23.2692 34.7083,24.5892 33.1623,23.0432 C32.4083,22.2892 32.2953,20.5172 33.8793,18.9332 C35.4623,17.3502 37.3103,17.3872 38.0643,18.1412 C39.5723,19.6492 38.3283,21.3462 39.4963,22.5152 C41.3443,24.3622 43.5313,21.7992 43.5313,21.7992 L45.5293,19.8002 C46.3583,18.9712 46.3583,17.6142 45.5293,16.7842" id="Fill-7" fill="#00BDF4"></path>
        </g>
        <g id="Group-12" transform="translate(14.000000, 0.000000)">
            <mask id="mask-2" fill="white">
                <use xlink:href="#path-1"></use>
            </mask>
            <g id="Clip-11"></g>
            <polygon id="Fill-10" fill="#00BDF4" mask="url(#mask-2)" points="-161 2826 1119 2826 1119 -24 -161 -24"></polygon>
        </g>
        <g id="Group-15" transform="translate(14.000000, 0.000000)">
            <mask id="mask-4" fill="white">
                <use xlink:href="#path-3"></use>
            </mask>
            <g id="Clip-14"></g>
            <polygon id="Fill-13" fill="#00BDF4" mask="url(#mask-4)" points="-13.2482 12.2629 16.3348 -17.3201 46.0338 12.3779 16.4508 41.9609"></polygon>
        </g>
    </g>
</svg>
