<svg id="Layer_1" data-name="Layer 1" xmlns="http://www.w3.org/2000/svg" xmlns:xlink="http://www.w3.org/1999/xlink" viewBox="0 0 526.97 394.83"><defs><linearGradient id="linear-gradient" x1="164.91" y1="242.51" x2="334.84" y2="72.58" gradientUnits="userSpaceOnUse"><stop offset=".43" stop-color="#00b3f4"/><stop offset=".61" stop-color="#00bbf6"/><stop offset=".89" stop-color="#00d2fc"/><stop offset="1" stop-color="#0df"/></linearGradient><linearGradient id="linear-gradient-2" x1="386.55" y1="-7.28" x2="249" y2="130.27" xlink:href="#linear-gradient"/><linearGradient id="linear-gradient-3" x1="109.73" y1="246.52" x2="171.21" y2="185.03" xlink:href="#linear-gradient"/><linearGradient id="linear-gradient-4" x1="114.84" y1="251.64" x2="176.33" y2="190.15" xlink:href="#linear-gradient"/><linearGradient id="linear-gradient-5" x1="119.96" y1="256.76" x2="181.45" y2="195.27" xlink:href="#linear-gradient"/><linearGradient id="linear-gradient-6" x1="125.08" y1="261.87" x2="186.57" y2="200.39" xlink:href="#linear-gradient"/><linearGradient id="linear-gradient-7" x1="117.4" y1="254.2" x2="178.89" y2="192.71" xlink:href="#linear-gradient"/><linearGradient id="linear-gradient-8" x1="140.43" y1="277.22" x2="201.92" y2="215.74" xlink:href="#linear-gradient"/><linearGradient id="linear-gradient-9" x1="145.55" y1="282.34" x2="207.04" y2="220.85" xlink:href="#linear-gradient"/><linearGradient id="linear-gradient-10" x1="150.67" y1="287.46" x2="212.15" y2="225.97" xlink:href="#linear-gradient"/><linearGradient id="linear-gradient-11" x1="155.78" y1="292.58" x2="217.27" y2="231.09" xlink:href="#linear-gradient"/><linearGradient id="linear-gradient-12" x1="148.11" y1="284.9" x2="209.59" y2="223.41" xlink:href="#linear-gradient"/><radialGradient id="radial-gradient" cx="322.96" cy="193.23" r="242.29" gradientUnits="userSpaceOnUse"><stop offset=".26" stop-color="#cdcdd4" stop-opacity="0"/><stop offset=".4" stop-color="#cdcdd4" stop-opacity=".02"/><stop offset=".55" stop-color="#cdcdd4" stop-opacity=".08"/><stop offset=".69" stop-color="#cdcdd4" stop-opacity=".18"/><stop offset=".72" stop-color="#cdcdd4" stop-opacity=".2"/></radialGradient><radialGradient id="radial-gradient-2" cx="333.6" cy="143.69" r="355.96" gradientUnits="userSpaceOnUse"><stop offset=".27" stop-color="#cdcdd4" stop-opacity="0"/><stop offset=".46" stop-color="#cdcdd4" stop-opacity=".02"/><stop offset=".66" stop-color="#cdcdd4" stop-opacity=".08"/><stop offset=".86" stop-color="#cdcdd4" stop-opacity=".18"/><stop offset=".9" stop-color="#cdcdd4" stop-opacity=".2"/></radialGradient><radialGradient id="radial-gradient-3" cx="341.39" cy="294.68" r="309.06" gradientUnits="userSpaceOnUse"><stop offset=".4" stop-color="#cdcdd4" stop-opacity="0"/><stop offset=".58" stop-color="#cdcdd4" stop-opacity=".02"/><stop offset=".77" stop-color="#cdcdd4" stop-opacity=".08"/><stop offset=".96" stop-color="#cdcdd4" stop-opacity=".18"/><stop offset="1" stop-color="#cdcdd4" stop-opacity=".2"/></radialGradient><style>.cls-16{fill:#ffa436}.cls-17{fill:#ffd567}.cls-18{fill:#ffbd4f}.cls-19{fill:#ffea80}.cls-20{fill:#ff298a}.cls-21{fill:#9f9fad}</style></defs><path d="M495.56 97.07a22.46 22.46 0 01-22.37 22.45H383.3a17.17 17.17 0 010-34.33 17.39 17.39 0 014.11.52 18 18 0 01-.47-4 17.72 17.72 0 0127.72-14.59 29.75 29.75 0 0158.53 7.48 22.46 22.46 0 0122.37 22.47z" fill="url(#radial-gradient)"/><path d="M199.59 295.19a25.7 25.7 0 00-6.18.75 26.69 26.69 0 00-41.09-28 44.85 44.85 0 00-88.23 11.27 33.7 33.7 0 100 67.39h135.5a25.72 25.72 0 000-51.44z" fill="url(#radial-gradient-2)"/><circle cx="276.01" cy="191.79" r="162.45" fill="url(#radial-gradient-3)"/><path d="M305.42 43.15H182.6a5.14 5.14 0 00-5.12 5.12V253a5.14 5.14 0 005.12 5.12H331a5.13 5.13 0 005.12-5.12V73.86zm10.11 201.78a9.87 9.87 0 119.87-9.86 9.86 9.86 0 01-9.87 9.86z" fill="url(#linear-gradient)"/><path d="M305.42 68.74a5.13 5.13 0 005.11 5.12h25.59l-30.7-30.71z" fill="url(#linear-gradient-2)"/><path d="M310.53 102H203.07a2.56 2.56 0 110-5.11h107.46a2.56 2.56 0 110 5.11z" fill="url(#linear-gradient-3)"/><path d="M310.53 112.24H203.07a2.56 2.56 0 010-5.12h107.46a2.56 2.56 0 110 5.12z" fill="url(#linear-gradient-4)"/><path d="M310.53 122.47H203.07a2.56 2.56 0 110-5.11h107.46a2.56 2.56 0 110 5.11z" fill="url(#linear-gradient-5)"/><path d="M310.53 132.71H203.07a2.56 2.56 0 010-5.12h107.46a2.56 2.56 0 010 5.12z" fill="url(#linear-gradient-6)"/><path d="M259.36 142.94h-56.29a2.56 2.56 0 110-5.11h56.29a2.56 2.56 0 110 5.11z" fill="url(#linear-gradient-7)"/><path d="M310.53 163.41H203.07a2.56 2.56 0 010-5.12h107.46a2.56 2.56 0 010 5.12z" fill="url(#linear-gradient-8)"/><path d="M310.53 173.65H203.07a2.56 2.56 0 010-5.12h107.46a2.56 2.56 0 010 5.12z" fill="url(#linear-gradient-9)"/><path d="M310.53 183.88H203.07a2.56 2.56 0 010-5.12h107.46a2.56 2.56 0 010 5.12z" fill="url(#linear-gradient-10)"/><path d="M310.53 194.12H203.07a2.56 2.56 0 010-5.12h107.46a2.56 2.56 0 010 5.12z" fill="url(#linear-gradient-11)"/><path d="M259.36 204.35h-56.29a2.56 2.56 0 010-5.12h56.29a2.56 2.56 0 010 5.12z" fill="url(#linear-gradient-12)"/><path class="cls-16" transform="rotate(-45 269.702 333.336)" d="M265.38 326.86h8.64v12.96h-8.64z"/><rect class="cls-17" x="265.25" y="330.49" width="4.32" height="19.44" rx="2.16" transform="rotate(-45 267.42 340.211)"/><rect class="cls-17" x="274.42" y="321.33" width="4.32" height="19.44" rx="2.16" transform="rotate(-45 276.575 331.049)"/><path class="cls-18" transform="rotate(-45 274.286 328.757)" d="M272.13 322.28h4.32v12.96h-4.32z"/><path class="cls-18" transform="rotate(-45 265.126 337.931)" d="M262.96 331.44h4.32v12.96h-4.32z"/><path class="cls-19" d="M299.49 260.78a22.71 22.71 0 00-4.12 26.44l-41.21 41.21a7.92 7.92 0 000 11.15l.08.06L304.88 289c-.27-.23-.55-.46-.8-.72A16.2 16.2 0 11327 265.36c.26.26.49.54.73.81l4.58-4.59c-.24-.26-.47-.54-.73-.8a22.68 22.68 0 00-32.09 0z"/><path class="cls-17" d="M327 288.28a16.18 16.18 0 01-22.11.72l-50.64 50.64a7.9 7.9 0 0011.08-.06l41.73-41.72a22.67 22.67 0 0025.25-36.28l-4.58 4.59a16.19 16.19 0 01-.73 22.11z"/><path class="cls-16" d="M327 288.28a16.19 16.19 0 00.73-22.11c-.24-.27-.47-.55-.73-.81a16.2 16.2 0 10-22.91 22.92c.25.26.53.49.8.72a16.18 16.18 0 0022.11-.72zm-20.52-2.39a12.82 12.82 0 1118.13 0 12.83 12.83 0 01-18.14 0z"/><rect class="cls-20" x="296.82" y="285.09" width="3.94" height="19.72" rx="1.97" transform="rotate(-45 298.794 294.955)"/><rect class="cls-20" x="292.64" y="289.27" width="3.94" height="19.72" rx="1.97" transform="rotate(-45 294.616 299.136)"/><path class="cls-16" d="M349.05 350.66h12.96v8.64h-12.96z"/><rect class="cls-17" x="349.05" y="359.3" width="19.44" height="4.32" rx="2.16"/><rect class="cls-17" x="349.05" y="346.34" width="19.44" height="4.32" rx="2.16"/><path class="cls-18" d="M349.05 346.34h12.96v4.32h-12.96zM349.05 359.3h12.96v4.32h-12.96z"/><path class="cls-19" d="M325.29 282.61a22.68 22.68 0 0015.78 21.6v58.28a7.91 7.91 0 007.89 7.89h.09v-71.62c-.36 0-.71.05-1.08.05a16.21 16.21 0 010-32.41c.37 0 .72 0 1.08.06V260c-.36 0-.71-.06-1.08-.06a22.69 22.69 0 00-22.68 22.67z"/><path class="cls-17" d="M364.18 282.61a16.2 16.2 0 01-15.13 16.15v71.61a7.9 7.9 0 007.8-7.88v-59a22.67 22.67 0 00-7.8-43.51v6.48a16.19 16.19 0 0115.13 16.15z"/><path class="cls-16" d="M364.18 282.61a16.19 16.19 0 00-15.13-16.15c-.36 0-.71-.06-1.08-.06a16.21 16.21 0 000 32.41c.37 0 .72 0 1.08-.05a16.2 16.2 0 0015.13-16.15zM348 295.43a12.82 12.82 0 1112.82-12.82A12.82 12.82 0 01348 295.43z"/><rect class="cls-20" x="339.1" y="305.29" width="19.72" height="3.94" rx="1.97"/><rect class="cls-20" x="339.1" y="311.21" width="19.72" height="3.94" rx="1.97"/><path class="cls-21" d="M327.58 271.92a.9.9 0 01-.42-.1 25.32 25.32 0 01-4.81-42.94 1 1 0 111.22 1.57A23.34 23.34 0 00328 270a1 1 0 01.48 1.33 1 1 0 01-.9.59zM339.42 274.16a1 1 0 01-.06-2 23.33 23.33 0 00-1.47-46.61h-1.06a1 1 0 01-.09-2h1.15a25.33 25.33 0 011.59 50.61z"/></svg>
