<svg width="1022" height="327" viewBox="0 0 1022 327" xmlns="http://www.w3.org/2000/svg">
  <g fill="#D1D2D3" fill-rule="evenodd" opacity=".45">
    <path d="M5.5 268c3.038 0 5.5-2.462 5.5-5.5S8.538 257 5.5 257 0 259.462 0 262.5s2.462 5.5 5.5 5.5zm0-3c1.38 0 2.5-1.12 2.5-2.5S6.88 260 5.5 260 3 261.12 3 262.5s1.12 2.5 2.5 2.5zM245.575 308.327l14.166-10.31 10.312 14.165-14.166 10.31-10.31-14.165zm.593-7.655l13.19-9.6-.643 4.08-13.19 9.6.643-4.08zm-2.694-1.65L242 308.376l13.243 18.195 18.277-13.303.48-10.55-12.33-16.942-18.196 13.243zM75.547 103.313l1.14 1.086 17.882 12.496-9.268 9.97-9.755-23.553zm-4.553-4.23l13.46 32.497 19.935-21.45-33.396-11.048zM1018.16 232.208l-.768 1.407-7.58 20.89-12.256-6.49 20.604-15.807zm2.963-5.595l-28.428 21.81 26.36 13.962 2.068-35.772zM865.075 90.006l11.342 3.487 3.486-11.342-11.34-3.485-3.488 11.34zm5.404-12.82l10.56 3.246 2.47-1.31-10.56-3.246-2.47 1.31zm16.837 1.038l-4.17 13.565-5.91 4.024-14.632-4.498 4.478-14.57 5.667-3 14.567 4.478zM966.5 11c3.038 0 5.5-2.462 5.5-5.5S969.538 0 966.5 0 961 2.462 961 5.5s2.462 5.5 5.5 5.5zm0-3c1.38 0 2.5-1.12 2.5-2.5S967.88 3 966.5 3 964 4.12 964 5.5s1.12 2.5 2.5 2.5z"/>
  </g>
</svg>