<?xml version="1.0" encoding="UTF-8" standalone="no"?>
<svg width="1022px" height="327px" viewBox="0 0 1022 327" version="1.1" xmlns="http://www.w3.org/2000/svg" xmlns:xlink="http://www.w3.org/1999/xlink">
    <!-- Generator: Sketch 41.2 (35397) - http://www.bohemiancoding.com/sketch -->
    <title>image-toppattern</title>
    <desc>Created with Sketch.</desc>
    <defs></defs>
    <g id="Page-1" stroke="none" stroke-width="1" fill="none" fill-rule="evenodd" opacity="0.45">
        <g id="landing-page---not-signed-in-with-sidebar---visual-design" transform="translate(-121.000000, -122.000000)" fill="#D1D2D3">
            <g id="image-toppattern" transform="translate(121.000000, 122.000000)">
                <g id="Header-pattern">
                    <g id="Page-1">
                        <g id="landing-page---not-signed-in-with-sidebar---visual-design">
                            <g id="Header-pattern">
                                <path d="M5.5,268 C8.53756612,268 11,265.537566 11,262.5 C11,259.462434 8.53756612,257 5.5,257 C2.46243388,257 0,259.462434 0,262.5 C0,265.537566 2.46243388,268 5.5,268 L5.5,268 Z M5.5,265 C6.88071187,265 8,263.880712 8,262.5 C8,261.119288 6.88071187,260 5.5,260 C4.11928813,260 3,261.119288 3,262.5 C3,263.880712 4.11928813,265 5.5,265 L5.5,265 Z" id="Combined-Shape"></path>
                                <path d="M245.575339,308.3266 L259.741477,298.016319 L270.051757,312.181617 L255.88562,322.492737 L245.575339,308.3266 L245.575339,308.3266 Z M246.16829,300.671997 L259.357655,291.071409 L258.715152,295.150672 L245.524947,304.75126 L246.16829,300.671997 L246.16829,300.671997 Z M243.473977,299.020807 L242,308.376992 L255.243117,326.572 L273.520433,313.269252 L274,302.720448 L261.668985,285.77769 L243.473977,299.020807 L243.473977,299.020807 Z" id="Fill-9731"></path>
                                <path d="M80.6697161,98.0781587 L81.0336289,99.6096969 L89.2251165,119.830141 L76.0224979,123.145025 L80.6697161,98.0781587 L80.6697161,98.0781587 Z M79.1562873,92.0503139 L72.7438332,126.635828 L101.145417,119.505034 L79.1562873,92.0503139 L79.1562873,92.0503139 Z" id="Fill-17188" transform="translate(86.944625, 109.343071) rotate(-33.000000) translate(-86.944625, -109.343071) "></path>
                                <path d="M1008.84031,233.537544 L1009.21101,235.097659 L1017.55534,255.695394 L1004.10638,259.07213 L1008.84031,233.537544 L1008.84031,233.537544 Z M1007.29864,227.397226 L1000.76654,262.628067 L1029.69806,255.364221 L1007.29864,227.397226 L1007.29864,227.397226 Z" id="Fill-17188" transform="translate(1015.232301, 245.012647) rotate(42.000000) translate(-1015.232301, -245.012647) "></path>
                                <path d="M863.981877,86.8863524 L873.808478,93.536393 L880.458519,83.7097915 L870.631917,77.0597508 L863.981877,86.8863524 L863.981877,86.8863524 Z M872.897927,76.2048129 L882.047742,82.3976927 L884.793535,81.8679517 L875.64372,75.6760145 L872.897927,76.2048129 L872.897927,76.2048129 Z M888.69684,82.121511 L880.743184,93.8747863 L873.914049,95.9956356 L861.236084,87.4160934 L869.777922,74.7937412 L876.07543,73.5796728 L888.69684,82.121511 L888.69684,82.121511 Z" id="Fill-4" transform="translate(874.966462, 84.787654) rotate(-17.000000) translate(-874.966462, -84.787654) "></path>
                                <path d="M966.5,11 C969.537566,11 972,8.53756612 972,5.5 C972,2.46243388 969.537566,0 966.5,0 C963.462434,0 961,2.46243388 961,5.5 C961,8.53756612 963.462434,11 966.5,11 L966.5,11 Z M966.5,8 C967.880712,8 969,6.88071187 969,5.5 C969,4.11928813 967.880712,3 966.5,3 C965.119288,3 964,4.11928813 964,5.5 C964,6.88071187 965.119288,8 966.5,8 L966.5,8 Z" id="Combined-Shape"></path>
                            </g>
                        </g>
                    </g>
                </g>
            </g>
        </g>
    </g>
</svg>