<svg width="302" height="249" xmlns="http://www.w3.org/2000/svg"><path d="M130.526 171.874c0 6.348-5.137 11.502-11.49 11.527h-46.19a8.82 8.82 0 01-8-5.025 8.806 8.806 0 011.142-9.373 8.823 8.823 0 018.974-2.96 9.083 9.083 0 013.738-9.546 9.099 9.099 0 0110.259.01c1.946-7.428 9.106-12.258 16.727-11.285 7.621.973 13.336 7.447 13.35 15.124 6.354.026 11.49 5.18 11.49 11.528zM295.466 31.233c-1.07 0-2.136.13-3.175.386a13.697 13.697 0 00-5.651-14.377 13.722 13.722 0 00-15.458.016C268.248 6.065 257.456-1.214 245.97.253c-11.486 1.467-20.099 11.224-20.12 22.794a17.313 17.313 0 00-14.992 8.649 17.285 17.285 0 000 17.297 17.313 17.313 0 0014.991 8.648h69.617c7.298 0 13.215-5.912 13.214-13.204 0-7.293-5.916-13.204-13.214-13.204z" fill="#FFB587" fill-opacity=".3"/><path d="M38.38 206.91h12.687v-3.185h-9.991a80.558 80.558 0 01-2.696 3.185z" fill="none"/><path d="M81.555 206.91v-1.593a1.592 1.592 0 00-1.594-1.593H51.067v3.186h30.488z" fill="#FFB587" fill-opacity=".3"/><path d="M96.132 197.716v-.012-.158h-.015a1.466 1.466 0 00-1.455-1.312c-1.189 0-1.72-.48-2.523-1.208-.97-.877-2.176-1.968-4.498-1.968s-3.528 1.091-4.498 1.968c-.803.728-1.334 1.208-2.522 1.208-1.188 0-1.719-.48-2.522-1.208-.97-.877-2.175-1.968-4.498-1.968-2.323 0-3.529 1.091-4.499 1.968-.803.728-1.334 1.208-2.522 1.208-1.189 0-1.72-.48-2.524-1.208-.97-.877-2.175-1.968-4.498-1.968-2.322 0-3.528 1.091-4.497 1.968-.804.728-1.336 1.208-2.524 1.208a1.466 1.466 0 00-1.456 1.312h-.014v.146l-.002.012.002.012v2.823H79.96a4.783 4.783 0 014.781 4.778v47.412a3.184 3.184 0 01-3.187 3.185H51.067v7.112a1.461 1.461 0 001.434 1.79l.022-.001.014.001c2.322 0 3.529-1.09 4.499-1.968.799-.724 1.33-1.202 2.507-1.207 1.178.005 1.71.483 2.51 1.208.97.876 2.178 1.967 4.501 1.967H66.58c2.322 0 3.528-1.09 4.497-1.968.804-.727 1.336-1.208 2.524-1.208s1.72.48 2.522 1.208c.97.877 2.176 1.968 4.498 1.968s3.528-1.09 4.498-1.968c.803-.727 1.334-1.208 2.522-1.208 1.188 0 1.72.48 2.522 1.208.97.877 2.177 1.968 4.499 1.968a1.466 1.466 0 001.457-1.33h.013v-.128-.012-65.631z" fill="#FFB587" fill-opacity=".3"/><path d="M51.067 203.725v-3.185h-7.574a71.402 71.402 0 01-2.417 3.185h9.99zM42.515 226.123c-2.628.114-3.711 1.68-3.711 2.065 0 .386 1.743 1.475 3.446 1.475 1.704 0 3.712-.624 3.712-1.18 0-.62-.966-2.468-3.447-2.36zM50.204 228.483c0 .23.343.469.863.673v-2.187c-.466.38-.773.92-.863 1.514z" fill="#FFB587"/><path d="M48.083 231.728c-2.59 0-4.618 3.245-7.158 3.245-3.332 0-5.793-3.153-5.833-8.555-.024-3.354.978-4.425 5.303-4.425s5.592 1.77 7.688 1.77c1.04 0 1.877-.436 2.984-.875V206.91H38.38a82.23 82.23 0 01-6.37 6.402c-8.6 7.737-15.307 11.167-15.307 11.167s.845 3.66.845 12.293c0 4.979-.156 13.132-.289 19.142h33.808v-22.956c-.945-.66-1.901-1.23-2.984-1.23zM57.362 228.188c0-.386-1.083-1.951-3.712-2.065a3.509 3.509 0 00-2.583.846v2.187a8.442 8.442 0 002.848.507c1.704 0 3.447-1.09 3.447-1.475z" fill="#FFB587"/><path d="M84.742 252.729v-47.412a4.776 4.776 0 00-4.781-4.778H51.067v3.185H79.96c.88 0 1.594.713 1.594 1.593v1.593H51.067v15.978a11.892 11.892 0 014.704-.895c4.325 0 5.327 1.07 5.302 4.425-.04 5.402-2.5 8.555-5.832 8.555-1.571 0-2.86-1.097-4.174-2.015v22.956h30.488a3.189 3.189 0 003.187-3.185z" fill="#FFB587"/><path d="M45.138 197.695l.008-.055h-.014a1.466 1.466 0 00-1.455-1.312c-1.189 0-1.72-.48-2.523-1.208-.97-.877-2.176-1.968-4.498-1.968s-3.528 1.09-4.498 1.968c-.803.727-1.334 1.208-2.522 1.208-1.188 0-1.719-.48-2.522-1.208-.97-.877-2.175-1.968-4.498-1.968-2.323 0-3.529 1.09-4.499 1.968-.803.727-1.334 1.208-2.522 1.208-1.188 0-1.72-.48-2.524-1.208-.97-.877-2.175-1.968-4.498-1.968-2.322 0-3.528 1.09-4.497 1.968-.804.727-1.336 1.208-2.524 1.208a1.466 1.466 0 00-1.456 1.312H.08v65.94h.015c.07.752.7 1.329 1.457 1.33 2.323 0 3.53-1.091 4.5-1.968.805-.727 1.337-1.208 2.527-1.208 1.19 0 1.721.48 2.526 1.209.97.876 2.177 1.967 4.5 1.967a1.466 1.466 0 001.458-1.336l.015.005s.084-3.255.181-7.665c.133-6.01.289-14.163.289-19.142 0-8.633-.846-12.293-.846-12.293s6.708-3.43 15.309-11.167a82.225 82.225 0 009.065-9.588 71.403 71.403 0 002.417-3.185c.473-.663.842-1.206 1.101-1.6a1.46 1.46 0 00.554-1.141c0-.035-.008-.068-.01-.103z" fill="#FFB587" fill-opacity=".3"/><path d="M219 177h18v5h-18v-5z" fill="none"/><g opacity=".3" fill="#FFB587"><path d="M216.298 140.108h4.334v10.906h-4.334v-10.906zM225.683 141.042h3.827v9.972h-3.827v-9.972z"/><path d="M278.69 177.735h-2.307v-64.031a4.62 4.62 0 00-1.34-3.256 4.56 4.56 0 00-3.234-1.349h-89.35c-2.528 0-4.577 2.062-4.577 4.606v64.03h-2.307a2.286 2.286 0 00-2.278 2.293v4.643a2.286 2.286 0 002.278 2.293H278.69a2.286 2.286 0 002.278-2.293v-4.643a2.286 2.286 0 00-2.278-2.293zm-40.722-20.177h4.334v-23.993l-2.167-2.181-2.167 2.181v4.362h-4.334v-4.362l-2.167-2.181-2.167 2.181v4.362h-4.334v-4.362l-2.167-2.181-2.167 2.181v4.362h-4.334v-4.362l-2.167-2.181-2.167 2.181v23.993h4.334v-4.363h4.334v4.363h4.334v-4.363h4.334v4.363h4.334v-4.363h4.334v4.363zm-1.666 24.792h-18.339v-4.615h18.34v4.615z" fill-rule="evenodd"/><path d="M233.634 140.108h4.334v10.906h-4.334v-10.906z"/></g><path d="M169.177 64h37.646c4.514.005 8.172 3.69 8.177 8.237v20.924c-.005 4.548-3.663 8.233-8.177 8.238h-1.948v10.2c0 1.437-.897 2.72-2.241 3.203a3.359 3.359 0 01-3.748-1.052l-10.01-12.351h-19.699c-4.514-.005-8.172-3.69-8.177-8.238V72.237c.005-4.547 3.663-8.232 8.177-8.237zm24.589 20.222l3.422-3.706c.322-.348.429-.844.28-1.294a1.29 1.29 0 00-.995-.866l-4.777-.86-2.252-4.556a1.285 1.285 0 00-1.152-.719c-.488 0-.934.278-1.151.718l-2.253 4.557-4.774.86a1.29 1.29 0 00-.997.863c-.15.45-.044.947.277 1.295l3.424 3.708-.713 5.137a1.3 1.3 0 00.532 1.238c.393.28.91.314 1.336.09l4.319-2.267 4.316 2.266c.427.225.944.19 1.338-.089a1.3 1.3 0 00.532-1.24l-.712-5.135z" fill="#FFB587" fill-rule="evenodd"/><path d="M144 138c-21.529.025-38.975 17.35-39 38.731 0 3.056 2.494 5.533 5.571 5.533 3.077 0 5.572-2.477 5.572-5.533 0-15.279 12.472-27.665 27.857-27.665s27.857 12.386 27.857 27.665c0 11.607-3.379 18.026-6.358 23.694-2.353 4.474-4.785 9.094-4.785 15.038a5.526 5.526 0 002.785 4.795c1.724.99 3.85.99 5.574 0a5.526 5.526 0 002.784-4.795c0-3.226 1.475-6.03 3.518-9.915 3.218-6.117 7.625-14.492 7.625-28.817-.025-21.38-17.471-38.706-39-38.731z" fill="#FFB587"/><path d="M142.82 154c-12.245.013-22.167 10.004-22.18 22.333 0 3.5-2.792 11.166-11.09 11.166a5.538 5.538 0 00-4.806 2.79 5.617 5.617 0 000 5.586 5.538 5.538 0 004.805 2.79c13.7 0 22.18-11.591 22.18-22.332 0-6.167 4.966-11.167 11.09-11.167 6.126 0 11.09 5 11.09 11.167 0 13.952-4.694 20.2-9.662 26.82-2.234 2.977-4.54 6.052-6.388 9.765-1.37 2.758-.259 6.112 2.48 7.491 2.74 1.38 6.071.261 7.441-2.497 1.386-2.797 3.295-5.338 5.315-8.026 5.304-7.066 11.905-15.86 11.905-33.553-.013-12.329-9.936-22.32-22.18-22.333z" fill="#FFB587"/><path d="M143.376 171a5.658 5.658 0 00-3.977 1.627 5.52 5.52 0 00-1.647 3.928c0 23.378-29.61 33.523-29.909 33.621a5.578 5.578 0 00-3.73 4.16 5.515 5.515 0 001.785 5.27 5.676 5.676 0 005.513 1.106c1.535-.505 37.589-12.739 37.589-44.157a5.52 5.52 0 00-1.647-3.928 5.658 5.658 0 00-3.977-1.627z" fill="#FFB587"/><path d="M210.423 199h35.154c3.543.01 6.413 2.95 6.423 6.581v20.838c-.01 3.63-2.88 6.57-6.423 6.581h-35.154c-3.543-.01-6.413-2.95-6.423-6.581v-20.838c.01-3.63 2.88-6.57 6.423-6.581zm36.144 27.185c.313-.052.593-.228.78-.492a1.247 1.247 0 00-.269-1.71l-11.512-8.543 9.032-6.97c.386-.299.559-.806.438-1.286a1.207 1.207 0 00-1.16-.918c-.259 0-.51.086-.717.246l-11.113 8.577c-.041.032-4.216 3.16-8.044-.002l-11.111-8.575a1.203 1.203 0 00-1.676.242 1.246 1.246 0 00.236 1.715l8.996 6.943-11.55 8.57a1.245 1.245 0 00-.267 1.712c.387.548 1.135.67 1.67.274l12.146-9.013.099.076a8.122 8.122 0 007.5 1.644c1.234-.326 2.4-.878 3.442-1.63l.08-.062 12.11 8.985c.256.19.577.268.89.217zM260.299 78.53a1.065 1.065 0 001.054-.881c.088-.62.288-1.218.59-1.765a4.889 4.889 0 011.722-.567c.511-.084.887-.525.89-1.045a1.065 1.065 0 00-.875-1.057 5.03 5.03 0 01-1.735-.59 5.035 5.035 0 01-.592-1.746c-.09-.51-.53-.88-1.046-.879h-.008a1.061 1.061 0 00-1.04.894 4.934 4.934 0 01-.565 1.73 5.11 5.11 0 01-1.758.59c-.51.091-.881.539-.878 1.06.004.52.38.962.893 1.045.61.078 1.202.27 1.743.565.294.543.485 1.137.563 1.75.082.514.523.893 1.042.896zm14.857-7.465h.03a4.256 4.256 0 014.185 3.527c.307 1.748 1.024 3.99 1.48 4.653.66.459 2.856 1.166 4.635 1.485A4.263 4.263 0 01289 84.96a4.262 4.262 0 01-3.571 4.183c-1.712.279-3.912.958-4.578 1.406-.459.679-1.16 2.906-1.478 4.713a4.253 4.253 0 01-4.188 3.534h-.024a4.259 4.259 0 01-4.173-3.586c-.288-1.781-.951-3.976-1.4-4.661-.682-.45-2.868-1.116-4.638-1.404a4.262 4.262 0 01-3.577-4.182 4.263 4.263 0 013.515-4.235c1.805-.32 4.024-1.024 4.7-1.484.447-.667 1.111-2.836 1.4-4.596a4.256 4.256 0 014.168-3.584zM247.08 85.992h-.008a1.065 1.065 0 01-1.042-.898c-.154-.964-.534-2.21-.849-2.53-.317-.316-1.559-.697-2.52-.851a1.065 1.065 0 01-.894-1.046 1.066 1.066 0 01.88-1.059c.965-.17 2.214-.568 2.534-.89.314-.314.7-1.568.851-2.497a1.062 1.062 0 011.04-.896h.008c.516 0 .957.371 1.046.881.17.954.565 2.194.887 2.515.315.317 1.573.723 2.503.887.51.09.881.537.878 1.058-.004.52-.381.962-.893 1.045-.946.156-2.173.535-2.49.854-.318.32-.715 1.575-.885 2.544-.089.51-.53.882-1.046.883zm30.758-3.724c-1.745-1.753-2.654-6.936-2.654-6.936s-.837 5.183-2.582 6.936c-1.746 1.752-6.983 2.664-6.983 2.664s5.237.84 6.983 2.592c1.745 1.752 2.582 7.009 2.582 7.009s.909-5.257 2.654-7.009c1.746-1.752 6.91-2.592 6.91-2.592s-5.164-.912-6.91-2.664zm-48.599 7.668a1.065 1.065 0 001.054-.881c.089-.62.289-1.218.59-1.765a4.888 4.888 0 011.723-.567c.51-.084.887-.525.89-1.045a1.065 1.065 0 00-.875-1.057 5.03 5.03 0 01-1.736-.59 5.034 5.034 0 01-.591-1.745c-.09-.51-.531-.88-1.046-.88h-.009a1.061 1.061 0 00-1.04.894 4.933 4.933 0 01-.564 1.73 5.11 5.11 0 01-1.758.591c-.51.09-.882.538-.878 1.058.004.52.38.963.893 1.046.61.079 1.202.27 1.743.565.294.544.484 1.137.563 1.75.082.514.523.893 1.041.896zM261.37 102h-.009a1.065 1.065 0 01-1.042-.898c-.153-.965-.533-2.21-.849-2.53-.317-.316-1.558-.697-2.52-.851a1.066 1.066 0 01-.894-1.046 1.066 1.066 0 01.88-1.059c.965-.17 2.215-.569 2.534-.89.314-.314.7-1.568.851-2.498a1.062 1.062 0 011.04-.895h.009c.515 0 .956.371 1.046.88.17.955.564 2.195.886 2.516.315.316 1.573.723 2.503.887.51.09.882.537.878 1.058-.003.52-.38.961-.892 1.044-.947.157-2.174.536-2.491.855-.318.32-.714 1.575-.884 2.544-.09.51-.53.882-1.046.883z" fill="#FFB587" fill-rule="evenodd"/></svg>
