<svg width="118" height="145" xmlns="http://www.w3.org/2000/svg"><path d="M5.172 124.907c-2.514 0-4.936-2.706-6.681-.696a1.658 1.658 0 00-.112 2.024 8.185 8.185 0 006.793 3.614 8.185 8.185 0 006.793-3.614 1.659 1.659 0 00-.112-2.024c-1.745-2.01-4.166.696-6.68.696z" fill="none"/><path d="M29.152 92.89a6.107 6.107 0 015.062 6.045c.018 6.806-.04 15.806-.426 20.031-1.141 12.525-3.446 19.356-9.133 27.071-6.576 8.92-15.976 11.166-18.701 11.642l-.78.136-.778-.136c-2.727-.477-12.134-2.725-18.707-11.64-5.687-7.718-7.992-14.55-9.132-27.072-.386-4.194-.445-13.209-.426-20.037a6.11 6.11 0 015.052-6.04l23.226-3.977.763-.131.764.13 23.216 3.977zm-35.537 28.722c0 6.37 5.174 11.532 11.557 11.532a11.57 11.57 0 008.172-3.377 11.52 11.52 0 003.385-8.155c0-6.37-5.174-11.533-11.557-11.533s-11.557 5.164-11.557 11.533z" fill="#FF9AA2" fill-opacity=".3" fill-rule="evenodd"/><path d="M5.172 123.26a4.948 4.948 0 004.953-4.943 4.948 4.948 0 00-4.953-4.943 4.948 4.948 0 00-4.953 4.943 4.948 4.948 0 004.953 4.942z" fill="none"/><path d="M5.172 110.08c-6.383 0-11.557 5.163-11.557 11.532 0 6.37 5.174 11.533 11.557 11.533s11.557-5.164 11.557-11.533a11.52 11.52 0 00-3.385-8.155 11.57 11.57 0 00-8.172-3.378zm0 3.294a4.948 4.948 0 014.953 4.943 4.948 4.948 0 01-4.953 4.942 4.948 4.948 0 01-4.953-4.942c0-1.311.522-2.568 1.45-3.495a4.958 4.958 0 013.503-1.448zm0 16.475a8.185 8.185 0 006.793-3.614 1.658 1.658 0 00-.112-2.023c-1.078-1.242-2.413-.685-3.87-.077-.901.376-1.85.772-2.81.772-.962 0-1.91-.396-2.812-.772-1.456-.608-2.792-1.165-3.87.077a1.658 1.658 0 00-.112 2.023 8.185 8.185 0 006.793 3.614z" fill="#FF9AA2" fill-rule="evenodd"/><path d="M20.01 16.039c0 3.79-3.071 6.866-6.87 6.881h-27.612a5.273 5.273 0 01-4.783-3 5.252 5.252 0 01.683-5.595 5.279 5.279 0 015.365-1.767 5.419 5.419 0 012.234-5.7 5.445 5.445 0 016.133.006C-3.676 2.43.604-.454 5.16.127c4.556.581 7.972 4.446 7.981 9.03 3.798.015 6.87 3.091 6.87 6.882zM113.843 144.171l-27.367.113a4.051 4.051 0 01-4.072-4.03l-.155-37.52a4.051 4.051 0 011.178-2.873 4.068 4.068 0 012.869-1.2l17.042-.07a4.069 4.069 0 012.875 1.172l10.358 10.221a4.05 4.05 0 011.206 2.867l.113 27.248a4.051 4.051 0 01-1.178 2.873 4.068 4.068 0 01-2.87 1.2z" fill="#FF9AA2" fill-opacity=".3"/><path d="M92.814 112.043a.194.194 0 00-.014-.159l-.406-.72a.194.194 0 00-.286-.06l-.943.705.146-1.168a.194.194 0 00-.193-.218h-.835a.194.194 0 00-.192.218l.145 1.164-.94-.712a.195.195 0 00-.286.056l-.417.71a.194.194 0 00.09.276l1.092.472-1.09.454a.194.194 0 00-.094.275l.406.72a.194.194 0 00.287.06l.953-.716-.146 1.179a.194.194 0 00.192.218h.835a.195.195 0 00.193-.218l-.145-1.17.917.706a.195.195 0 00.286-.055l.429-.72a.194.194 0 00-.093-.279l-1.09-.451 1.09-.451a.194.194 0 00.11-.116zM99.064 112.043a.194.194 0 00-.015-.159l-.406-.72a.194.194 0 00-.286-.06l-.943.705.147-1.168a.194.194 0 00-.193-.218h-.835a.194.194 0 00-.193.218l.146 1.164-.941-.712a.195.195 0 00-.286.056l-.417.71a.194.194 0 00.09.276l1.093.472-1.09.454a.194.194 0 00-.095.275l.406.72a.194.194 0 00.287.06l.953-.716-.146 1.179a.194.194 0 00.193.218h.835a.195.195 0 00.193-.218l-.146-1.17.917.706a.195.195 0 00.286-.055l.429-.72a.194.194 0 00-.093-.279l-1.09-.451 1.09-.451a.194.194 0 00.11-.116zM92.814 118.517a.194.194 0 00-.014-.158l-.406-.721a.194.194 0 00-.286-.06l-.943.705.146-1.168a.194.194 0 00-.193-.218h-.835a.194.194 0 00-.192.218l.145 1.165-.94-.713a.195.195 0 00-.286.057l-.417.709a.194.194 0 00.09.276l1.092.472-1.09.455a.194.194 0 00-.094.274l.406.72a.194.194 0 00.287.06l.953-.715-.146 1.178a.194.194 0 00.192.218h.835a.195.195 0 00.193-.218l-.145-1.17.917.706a.195.195 0 00.286-.054l.429-.721a.194.194 0 00-.093-.278l-1.09-.452 1.09-.451a.194.194 0 00.11-.116zM99.064 118.517a.194.194 0 00-.015-.158l-.406-.721a.194.194 0 00-.286-.06l-.943.705.147-1.168a.194.194 0 00-.193-.218h-.835a.194.194 0 00-.193.218l.146 1.165-.941-.713a.195.195 0 00-.286.057l-.417.709a.194.194 0 00.09.276l1.093.472-1.09.455a.194.194 0 00-.095.274l.406.72a.194.194 0 00.287.06l.953-.715-.146 1.178a.194.194 0 00.193.218h.835a.195.195 0 00.193-.218l-.146-1.17.917.706a.195.195 0 00.286-.054l.429-.721a.194.194 0 00-.093-.278l-1.09-.452 1.09-.451a.194.194 0 00.11-.116zM105.313 118.517a.194.194 0 00-.014-.158l-.407-.721a.194.194 0 00-.286-.06l-.942.705.146-1.168a.194.194 0 00-.193-.218h-.835a.194.194 0 00-.193.218l.146 1.165-.941-.713a.195.195 0 00-.285.057l-.418.709a.194.194 0 00.09.276l1.093.472-1.09.455a.194.194 0 00-.095.274l.407.72a.194.194 0 00.286.06l.954-.715-.147 1.178a.194.194 0 00.193.218h.835a.195.195 0 00.193-.218l-.145-1.17.916.706a.195.195 0 00.286-.054l.43-.721a.194.194 0 00-.093-.278l-1.09-.452 1.09-.451a.194.194 0 00.109-.116zM111.562 118.517a.194.194 0 00-.014-.158l-.406-.721a.194.194 0 00-.286-.06l-.943.705.147-1.168a.194.194 0 00-.193-.218h-.835a.194.194 0 00-.193.218l.145 1.165-.94-.713a.195.195 0 00-.286.057l-.417.709a.194.194 0 00.09.276l1.093.472-1.09.455a.194.194 0 00-.095.274l.406.72a.194.194 0 00.287.06l.953-.715-.146 1.178a.194.194 0 00.193.218h.835a.195.195 0 00.193-.218l-.146-1.17.917.706a.195.195 0 00.286-.054l.429-.721a.194.194 0 00-.093-.278l-1.09-.452 1.09-.451a.194.194 0 00.11-.116zM92.814 124.991a.194.194 0 00-.014-.158l-.406-.72a.194.194 0 00-.286-.06l-.943.705.146-1.168a.194.194 0 00-.193-.218h-.835a.194.194 0 00-.192.218l.145 1.164-.94-.712a.195.195 0 00-.286.056l-.417.71a.194.194 0 00.09.276l1.092.471-1.09.455a.194.194 0 00-.094.274l.406.721a.194.194 0 00.287.06l.953-.716-.146 1.179a.194.194 0 00.192.218h.835a.195.195 0 00.193-.218l-.145-1.17.917.706a.195.195 0 00.286-.055l.429-.72a.194.194 0 00-.093-.28l-1.09-.45 1.09-.452a.194.194 0 00.11-.116zM99.064 124.991a.194.194 0 00-.015-.158l-.406-.72a.194.194 0 00-.286-.06l-.943.705.147-1.168a.194.194 0 00-.193-.218h-.835a.194.194 0 00-.193.218l.146 1.164-.941-.712a.195.195 0 00-.286.056l-.417.71a.194.194 0 00.09.276l1.093.471-1.09.455a.194.194 0 00-.095.274l.406.721a.194.194 0 00.287.06l.953-.716-.146 1.179a.194.194 0 00.193.218h.835a.195.195 0 00.193-.218l-.146-1.17.917.706a.195.195 0 00.286-.055l.429-.72a.194.194 0 00-.093-.28l-1.09-.45 1.09-.452a.194.194 0 00.11-.116zM105.313 124.991a.194.194 0 00-.015-.158l-.406-.72a.194.194 0 00-.286-.06l-.942.705.146-1.168a.194.194 0 00-.193-.218h-.835a.194.194 0 00-.193.218l.146 1.164-.941-.712a.195.195 0 00-.285.056l-.418.71a.194.194 0 00.09.276l1.093.471-1.09.455a.194.194 0 00-.095.274l.407.721a.194.194 0 00.286.06l.954-.716-.147 1.179a.194.194 0 00.193.218h.835a.195.195 0 00.193-.218l-.145-1.17.916.706a.195.195 0 00.286-.055l.43-.72a.194.194 0 00-.093-.28l-1.09-.45 1.09-.452a.194.194 0 00.109-.116zM111.562 124.991a.194.194 0 00-.014-.158l-.406-.72a.194.194 0 00-.286-.06l-.943.705.147-1.168a.194.194 0 00-.193-.218h-.835a.194.194 0 00-.193.218l.145 1.164-.94-.712a.195.195 0 00-.286.056l-.417.71a.194.194 0 00.09.276l1.093.471-1.09.455a.194.194 0 00-.095.274l.406.721a.194.194 0 00.287.06l.953-.716-.146 1.179a.194.194 0 00.193.218h.835a.195.195 0 00.193-.218l-.146-1.17.917.706a.195.195 0 00.286-.055l.429-.72a.194.194 0 00-.093-.28l-1.09-.45 1.09-.452a.194.194 0 00.11-.116zM92.814 131.466a.194.194 0 00-.014-.159l-.406-.72a.194.194 0 00-.286-.06l-.943.705.146-1.168a.194.194 0 00-.193-.218h-.835a.194.194 0 00-.192.218l.145 1.165-.94-.713a.195.195 0 00-.286.056l-.417.71a.194.194 0 00.09.276l1.092.472-1.09.455a.194.194 0 00-.094.274l.406.72a.194.194 0 00.287.06l.953-.716-.146 1.18a.194.194 0 00.192.217h.835a.195.195 0 00.193-.218l-.145-1.17.917.706a.195.195 0 00.286-.055l.429-.72a.194.194 0 00-.093-.279l-1.09-.45 1.09-.452a.194.194 0 00.11-.116zM99.064 131.466a.194.194 0 00-.015-.159l-.406-.72a.194.194 0 00-.286-.06l-.943.705.147-1.168a.194.194 0 00-.193-.218h-.835a.194.194 0 00-.193.218l.146 1.165-.941-.713a.195.195 0 00-.286.056l-.417.71a.194.194 0 00.09.276l1.093.472-1.09.455a.194.194 0 00-.095.274l.406.72a.194.194 0 00.287.06l.953-.716-.146 1.18a.194.194 0 00.193.217h.835a.195.195 0 00.193-.218l-.146-1.17.917.706a.195.195 0 00.286-.055l.429-.72a.194.194 0 00-.093-.279l-1.09-.45 1.09-.452a.194.194 0 00.11-.116zM105.313 131.466a.194.194 0 00-.015-.159l-.406-.72a.194.194 0 00-.286-.06l-.942.705.146-1.168a.194.194 0 00-.193-.218h-.835a.194.194 0 00-.193.218l.146 1.165-.941-.713a.195.195 0 00-.285.056l-.418.71a.194.194 0 00.09.276l1.093.472-1.09.455a.194.194 0 00-.095.274l.407.72a.194.194 0 00.286.06l.954-.716-.147 1.18a.194.194 0 00.193.217h.835a.195.195 0 00.193-.218l-.145-1.17.916.706a.195.195 0 00.286-.055l.43-.72a.194.194 0 00-.093-.279l-1.09-.45 1.09-.452a.194.194 0 00.109-.116zM111.562 131.466a.194.194 0 00-.014-.159l-.406-.72a.194.194 0 00-.286-.06l-.943.705.147-1.168a.194.194 0 00-.193-.218h-.835a.194.194 0 00-.193.218l.145 1.165-.94-.713a.195.195 0 00-.286.056l-.417.71a.194.194 0 00.09.276l1.093.472-1.09.455a.194.194 0 00-.095.274l.406.72a.194.194 0 00.287.06l.953-.716-.146 1.18a.194.194 0 00.193.217h.835a.195.195 0 00.193-.218l-.146-1.17.917.706a.195.195 0 00.286-.055l.429-.72a.194.194 0 00-.093-.279l-1.09-.45 1.09-.452a.194.194 0 00.11-.116z" fill="#FF9AA2"/><path d="M38 68h3v2h-3v-2zM37 57.344h.945c.515 0 .932.385.932.86v1.74c0 .27-.138.523-.373.684l.188.173c.139.127.326.199.522.199a.771.771 0 00.522-.2l4.379-4.033c1.181-1.092 1.18-2.858-.003-3.949-1.184-1.09-3.102-1.091-4.287-.003l-.61.563-.612-.562a3.096 3.096 0 00-1.603-.77v5.298zM14 58h8v2h-8v-2z" fill="none"/><path d="M38 68h3v2h-3v-2zM20.855 39.003c-.833-.003-1.634.29-2.222.815l-.634.563-.633-.563c-1.227-1.09-3.218-1.09-4.445 0-1.228 1.09-1.228 2.86 0 3.95l4.537 4.033c.143.127.338.199.541.199a.816.816 0 00.54-.2l4.54-4.031c.899-.799 1.168-2 .682-3.044-.487-1.044-1.634-1.724-2.906-1.722zM39.437 60.6l.19.186a.753.753 0 001.054 0l4.425-4.341a2.968 2.968 0 00-.004-4.25 3.106 3.106 0 00-4.33-.004l-.618.606-.617-.605a3.054 3.054 0 00-1.62-.829V43h-6.755c-.641.002-1.16.511-1.162 1.14v16.649h8.87a.946.946 0 00.567-.19zM14 58h8v2h-8v-2z" fill="none"/><path d="M38 68h3v2h-3v-2z" fill="none"/><path d="M31.349 43.444H38v-11.61c0-.487-.196-.953-.546-1.297A1.88 1.88 0 0036.136 30H-.267c-1.03 0-1.865.821-1.865 1.834v25.492h-.94a.92.92 0 00-.928.912v1.85a.92.92 0 00.928.912h33.277V44.569a1.138 1.138 0 011.144-1.125zm-12.896 5.062l4.357-4.284a2.934 2.934 0 00-.002-4.197 3.054 3.054 0 00-4.266-.001l-.608.598-.608-.598a3.053 3.053 0 00-4.268 0 2.934 2.934 0 000 4.197l4.356 4.285a.74.74 0 001.039 0zm3.217 10.657h-7.472v-1.837h7.472v1.837zM37.77 44h11.09A1.14 1.14 0 0150 45.134v27.732A1.14 1.14 0 0148.86 74H31.14A1.14 1.14 0 0130 72.866V61.698h8.707a.92.92 0 00.555-.188l.187.185a.734.734 0 001.035 0l4.343-4.319a2.98 2.98 0 000-4.232 3.02 3.02 0 00-4.254 0l-.607.603-.605-.602a2.984 2.984 0 00-1.59-.825V44zm.335 26.963h3.724V69.11h-3.724v1.852z" fill="#FF9AA2" fill-rule="evenodd"/><path d="M39 60.808l-4.038-4.204a3.132 3.132 0 01-.635-3.316c.453-1.137 1.52-1.877 2.702-1.876.175.001.35.018.521.05V43h-6.442c-.611.002-1.106.517-1.108 1.153V61h8.46a.868.868 0 00.54-.192z" fill="#FF9AA2"/><path d="M52.367 117.258v-5.098a7.483 7.483 0 00-3.514-.9c-2.973 0-4.76 2.067-4.76 5.487 0 2.64 1.206 4.564 3.741 4.564 1.538 0 2.495-.9 2.994-2.005.208.962 1.06 2.088 2.723 2.088 2.785 0 4.449-2.703 4.449-6.327 0-4.217-3.284-8.067-9.167-8.067-5.738 0-9.833 4.033-9.833 9.562 0 5.753 3.908 9.438 9.833 9.438a14.114 14.114 0 004.802-.86l-.729-2.046a12.67 12.67 0 01-4.053.716c-4.635 0-7.13-2.867-7.13-7.268 0-4.32 2.599-7.372 7.11-7.372 4.365 0 6.464 2.294 6.464 5.938 0 3.297-.749 4.403-1.85 4.403-.748 0-1.08-.533-1.08-2.253zm-2.516-3.91v4.872c-.229.533-.707 1.228-1.642 1.228-.978 0-1.435-.777-1.435-2.701 0-2.621.748-3.625 1.995-3.625.373-.003.742.074 1.082.225z" fill="#FF9AA2" fill-rule="evenodd"/><path d="M72 79.202c0 .664-.514 1.202-1.148 1.202-.929 0-1.343.393-1.971.987-.757.717-1.699 1.609-3.511 1.609-1.813 0-2.755-.892-3.512-1.609-.628-.594-1.043-.987-1.971-.987-.927 0-1.342.393-1.969.987-.756.717-1.698 1.609-3.51 1.609-1.812 0-2.754-.892-3.51-1.609-.628-.594-1.043-.987-1.97-.987-.928 0-1.342.393-1.97.987-.756.717-1.697 1.609-3.509 1.609-1.812 0-2.753-.892-3.51-1.609-.626-.594-1.04-.987-1.967-.987s-1.342.393-1.968.987c-.757.717-1.698 1.609-3.51 1.609-1.812 0-2.753-.892-3.51-1.609-.627-.594-1.04-.987-1.968-.987-.927 0-1.341.393-1.969.987-.756.717-1.697 1.609-3.509 1.609-1.812 0-2.754-.892-3.51-1.609-.627-.594-1.042-.987-1.969-.987s-1.341.393-1.968.987c-.757.717-1.698 1.609-3.51 1.609-1.812 0-2.753-.892-3.51-1.609-.626-.594-1.04-.987-1.967-.987s-1.342.393-1.969.987C2.38 82.108 1.438 83-.374 83c-1.812 0-2.753-.892-3.51-1.609-.627-.594-1.04-.987-1.968-.987-.634 0-1.148-.538-1.148-1.202C-7 78.538-6.486 78-5.852 78c1.812 0 2.753.892 3.51 1.609.627.594 1.041.987 1.968.987s1.341-.393 1.968-.987C2.351 78.892 3.292 78 5.104 78c1.811 0 2.752.892 3.509 1.609.627.594 1.041.987 1.968.987s1.341-.393 1.969-.987c.756-.717 1.697-1.609 3.509-1.609 1.812 0 2.753.892 3.51 1.609.627.594 1.042.987 1.97.987.926 0 1.34-.393 1.967-.987.757-.717 1.698-1.609 3.51-1.609 1.812 0 2.753.892 3.51 1.609.627.594 1.041.987 1.969.987.926 0 1.34-.393 1.968-.987.756-.717 1.697-1.609 3.509-1.609 1.811 0 2.752.892 3.509 1.609.627.594 1.041.987 1.968.987s1.341-.393 1.969-.987c.756-.717 1.697-1.609 3.51-1.609 1.812 0 2.754.892 3.51 1.609.628.594 1.042.987 1.97.987.928 0 1.342-.393 1.97-.987.756-.717 1.697-1.609 3.509-1.609 1.813 0 2.755.892 3.511 1.609.628.594 1.043.987 1.971.987.929 0 1.344-.393 1.971-.987.757-.717 1.7-1.609 3.512-1.609.634 0 1.148.538 1.148 1.202z" fill="#FF9AA2"/><path d="M93.415 71h-26.83c-2.53-.007-4.578-2.005-4.585-4.471V62.47c.007-2.466 2.056-4.464 4.585-4.471h26.83c2.53.007 4.578 2.005 4.585 4.471v4.058c-.007 2.466-2.056 4.464-4.585 4.471zM68.88 63.73a.255.255 0 00.143.153l1.451.613-1.448.59a.255.255 0 00-.145.15.246.246 0 00.02.206l.54.936a.26.26 0 00.38.078l1.267-.93-.195 1.53a.248.248 0 00.063.198c.049.054.12.085.193.085h1.11a.262.262 0 00.193-.085.248.248 0 00.063-.198l-.193-1.52 1.218.918a.263.263 0 00.38-.071l.57-.936a.246.246 0 00.023-.208.254.254 0 00-.147-.153L72.92 64.5l1.448-.586a.254.254 0 00.146-.15.246.246 0 00-.02-.206l-.54-.936a.263.263 0 00-.38-.078l-1.251.916.194-1.516a.248.248 0 00-.063-.198.261.261 0 00-.193-.085h-1.11a.261.261 0 00-.194.085.248.248 0 00-.062.198l.194 1.511-1.25-.925a.263.263 0 00-.38.074l-.554.92a.247.247 0 00-.023.206zm8.445.153a.255.255 0 01-.142-.153.247.247 0 01.022-.206l.555-.92a.263.263 0 01.379-.073l1.25.924-.194-1.511a.248.248 0 01.063-.198.261.261 0 01.194-.085h1.109c.074 0 .145.03.194.085a.248.248 0 01.062.198l-.194 1.516 1.252-.916a.263.263 0 01.38.078l.54.936a.246.246 0 01.02.206.255.255 0 01-.146.15l-1.449.586 1.449.586c.07.028.123.084.146.153a.246.246 0 01-.023.208l-.57.936a.263.263 0 01-.38.07l-1.218-.916.193 1.52a.248.248 0 01-.062.197.261.261 0 01-.194.085h-1.11a.262.262 0 01-.193-.085.248.248 0 01-.063-.198l.195-1.53-1.267.93a.26.26 0 01-.208.045.257.257 0 01-.172-.123l-.54-.936a.246.246 0 01-.02-.205.255.255 0 01.145-.15l1.449-.591-1.452-.613zm8.16-.153a.255.255 0 00.143.153l1.451.613-1.448.59a.255.255 0 00-.145.15.246.246 0 00.02.206l.54.936a.263.263 0 00.38.078l1.267-.93-.195 1.53a.248.248 0 00.063.198c.049.054.12.085.193.085h1.11a.261.261 0 00.193-.085.248.248 0 00.063-.198l-.193-1.52 1.218.918a.263.263 0 00.38-.071l.57-.936a.246.246 0 00.023-.208.255.255 0 00-.146-.153l-1.449-.586 1.449-.586a.254.254 0 00.145-.15.246.246 0 00-.02-.206l-.54-.936a.263.263 0 00-.38-.078l-1.251.916.194-1.516a.248.248 0 00-.062-.198.261.261 0 00-.194-.085h-1.11a.26.26 0 00-.193.085.247.247 0 00-.063.198l.194 1.511-1.25-.925a.263.263 0 00-.38.074l-.554.92a.247.247 0 00-.023.206z" fill="#FF9AA2" fill-opacity=".3" fill-rule="evenodd"/><path d="M80.585 74h26.83c2.53.007 4.578 2.005 4.585 4.471v4.058c-.007 2.466-2.056 4.464-4.585 4.471h-26.83c-2.53-.007-4.578-2.005-4.585-4.471V78.47c.007-2.466 2.056-4.464 4.585-4.471zm16.085 7.086c.07.028.123.084.146.153a.246.246 0 01-.023.208l-.57.936a.263.263 0 01-.38.07l-1.218-.916.193 1.52a.248.248 0 01-.062.197.261.261 0 01-.194.085h-1.11a.262.262 0 01-.193-.085.248.248 0 01-.063-.198l.195-1.53-1.267.93a.26.26 0 01-.208.045.257.257 0 01-.172-.123l-.54-.936a.246.246 0 01-.02-.205.255.255 0 01.145-.15l1.449-.591-1.452-.613a.255.255 0 01-.142-.153.247.247 0 01.022-.206l.555-.92a.263.263 0 01.379-.073l1.25.924-.194-1.511a.248.248 0 01.063-.198.261.261 0 01.194-.085h1.109c.074 0 .145.03.194.085a.248.248 0 01.062.198l-.194 1.516 1.252-.916a.263.263 0 01.38.078l.54.936a.246.246 0 01.02.206.255.255 0 01-.146.15l-1.449.586 1.449.586zm-8.157.153a.254.254 0 00-.146-.153L86.92 80.5l1.448-.586a.254.254 0 00.145-.15.246.246 0 00-.019-.206l-.54-.936a.263.263 0 00-.38-.078l-1.251.916.194-1.516a.248.248 0 00-.063-.198.261.261 0 00-.193-.085h-1.11a.261.261 0 00-.194.085.248.248 0 00-.062.198l.194 1.511-1.25-.925a.263.263 0 00-.38.074l-.554.92a.247.247 0 00-.023.206.255.255 0 00.143.153l1.451.613-1.448.59a.255.255 0 00-.145.15.246.246 0 00.02.206l.54.936a.26.26 0 00.38.078l1.267-.93-.195 1.53a.248.248 0 00.063.198c.049.054.12.085.193.085h1.11a.261.261 0 00.193-.085.248.248 0 00.063-.198l-.193-1.52 1.218.918a.263.263 0 00.38-.071l.57-.936a.246.246 0 00.023-.208zm16.606 0a.255.255 0 00-.147-.153l-1.448-.586 1.449-.586a.254.254 0 00.145-.15.246.246 0 00-.02-.206l-.54-.936a.263.263 0 00-.38-.078l-1.251.916.194-1.516a.248.248 0 00-.062-.198.261.261 0 00-.194-.085h-1.11a.261.261 0 00-.193.085.248.248 0 00-.063.198l.194 1.511-1.25-.925a.263.263 0 00-.38.074l-.554.92a.247.247 0 00-.023.206.255.255 0 00.143.153l1.451.613-1.448.59a.255.255 0 00-.145.15.246.246 0 00.02.206l.54.936a.263.263 0 00.38.078l1.267-.93-.195 1.53a.248.248 0 00.063.198c.049.054.12.085.193.085h1.11a.261.261 0 00.193-.085.248.248 0 00.063-.198l-.193-1.52 1.218.918a.263.263 0 00.38-.071l.57-.936a.246.246 0 00.023-.208zM56.585 90h26.83c2.53.007 4.578 2.005 4.585 4.471v4.058c-.007 2.466-2.056 4.464-4.585 4.471h-26.83c-2.53-.007-4.578-2.005-4.585-4.471V94.47c.007-2.466 2.056-4.464 4.585-4.471zm7.929 7.24a.254.254 0 00-.147-.154L62.92 96.5l1.448-.586a.254.254 0 00.146-.15.246.246 0 00-.02-.206l-.54-.936a.263.263 0 00-.38-.078l-1.251.916.194-1.516a.247.247 0 00-.063-.198.261.261 0 00-.193-.085h-1.11a.261.261 0 00-.194.085.248.248 0 00-.062.198l.194 1.511-1.25-.925a.263.263 0 00-.38.074l-.554.92a.247.247 0 00-.023.206.255.255 0 00.143.153l1.451.613-1.448.59a.255.255 0 00-.145.15.246.246 0 00.02.206l.54.936a.26.26 0 00.38.078l1.267-.93-.195 1.53a.248.248 0 00.063.198c.049.054.12.085.193.085h1.11a.262.262 0 00.193-.085.248.248 0 00.063-.198l-.193-1.52 1.218.918a.263.263 0 00.38-.071l.57-.936a.246.246 0 00.023-.208zm8.156-.154c.07.028.123.084.146.153a.246.246 0 01-.023.208l-.57.936a.263.263 0 01-.38.07l-1.218-.916.193 1.52a.248.248 0 01-.062.197.261.261 0 01-.194.085h-1.11a.262.262 0 01-.193-.085.248.248 0 01-.063-.198l.195-1.53-1.267.93a.26.26 0 01-.208.045.257.257 0 01-.172-.123l-.54-.936a.246.246 0 01-.02-.205.255.255 0 01.145-.15l1.449-.591-1.452-.613a.255.255 0 01-.142-.153.247.247 0 01.022-.206l.555-.92a.263.263 0 01.379-.073l1.25.924-.194-1.511a.248.248 0 01.063-.198.261.261 0 01.194-.085h1.109c.074 0 .145.03.194.085a.248.248 0 01.062.198l-.194 1.516 1.252-.916a.263.263 0 01.38.078l.54.936a.246.246 0 01.02.206.255.255 0 01-.146.15l-1.449.586 1.449.586zm8.449.153a.255.255 0 00-.146-.153l-1.449-.586 1.449-.586a.254.254 0 00.145-.15.246.246 0 00-.02-.206l-.54-.936a.263.263 0 00-.38-.078l-1.251.916.194-1.516a.248.248 0 00-.062-.198.261.261 0 00-.194-.085h-1.11a.261.261 0 00-.193.085.248.248 0 00-.063.198l.194 1.511-1.25-.925a.263.263 0 00-.38.074l-.554.92a.247.247 0 00-.023.206.255.255 0 00.143.153l1.451.613-1.448.59a.255.255 0 00-.145.15.246.246 0 00.02.206l.54.936a.263.263 0 00.38.078l1.267-.93-.195 1.53a.248.248 0 00.063.198c.049.054.12.085.193.085h1.11a.261.261 0 00.193-.085.248.248 0 00.063-.198l-.193-1.52 1.218.918a.263.263 0 00.38-.071l.57-.936a.246.246 0 00.023-.208z" fill="#FF9AA2" fill-rule="evenodd"/></svg>
