<?xml version="1.0" encoding="utf-8"?>
<svg width="147px" height="145px" viewBox="0 0 147 145" version="1.1" xmlns:xlink="http://www.w3.org/1999/xlink" xmlns="http://www.w3.org/2000/svg">
  <desc>Created with Lunacy</desc>
  <g id="Header-2-copy">
    <g id="Group">
      <path d="M36.8214 14.853C36.8214 18.3746 33.9784 21.2333 30.4625 21.2472L4.90172 21.2472C3.01141 21.2555 1.28633 20.1697 0.473845 18.4602C-0.338643 16.7506 -0.0923971 14.7249 1.1059 13.2606C2.3042 11.7962 4.23901 11.1567 6.0721 11.6191C5.60665 9.59559 6.42783 7.49329 8.14066 6.32341C9.85348 5.15353 12.1073 5.15552 13.8181 6.32843C14.8949 2.2086 18.8572 -0.470763 23.0748 0.0689534C27.2923 0.60867 30.4548 4.19978 30.4628 8.45843C33.9787 8.47264 36.8214 11.3314 36.8214 14.853Z" transform="translate(35.41162 80.48827)" id="Path" fill="#FFB587" fill-opacity="0.3" stroke="none" />
      <path d="M48.1052 17.2893C47.5131 17.2893 46.9232 17.3612 46.3483 17.5034C47.0437 14.4537 45.8025 11.2888 43.2209 9.52828C40.6392 7.76779 37.2443 7.77132 34.6663 9.53717C33.0429 3.32809 27.0709 -0.709702 20.7143 0.103994C14.3578 0.917689 9.59164 6.33008 9.57949 12.7485C6.15707 12.7485 2.99462 14.5773 1.28341 17.5459C-0.427803 20.5146 -0.427803 24.1721 1.28341 27.1407C2.99462 30.1094 6.15707 31.9381 9.57949 31.9381L48.1056 31.9381C52.1443 31.9381 55.4182 28.6587 55.4181 24.6136C55.418 20.5684 52.1439 17.2893 48.1052 17.2893L48.1052 17.2893Z" transform="translate(115.405 0.03623835)" id="Path" fill="#FFB587" fill-opacity="0.3" stroke="none" />
      <path d="M0 1.76678L7.02083 1.76678L7.02083 0L1.49198 0C1.05771 0.542535 0.560085 1.13699 0 1.76678Z" transform="translate(21.2393 113.0094)" id="Path" fill="none" stroke="none" />
      <path d="M16.872 1.76678L16.872 0.883399C16.872 0.649107 16.7791 0.424411 16.6137 0.258742C16.4483 0.0930721 16.224 0 15.9901 0L0 0L0 1.76678L16.872 1.76678Z" transform="translate(28.26013 113.0094)" id="Path" fill="#FFB587" fill-opacity="0.3" stroke="none" />
      <path d="M24.9597 2.58363C24.9597 2.58144 24.9603 2.5794 24.9603 2.57721C24.9603 2.57502 24.9597 2.57298 24.9597 2.57079L24.9597 2.4895L24.9515 2.4895C24.9081 2.07642 24.5608 1.76254 24.1461 1.76169C23.4885 1.76169 23.1947 1.49528 22.7502 1.09189C22.2135 0.605285 21.5459 0 20.261 0C18.976 0 18.3085 0.605283 17.7718 1.09189C17.3273 1.49528 17.0335 1.76169 16.3759 1.76169C15.7187 1.76169 15.4249 1.49528 14.9804 1.09189C14.4441 0.605285 13.7765 0 12.4912 0C11.2058 0 10.5383 0.605283 10.0016 1.09189C9.55707 1.49528 9.26328 1.76169 8.60568 1.76169C7.94808 1.76169 7.65428 1.49528 7.209 1.09189C6.67267 0.605285 6.00514 0 4.71978 0C3.43481 0 2.7673 0.605283 2.23096 1.09189C1.78607 1.49528 1.49187 1.76169 0.834283 1.76169C0.41958 1.76253 0.0722343 2.07641 0.0288686 2.4895L0.0206928 2.4895L0.0206928 2.57079C0.0206695 2.57298 0.020053 2.57502 0.020053 2.57721C0.020053 2.5794 0.0206695 2.58144 0.0206928 2.58363L0.0206928 4.15011L16.0107 4.15011C16.7125 4.15011 17.3855 4.42933 17.8817 4.92633C18.3779 5.42333 18.6567 6.09741 18.6567 6.80028L18.6567 33.1005C18.6567 33.569 18.4708 34.0184 18.14 34.3498C17.8092 34.6811 17.3606 34.8673 16.8927 34.8673L0.0206928 34.8673L0.0206928 38.8124C-0.034895 39.0539 0.0228808 39.3077 0.177535 39.5013C0.332189 39.6949 0.566735 39.8069 0.814249 39.8056C0.818722 39.8056 0.822425 39.8049 0.826874 39.8048C0.829406 39.8049 0.83175 39.8056 0.834283 39.8056C2.11964 39.8056 2.78716 39.2003 3.3239 38.7137C3.76635 38.3121 4.06005 38.0468 4.71136 38.0443C5.36343 38.0468 5.65756 38.3121 6.10081 38.7141C6.63753 39.2003 7.30566 39.8056 8.59141 39.8056C8.59323 39.8056 8.59486 39.8051 8.59669 39.8051C8.59986 39.8051 8.6025 39.8056 8.60568 39.8056C9.89064 39.8056 10.5582 39.2003 11.0945 38.7137C11.5394 38.3103 11.8336 38.0439 12.4912 38.0439C13.1487 38.0439 13.4426 38.3103 13.887 38.7137C14.4234 39.2003 15.0909 39.8056 16.3759 39.8056C17.6608 39.8056 18.3284 39.2003 18.8651 38.7137C19.3096 38.3103 19.6034 38.0439 20.261 38.0439C20.9186 38.0439 21.2124 38.3103 21.6569 38.7137C22.1936 39.2003 22.8611 39.8056 24.1461 39.8056C24.5647 39.8047 24.9139 39.4851 24.9525 39.0676L24.9597 39.0676L24.9597 38.9965C24.9597 38.9943 24.9603 38.9922 24.9603 38.9901C24.9603 38.9879 24.9597 38.9858 24.9597 38.9836L24.9597 2.58363Z" transform="translate(28.23944 107.0925)" id="Path" fill="#FFB587" fill-opacity="0.3" stroke="none" />
      <path d="M5.52885 1.76677L5.52885 0L1.33752 0C0.992911 0.483939 0.546428 1.08413 0 1.76677L5.52885 1.76677Z" transform="translate(22.73129 111.2427)" id="Path" fill="#FFB587" stroke="none" />
      <path d="M2.05397 0.00249756C0.599157 0.0657775 0 0.934099 0 1.148C0 1.36208 0.964442 1.96632 1.90726 1.96632C2.85017 1.96632 3.96125 1.62025 3.96125 1.31172C3.96125 0.967462 3.42689 -0.0571316 2.05397 0.00249756Z" transform="translate(21.47396 125.4317)" id="Path" fill="#FFB587" stroke="none" />
      <path d="M0 0.839748C0 0.966791 0.190054 1.09986 0.47752 1.21284L0.47752 0C0.220083 0.211087 0.0499415 0.510291 2.20413e-14 0.839748L0 0.839748Z" transform="translate(27.78261 125.9037)" id="Path" fill="#FFB587" stroke="none" />
      <path d="M17.3658 13.7673C15.9327 13.7673 14.81 15.5675 13.4045 15.5675C11.5606 15.5675 10.199 13.8185 10.1769 10.8216C10.1632 8.96089 10.7177 8.36691 13.1111 8.36691C15.5047 8.36691 16.2059 9.34878 17.3658 9.34878C17.9413 9.34878 18.4044 9.10693 19.017 8.86332L19.017 0L11.9962 0C10.8871 1.24758 9.71044 2.43316 8.47148 3.55139C3.71166 7.84357 0 9.74598 0 9.74598C0 9.74598 0.467749 11.7766 0.467749 16.5652C0.467749 19.3272 0.381307 23.8499 0.30813 27.1836L19.017 27.1836L19.017 14.4493C18.4945 14.083 17.9651 13.7673 17.3658 13.7673Z" transform="translate(9.243141 114.7762)" id="Path" fill="#FFB587" stroke="none" />
      <path d="M3.48373 1.15192C3.48373 0.938026 2.88457 0.0697029 1.42974 0.00642284C0.909521 -0.0360233 0.39416 0.1332 0 0.475892L0 1.68874C0.505379 1.87281 1.03871 1.96805 1.57646 1.97025C2.51927 1.97025 3.48373 1.36601 3.48373 1.15192Z" transform="translate(28.26013 125.4278)" id="Path" fill="#FFB587" stroke="none" />
      <path d="M18.636 28.9504L18.636 2.65017C18.636 1.9473 18.3572 1.27322 17.861 0.776215C17.3648 0.279212 16.6918 -1.03004e-06 15.9901 0L5.81633e-06 0L5.81633e-06 1.76677L15.9901 1.76677C16.4772 1.76677 16.872 2.16228 16.872 2.65017L16.872 3.53355L2.20413e-14 3.53355L2.20413e-14 12.3969C0.825194 12.0562 1.71099 11.8873 2.60344 11.9005C4.99683 11.9005 5.55138 12.4944 5.53762 14.3552C5.51553 17.352 4.15393 19.1011 2.31002 19.1011C1.44051 19.1011 0.726911 18.4925 0 17.9829L0 30.7171L16.872 30.7171C17.3399 30.7171 17.7885 30.531 18.1193 30.1997C18.4502 29.8683 18.636 29.4189 18.636 28.9504Z" transform="translate(28.26013 111.2427)" id="Path" fill="#FFB587" stroke="none" />
      <path d="M24.9345 2.52042L24.939 2.48951L24.9314 2.48951C24.8881 2.07642 24.5407 1.76254 24.126 1.76169C23.4684 1.76169 23.1746 1.49528 22.7301 1.09189C22.1934 0.605271 21.5259 0 20.2409 0C18.956 0 18.2884 0.605271 17.7517 1.09189C17.3072 1.49528 17.0134 1.76169 16.3558 1.76169C15.6986 1.76169 15.4048 1.49528 14.9603 1.09189C14.424 0.605271 13.7565 0 12.4711 0C11.1858 0 10.5182 0.605271 9.98151 1.09189C9.53702 1.49528 9.24323 1.76169 8.58563 1.76169C7.92803 1.76169 7.63423 1.49528 7.18895 1.09189C6.65262 0.605271 5.98509 0 4.69972 0C3.41476 0 2.74724 0.605271 2.21092 1.09189C1.76603 1.49528 1.47183 1.76169 0.814239 1.76169C0.399534 1.76253 0.0521883 2.07642 0.00882724 2.48951L0 2.48951L0 39.0676L0.00780939 39.0676C0.0463614 39.4851 0.395636 39.8047 0.814239 39.8056C2.09999 39.8056 2.76812 39.2003 3.30484 38.7141C3.75013 38.3103 4.04433 38.0439 4.70291 38.0439C5.3613 38.0439 5.65551 38.3103 6.10079 38.7141C6.63751 39.2003 7.30564 39.8056 8.5914 39.8056C9.01132 39.8047 9.36124 39.4832 9.39815 39.0642L9.4065 39.0674C9.4065 39.0674 9.45304 37.2613 9.50674 34.8152C9.57992 31.4815 9.66636 26.9588 9.66636 24.1968C9.66636 19.4082 9.19861 17.3776 9.19861 17.3776C9.19861 17.3776 12.9103 15.4752 17.6701 11.183C18.909 10.0648 20.0857 8.87919 21.1948 7.63162C21.7549 7.00182 22.2525 6.40737 22.6868 5.86483C23.2332 5.18219 23.6797 4.582 24.0243 4.09806C24.2863 3.73013 24.4901 3.42867 24.634 3.20991C24.8268 3.05666 24.9396 2.82381 24.9403 2.57723C24.9403 2.55776 24.9359 2.53954 24.9345 2.52042Z" transform="translate(0.04453174 107.1446)" id="Path" fill="#FFB587" fill-opacity="0.3" stroke="none" />
    </g>
    <path d="M0 0L10 0L10 3L0 3L0 0Z" transform="translate(121 98)" id="Rectangle" fill="none" stroke="none" />
    <g id="Group" transform="translate(96 61)" opacity="0.3">
      <path d="M0 0L2.40774 0L2.40774 6.01215L0 6.01215L0 0Z" transform="translate(24.05437 17.14952)" id="Rectangle" fill="#FFB587" stroke="none" />
      <path d="M0 0L2.12614 0L2.12614 5.4977L0 5.4977L0 0Z" transform="translate(29.26824 17.66397)" id="Rectangle" fill="#FFB587" stroke="none" />
      <path d="M58.5516 37.8377L57.2701 37.8377L57.2701 2.53848C57.2701 1.86523 57.0023 1.21956 56.5257 0.743496C56.0491 0.267436 55.4026 -7.74064e-06 54.7286 0L5.08962 0C3.68545 2.2566e-05 2.54716 1.13696 2.54716 2.53944L2.54716 37.8377L1.26566 37.8377C0.566662 37.8377 1.29101e-05 38.4037 0 39.1019L0 41.6618C1.93653e-05 42.3599 0.566668 42.9259 1.26566 42.9259L58.5516 42.9259C59.2506 42.9259 59.8172 42.3599 59.8172 41.6618L59.8172 39.1019C59.8172 38.4037 59.2506 37.8377 58.5516 37.8377ZM35.9281 26.7144L38.3358 26.7144L38.3358 13.4877L37.1319 12.2853L35.9281 13.4877L35.9281 15.8925L33.5203 15.8925L33.5203 13.4877L32.3164 12.2853L31.1125 13.4877L31.1125 15.8925L28.7048 15.8925L28.7048 13.4877L27.5009 12.2853L26.297 13.4877L26.297 15.8925L23.8892 15.8925L23.8892 13.4877L22.6853 12.2853L21.4815 13.4877L21.4815 26.7144L23.8892 26.7144L23.8892 24.3095L26.297 24.3095L26.297 26.7144L28.7048 26.7144L28.7048 24.3095L31.1125 24.3095L31.1125 26.7144L33.5203 26.7144L33.5203 24.3095L35.9281 24.3095L35.9281 26.7144ZM35.0029 40.3818L24.8143 40.3818L24.8143 37.8377L35.0029 37.8377L35.0029 40.3818Z" transform="translate(0.1651461 0.0545672)" id="Shape" fill="#FFB587" fill-rule="evenodd" stroke="none" />
      <path d="M0 0L2.40776 0L2.40776 6.01215L0 6.01215L0 0Z" transform="translate(33.68543 17.14952)" id="Rectangle" fill="#FFB587" stroke="none" />
    </g>
    <path d="M4.54285 0L25.4572 0C27.9649 0.00286062 29.9971 2.02598 30 4.5225L30 16.0102C29.9971 18.5067 27.9649 20.5298 25.4572 20.5327L24.375 20.5327L24.375 26.1325C24.3755 26.9219 23.8769 27.6263 23.13 27.8915C22.3831 28.1566 21.5494 27.9253 21.048 27.3137L15.4871 20.5327L4.54285 20.5327C2.03509 20.5298 0.00286705 18.5067 0 16.0102L0 4.5225C0.0028692 2.02597 2.03509 0.00285421 4.54285 0ZM18.2032 11.102L20.1046 9.06732C20.2831 8.8767 20.3427 8.60419 20.2599 8.35697C20.177 8.10975 19.9651 7.92739 19.7074 7.88162L17.0534 7.40971L15.802 4.90847C15.6814 4.66672 15.4336 4.5138 15.1625 4.51367C14.8913 4.51354 14.6434 4.66622 14.5225 4.90785L13.2709 7.40971L10.6191 7.88129C10.361 7.92629 10.1483 8.10827 10.0649 8.35553C9.98143 8.60279 10.0406 8.87569 10.219 9.0667L12.121 11.102L11.7251 13.9223C11.6879 14.1861 11.802 14.4484 12.0206 14.602C12.2392 14.7556 12.5257 14.7748 12.7629 14.6516L15.1621 13.4071L17.5601 14.651C17.7974 14.7747 18.0842 14.7559 18.3032 14.6023C18.5222 14.4487 18.6364 14.186 18.5991 13.922L18.2032 11.102Z" transform="translate(89 36)" id="Shape" fill="#FFB587" fill-rule="evenodd" stroke="none" />
    <path d="M21.5001 0C9.63165 0.0137984 0.0138504 9.61617 0 21.4656C0 23.1591 1.37512 24.5321 3.07141 24.5321C4.76771 24.5321 6.14283 23.1591 6.14283 21.4656C6.14283 12.9976 13.0184 6.13304 21.4999 6.13304C29.9815 6.13304 36.8571 12.9976 36.8571 21.4656C36.8571 27.898 34.9945 31.4557 33.3522 34.597C32.055 37.0766 30.7143 39.637 30.7143 42.9311C30.7135 44.0272 31.2987 45.0405 32.2493 45.5888C33.2 46.1371 34.3715 46.1371 35.3221 45.5888C36.2727 45.0405 36.8579 44.0272 36.8571 42.9311C36.8571 41.1433 37.67 39.5891 38.7963 37.4359C40.5705 34.046 43 29.4043 43 21.4656C42.9862 9.61621 33.3684 0.013843 21.5001 0Z" transform="translate(58 77)" id="Path" fill="#FFB587" stroke="none" />
    <path d="M21.6373 0C14.8125 0.00720107 9.28175 5.52464 9.2745 12.333C9.2745 14.266 7.71859 18.4994 3.09315 18.4994C1.98837 18.4986 0.96713 19.086 0.414484 20.0404C-0.138161 20.9947 -0.138161 22.1707 0.414484 23.125C0.96713 24.0794 1.98837 24.6668 3.09315 24.666C10.7292 24.666 15.4559 18.2646 15.4559 12.333C15.4559 8.92734 18.2233 6.16652 21.6372 6.16652C25.0511 6.16652 27.8185 8.92734 27.8185 12.333C27.8185 20.0381 25.2018 23.4887 22.4326 27.144C21.1875 28.788 19.9018 30.4862 18.8725 32.5367C18.109 34.0599 18.7279 35.9122 20.2548 36.6738C21.7818 37.4354 23.6385 36.818 24.4019 35.2947C25.1746 33.7501 26.2386 32.347 27.3643 30.8626C30.3208 26.9604 34 22.1036 34 12.333C33.9927 5.5247 28.462 0.00728436 21.6373 0Z" transform="translate(57 86)" id="Path" fill="#FFB587" stroke="none" />
    <path d="M21.8755 1.38421e-07C21.0468 -0.000245876 20.2519 0.327445 19.6659 0.910935C19.0799 1.49442 18.7507 2.28588 18.751 3.11107C18.751 16.2025 2.3014 21.8839 2.13513 21.9386C1.07596 22.2906 0.285983 23.1787 0.063 24.2681C-0.159983 25.3575 0.217934 26.4826 1.05429 27.2192C1.89064 27.9558 3.05826 28.192 4.11699 27.8387C4.96983 27.5561 25 20.7051 25 3.11107C25.0002 2.2859 24.6711 1.49447 24.0851 0.910986C23.4991 0.327502 22.7043 -0.000205386 21.8755 1.38421e-07L21.8755 1.38421e-07Z" transform="translate(58 95)" id="Path" fill="#FFB587" stroke="none" />
    <path d="M3.6128 0L23.3872 0C25.3801 0.00594625 26.9942 1.64899 27 3.6776L27 15.3224C26.9942 17.351 25.3801 18.9941 23.3872 19L3.6128 19C1.61993 18.9941 0.00584146 17.351 0 15.3224L0 3.6776C0.00584253 1.64899 1.61993 0.00594733 3.6128 0ZM23.9438 15.1915C24.1199 15.1628 24.2776 15.064 24.3822 14.9168C24.5995 14.6104 24.5322 14.1827 24.2317 13.9607L17.7558 9.18714L22.8361 5.29177C23.0534 5.12512 23.1507 4.84166 23.0826 4.57355C23.0145 4.30543 22.7945 4.10545 22.5251 4.06684C22.4937 4.06235 22.462 4.06011 22.4303 4.06014C22.2846 4.06011 22.1429 4.10847 22.0267 4.19787L15.776 8.99091C15.7526 9.00889 13.4046 10.757 11.2509 8.98999L5.00099 4.19787C4.70206 3.97868 4.28655 4.0382 4.05866 4.33286C3.83526 4.63496 3.89463 5.0642 4.1913 5.29177L9.25158 9.1716L2.75477 13.9607C2.4538 14.1825 2.38645 14.6106 2.60434 14.917C2.82222 15.2234 3.24283 15.2919 3.5438 15.0701L10.3759 10.0336L10.4316 10.0763C11.6051 11.0676 13.1812 11.4108 14.6505 10.995C15.3444 10.8128 16.0003 10.5042 16.5863 10.0842L16.6318 10.0491L23.4429 15.0701C23.5874 15.1766 23.7676 15.2203 23.9438 15.1915Z" transform="translate(113 110)" id="Shape" fill="#FFB587" fill-rule="evenodd" stroke="none" />
    <path d="M19.3039 4.79797C19.3053 4.79879 19.3069 4.79919 19.3085 4.79914C19.5906 4.79866 19.8318 4.58919 19.8805 4.30223C19.9286 3.95386 20.0379 3.61747 20.2029 3.30959C20.495 3.14378 20.8145 3.03567 21.145 2.99082C21.4244 2.94353 21.63 2.69528 21.632 2.40303C21.634 2.11079 21.4317 1.85961 21.153 1.80832C20.8197 1.75852 20.4981 1.64611 20.204 1.47666C20.0384 1.17272 19.9287 0.839744 19.8805 0.494565C19.8316 0.208087 19.5902 -0.000569262 19.3085 0L19.3039 0C19.0209 0.00178338 18.7805 0.214316 18.7352 0.502768C18.6918 0.844008 18.5871 1.17389 18.4265 1.47549C18.1283 1.64589 17.8025 1.75869 17.4651 1.80832C17.1858 1.85932 16.983 2.11085 16.9849 2.40362C16.9869 2.69639 17.1931 2.945 17.473 2.99199C17.8071 3.03608 18.1304 3.14377 18.4265 3.30959C18.5871 3.61528 18.6914 3.94907 18.7341 4.29403C18.7794 4.58313 19.0203 4.79618 19.3039 4.79797ZM27.429 0.598941L27.445 0.598869C28.5734 0.599019 29.5387 1.43564 29.7343 2.58295C29.902 3.56643 30.2941 4.82782 30.5436 5.20009C30.9043 5.45829 32.1054 5.85598 33.0783 6.03555C34.1956 6.2386 35.0077 7.24455 34.9999 8.41576C34.9922 9.58696 34.1669 10.5814 33.0471 10.7687C32.1108 10.9252 30.9075 11.3075 30.5434 11.5593C30.2926 11.9411 29.9087 13.194 29.7352 14.2102C29.5417 15.3599 28.5749 16.1989 27.4448 16.1983L27.432 16.1982C26.2964 16.1912 25.3317 15.3387 25.1497 14.1814C24.992 13.1792 24.6294 11.9445 24.3844 11.5591C24.0113 11.3062 22.8155 10.9319 21.8476 10.7695C20.7266 10.5837 19.8995 9.58918 19.8912 8.41702C19.8828 7.24486 20.6957 6.2379 21.8139 6.03511C22.8009 5.85554 24.0146 5.45913 24.3844 5.20017C24.6283 4.82485 24.9917 3.60529 25.15 2.61521C25.3315 1.45906 26.2946 0.606922 27.429 0.598941ZM12.0757 8.9956L12.0711 8.9956C11.7873 8.99321 11.5465 8.77979 11.5013 8.49049C11.4173 7.94787 11.2096 7.24705 11.0371 7.06774C10.8634 6.8896 10.1846 6.67513 9.65905 6.58841C9.37866 6.54202 9.1718 6.29323 9.16983 6.00005C9.16786 5.70687 9.37137 5.45514 9.65111 5.40474C10.1789 5.30864 10.8623 5.0848 11.0371 4.90431C11.2085 4.72734 11.4196 4.02183 11.5024 3.49914C11.5473 3.21028 11.7878 2.99719 12.0711 2.9952L12.0757 2.9952C12.3576 2.99515 12.5989 3.20422 12.6478 3.49093C12.7408 4.02768 12.9565 4.725 13.1324 4.90548C13.305 5.08362 13.9928 5.31215 14.5014 5.40473C14.7805 5.45543 14.9835 5.70679 14.9815 5.99945C14.9795 6.2921 14.7732 6.54053 14.4934 6.58723C13.9758 6.67512 13.305 6.88842 13.1313 7.06773C12.9576 7.24821 12.7408 7.95372 12.6478 8.49868C12.599 8.78565 12.3579 8.99513 12.0757 8.9956ZM28.8965 6.90052C27.9419 5.91491 27.4448 2.99903 27.4448 2.99903C27.4448 2.99903 26.9873 5.91491 26.0327 6.90052C25.0781 7.8861 22.2143 8.39937 22.2143 8.39937C22.2143 8.39937 25.0781 8.87171 26.0327 9.85733C26.9873 10.8429 27.4448 13.7997 27.4448 13.7997C27.4448 13.7997 27.9419 10.8429 28.8965 9.85733C29.8511 8.87171 32.6753 8.39937 32.6753 8.39937C32.6753 8.39937 29.8511 7.8861 28.8965 6.90052ZM2.319 11.214C2.32038 11.2148 2.32195 11.2152 2.32354 11.2152C2.60572 11.2147 2.84688 11.0052 2.89563 10.7183C2.9437 10.3699 3.05294 10.0335 3.21799 9.72564C3.5101 9.55982 3.82961 9.45172 4.16012 9.40687C4.43945 9.35957 4.64511 9.11132 4.64708 8.81908C4.64904 8.52683 4.44673 8.27566 4.16806 8.22437C3.83479 8.17457 3.51317 8.06216 3.21913 7.89271C3.05349 7.58877 2.9438 7.25579 2.89563 6.91061C2.84666 6.62413 2.60529 6.41548 2.32354 6.41605L2.319 6.41605C2.03598 6.41783 1.79558 6.63036 1.75032 6.91881C1.70688 7.26005 1.60217 7.58994 1.44157 7.89153C1.14338 8.06194 0.817569 8.17473 0.480155 8.22437C0.200922 8.27537 -0.0019509 8.5269 1.41526e-05 8.81967C0.00197921 9.11244 0.208209 9.36104 0.488099 9.40804C0.822211 9.45213 1.1455 9.55982 1.44158 9.72564C1.60218 10.0313 1.70648 10.3651 1.74919 10.7101C1.79447 10.9992 2.03537 11.2122 2.319 11.214ZM19.8896 18L19.8851 18C19.6013 17.9976 19.3605 17.7842 19.3153 17.4949C19.2313 16.9523 19.0236 16.2514 18.851 16.0721C18.6774 15.894 17.9986 15.6795 17.473 15.5928C17.1926 15.5464 16.9858 15.2976 16.9838 15.0044C16.9818 14.7113 17.1853 14.4595 17.4651 14.4091C17.9929 14.313 18.6762 14.0892 18.851 13.9087C19.0224 13.7317 19.2336 13.0262 19.3164 12.5035C19.3613 12.2147 19.6018 12.0016 19.8851 11.9996L19.8896 11.9996C20.1716 11.9996 20.4129 12.2086 20.4617 12.4953C20.5548 13.0321 20.7705 13.7294 20.9464 13.9099C21.1189 14.088 21.8068 14.3165 22.3153 14.4091C22.5945 14.4598 22.7974 14.7112 22.7955 15.0039C22.7935 15.2965 22.5872 15.5449 22.3074 15.5916C21.7898 15.6795 21.1189 15.8928 20.9453 16.0721C20.7716 16.2526 20.5548 16.9581 20.4617 17.5031C20.413 17.7901 20.1718 17.9995 19.8896 18Z" transform="translate(125 39)" id="Shape" fill="#FFB587" fill-rule="evenodd" stroke="none" />
  </g>
</svg>