<svg width="147" height="145" xmlns="http://www.w3.org/2000/svg"><path d="M72.233 95.341a6.39 6.39 0 01-6.359 6.394h-25.56a4.88 4.88 0 01-4.429-2.787 4.894 4.894 0 01.633-5.2 4.876 4.876 0 014.966-1.64 5.044 5.044 0 012.068-5.296 5.025 5.025 0 015.678.005 8.46 8.46 0 019.256-6.26 8.47 8.47 0 017.388 8.39 6.39 6.39 0 016.359 6.394zM163.51 17.326c-.592 0-1.182.071-1.757.214a7.607 7.607 0 00-3.127-7.975 7.579 7.579 0 00-8.555.008C148.448 3.364 142.476-.673 136.12.14c-6.356.814-11.122 6.226-11.135 12.645a9.577 9.577 0 00-8.296 4.797 9.608 9.608 0 000 9.595 9.577 9.577 0 008.296 4.797h38.527c4.038 0 7.312-3.28 7.312-7.324 0-4.045-3.274-7.324-7.313-7.324z" fill="#FFB587" fill-opacity=".3"/><path d="M21.24 114.776h7.02v-1.767h-5.529a44.658 44.658 0 01-1.492 1.767z" fill="none"/><path d="M45.132 114.776v-.883a.884.884 0 00-.882-.884H28.26v1.767h16.872z" fill="#FFB587" fill-opacity=".3"/><path d="M53.2 109.676v-.006V109.582h-.01a.812.812 0 00-.804-.728c-.658 0-.952-.266-1.396-.67-.537-.486-1.205-1.092-2.49-1.092-1.285 0-1.952.606-2.489 1.092-.444.404-.738.67-1.396.67-.657 0-.95-.266-1.395-.67-.536-.486-1.204-1.092-2.49-1.092-1.285 0-1.952.606-2.489 1.092-.444.404-.738.67-1.396.67-.657 0-.951-.266-1.397-.67-.536-.486-1.203-1.092-2.489-1.092-1.285 0-1.952.606-2.489 1.092-.444.404-.739.67-1.396.67a.812.812 0 00-.806.728h-.008v1.661h15.99c.702 0 1.375.279 1.871.776s.775 1.17.775 1.874v26.3a1.769 1.769 0 01-1.764 1.767H28.26v3.945a.812.812 0 00.794.993h.02c1.285 0 1.953-.605 2.49-1.092.442-.401.735-.667 1.387-.67.652.003.946.269 1.39.67.536.487 1.204 1.092 2.49 1.092h.015c1.284 0 1.952-.605 2.488-1.092.445-.403.739-.67 1.397-.67.657 0 .951.267 1.395.67.537.487 1.204 1.092 2.49 1.092 1.284 0 1.952-.605 2.489-1.092.444-.403.738-.67 1.395-.67.658 0 .952.267 1.396.67.537.487 1.205 1.092 2.49 1.092.418 0 .767-.32.806-.738h.007v-.071-.006-36.407z" fill="#FFB587" fill-opacity=".3"/><path d="M28.26 113.01v-1.767H24.07a39.594 39.594 0 01-1.338 1.766h5.53zM23.528 125.434c-1.455.063-2.054.932-2.054 1.146 0 .214.964.818 1.907.818.943 0 2.054-.346 2.054-.655 0-.344-.534-1.368-1.907-1.309zM27.783 126.743c0 .127.19.26.477.374v-1.213c-.257.21-.427.51-.477.84z" fill="#FFB587"/><path d="M26.609 128.543c-1.433 0-2.556 1.8-3.961 1.8-1.844 0-3.206-1.748-3.228-4.745-.014-1.86.54-2.455 2.934-2.455s3.095.982 4.255.982c.575 0 1.039-.242 1.651-.485v-8.864h-7.02a45.565 45.565 0 01-3.525 3.552c-4.76 4.292-8.472 6.194-8.472 6.194s.468 2.03.468 6.82c0 2.761-.087 7.284-.16 10.618h18.71v-12.735c-.523-.366-1.053-.682-1.652-.682z" fill="#FFB587"/><path d="M31.744 126.58c0-.214-.6-1.082-2.054-1.146a1.939 1.939 0 00-1.43.47v1.213c.506.184 1.039.279 1.577.281.942 0 1.907-.604 1.907-.818z" fill="#FFB587"/><path d="M46.896 140.193v-26.3c0-.703-.279-1.377-.775-1.874a2.644 2.644 0 00-1.87-.776H28.26v1.766h15.99c.486 0 .881.396.881.884v.883H28.26v8.864a6.567 6.567 0 012.604-.497c2.393 0 2.948.594 2.934 2.455-.022 2.997-1.384 4.746-3.228 4.746-.87 0-1.583-.609-2.31-1.118v12.734h16.872a1.762 1.762 0 001.764-1.767z" fill="#FFB587"/><path d="M24.979 109.665l.005-.03h-.008a.812.812 0 00-.805-.729c-.658 0-.952-.266-1.396-.67-.537-.486-1.205-1.091-2.49-1.091-1.284 0-1.952.605-2.489 1.091-.444.404-.738.67-1.396.67-.657 0-.95-.266-1.395-.67-.536-.486-1.204-1.091-2.49-1.091-1.285 0-1.952.605-2.489 1.091-.444.404-.738.67-1.396.67-.657 0-.951-.266-1.397-.67-.536-.486-1.203-1.091-2.489-1.091-1.285 0-1.952.605-2.489 1.091-.444.404-.739.67-1.396.67a.812.812 0 00-.806.728H.045v36.578h.007a.812.812 0 00.807.738c1.286 0 1.954-.605 2.49-1.091.446-.404.74-.67 1.398-.67.659 0 .953.266 1.398.67.537.486 1.205 1.091 2.49 1.091.42 0 .77-.322.808-.741l.008.003s.047-1.806.1-4.252c.073-3.334.16-7.857.16-10.619 0-4.788-.468-6.819-.468-6.819s3.712-1.902 8.472-6.194a45.572 45.572 0 005.016-5.319c.547-.682.993-1.282 1.338-1.766.262-.368.466-.67.61-.888a.811.811 0 00.306-.633c0-.02-.005-.038-.006-.057z" fill="#FFB587" fill-opacity=".3"/><path d="M121 98h10v3h-10v-3z" fill="none"/><g opacity=".3" fill="#FFB587"><path d="M120.054 78.15h2.408v6.012h-2.408V78.15zM125.268 78.664h2.126v5.498h-2.126v-5.498z"/><path d="M154.717 98.892h-1.282V63.593a2.537 2.537 0 00-2.541-2.538h-49.64a2.541 2.541 0 00-2.542 2.539v35.298h-1.281c-.7 0-1.266.566-1.266 1.264v2.56c0 .698.567 1.264 1.266 1.264h57.286c.699 0 1.265-.566 1.265-1.264v-2.56c0-.698-.566-1.264-1.265-1.264zM132.093 87.77h2.408V74.542l-1.204-1.202-1.204 1.202v2.405h-2.408v-2.405l-1.203-1.202-1.204 1.202v2.405h-2.408v-2.405l-1.204-1.202-1.204 1.202v2.405h-2.408v-2.405l-1.204-1.202-1.203 1.202V87.77h2.407v-2.405h2.408v2.405h2.408v-2.405h2.408v2.405h2.407v-2.405h2.408v2.405zm-.925 13.667h-10.189v-2.544h10.189v2.544z" fill-rule="evenodd"/><path d="M129.685 78.15h2.408v6.012h-2.408V78.15z"/></g><path d="M93.543 36h20.914c2.508.003 4.54 2.026 4.543 4.522V52.01c-.003 2.497-2.035 4.52-4.543 4.523h-1.082v5.6c0 .789-.498 1.493-1.245 1.758a1.88 1.88 0 01-2.082-.577l-5.56-6.781H93.542c-2.508-.003-4.54-2.026-4.543-4.523V40.522c.003-2.496 2.035-4.52 4.543-4.522zm13.66 11.102l1.902-2.035a.71.71 0 00-.398-1.185l-2.654-.472-1.251-2.502a.715.715 0 00-1.28 0l-1.251 2.502-2.652.471a.71.71 0 00-.4 1.185l1.902 2.036-.396 2.82a.71.71 0 00.296.68.717.717 0 00.742.05l2.4-1.245 2.397 1.244a.717.717 0 00.743-.049.71.71 0 00.296-.68l-.396-2.82z" fill="#FFB587" fill-rule="evenodd"/><path d="M79.5 77c-11.868.014-21.486 9.616-21.5 21.466a3.069 3.069 0 003.071 3.066 3.069 3.069 0 003.072-3.066c0-8.468 6.875-15.333 15.357-15.333 8.481 0 15.357 6.865 15.357 15.333 0 6.432-1.862 9.99-3.505 13.131-1.297 2.48-2.638 5.04-2.638 8.334 0 1.096.585 2.11 1.535 2.658.951.548 2.123.548 3.073 0a3.066 3.066 0 001.535-2.658c0-1.788.813-3.342 1.94-5.495 1.774-3.39 4.203-8.032 4.203-15.97-.014-11.85-9.632-21.452-21.5-21.466z" fill="#FFB587"/><path d="M78.637 86c-6.825.007-12.355 5.525-12.363 12.333 0 1.933-1.555 6.166-6.18 6.166a3.092 3.092 0 00-2.68 1.541 3.077 3.077 0 000 3.085 3.092 3.092 0 002.68 1.541c7.635 0 12.362-6.401 12.362-12.333 0-3.406 2.767-6.166 6.181-6.166s6.181 2.76 6.181 6.166c0 7.705-2.616 11.156-5.385 14.811-1.246 1.644-2.531 3.342-3.56 5.393a3.08 3.08 0 001.382 4.137 3.094 3.094 0 004.147-1.38c.773-1.544 1.837-2.947 2.962-4.431 2.957-3.903 6.636-8.76 6.636-18.53-.007-6.808-5.538-12.326-12.363-12.333z" fill="#FFB587"/><path d="M79.876 95a3.13 3.13 0 00-2.21.91 3.103 3.103 0 00-.915 2.201c0 13.091-16.45 18.773-16.616 18.828a3.103 3.103 0 00-1.08 5.28 3.134 3.134 0 003.062.62C62.97 122.556 83 115.705 83 98.11c0-.825-.329-1.617-.915-2.2a3.13 3.13 0 00-2.21-.911z" fill="#FFB587"/><path d="M116.613 110h19.774c1.993.006 3.607 1.649 3.613 3.678v11.644c-.006 2.029-1.62 3.672-3.613 3.678h-19.774c-1.993-.006-3.607-1.649-3.613-3.678v-11.644c.006-2.029 1.62-3.672 3.613-3.678zm20.33 15.191a.67.67 0 00.44-.274.694.694 0 00-.151-.956l-6.476-4.774 5.08-3.895a.691.691 0 00.247-.718.677.677 0 00-.653-.514.661.661 0 00-.403.138l-6.251 4.793c-.023.018-2.371 1.766-4.525-.001l-6.25-4.792a.68.68 0 00-.942.135.693.693 0 00.132.959l5.06 3.88-6.496 4.789a.693.693 0 00-.15.956.665.665 0 00.939.153l6.832-5.036.056.042a4.592 4.592 0 004.219.919 5.892 5.892 0 001.935-.91l.046-.036 6.81 5.021c.145.107.326.15.502.122zM144.304 43.798l.004.001c.283 0 .524-.21.573-.497.048-.348.157-.685.322-.992.292-.166.611-.274.942-.32a.594.594 0 00.487-.587.595.595 0 00-.479-.595 2.7 2.7 0 01-.949-.331 2.888 2.888 0 01-.323-.982.585.585 0 00-.572-.495h-.005a.586.586 0 00-.569.503 2.83 2.83 0 01-.309.972c-.298.17-.623.284-.96.333a.596.596 0 00-.481.596.595.595 0 00.488.588c.334.044.657.152.954.318.16.305.264.64.307.984.045.29.286.502.57.504zm8.125-4.2h.016c1.128.001 2.094.838 2.29 1.985.167.983.56 2.245.809 2.617.36.258 1.561.656 2.534.836 1.118.203 1.93 1.209 1.922 2.38-.008 1.171-.833 2.165-1.953 2.353-.936.156-2.14.538-2.504.79-.25.382-.634 1.635-.808 2.651-.193 1.15-1.16 1.989-2.29 1.988h-.013c-1.136-.007-2.1-.86-2.282-2.017-.158-1.002-.52-2.237-.766-2.622-.373-.253-1.569-.627-2.536-.79-1.121-.185-1.949-1.18-1.957-2.352-.008-1.172.805-2.18 1.923-2.382.987-.18 2.2-.576 2.57-.835.244-.375.608-1.595.766-2.585.181-1.156 1.145-2.008 2.279-2.016zm-15.353 8.398h-.005a.588.588 0 01-.57-.506c-.084-.542-.291-1.243-.464-1.422-.174-.178-.852-.393-1.378-.48a.595.595 0 01-.49-.588.595.595 0 01.482-.595c.528-.096 1.211-.32 1.386-.5.172-.178.383-.883.465-1.406a.586.586 0 01.57-.504h.004c.282 0 .523.21.572.496.093.537.309 1.234.484 1.414.173.179.86.407 1.37.5.279.05.482.302.48.594a.594.594 0 01-.489.588c-.517.088-1.188.301-1.362.48-.173.181-.39.887-.483 1.432a.587.587 0 01-.572.497zm16.82-2.095c-.954-.986-1.451-3.902-1.451-3.902s-.458 2.916-1.412 3.902c-.955.985-3.819 1.498-3.819 1.498s2.864.473 3.819 1.458c.954.986 1.412 3.943 1.412 3.943s.497-2.957 1.452-3.943c.954-.985 3.778-1.458 3.778-1.458s-2.824-.513-3.779-1.498zm-26.577 4.313l.005.001c.282 0 .523-.21.572-.497.048-.348.157-.685.322-.992.292-.166.612-.274.942-.32a.594.594 0 00.487-.587.595.595 0 00-.479-.595 2.7 2.7 0 01-.949-.331 2.886 2.886 0 01-.323-.982.585.585 0 00-.572-.495h-.005a.586.586 0 00-.569.503 2.83 2.83 0 01-.308.973c-.299.17-.624.283-.962.332a.595.595 0 00-.48.596.595.595 0 00.488.588c.334.044.658.152.954.318.16.305.264.64.307.984.045.29.286.502.57.504zM144.889 57h-.004a.588.588 0 01-.57-.505c-.084-.543-.291-1.244-.464-1.423-.174-.178-.852-.393-1.378-.48a.595.595 0 01-.49-.588.595.595 0 01.482-.595c.528-.096 1.211-.32 1.386-.5.171-.177.383-.883.465-1.406a.586.586 0 01.57-.503h.004c.282 0 .523.209.572.495.093.537.308 1.234.484 1.415.173.178.86.406 1.37.5.278.05.481.301.48.594a.594.594 0 01-.489.588c-.517.087-1.188.3-1.362.48-.173.18-.39.886-.483 1.431a.587.587 0 01-.572.497z" fill="#FFB587" fill-rule="evenodd"/></svg>
