<?xml version="1.0" encoding="utf-8"?>
<svg width="118px" height="145px" viewBox="0 0 118 145" version="1.1" xmlns:xlink="http://www.w3.org/1999/xlink" xmlns="http://www.w3.org/2000/svg">
  <desc>Created with Lunacy</desc>
  <g id="Header-1-copy" transform="translate(-24 0)">
    <g id="Group">
      <path d="M7.08457 1.43845C4.56995 1.43845 2.14885 -1.26722 0.403406 0.742992C-0.0895319 1.31406 -0.135409 2.14473 0.291655 2.76639C1.81088 5.02556 4.35816 6.38098 7.08462 6.38098C9.81109 6.38098 12.3584 5.02556 13.8776 2.76639C14.3046 2.14472 14.2587 1.31408 13.7658 0.742992C12.0203 -1.26722 9.5994 1.43845 7.08457 1.43845Z" transform="translate(22.08763 123.4685)" id="Path" fill="none" stroke="none" />
      <path d="M53.0239 4.10736C55.9632 4.62074 58.1022 7.17566 58.0856 10.1532C58.1042 16.9592 58.0454 25.9592 57.6598 30.1847L57.6597 30.1847C56.519 42.7088 54.2145 49.5398 48.5272 57.2557C41.9515 66.1755 32.5506 68.4215 29.826 68.8974L29.047 69.0335L28.2679 68.8973C25.5414 68.4206 16.1344 66.1725 9.56093 57.2565C3.87368 49.539 1.5693 42.7068 0.429114 30.1849C0.0433558 25.9909 -0.0154967 16.9767 0.00297377 10.1486C-0.0106261 7.17649 2.12208 4.6262 5.05486 4.10757L28.2806 0.130801L29.0444 0L29.8083 0.130801L53.0239 4.10736ZM17.4872 32.8301C17.4872 39.1994 22.6615 44.3627 29.0443 44.3627C32.1094 44.3627 35.049 43.1477 37.2164 40.9849C39.3838 38.8221 40.6014 35.8888 40.6014 32.8301C40.6014 26.4609 35.4271 21.2976 29.0443 21.2976C22.6615 21.2976 17.4872 26.4609 17.4872 32.8301Z" transform="translate(0.1279134 88.78177)" id="Shape" fill="#FF9AA2" fill-opacity="0.3" fill-rule="evenodd" stroke="none" />
      <path d="M4.95306 9.88508C7.68856 9.88508 9.90612 7.67223 9.90612 4.94254C9.90612 2.21285 7.68856 0 4.95306 0C2.21756 0 0 2.21285 0 4.94254C0 7.67223 2.21756 9.88508 4.95306 9.88508Z" transform="translate(24.21915 113.3744)" id="Oval" fill="none" stroke="none" />
      <path d="M11.5571 0C5.17429 5.77123e-06 -5.39795e-06 5.16333 0 11.5326C5.39795e-06 17.9019 5.17431 23.0652 11.5571 23.0652C17.94 23.0652 23.1143 17.9019 23.1143 11.5326C23.1143 8.47395 21.8966 5.54059 19.7293 3.37781C17.5619 1.21503 14.6223 -2.77144e-06 11.5571 0ZM11.5571 3.29501C14.2926 3.29501 16.5102 5.50786 16.5102 8.23755C16.5102 10.9672 14.2926 13.1801 11.5571 13.1801C8.82163 13.1801 6.60407 10.9672 6.60407 8.23755C6.60406 6.92671 7.1259 5.66955 8.05478 4.74265C8.98366 3.81574 10.2435 3.29501 11.5571 3.29501ZM11.5572 19.7701C14.2836 19.7701 16.8309 18.4147 18.3501 16.1556C18.7772 15.5339 18.7313 14.7033 18.2384 14.1322C17.1603 12.8906 15.8245 13.448 14.3681 14.0558C13.4665 14.4321 12.5187 14.8276 11.5571 14.8276C10.5957 14.8276 9.6479 14.4321 8.74633 14.0558C7.28989 13.448 5.95405 12.8905 4.87596 14.1322C4.38303 14.7032 4.33715 15.5339 4.76421 16.1556C6.28344 18.4147 8.83072 19.7701 11.5572 19.7701Z" transform="translate(17.61508 110.0793)" id="Shape" fill="#FF9AA2" fill-rule="evenodd" stroke="none" />
      <path d="M39.777 15.9856C39.7769 19.7757 36.7058 22.8524 32.9076 22.8674L5.29517 22.8674C3.25313 22.8763 1.38959 21.7077 0.511881 19.8678C-0.365825 18.0279 -0.0998138 15.8477 1.19467 14.2717C2.48916 12.6957 4.57927 12.0074 6.5595 12.505C6.05669 10.3273 6.94379 8.06468 8.79409 6.80559C10.6444 5.5465 13.0792 5.54864 14.9272 6.81099C16.0904 2.37701 20.3708 -0.50666 24.9269 0.0742111C29.483 0.655082 32.8993 4.52002 32.908 9.1034C36.7061 9.1187 39.777 12.1955 39.777 15.9856Z" transform="translate(4.233111 0.0529575)" id="Path" fill="#FF9AA2" fill-opacity="0.3" stroke="none" />
      <path d="M31.5941 45.5803L4.22761 45.6931C1.9878 45.7023 0.164577 43.8979 0.155322 41.6629L3.47137e-05 4.14238C-0.00441711 3.06683 0.419483 2.03357 1.17848 1.2699C1.93748 0.506229 2.96941 0.07471 4.04724 0.0702694L21.0894 3.45936e-05C22.1652 -0.00439636 23.1988 0.41699 23.9638 1.17182L34.3221 11.3933C35.09 12.151 35.5241 13.1825 35.5285 14.2601L35.6413 41.5082C35.6457 42.5838 35.2218 43.617 34.4628 44.3807C33.7038 45.1444 32.6719 45.5759 31.5941 45.5803L31.5941 45.5803Z" transform="translate(106.2488 98.59111)" id="Path" fill="#FF9AA2" fill-opacity="0.3" stroke="none" />
      <path d="M4.24854 1.61971C4.26664 1.56726 4.26138 1.50959 4.2341 1.46126L3.82784 0.740677C3.80042 0.69196 3.75327 0.657418 3.69847 0.645908C3.64368 0.634399 3.58657 0.647042 3.5418 0.680596L2.59936 1.38583L2.7456 0.218147C2.75259 0.1629 2.73543 0.107324 2.6985 0.0655767C2.66157 0.0238296 2.60844 -5.77371e-05 2.55264 1.06997e-07L1.71769 1.06997e-07C1.66189 -5.83378e-05 1.60876 0.0238288 1.57183 0.0655759C1.5349 0.107323 1.51774 0.1629 1.52472 0.218147L1.67059 1.38242L0.729476 0.669983C0.685216 0.636435 0.628684 0.623393 0.57416 0.634152C0.519635 0.644911 0.472332 0.678441 0.444198 0.726273L0.0267287 1.43549C-0.00144358 1.48346 -0.00767666 1.54118 0.00960599 1.59404C0.0268886 1.6469 0.0660319 1.68985 0.117135 1.71201L1.20962 2.18375L0.119416 2.63843C0.0682158 2.65983 0.0286154 2.70204 0.010583 2.75443C-0.00744949 2.80681 -0.00219651 2.8644 0.0250197 2.91267L0.431284 3.63326C0.458695 3.68206 0.505937 3.71662 0.560817 3.72803C0.615706 3.73989 0.673048 3.72714 0.717701 3.69315L1.67135 2.9773L1.52472 4.15598C1.51788 4.21118 1.5351 4.26666 1.572 4.30834C1.6089 4.35003 1.66195 4.37391 1.71769 4.37394L2.55264 4.37394C2.60838 4.37391 2.66143 4.35003 2.69833 4.30834C2.73523 4.26666 2.75245 4.21118 2.7456 4.15598L2.60012 2.98545L3.51692 3.69183C3.56101 3.72577 3.61756 3.73923 3.67225 3.72879C3.72694 3.71835 3.77453 3.68502 3.80296 3.63724L4.23182 2.91666C4.26071 2.86827 4.26709 2.80974 4.24929 2.75629C4.2315 2.70284 4.19129 2.65976 4.13914 2.63824L3.04893 2.18697L4.13914 1.7357C4.19056 1.71444 4.23038 1.67221 4.24854 1.61971L4.24854 1.61971Z" transform="translate(112.5658 110.4229)" id="Path" fill="#FF9AA2" stroke="none" />
      <path d="M4.24854 1.61971C4.26664 1.56726 4.26138 1.50959 4.2341 1.46126L3.82784 0.740677C3.80042 0.69196 3.75327 0.657418 3.69847 0.645908C3.64368 0.634399 3.58657 0.647042 3.5418 0.680596L2.59936 1.38583L2.74561 0.218147C2.75259 0.1629 2.73543 0.107324 2.6985 0.0655766C2.66157 0.0238296 2.60844 -5.76561e-05 2.55264 1.06997e-07L1.71769 1.06997e-07C1.66189 -5.83378e-05 1.60876 0.0238288 1.57183 0.0655759C1.5349 0.107323 1.51774 0.1629 1.52472 0.218147L1.67059 1.38242L0.729478 0.669983C0.685218 0.636435 0.628686 0.623393 0.574162 0.634152C0.519637 0.644911 0.472334 0.678441 0.4442 0.726273L0.0267283 1.43549C-0.00144388 1.48346 -0.00767666 1.54118 0.00960641 1.59404C0.0268895 1.6469 0.0660332 1.68985 0.117137 1.71201L1.20962 2.18375L0.119416 2.63843C0.0682154 2.65983 0.028615 2.70204 0.0105825 2.75443C-0.00744992 2.80681 -0.00219693 2.8644 0.0250193 2.91267L0.431284 3.63326C0.458696 3.68206 0.505938 3.71662 0.560818 3.72803C0.615707 3.73989 0.673048 3.72714 0.717701 3.69315L1.67135 2.9773L1.52472 4.15598C1.51788 4.21118 1.53509 4.26666 1.572 4.30834C1.6089 4.35003 1.66195 4.37391 1.71769 4.37394L2.55264 4.37394C2.60838 4.37391 2.66142 4.35003 2.69833 4.30834C2.73523 4.26666 2.75245 4.21118 2.74561 4.15598L2.60012 2.98545L3.51692 3.69183C3.56101 3.72577 3.61756 3.73923 3.67225 3.72879C3.72695 3.71835 3.77453 3.68502 3.80296 3.63724L4.23182 2.91666C4.26071 2.86827 4.26709 2.80974 4.24929 2.75629C4.2315 2.70284 4.19129 2.65976 4.13914 2.63824L3.04893 2.18697L4.13914 1.7357C4.19056 1.71444 4.23038 1.67221 4.24854 1.61971Z" transform="translate(118.8151 110.4229)" id="Path" fill="#FF9AA2" stroke="none" />
      <path d="M4.24854 1.61971C4.26664 1.56726 4.26138 1.50959 4.2341 1.46126L3.82784 0.740677C3.80042 0.69196 3.75327 0.657417 3.69847 0.645908C3.64368 0.634399 3.58657 0.647043 3.5418 0.680598L2.59936 1.38583L2.7456 0.218147C2.75259 0.1629 2.73543 0.107324 2.6985 0.0655767C2.66157 0.0238296 2.60844 -5.77371e-05 2.55264 1.06997e-07L1.71769 1.06997e-07C1.66189 -5.83378e-05 1.60876 0.0238288 1.57183 0.0655759C1.5349 0.107323 1.51774 0.1629 1.52472 0.218147L1.67059 1.38242L0.729476 0.669983C0.685216 0.636435 0.628684 0.623393 0.57416 0.634152C0.519635 0.644911 0.472332 0.678441 0.444198 0.726273L0.0267287 1.43549C-0.00144358 1.48346 -0.00767666 1.54118 0.00960599 1.59404C0.0268886 1.6469 0.0660319 1.68985 0.117135 1.71201L1.20962 2.18375L0.119416 2.63843C0.0682158 2.65983 0.0286154 2.70204 0.010583 2.75443C-0.00744949 2.80681 -0.00219651 2.8644 0.0250197 2.91267L0.431284 3.63326C0.458695 3.68206 0.505937 3.71662 0.560817 3.72803C0.615706 3.73989 0.673048 3.72714 0.717701 3.69315L1.67135 2.9773L1.52472 4.15598C1.51788 4.21118 1.53509 4.26666 1.572 4.30834C1.6089 4.35003 1.66195 4.37391 1.71769 4.37394L2.55264 4.37394C2.60838 4.37391 2.66143 4.35003 2.69833 4.30834C2.73524 4.26666 2.75245 4.21118 2.7456 4.15598L2.60012 2.98545L3.51692 3.69183C3.56101 3.72577 3.61756 3.73923 3.67225 3.72879C3.72694 3.71835 3.77453 3.68502 3.80296 3.63724L4.23182 2.91666C4.26071 2.86827 4.26709 2.80974 4.24929 2.75629C4.2315 2.70284 4.19129 2.65976 4.13914 2.63824L3.04893 2.18697L4.13914 1.7357C4.19056 1.71444 4.23038 1.67221 4.24854 1.61971L4.24854 1.61971Z" transform="translate(112.5658 116.8973)" id="Path" fill="#FF9AA2" stroke="none" />
      <path d="M4.24854 1.61971C4.26664 1.56726 4.26138 1.50959 4.2341 1.46126L3.82784 0.740677C3.80042 0.69196 3.75327 0.657417 3.69847 0.645908C3.64368 0.634399 3.58657 0.647043 3.5418 0.680598L2.59936 1.38583L2.74561 0.218147C2.75259 0.1629 2.73543 0.107324 2.6985 0.0655766C2.66157 0.0238296 2.60844 -5.76561e-05 2.55264 1.06997e-07L1.71769 1.06997e-07C1.66189 -5.83378e-05 1.60876 0.0238288 1.57183 0.0655759C1.5349 0.107323 1.51774 0.1629 1.52472 0.218147L1.67059 1.38242L0.729478 0.669983C0.685218 0.636435 0.628686 0.623393 0.574162 0.634152C0.519637 0.644911 0.472334 0.678441 0.4442 0.726273L0.0267283 1.43549C-0.00144388 1.48346 -0.00767666 1.54118 0.00960641 1.59404C0.0268895 1.6469 0.0660332 1.68985 0.117137 1.71201L1.20962 2.18375L0.119416 2.63843C0.0682154 2.65983 0.028615 2.70204 0.0105825 2.75443C-0.00744992 2.80681 -0.00219693 2.8644 0.0250193 2.91267L0.431284 3.63326C0.458696 3.68206 0.505938 3.71662 0.560818 3.72803C0.615707 3.73989 0.673048 3.72714 0.717701 3.69315L1.67135 2.9773L1.52472 4.15598C1.51788 4.21118 1.53509 4.26666 1.572 4.30834C1.6089 4.35003 1.66195 4.37391 1.71769 4.37394L2.55264 4.37394C2.60838 4.37391 2.66143 4.35003 2.69833 4.30834C2.73524 4.26666 2.75245 4.21118 2.74561 4.15598L2.60012 2.98545L3.51692 3.69183C3.56101 3.72577 3.61756 3.73923 3.67225 3.72879C3.72695 3.71835 3.77453 3.68502 3.80296 3.63724L4.23182 2.91666C4.26071 2.86827 4.26709 2.80974 4.24929 2.75629C4.2315 2.70284 4.19129 2.65976 4.13914 2.63824L3.04893 2.18697L4.13914 1.7357C4.19056 1.71444 4.23038 1.67221 4.24854 1.61971L4.24854 1.61971Z" transform="translate(118.8151 116.8973)" id="Path" fill="#FF9AA2" stroke="none" />
      <path d="M4.24853 1.61971C4.26663 1.56726 4.26138 1.50959 4.2341 1.46126L3.82783 0.740677C3.80041 0.691959 3.75326 0.657417 3.69847 0.645908C3.64367 0.634399 3.58657 0.647043 3.5418 0.680597L2.59935 1.38583L2.7456 0.218147C2.75259 0.162899 2.73543 0.107323 2.6985 0.0655759C2.66157 0.0238288 2.60843 -5.83378e-05 2.55263 1.06997e-07L1.7177 1.06997e-07C1.66189 -5.83378e-05 1.60876 0.0238288 1.57183 0.0655759C1.5349 0.107323 1.51774 0.162899 1.52472 0.218147L1.67059 1.38242L0.729477 0.669985C0.685217 0.636437 0.628685 0.623395 0.574161 0.634154C0.519636 0.644913 0.472333 0.678443 0.444199 0.726275L0.0267283 1.43549C-0.00144388 1.48346 -0.00767665 1.54118 0.00960639 1.59404C0.0268894 1.6469 0.0660331 1.68985 0.117137 1.71201L1.20962 2.18375L0.119416 2.63843C0.0682152 2.65983 0.028615 2.70204 0.0105825 2.75443C-0.0074499 2.80681 -0.00219693 2.8644 0.0250192 2.91267L0.431283 3.63326C0.45877 3.68202 0.506008 3.71657 0.560878 3.72804C0.615747 3.73951 0.67291 3.7268 0.7177 3.69315L1.67135 2.9773L1.52472 4.15598C1.51788 4.21118 1.53509 4.26666 1.572 4.30834C1.6089 4.35003 1.66195 4.37391 1.71769 4.37394L2.55263 4.37394C2.60837 4.37391 2.66142 4.35003 2.69833 4.30834C2.73523 4.26666 2.75245 4.21118 2.7456 4.15598L2.60011 2.98545L3.51691 3.69183C3.561 3.72577 3.61756 3.73923 3.67225 3.72879C3.72694 3.71835 3.77453 3.68502 3.80295 3.63724L4.23182 2.91666C4.2607 2.86827 4.26708 2.80974 4.24928 2.75629C4.23149 2.70285 4.19129 2.65976 4.13913 2.63824L3.04892 2.18697L4.13913 1.7357C4.19055 1.71444 4.23038 1.67221 4.24853 1.61971Z" transform="translate(125.0644 116.8973)" id="Path" fill="#FF9AA2" stroke="none" />
      <path d="M4.24854 1.61971C4.26664 1.56726 4.26139 1.50959 4.2341 1.46126L3.82784 0.740677C3.80042 0.69196 3.75327 0.657417 3.69847 0.645909C3.64368 0.6344 3.58658 0.647043 3.5418 0.680598L2.59936 1.38583L2.74561 0.218147C2.75259 0.1629 2.73543 0.107323 2.6985 0.0655759C2.66157 0.0238288 2.60844 -5.83378e-05 2.55264 1.06997e-07L1.71769 1.06997e-07C1.66189 -5.83378e-05 1.60876 0.0238288 1.57183 0.0655759C1.5349 0.107323 1.51774 0.1629 1.52472 0.218147L1.67059 1.38242L0.729478 0.669983C0.685218 0.636435 0.628686 0.623393 0.574162 0.634152C0.519637 0.644911 0.472334 0.678441 0.4442 0.726273L0.0267283 1.43549C-0.00144388 1.48346 -0.00767666 1.54118 0.00960641 1.59404C0.0268895 1.6469 0.0660332 1.68985 0.117137 1.71201L1.20962 2.18375L0.119416 2.63843C0.0682154 2.65983 0.028615 2.70204 0.0105825 2.75443C-0.00744992 2.80681 -0.00219693 2.8644 0.0250193 2.91267L0.431284 3.63326C0.458771 3.68202 0.506009 3.71657 0.560879 3.72804C0.615748 3.73951 0.672911 3.7268 0.717701 3.69315L1.67135 2.9773L1.52472 4.15598C1.51788 4.21118 1.53509 4.26666 1.572 4.30834C1.6089 4.35003 1.66195 4.37391 1.71769 4.37394L2.55264 4.37394C2.60838 4.37391 2.66143 4.35003 2.69833 4.30834C2.73524 4.26666 2.75245 4.21118 2.74561 4.15598L2.60012 2.98545L3.51692 3.69183C3.56101 3.72577 3.61756 3.73923 3.67225 3.72879C3.72695 3.71835 3.77453 3.68502 3.80296 3.63724L4.23182 2.91666C4.26071 2.86827 4.26709 2.80974 4.24929 2.75629C4.2315 2.70284 4.19129 2.65976 4.13914 2.63824L3.04893 2.18697L4.13914 1.7357C4.19056 1.71444 4.23038 1.67222 4.24854 1.61971Z" transform="translate(131.3139 116.8973)" id="Path" fill="#FF9AA2" stroke="none" />
      <path d="M4.24854 1.61971C4.26664 1.56726 4.26139 1.50959 4.2341 1.46126L3.82784 0.740677C3.80042 0.69196 3.75327 0.657417 3.69847 0.645908C3.64368 0.634399 3.58657 0.647043 3.5418 0.680598L2.59936 1.38583L2.74561 0.218147C2.75259 0.1629 2.73543 0.107324 2.6985 0.0655767C2.66157 0.0238296 2.60844 -5.77371e-05 2.55264 1.06997e-07L1.71769 1.06997e-07C1.66189 -5.83378e-05 1.60876 0.0238288 1.57183 0.0655759C1.5349 0.107323 1.51774 0.1629 1.52472 0.218147L1.67059 1.38242L0.729476 0.669983C0.685216 0.636436 0.628685 0.623396 0.57416 0.634154C0.519636 0.644913 0.472333 0.678442 0.444199 0.726273L0.0267287 1.43549C-0.00144358 1.48346 -0.00767666 1.54118 0.00960599 1.59404C0.0268886 1.6469 0.0660319 1.68985 0.117135 1.71201L1.20963 2.18375L0.119416 2.63843C0.0682158 2.65983 0.0286154 2.70204 0.010583 2.75443C-0.00744949 2.80681 -0.00219651 2.8644 0.0250197 2.91267L0.431285 3.63326C0.458695 3.68206 0.505936 3.71662 0.560817 3.72803C0.615706 3.73989 0.673047 3.72714 0.717702 3.69315L1.67135 2.9773L1.52472 4.15598C1.51788 4.21118 1.53509 4.26666 1.572 4.30834C1.6089 4.35003 1.66195 4.37391 1.71769 4.37394L2.55264 4.37394C2.60838 4.37391 2.66143 4.35003 2.69833 4.30834C2.73524 4.26666 2.75245 4.21118 2.74561 4.15598L2.60012 2.98545L3.51692 3.69183C3.56101 3.72577 3.61756 3.73923 3.67225 3.72879C3.72695 3.71835 3.77453 3.68502 3.80296 3.63724L4.23183 2.91666C4.26071 2.86827 4.26709 2.80974 4.24929 2.75629C4.2315 2.70284 4.1913 2.65976 4.13914 2.63824L3.04893 2.18697L4.13914 1.7357C4.19056 1.71444 4.23038 1.67222 4.24854 1.61971Z" transform="translate(112.5658 123.3717)" id="Path" fill="#FF9AA2" stroke="none" />
      <path d="M4.24854 1.61971C4.26664 1.56726 4.26139 1.50959 4.2341 1.46126L3.82784 0.740677C3.80042 0.69196 3.75327 0.657417 3.69847 0.645908C3.64368 0.634399 3.58657 0.647043 3.5418 0.680598L2.59936 1.38583L2.74561 0.218147C2.75259 0.1629 2.73543 0.107324 2.6985 0.0655766C2.66157 0.0238296 2.60844 -5.76561e-05 2.55264 1.06997e-07L1.71769 1.06997e-07C1.66189 -5.83378e-05 1.60876 0.0238288 1.57183 0.0655759C1.5349 0.107323 1.51774 0.1629 1.52472 0.218147L1.67059 1.38242L0.729478 0.669983C0.685218 0.636436 0.628686 0.623396 0.574162 0.634154C0.519638 0.644913 0.472335 0.678442 0.4442 0.726273L0.0267283 1.43549C-0.00144388 1.48346 -0.00767666 1.54118 0.00960641 1.59404C0.0268895 1.6469 0.0660332 1.68985 0.117137 1.71201L1.20962 2.18375L0.119416 2.63843C0.0682154 2.65983 0.028615 2.70204 0.0105825 2.75443C-0.00744992 2.80681 -0.00219693 2.8644 0.0250193 2.91267L0.431284 3.63326C0.458695 3.68206 0.505938 3.71662 0.560818 3.72803C0.615707 3.73989 0.673047 3.72714 0.717701 3.69315L1.67135 2.9773L1.52472 4.15598C1.51788 4.21118 1.53509 4.26666 1.572 4.30834C1.6089 4.35003 1.66195 4.37391 1.71769 4.37394L2.55264 4.37394C2.60838 4.37391 2.66143 4.35003 2.69833 4.30834C2.73524 4.26666 2.75245 4.21118 2.74561 4.15598L2.60012 2.98545L3.51692 3.69183C3.56101 3.72577 3.61756 3.73923 3.67225 3.72879C3.72695 3.71835 3.77453 3.68502 3.80296 3.63724L4.23183 2.91666C4.26071 2.86827 4.26709 2.80974 4.24929 2.75629C4.2315 2.70284 4.1913 2.65976 4.13914 2.63824L3.04893 2.18697L4.13914 1.7357C4.19056 1.71444 4.23038 1.67222 4.24854 1.61971L4.24854 1.61971Z" transform="translate(118.8151 123.3717)" id="Path" fill="#FF9AA2" stroke="none" />
      <path d="M4.24853 1.61971C4.26663 1.56726 4.26137 1.50959 4.23409 1.46126L3.82783 0.740677C3.80041 0.69196 3.75326 0.657417 3.69846 0.645909C3.64367 0.6344 3.58657 0.647043 3.54179 0.680598L2.59935 1.38583L2.7456 0.218147C2.75258 0.1629 2.73542 0.107323 2.69849 0.0655759C2.66157 0.0238288 2.60843 -5.83378e-05 2.55263 1.06997e-07L1.71769 1.06997e-07C1.66189 -5.83378e-05 1.60875 0.0238288 1.57182 0.0655759C1.53489 0.107323 1.51774 0.1629 1.52472 0.218147L1.67059 1.38242L0.729477 0.669983C0.685217 0.636436 0.628685 0.623396 0.574161 0.634154C0.519637 0.644913 0.472334 0.678442 0.444199 0.726273L0.0267283 1.43549C-0.00144388 1.48346 -0.00767665 1.54118 0.00960639 1.59404C0.0268894 1.6469 0.0660331 1.68985 0.117137 1.71201L1.20962 2.18375L0.119416 2.63843C0.0682152 2.65983 0.028615 2.70204 0.0105825 2.75443C-0.0074499 2.80681 -0.00219693 2.8644 0.0250192 2.91267L0.431283 3.63326C0.45877 3.68202 0.506008 3.71657 0.560877 3.72804C0.615747 3.73951 0.672909 3.7268 0.7177 3.69315L1.67135 2.9773L1.52472 4.15598C1.51788 4.21118 1.53509 4.26666 1.572 4.30834C1.6089 4.35003 1.66195 4.37391 1.71769 4.37394L2.55263 4.37394C2.60837 4.37391 2.66142 4.35003 2.69833 4.30834C2.73523 4.26666 2.75245 4.21118 2.7456 4.15598L2.60011 2.98545L3.51691 3.69183C3.561 3.72577 3.61756 3.73923 3.67225 3.72879C3.72694 3.71835 3.77453 3.68502 3.80295 3.63724L4.23182 2.91666C4.2607 2.86827 4.26708 2.80974 4.24928 2.75629C4.23149 2.70285 4.19129 2.65976 4.13913 2.63824L3.04892 2.18697L4.13913 1.7357C4.19055 1.71444 4.23037 1.67221 4.24853 1.61971L4.24853 1.61971Z" transform="translate(125.0644 123.3717)" id="Path" fill="#FF9AA2" stroke="none" />
      <path d="M4.24854 1.61971C4.26664 1.56726 4.26139 1.50959 4.2341 1.46126L3.82784 0.740677C3.80042 0.69196 3.75327 0.657417 3.69847 0.645909C3.64368 0.6344 3.58658 0.647043 3.5418 0.680598L2.59936 1.38583L2.74561 0.218147C2.75259 0.1629 2.73543 0.107323 2.6985 0.0655759C2.66157 0.0238288 2.60844 -5.83378e-05 2.55264 1.06997e-07L1.71769 1.06997e-07C1.66189 -5.83378e-05 1.60876 0.0238288 1.57183 0.0655759C1.5349 0.107323 1.51774 0.1629 1.52472 0.218147L1.67059 1.38242L0.729478 0.669983C0.685218 0.636436 0.628686 0.623396 0.574162 0.634154C0.519638 0.644913 0.472335 0.678442 0.4442 0.726273L0.0267283 1.43549C-0.00144388 1.48346 -0.00767666 1.54118 0.00960641 1.59404C0.0268895 1.6469 0.0660332 1.68985 0.117137 1.71201L1.20962 2.18375L0.119416 2.63843C0.0682154 2.65983 0.028615 2.70204 0.0105825 2.75443C-0.00744992 2.80681 -0.00219693 2.8644 0.0250193 2.91267L0.431284 3.63326C0.458771 3.68202 0.506009 3.71657 0.560878 3.72804C0.615748 3.73951 0.672911 3.7268 0.717701 3.69315L1.67135 2.9773L1.52472 4.15598C1.51788 4.21118 1.53509 4.26666 1.572 4.30834C1.6089 4.35003 1.66195 4.37391 1.71769 4.37394L2.55264 4.37394C2.60838 4.37391 2.66143 4.35003 2.69833 4.30834C2.73524 4.26666 2.75245 4.21118 2.74561 4.15598L2.60012 2.98545L3.51692 3.69183C3.56101 3.72577 3.61756 3.73923 3.67226 3.72879C3.72695 3.71835 3.77453 3.68502 3.80296 3.63724L4.23183 2.91666C4.26071 2.86827 4.26709 2.80974 4.24929 2.75629C4.2315 2.70284 4.1913 2.65976 4.13914 2.63824L3.04893 2.18697L4.13914 1.7357C4.19056 1.71444 4.23039 1.67222 4.24854 1.61971Z" transform="translate(131.3139 123.3717)" id="Path" fill="#FF9AA2" stroke="none" />
      <path d="M4.24854 1.61971C4.26664 1.56727 4.26139 1.5096 4.2341 1.46127L3.82784 0.740679C3.80042 0.691961 3.75327 0.657418 3.69847 0.645909C3.64368 0.634401 3.58657 0.647044 3.5418 0.680599L2.59936 1.38584L2.74561 0.218147C2.75259 0.1629 2.73543 0.107324 2.6985 0.0655768C2.66157 0.0238297 2.60844 -5.77372e-05 2.55264 1.06998e-07L1.71769 1.06998e-07C1.66189 -5.83379e-05 1.60876 0.0238288 1.57183 0.065576C1.5349 0.107323 1.51774 0.1629 1.52472 0.218147L1.67059 1.38242L0.729476 0.669984C0.685216 0.636437 0.628685 0.623397 0.57416 0.634155C0.519636 0.644914 0.472333 0.678443 0.444199 0.726275L0.0267287 1.43549C-0.00144358 1.48346 -0.00767666 1.54118 0.00960599 1.59404C0.0268886 1.64691 0.0660319 1.68985 0.117135 1.71201L1.20963 2.18375L0.119416 2.63843C0.0682157 2.65983 0.0286153 2.70204 0.0105829 2.75443C-0.00744957 2.80682 -0.00219655 2.8644 0.0250197 2.91268L0.431285 3.63327C0.458695 3.68206 0.505936 3.71663 0.560817 3.72803C0.615706 3.73989 0.673047 3.72715 0.717702 3.69316L1.67135 2.97731L1.52472 4.15599C1.51788 4.21119 1.53509 4.26667 1.572 4.30835C1.6089 4.35003 1.66195 4.37392 1.71769 4.37395L2.55264 4.37395C2.60838 4.37392 2.66143 4.35004 2.69833 4.30835C2.73524 4.26667 2.75245 4.21119 2.74561 4.15599L2.60012 2.98546L3.51692 3.69183C3.56101 3.72578 3.61756 3.73923 3.67225 3.7288C3.72695 3.71836 3.77453 3.68503 3.80296 3.63725L4.23183 2.91666C4.26071 2.86827 4.26709 2.80975 4.24929 2.7563C4.2315 2.70285 4.1913 2.65976 4.13914 2.63824L3.04893 2.18697L4.13914 1.73571C4.19056 1.71444 4.23038 1.67222 4.24854 1.61971L4.24854 1.61971Z" transform="translate(112.5658 129.8461)" id="Path" fill="#FF9AA2" stroke="none" />
      <path d="M4.24854 1.61971C4.26664 1.56727 4.26139 1.5096 4.2341 1.46127L3.82784 0.740679C3.80042 0.691961 3.75327 0.657418 3.69847 0.645909C3.64368 0.634401 3.58657 0.647044 3.5418 0.680599L2.59936 1.38584L2.74561 0.218147C2.75259 0.1629 2.73543 0.107324 2.6985 0.0655767C2.66157 0.0238297 2.60844 -5.76562e-05 2.55264 1.06998e-07L1.71769 1.06998e-07C1.66189 -5.83379e-05 1.60876 0.0238288 1.57183 0.065576C1.5349 0.107323 1.51774 0.1629 1.52472 0.218147L1.67059 1.38242L0.729478 0.669984C0.685218 0.636437 0.628686 0.623397 0.574162 0.634155C0.519638 0.644914 0.472335 0.678443 0.4442 0.726275L0.0267283 1.43549C-0.00144388 1.48347 -0.00767666 1.54118 0.00960641 1.59404C0.0268895 1.64691 0.0660332 1.68985 0.117137 1.71201L1.20962 2.18375L0.119416 2.63843C0.0682153 2.65983 0.0286149 2.70204 0.0105824 2.75443C-0.00745 2.80682 -0.00219698 2.8644 0.0250193 2.91268L0.431284 3.63327C0.458695 3.68207 0.505938 3.71663 0.560818 3.72803C0.615707 3.73989 0.673047 3.72715 0.717701 3.69316L1.67135 2.97731L1.52472 4.15599C1.51788 4.21119 1.53509 4.26667 1.572 4.30835C1.6089 4.35003 1.66195 4.37392 1.71769 4.37395L2.55264 4.37395C2.60838 4.37392 2.66143 4.35003 2.69833 4.30835C2.73524 4.26667 2.75245 4.21119 2.74561 4.15599L2.60012 2.98546L3.51692 3.69183C3.56101 3.72578 3.61756 3.73923 3.67225 3.7288C3.72695 3.71836 3.77453 3.68503 3.80296 3.63725L4.23183 2.91666C4.26071 2.86827 4.26709 2.80975 4.24929 2.7563C4.2315 2.70285 4.1913 2.65976 4.13914 2.63824L3.04893 2.18697L4.13914 1.73571C4.19056 1.71444 4.23038 1.67222 4.24854 1.61971L4.24854 1.61971Z" transform="translate(118.8151 129.8461)" id="Path" fill="#FF9AA2" stroke="none" />
      <path d="M4.24853 1.61971C4.26663 1.56727 4.26137 1.5096 4.23409 1.46127L3.82783 0.740679C3.80041 0.691961 3.75326 0.657419 3.69846 0.64591C3.64367 0.634401 3.58657 0.647044 3.54179 0.680599L2.59935 1.38584L2.7456 0.218147C2.75258 0.1629 2.73542 0.107323 2.69849 0.065576C2.66157 0.0238288 2.60843 -5.83379e-05 2.55263 1.06998e-07L1.71769 1.06998e-07C1.66189 -5.83379e-05 1.60875 0.0238288 1.57182 0.065576C1.53489 0.107323 1.51774 0.1629 1.52472 0.218147L1.67059 1.38242L0.729477 0.669984C0.685217 0.636437 0.628685 0.623397 0.574161 0.634155C0.519637 0.644914 0.472334 0.678443 0.444199 0.726275L0.0267283 1.43549C-0.00144388 1.48347 -0.00767665 1.54118 0.00960639 1.59404C0.0268894 1.64691 0.0660331 1.68985 0.117137 1.71201L1.20962 2.18375L0.119416 2.63843C0.0682151 2.65983 0.0286148 2.70204 0.0105824 2.75443C-0.00744998 2.80682 -0.00219697 2.8644 0.0250192 2.91268L0.431283 3.63327C0.45877 3.68203 0.506008 3.71657 0.560877 3.72805C0.615747 3.73952 0.672909 3.7268 0.7177 3.69316L1.67135 2.97731L1.52472 4.15599C1.51788 4.21119 1.53509 4.26667 1.572 4.30835C1.6089 4.35003 1.66195 4.37392 1.71769 4.37395L2.55263 4.37395C2.60837 4.37392 2.66142 4.35003 2.69833 4.30835C2.73523 4.26667 2.75245 4.21119 2.7456 4.15599L2.60011 2.98546L3.51691 3.69183C3.561 3.72578 3.61756 3.73923 3.67225 3.7288C3.72694 3.71836 3.77453 3.68503 3.80295 3.63725L4.23182 2.91666C4.2607 2.86827 4.26708 2.80975 4.24928 2.7563C4.23149 2.70285 4.19129 2.65976 4.13913 2.63824L3.04892 2.18697L4.13913 1.73571C4.19055 1.71444 4.23037 1.67222 4.24853 1.61971L4.24853 1.61971Z" transform="translate(125.0644 129.8461)" id="Path" fill="#FF9AA2" stroke="none" />
      <path d="M4.24854 1.61971C4.26664 1.56727 4.26139 1.5096 4.2341 1.46127L3.82784 0.740679C3.80042 0.691961 3.75327 0.657419 3.69847 0.64591C3.64368 0.634401 3.58658 0.647044 3.5418 0.680599L2.59936 1.38584L2.74561 0.218147C2.75259 0.1629 2.73543 0.107323 2.6985 0.065576C2.66157 0.0238288 2.60844 -5.83379e-05 2.55264 1.06998e-07L1.71769 1.06998e-07C1.66189 -5.83379e-05 1.60876 0.0238288 1.57183 0.065576C1.5349 0.107323 1.51774 0.1629 1.52472 0.218147L1.67059 1.38242L0.729478 0.669984C0.685218 0.636437 0.628686 0.623397 0.574162 0.634155C0.519638 0.644914 0.472335 0.678443 0.4442 0.726275L0.0267283 1.43549C-0.00144388 1.48347 -0.00767666 1.54118 0.00960641 1.59404C0.0268895 1.64691 0.0660332 1.68985 0.117137 1.71201L1.20962 2.18375L0.119416 2.63843C0.0682153 2.65983 0.0286149 2.70204 0.0105824 2.75443C-0.00745 2.80682 -0.00219698 2.8644 0.0250193 2.91268L0.431284 3.63327C0.458771 3.68203 0.506009 3.71657 0.560878 3.72805C0.615748 3.73952 0.672911 3.7268 0.717701 3.69316L1.67135 2.97731L1.52472 4.15599C1.51788 4.21119 1.53509 4.26667 1.572 4.30835C1.6089 4.35003 1.66195 4.37392 1.71769 4.37395L2.55264 4.37395C2.60838 4.37392 2.66143 4.35003 2.69833 4.30835C2.73524 4.26667 2.75245 4.21119 2.74561 4.15599L2.60012 2.98546L3.51692 3.69183C3.56101 3.72578 3.61756 3.73923 3.67226 3.7288C3.72695 3.71836 3.77453 3.68503 3.80296 3.63725L4.23183 2.91666C4.26071 2.86827 4.26709 2.80975 4.24929 2.7563C4.2315 2.70285 4.1913 2.65976 4.13914 2.63824L3.04893 2.18697L4.13914 1.73571C4.19056 1.71445 4.23039 1.67222 4.24854 1.61971Z" transform="translate(131.3139 129.8461)" id="Path" fill="#FF9AA2" stroke="none" />
    </g>
    <path d="M0 0L3 0L3 2L0 2L0 0Z" transform="translate(62 68)" id="Rectangle" fill="none" stroke="none" />
    <path d="M4.25783e-06 5.34423L0.94458 5.34423C1.4598 5.34424 1.87746 5.72903 1.87747 6.20369L1.87747 7.94413C1.87685 8.21341 1.73862 8.46669 1.50438 8.62775L1.69216 8.80075C1.83057 8.92833 2.01833 9 2.21411 9C2.40989 9 2.59765 8.92833 2.73605 8.80075L7.11489 4.76724C8.29631 3.67549 8.29485 1.90853 7.11162 0.818446C5.9284 -0.271638 4.01047 -0.272986 2.82544 0.815433L2.2141 1.37834L1.60348 0.815768C1.16755 0.41342 0.607671 0.144561 0 0.0457686L0 5.34424L4.25783e-06 5.34423Z" transform="translate(61 52)" id="Path" fill="none" stroke="none" />
    <path d="M0 0L8 0L8 2L0 2L0 0Z" transform="translate(38 58)" id="Rectangle" fill="none" stroke="none" />
    <path d="M0 0L3 0L3 2L0 2L0 0Z" transform="translate(62 68)" id="Rectangle" fill="none" stroke="none" />
    <path d="M8.85536 0.00254345C8.02168 -0.000170612 7.22137 0.2934 6.63258 0.817909L5.99899 1.38062L5.36615 0.818244C4.13864 -0.272688 2.14837 -0.272757 0.920757 0.818091C-0.306852 1.90894 -0.306929 3.67762 0.920585 4.76856L5.45805 8.80081C5.60149 8.92835 5.79608 9 5.99899 9C6.20189 9 6.39648 8.92835 6.53992 8.80081L11.0781 4.76856C11.978 3.9703 12.2474 2.76865 11.7606 1.72485C11.2738 0.681057 10.1268 0.00109392 8.85536 0.00254933L8.85536 0.00254345Z" transform="translate(36 39)" id="Path" fill="none" stroke="none" />
    <path d="M9.43653 17.5994L9.62628 17.7856C9.76613 17.9229 9.95585 18 10.1537 18C10.3515 18 10.5412 17.9229 10.6811 17.7856L15.1056 13.4445C16.2994 12.2695 16.2979 10.3678 15.1023 9.19457C13.9068 8.02136 11.9688 8.01991 10.7714 9.19133L10.1537 9.79715L9.53667 9.19169C9.09619 8.75866 8.53046 8.4693 7.91645 8.36297L7.91645 0L1.16162 0C0.520847 0.00185488 0.00187245 0.511132 0 1.13991L0 17.7886L8.87089 17.7886C9.07547 17.788 9.27419 17.7215 9.43653 17.5994L9.43653 17.5994Z" transform="translate(54 43)" id="Path" fill="none" stroke="none" />
    <path d="M0 0L8 0L8 2L0 2L0 0Z" transform="translate(38 58)" id="Rectangle" fill="none" stroke="none" />
    <path d="M0 0L3 0L3 2L0 2L0 0Z" transform="translate(62 68)" id="Rectangle" fill="none" stroke="none" />
    <path d="M35.3487 13.4437L42 13.4437L42 1.83324C42 1.34703 41.8036 0.880735 41.4541 0.536934C41.1045 0.193133 40.6305 -8.28835e-06 40.1361 0L3.73256 0C2.70279 5.75288e-06 1.868 0.821066 1.86799 1.8339L1.86799 27.3255L0.928183 27.3255C0.415564 27.3255 7.01882e-06 27.7342 0 28.2384L0 30.0871C7.01882e-06 30.5913 0.415564 31 0.928183 31L34.2049 31L34.2049 14.5687C34.2068 13.9481 34.7178 13.4455 35.3487 13.4437ZM22.4529 18.5058L26.8097 14.2215C27.9867 13.0621 27.986 11.184 26.8081 10.0254C25.6302 8.86693 23.7207 8.8662 22.5419 10.0238L21.9336 10.6217L21.3261 10.0242C20.1477 8.86505 18.237 8.86497 17.0585 10.024C15.8799 11.1831 15.8799 13.0623 17.0583 14.2215L21.4143 18.5058C21.552 18.6413 21.7388 18.7175 21.9336 18.7175C22.1284 18.7175 22.3152 18.6413 22.4529 18.5058ZM25.67 29.1627L18.198 29.1627L18.198 27.3255L25.67 27.3255L25.67 29.1627Z" transform="translate(20 30)" id="Shape" fill="#FF9AA2" fill-rule="evenodd" stroke="none" />
    <path d="M7.77028 0L18.8598 0C19.4888 0.00184315 19.9982 0.508527 20 1.1341L20 28.8659C19.9982 29.4915 19.4888 29.9982 18.8598 30L1.14017 30C0.51123 29.9982 0.00183788 29.4915 0 28.8659L0 17.698L8.7071 17.698C8.9079 17.6974 9.10295 17.6312 9.2623 17.5097L9.44855 17.6949C9.58581 17.8315 9.77203 17.9083 9.9662 17.9083C10.1604 17.9083 10.3466 17.8315 10.4839 17.6949L14.8267 13.376C16.0015 12.2075 16.0015 10.313 14.8267 9.14449C13.652 7.976 11.7473 7.976 10.5725 9.14449L9.9662 9.74723L9.36059 9.14485C8.92824 8.71402 8.37296 8.42614 7.77028 8.32035L7.77028 0ZM8.10451 26.9628L11.8286 26.9628L11.8286 25.1107L8.10451 25.1107L8.10451 26.9628Z" transform="translate(54 44)" id="Shape" fill="#FF9AA2" fill-rule="evenodd" stroke="none" />
    <path d="M9 17.8085L4.96176 13.6042C4.12503 12.7347 3.8745 11.4256 4.32716 10.2885C4.77983 9.15146 5.84637 8.41074 7.02864 8.41235C7.20358 8.41298 7.37813 8.42972 7.55024 8.46236L7.55024 0L1.10789 0C0.496753 0.00187692 0.00178583 0.517206 0 1.15346L0 18L8.46053 18C8.65564 17.9994 8.84517 17.9321 9 17.8085L9 17.8085Z" transform="translate(54 43)" id="Path" fill="#FF9AA2" stroke="none" />
    <path d="M13.3665 10.2582L13.3665 5.16032C12.2869 4.57635 11.0802 4.26692 9.85284 4.25929C6.88025 4.25929 5.09239 6.32714 5.09239 9.74652C5.09239 12.3872 6.29869 14.3115 8.83409 14.3115C10.3723 14.3115 11.329 13.4104 11.8283 12.3061C12.0361 13.2682 12.8875 14.3939 14.5512 14.3939C17.3363 14.3939 19 11.6908 19 8.06673C19 3.84997 15.7157 0 9.83261 0C4.09523 0 0 4.03336 0 9.5618C0 15.3148 3.90768 19 9.83261 19C11.4711 18.9943 13.0962 18.7034 14.6349 18.1402L13.9063 16.0936C12.6032 16.5517 11.234 16.7937 9.85285 16.8099C5.21788 16.8099 2.72296 13.9433 2.72296 9.54186C2.72296 5.22144 5.32178 2.17018 9.83261 2.17018C14.1977 2.17018 16.2973 4.46394 16.2973 8.10793C16.2973 11.4051 15.5484 12.5107 14.4473 12.5107C13.6985 12.5107 13.3665 11.9778 13.3665 10.2582ZM10.8514 6.34708L10.8514 11.2203C10.622 11.7532 10.1443 12.4483 9.20922 12.4483C8.23095 12.4483 7.77352 11.6709 7.77352 9.74653C7.77352 7.12584 8.52241 6.12248 9.76919 6.12248C10.1418 6.11927 10.5108 6.19585 10.8514 6.34708Z" transform="translate(63 107)" id="Shape" fill="#FF9AA2" fill-rule="evenodd" stroke="none" />
    <path d="M79 1.20195C79 1.86575 78.486 2.40386 77.852 2.4039C76.9234 2.4039 76.5086 2.79682 75.8808 3.39134C75.1241 4.10822 74.1823 5 72.3695 5C70.5567 5 69.6146 4.10793 68.8579 3.39134C68.2301 2.79682 67.8153 2.4039 66.887 2.4039C65.9595 2.4039 65.5453 2.79652 64.9181 3.39104C64.1616 4.10793 63.2201 5 61.4081 5C59.5956 5 58.6541 4.10793 57.8977 3.39134C57.2701 2.79682 56.8553 2.4039 55.9276 2.4039C55.0002 2.4039 54.5859 2.79652 53.9587 3.39104C53.2022 4.10793 52.261 5 50.449 5C48.637 5 47.6959 4.10793 46.9397 3.39104C46.3127 2.79652 45.8985 2.4039 44.9716 2.4039C44.0447 2.4039 43.6305 2.79652 43.0035 3.39104C42.2473 4.10793 41.3064 5 39.4947 5C37.6824 5 36.7412 4.10793 35.9848 3.39104C35.3575 2.79652 34.9433 2.4039 34.0161 2.4039C33.089 2.4039 32.6747 2.79652 32.0474 3.39104C31.2913 4.10793 30.3498 5 28.5381 5C26.7258 5 25.7844 4.10793 25.0279 3.39104C24.4006 2.79652 23.9861 2.4039 23.059 2.4039C22.1321 2.4039 21.7178 2.79652 21.0906 3.39104C20.3344 4.10793 19.3929 5 17.5809 5C15.769 5 14.8278 4.10793 14.0716 3.39104C13.4446 2.79652 13.0304 2.4039 12.1035 2.4039C11.1766 2.4039 10.7624 2.79652 10.1354 3.39104C9.37919 4.10793 8.43802 5 6.62603 5C4.81404 5 3.87287 4.10793 3.11668 3.39104C2.48942 2.79652 2.07517 2.4039 1.14801 2.4039C0.513984 2.4039 0 1.86577 0 1.20195C0 0.538131 0.513984 1.25133e-14 1.14801 1.25133e-14C2.96001 1.25133e-14 3.90146 0.89207 4.65764 1.60896C5.2849 2.20347 5.69915 2.5961 6.62603 2.5961C7.5529 2.5961 7.96743 2.20347 8.59441 1.60896C9.3506 0.89207 10.2918 0 12.1035 0C13.9152 0 14.8564 0.89207 15.6126 1.60896C16.2395 2.20347 16.6541 2.5961 17.5809 2.5961C18.5081 2.5961 18.9223 2.20347 19.5496 1.60896C20.3058 0.89207 21.247 0 23.059 0C24.8709 0 25.8124 0.89207 26.5689 1.60896C27.1961 2.20347 27.6107 2.5961 28.5381 2.5961C29.465 2.5961 29.8792 2.20347 30.5065 1.60896C31.2627 0.89207 32.2041 0 34.0161 0C35.8281 0 36.7693 0.89207 37.5257 1.60896C38.153 2.20347 38.5672 2.5961 39.4947 2.5961C40.4213 2.5961 40.8355 2.20347 41.4625 1.60896C42.2187 0.89207 43.1599 0 44.9716 0C46.7833 0 47.7244 0.89207 48.4806 1.60896C49.1079 2.20347 49.5221 2.5961 50.449 2.5961C51.3762 2.5961 51.7904 2.20347 52.4177 1.60896C53.1742 0.89207 54.1153 0 55.9276 0C57.7402 0 58.6816 0.89207 59.4381 1.60866C60.0656 2.20318 60.4804 2.5961 61.4081 2.5961C62.3356 2.5961 62.7498 2.20347 63.3771 1.60896C64.1336 0.89207 65.075 0 66.887 0C68.6998 0 69.6416 0.89177 70.3983 1.60866C71.0261 2.20318 71.4409 2.5961 72.3695 2.5961C73.2978 2.5961 73.7126 2.20318 74.3404 1.60866C75.0971 0.89207 76.0392 0 77.852 0C78.486 3.52545e-05 79 0.53815 79 1.20195Z" transform="translate(17 78)" id="Path" fill="#FF9AA2" stroke="none" />
    <path d="M31.4149 13L4.58512 13C2.05592 12.9928 0.00741651 10.9952 0 8.52877L0 4.47126C0.00740021 2.00483 2.05591 0.007196 4.58512 0L31.4149 0C33.9441 0.007196 35.9926 2.00483 36 4.47126L36 8.52877C35.9926 10.9952 33.9441 12.9928 31.4149 13ZM6.88088 5.73021C6.90386 5.79885 6.95588 5.8546 7.02379 5.88336L8.47519 6.49584L7.02673 7.08618C6.9587 7.11396 6.90609 7.16876 6.88213 7.23678C6.85818 7.30481 6.86517 7.37957 6.90134 7.44224L7.44106 8.37781C7.47751 8.44114 7.54027 8.48601 7.61317 8.50085C7.68612 8.51623 7.76231 8.49967 7.82166 8.45555L9.08861 7.52613L8.8938 9.05647C8.88469 9.12814 8.90756 9.20018 8.95659 9.2543C9.00563 9.30843 9.07612 9.33943 9.15018 9.33946L10.2595 9.33946C10.3335 9.33944 10.404 9.30843 10.4531 9.2543C10.5021 9.20018 10.525 9.12814 10.5158 9.05647L10.3225 7.53673L11.5406 8.45384C11.5991 8.49792 11.6743 8.51539 11.7469 8.50184C11.8196 8.48828 11.8828 8.445 11.9205 8.38297L12.4904 7.4474C12.5287 7.38457 12.5372 7.30859 12.5135 7.23921C12.4899 7.16983 12.4365 7.11388 12.3672 7.08591L10.9188 6.5L12.3672 5.91413C12.4355 5.88656 12.4884 5.83178 12.5125 5.76365C12.5367 5.69552 12.5297 5.62058 12.4934 5.5578L11.9537 4.62224C11.9172 4.55899 11.8546 4.51415 11.7818 4.4992C11.709 4.48426 11.6331 4.50068 11.5736 4.54424L10.3215 5.45987L10.5159 3.94381C10.5251 3.87209 10.5023 3.79996 10.4532 3.74576C10.4042 3.69157 10.3336 3.66056 10.2595 3.6606L9.15019 3.6606C9.07605 3.66052 9.00546 3.69153 8.95639 3.74573C8.90733 3.79993 8.88453 3.87208 8.89381 3.94381L9.08761 5.45543L7.83722 4.53048C7.77842 4.48693 7.70333 4.47001 7.6309 4.48397C7.55847 4.49794 7.49563 4.54147 7.45826 4.60356L6.90361 5.52434C6.86618 5.58663 6.8579 5.66158 6.88088 5.73021ZM15.3263 5.88336C15.2584 5.85458 15.2064 5.79882 15.1835 5.73018C15.1606 5.66155 15.1689 5.58661 15.2063 5.52434L15.7609 4.60356C15.7983 4.54145 15.8611 4.49792 15.9336 4.48395C16.006 4.46998 16.0811 4.48692 16.1399 4.53048L17.3902 5.45543L17.1964 3.94381C17.1872 3.87208 17.21 3.79993 17.259 3.74573C17.3081 3.69153 17.3787 3.66052 17.4528 3.6606L18.562 3.6606C18.6362 3.66049 18.7068 3.69149 18.7559 3.7457C18.8049 3.7999 18.8277 3.87208 18.8184 3.94381L18.6241 5.45987L19.8762 4.54424C19.9357 4.50067 20.0116 4.48425 20.0844 4.4992C20.1572 4.51414 20.2198 4.55899 20.2562 4.62224L20.796 5.5578C20.8323 5.62059 20.8392 5.69552 20.8151 5.76363C20.791 5.83174 20.7381 5.88653 20.6699 5.91413L19.2214 6.5L20.6699 7.08591C20.7392 7.11385 20.7926 7.16979 20.8162 7.23919C20.8399 7.30859 20.8314 7.38458 20.793 7.4474L20.2233 8.38297C20.1855 8.445 20.1223 8.48827 20.0496 8.50183C19.9769 8.51538 19.9018 8.49791 19.8432 8.45384L18.6252 7.53673L18.8184 9.05647C18.8275 9.12814 18.8046 9.20018 18.7556 9.2543C18.7066 9.30843 18.6361 9.33943 18.562 9.33946L17.4528 9.33946C17.3788 9.33944 17.3083 9.30843 17.2592 9.2543C17.2102 9.20018 17.1873 9.12814 17.1964 9.05647L17.3912 7.52613L16.1242 8.45555C16.0649 8.49968 15.9887 8.51624 15.9158 8.50085C15.8429 8.48603 15.7802 8.44116 15.7438 8.37781L15.204 7.44224C15.1678 7.37955 15.1609 7.30479 15.1849 7.23678C15.2088 7.16877 15.2614 7.11397 15.3294 7.08618L16.7778 6.49584L15.3263 5.88336ZM23.4861 5.73021C23.5091 5.79885 23.5611 5.8546 23.629 5.88336L25.0804 6.49584L23.632 7.08618C23.564 7.11396 23.5114 7.16876 23.4874 7.23678C23.4634 7.30481 23.4704 7.37957 23.5066 7.44224L24.0463 8.37781C24.0829 8.44112 24.1456 8.48598 24.2185 8.50087C24.2915 8.51576 24.3674 8.49924 24.4269 8.45555L25.6939 7.52613L25.4991 9.05647C25.49 9.12814 25.5128 9.20018 25.5619 9.2543C25.6109 9.30843 25.6814 9.33944 25.7554 9.33946L26.8647 9.33946C26.9388 9.3394 27.0093 9.30838 27.0583 9.25427C27.1073 9.20015 27.1302 9.12814 27.1211 9.05647L26.9278 7.53673L28.1458 8.45384C28.2044 8.49792 28.2795 8.51539 28.3522 8.50184C28.4248 8.48828 28.4881 8.445 28.5258 8.38297L29.0956 7.4474C29.134 7.38457 29.1424 7.30859 29.1188 7.23921C29.0951 7.16983 29.0418 7.11388 28.9725 7.08591L27.5241 6.5L28.9725 5.91413C29.0408 5.88656 29.0937 5.83178 29.1178 5.76365C29.1419 5.69552 29.135 5.62058 29.0987 5.5578L28.5589 4.62224C28.5225 4.55899 28.4598 4.51415 28.387 4.4992C28.3142 4.48426 28.2384 4.50068 28.1789 4.54424L26.9268 5.45987L27.1211 3.94381C27.1304 3.87209 27.1075 3.79996 27.0585 3.74577C27.0094 3.69158 26.9389 3.66056 26.8647 3.6606L25.7554 3.6606C25.6813 3.66052 25.6107 3.69153 25.5617 3.74573C25.5126 3.79993 25.4898 3.87208 25.4991 3.94381L25.6929 5.45543L24.4425 4.53048C24.3837 4.48693 24.3086 4.47001 24.2362 4.48397C24.1637 4.49794 24.1009 4.54147 24.0635 4.60356L23.5089 5.52434C23.4714 5.58663 23.4632 5.66158 23.4861 5.73021Z" transform="translate(86 58)" id="Shape" fill="#FF9AA2" fill-opacity="0.3" fill-rule="evenodd" stroke="none" />
    <path d="M4.58512 0L31.4149 0C33.9441 0.00719713 35.9926 2.00484 36 4.47126L36 8.52877C35.9926 10.9952 33.9441 12.9928 31.4149 13L4.58512 13C2.05592 12.9928 0.00741768 10.9952 0 8.52877L0 4.47126C0.00740021 2.00483 2.05591 0.007196 4.58512 0ZM20.6699 7.08591C20.7392 7.11384 20.7926 7.16978 20.8162 7.23918C20.8399 7.30858 20.8314 7.38458 20.793 7.44739L20.2233 8.38296C20.1855 8.445 20.1223 8.48827 20.0496 8.50182C19.9769 8.51537 19.9018 8.4979 19.8432 8.45384L18.6252 7.53673L18.8184 9.05647C18.8275 9.12814 18.8047 9.20018 18.7556 9.2543C18.7066 9.30842 18.6361 9.33943 18.562 9.33945L17.4528 9.33945C17.3788 9.33943 17.3083 9.30842 17.2592 9.2543C17.2102 9.20018 17.1873 9.12814 17.1964 9.05647L17.3912 7.52612L16.1242 8.45555C16.0649 8.49968 15.9887 8.51623 15.9158 8.50084C15.8429 8.48602 15.7802 8.44115 15.7438 8.37781L15.204 7.44224C15.1678 7.37955 15.1609 7.30479 15.1849 7.23678C15.2088 7.16877 15.2614 7.11397 15.3294 7.08618L16.7778 6.49583L15.3263 5.88335C15.2584 5.85458 15.2064 5.79881 15.1835 5.73018C15.1605 5.66154 15.1689 5.5866 15.2063 5.52433L15.7609 4.60355C15.7983 4.54144 15.8611 4.49791 15.9336 4.48394C16.006 4.46998 16.0811 4.48691 16.1399 4.53047L17.3902 5.45543L17.1964 3.9438C17.1872 3.87208 17.21 3.79992 17.259 3.74572C17.3081 3.69152 17.3787 3.66052 17.4528 3.6606L18.562 3.6606C18.6362 3.66048 18.7068 3.69148 18.7559 3.74569C18.8049 3.79989 18.8277 3.87207 18.8184 3.9438L18.6241 5.45986L19.8762 4.54423C19.9357 4.50066 20.0116 4.48425 20.0844 4.49919C20.1572 4.51413 20.2198 4.55898 20.2562 4.62223L20.796 5.5578C20.8323 5.62059 20.8392 5.69552 20.8151 5.76363C20.791 5.83175 20.7381 5.88653 20.6698 5.91414L19.2214 6.50001L20.6699 7.08591ZM12.5135 7.23921C12.4899 7.16982 12.4365 7.11388 12.3672 7.08591L10.9188 6.50001L12.3672 5.91414C12.4355 5.88657 12.4884 5.83179 12.5125 5.76366C12.5367 5.69553 12.5297 5.62059 12.4934 5.5578L11.9537 4.62223C11.9172 4.55898 11.8546 4.51414 11.7818 4.4992C11.709 4.48426 11.6331 4.50067 11.5736 4.54423L10.3215 5.45986L10.5159 3.9438C10.5251 3.87208 10.5023 3.79995 10.4532 3.74576C10.4042 3.69157 10.3336 3.66055 10.2595 3.6606L9.15019 3.6606C9.07606 3.66052 9.00547 3.69152 8.9564 3.74572C8.90734 3.79992 8.88454 3.87208 8.89382 3.9438L9.08762 5.45543L7.83723 4.53047C7.77843 4.48693 7.70334 4.47 7.63091 4.48397C7.55848 4.49793 7.49564 4.54146 7.45827 4.60355L6.90362 5.52433C6.86619 5.58663 6.85791 5.66157 6.88089 5.73021C6.90387 5.79884 6.95589 5.85459 7.0238 5.88335L8.47521 6.49583L7.02675 7.08618C6.95872 7.11396 6.90611 7.16876 6.88215 7.23678C6.8582 7.3048 6.86519 7.37957 6.90136 7.44224L7.44109 8.37781C7.47753 8.44114 7.54029 8.48601 7.6132 8.50084C7.68614 8.51622 7.76233 8.49967 7.82168 8.45555L9.08863 7.52612L8.89382 9.05647C8.88471 9.12814 8.90758 9.20018 8.95661 9.2543C9.00565 9.30842 9.07614 9.33943 9.1502 9.33945L10.2595 9.33945C10.3336 9.33943 10.404 9.30842 10.4531 9.2543C10.5021 9.20018 10.525 9.12814 10.5159 9.05647L10.3225 7.53673L11.5406 8.45384C11.5992 8.49791 11.6743 8.51539 11.7469 8.50183C11.8196 8.48828 11.8828 8.445 11.9206 8.38296L12.4904 7.44739C12.5287 7.38457 12.5372 7.30859 12.5135 7.23921ZM29.1188 7.23921C29.0951 7.16982 29.0417 7.11388 28.9725 7.08591L27.5241 6.50001L28.9725 5.91414C29.0408 5.88657 29.0937 5.83179 29.1178 5.76366C29.1419 5.69553 29.1349 5.62059 29.0986 5.5578L28.5589 4.62223C28.5225 4.55898 28.4598 4.51414 28.387 4.4992C28.3142 4.48426 28.2384 4.50067 28.1789 4.54423L26.9268 5.45986L27.1211 3.9438C27.1304 3.87208 27.1075 3.79995 27.0585 3.74576C27.0094 3.69157 26.9389 3.66055 26.8647 3.6606L25.7554 3.6606C25.6813 3.66052 25.6107 3.69152 25.5616 3.74572C25.5126 3.79992 25.4898 3.87208 25.4991 3.9438L25.6929 5.45543L24.4425 4.53047C24.3837 4.48693 24.3086 4.47 24.2362 4.48397C24.1637 4.49793 24.1009 4.54146 24.0635 4.60355L23.5089 5.52433C23.4714 5.58663 23.4632 5.66157 23.4861 5.73021C23.5091 5.79884 23.5611 5.85459 23.629 5.88335L25.0804 6.49583L23.632 7.08618C23.564 7.11396 23.5114 7.16876 23.4874 7.23678C23.4634 7.3048 23.4704 7.37957 23.5066 7.44224L24.0463 8.37781C24.0829 8.44112 24.1456 8.48597 24.2185 8.50086C24.2915 8.51576 24.3674 8.49924 24.4269 8.45555L25.6939 7.52612L25.4991 9.05647C25.49 9.12814 25.5128 9.20018 25.5619 9.2543C25.6109 9.30843 25.6814 9.33943 25.7554 9.33945L26.8647 9.33945C26.9388 9.3394 27.0093 9.30838 27.0583 9.25426C27.1073 9.20015 27.1302 9.12813 27.1211 9.05647L26.9278 7.53673L28.1458 8.45384C28.2044 8.49791 28.2795 8.51538 28.3522 8.50183C28.4248 8.48828 28.4881 8.445 28.5258 8.38296L29.0956 7.44739C29.134 7.38457 29.1424 7.30859 29.1188 7.23921Z" transform="translate(100 74)" id="Shape" fill="#FF9AA2" fill-rule="evenodd" stroke="none" />
    <path d="M4.58512 0L31.4149 0C33.9441 0.00719486 35.9926 2.00483 36 4.47126L36 8.52878C35.9926 10.9952 33.9441 12.9928 31.4149 13L4.58512 13C2.05592 12.9928 0.00741767 10.9952 0 8.52878L0 4.47126C0.00740022 2.00483 2.05591 0.00719486 4.58512 0ZM12.5135 7.2392C12.4899 7.16982 12.4365 7.11387 12.3672 7.08591L10.9188 6.49998L12.3672 5.91411C12.4355 5.88655 12.4884 5.83176 12.5125 5.76363C12.5366 5.69551 12.5297 5.62056 12.4934 5.55778L11.9537 4.62222C11.9172 4.55897 11.8546 4.51413 11.7818 4.49919C11.709 4.48425 11.6331 4.50066 11.5736 4.54422L10.3215 5.45985L10.5158 3.94379C10.5251 3.87207 10.5023 3.79994 10.4532 3.74575C10.4042 3.69156 10.3336 3.66054 10.2595 3.66059L9.15017 3.66059C9.07604 3.6605 9.00544 3.69151 8.95638 3.74571C8.90732 3.79991 8.88452 3.87207 8.8938 3.94379L9.0876 5.45541L7.83721 4.53046C7.77841 4.48692 7.70332 4.46999 7.63089 4.48396C7.55846 4.49792 7.49562 4.54145 7.45825 4.60354L6.9036 5.52432C6.86617 5.58661 6.85789 5.66156 6.88087 5.7302C6.90384 5.79883 6.95587 5.85458 7.02378 5.88334L8.47519 6.49582L7.02673 7.08616C6.95871 7.11394 6.90609 7.16874 6.88214 7.23677C6.85818 7.30479 6.86517 7.37955 6.90134 7.44223L7.44107 8.37779C7.47751 8.44113 7.54027 8.48599 7.61318 8.50083C7.68612 8.51621 7.76231 8.49966 7.82166 8.45553L9.08861 7.52611L8.8938 9.05645C8.8847 9.12812 8.90756 9.20016 8.95659 9.25429C9.00563 9.30841 9.07612 9.33942 9.15018 9.33944L10.2595 9.33944C10.3335 9.33942 10.404 9.30841 10.4531 9.25429C10.5021 9.20016 10.525 9.12812 10.5158 9.05645L10.3225 7.53672L11.5406 8.45383C11.5991 8.4979 11.6743 8.51537 11.7469 8.50182C11.8196 8.48827 11.8828 8.44498 11.9205 8.38295L12.4904 7.44739C12.5287 7.38456 12.5372 7.30859 12.5135 7.2392ZM20.6699 7.08591C20.7392 7.11384 20.7926 7.16978 20.8162 7.23918C20.8399 7.30858 20.8314 7.38457 20.793 7.44739L20.2233 8.38295C20.1855 8.44498 20.1223 8.48826 20.0496 8.50181C19.9769 8.51536 19.9018 8.49789 19.8432 8.45383L18.6252 7.53672L18.8184 9.05645C18.8275 9.12813 18.8046 9.20016 18.7556 9.25429C18.7066 9.30841 18.6361 9.33942 18.562 9.33944L17.4528 9.33944C17.3788 9.33942 17.3083 9.30841 17.2592 9.25429C17.2102 9.20016 17.1873 9.12813 17.1964 9.05645L17.3912 7.52611L16.1242 8.45553C16.0649 8.49966 15.9887 8.51622 15.9158 8.50083C15.8429 8.48601 15.7802 8.44114 15.7438 8.37779L15.204 7.44223C15.1678 7.37953 15.1609 7.30478 15.1849 7.23676C15.2088 7.16875 15.2614 7.11396 15.3294 7.08616L16.7778 6.49582L15.3263 5.88334C15.2584 5.85456 15.2064 5.7988 15.1835 5.73016C15.1606 5.66153 15.1689 5.58659 15.2063 5.52432L15.7609 4.60354C15.7983 4.54143 15.8611 4.4979 15.9336 4.48393C16.006 4.46997 16.0811 4.4869 16.1399 4.53046L17.3902 5.45541L17.1964 3.94379C17.1872 3.87207 17.21 3.79991 17.259 3.74571C17.3081 3.69151 17.3787 3.6605 17.4528 3.66059L18.562 3.66059C18.6362 3.66047 18.7068 3.69147 18.7559 3.74568C18.8049 3.79988 18.8277 3.87206 18.8184 3.94379L18.6241 5.45985L19.8762 4.54422C19.9357 4.50065 20.0116 4.48424 20.0844 4.49918C20.1572 4.51412 20.2198 4.55897 20.2562 4.62222L20.796 5.55778C20.8323 5.62057 20.8392 5.6955 20.8151 5.76361C20.791 5.83173 20.7381 5.88651 20.6698 5.91411L19.2214 6.49998L20.6699 7.08591ZM29.1188 7.2392C29.0951 7.16982 29.0418 7.11388 28.9725 7.08591L27.5241 6.49998L28.9725 5.91411C29.0408 5.88655 29.0937 5.83176 29.1178 5.76363C29.1419 5.69551 29.1349 5.62056 29.0986 5.55778L28.5589 4.62222C28.5225 4.55897 28.4598 4.51413 28.387 4.49919C28.3142 4.48424 28.2384 4.50066 28.1789 4.54422L26.9268 5.45985L27.1211 3.94379C27.1304 3.87207 27.1075 3.79994 27.0585 3.74575C27.0094 3.69156 26.9389 3.66054 26.8647 3.66059L25.7554 3.66059C25.6813 3.6605 25.6107 3.69151 25.5616 3.74571C25.5126 3.79991 25.4898 3.87207 25.4991 3.94379L25.6929 5.45541L24.4425 4.53046C24.3837 4.48692 24.3086 4.46999 24.2362 4.48396C24.1637 4.49792 24.1009 4.54145 24.0635 4.60354L23.5089 5.52432C23.4714 5.58662 23.4632 5.66156 23.4861 5.73019C23.5091 5.79883 23.5611 5.85458 23.629 5.88334L25.0804 6.49582L23.632 7.08616C23.564 7.11394 23.5114 7.16874 23.4874 7.23677C23.4634 7.30479 23.4704 7.37955 23.5066 7.44223L24.0463 8.37779C24.0829 8.4411 24.1456 8.48596 24.2185 8.50085C24.2915 8.51574 24.3674 8.49923 24.4269 8.45553L25.6939 7.52611L25.4991 9.05645C25.49 9.12812 25.5128 9.20016 25.5619 9.25429C25.6109 9.30841 25.6814 9.33942 25.7554 9.33944L26.8647 9.33944C26.9388 9.33938 27.0093 9.30836 27.0583 9.25425C27.1073 9.20013 27.1302 9.12812 27.1211 9.05645L26.9278 7.53672L28.1458 8.45383C28.2044 8.4979 28.2795 8.51537 28.3522 8.50182C28.4248 8.48827 28.4881 8.44498 28.5258 8.38295L29.0956 7.44739C29.134 7.38456 29.1424 7.30859 29.1188 7.2392Z" transform="translate(76 90)" id="Shape" fill="#FF9AA2" fill-rule="evenodd" stroke="none" />
  </g>
</svg>