<?xml version="1.0" encoding="utf-8"?>
<svg width="302px" height="249px" viewBox="0 0 302 249" version="1.1" xmlns:xlink="http://www.w3.org/1999/xlink" xmlns="http://www.w3.org/2000/svg">
  <desc>Created with Lunacy</desc>
  <g id="Header-2-copy">
    <g id="Group">
      <path d="M66.5369 26.7758C66.5368 33.1243 61.3996 38.2778 55.0462 38.3029L8.85749 38.3029C5.44167 38.3178 2.32443 36.3603 0.856247 33.2785C-0.611934 30.1967 -0.166963 26.5449 1.99838 23.9051C4.16373 21.2653 7.65996 20.1124 10.9724 20.9459C10.1313 17.2982 11.6152 13.5083 14.7103 11.3993C17.8054 9.29037 21.8782 9.29397 24.9695 11.4084C26.9153 3.98149 34.0753 -0.848655 41.6965 0.124304C49.3177 1.09726 55.0323 7.57103 55.0468 15.2482C61.4001 15.2738 66.537 20.4274 66.5369 26.7758Z" transform="translate(63.98941 145.0979)" id="Path" fill="#FFB587" fill-opacity="0.3" stroke="none" />
      <path d="M86.9269 31.1679C85.857 31.1678 84.791 31.2974 83.7522 31.5537C85.0087 26.056 82.766 20.3505 78.1009 17.1768C73.4358 14.0032 67.3011 14.0095 62.6427 17.1929C59.7091 5.99962 48.9175 -1.27939 37.4312 0.187471C25.9448 1.65434 17.3323 11.4114 17.3103 22.982C11.1259 22.982 5.41133 26.2788 2.31914 31.6304C-0.773047 36.9821 -0.773047 43.5756 2.31914 48.9272C5.41133 54.2788 11.1259 57.5756 17.3103 57.5756L86.9276 57.5756C94.2255 57.5754 100.142 51.6637 100.141 44.3714C100.141 37.0791 94.225 31.1677 86.927 31.1679L86.9269 31.1679Z" transform="translate(208.5388 0.06532764)" id="Path" fill="#FFB587" fill-opacity="0.3" stroke="none" />
      <path d="M0 3.18501L12.6868 3.18501L12.6868 0L2.69604 0C1.91131 0.978038 1.01208 2.04967 0 3.18501Z" transform="translate(38.37979 203.7245)" id="Path" fill="none" stroke="none" />
      <path d="M30.4881 3.18501L30.4881 1.59252C30.4881 1.17016 30.3202 0.765093 30.0213 0.466438C29.7224 0.167783 29.317 0 28.8943 0L0 0L0 3.18501L30.4881 3.18501Z" transform="translate(51.06656 203.7245)" id="Path" fill="#FFB587" fill-opacity="0.3" stroke="none" />
      <path d="M45.1026 4.65757C45.1026 4.65362 45.1037 4.64995 45.1037 4.64599C45.1037 4.64203 45.1026 4.63836 45.1026 4.63441L45.1026 4.48788L45.0878 4.48788C45.0094 3.7432 44.3818 3.17736 43.6324 3.17583C42.4441 3.17583 41.9132 2.69558 41.11 1.96838C40.1401 1.09116 38.9339 0 36.6119 0C34.29 0 33.0838 1.09116 32.1139 1.96838C31.3107 2.69558 30.7798 3.17583 29.5915 3.17583C28.404 3.17583 27.873 2.69558 27.0698 1.96838C26.1007 1.09116 24.8944 0 22.5718 0C20.2491 0 19.0429 1.09116 18.073 1.96838C17.2698 2.69558 16.7389 3.17583 15.5506 3.17583C14.3623 3.17583 13.8314 2.69558 13.0268 1.96838C12.0576 1.09116 10.8514 0 8.52873 0C6.20677 0 5.00055 1.09116 4.03139 1.96838C3.22747 2.69558 2.69584 3.17583 1.50756 3.17583C0.758188 3.17736 0.130529 3.74319 0.052166 4.48788L0.0373922 4.48788L0.0373922 4.63441C0.0373502 4.63836 0.0362361 4.64204 0.0362361 4.64599C0.0362361 4.64994 0.0373502 4.65362 0.0373922 4.65757L0.0373922 7.4815L28.9317 7.4815C30.1998 7.48149 31.4159 7.98484 32.3126 8.8808C33.2092 9.77675 33.713 10.9919 33.713 12.259L33.713 59.6709C33.713 60.5156 33.3771 61.3257 32.7794 61.923C32.1816 62.5204 31.3708 62.8559 30.5255 62.8559L0.0373922 62.8559L0.0373922 69.9679C-0.0630559 70.4034 0.041346 70.8609 0.320809 71.2098C0.600271 71.5587 1.0241 71.7608 1.47136 71.7583C1.47944 71.7583 1.48614 71.757 1.49418 71.757C1.49875 71.757 1.50299 71.7583 1.50756 71.7583C3.83023 71.7583 5.03645 70.6672 6.00635 69.79C6.80586 69.0661 7.33659 68.5877 8.51351 68.5833C9.6918 68.5877 10.2233 69.0661 11.0243 69.7907C11.9941 70.6672 13.2014 71.7583 15.5248 71.7583C15.5281 71.7583 15.5311 71.7574 15.5344 71.7574C15.5401 71.7574 15.5449 71.7583 15.5506 71.7583C17.8726 71.7583 19.0788 70.6672 20.0479 69.79C20.8518 69.0628 21.3835 68.5825 22.5718 68.5825C23.76 68.5825 24.2909 69.0628 25.0941 69.79C26.0633 70.6672 27.2695 71.7583 29.5915 71.7583C31.9134 71.7583 33.1197 70.6672 34.0895 69.79C34.8927 69.0628 35.4236 68.5825 36.6119 68.5825C37.8002 68.5825 38.3311 69.0628 39.1343 69.79C40.1042 70.6672 41.3104 71.7583 43.6324 71.7583C44.3888 71.7568 45.0199 71.1806 45.0896 70.428L45.1026 70.428L45.1026 70.2998C45.1026 70.2958 45.1037 70.2921 45.1037 70.2882C45.1037 70.2842 45.1026 70.2805 45.1026 70.2766L45.1026 4.65757Z" transform="translate(51.02916 193.058)" id="Path" fill="#FFB587" fill-opacity="0.3" stroke="none" />
      <path d="M9.99072 3.185L9.99072 0L2.41693 0C1.79421 0.872408 0.987406 1.95438 0 3.185L9.99072 3.185Z" transform="translate(41.07583 200.5395)" id="Path" fill="#FFB587" stroke="none" />
      <path d="M3.71157 0.00450241C1.08269 0.118579 0 1.68392 0 2.06952C0 2.45546 1.74276 3.54474 3.44646 3.54474C5.1503 3.54474 7.15804 2.92086 7.15804 2.36466C7.15804 1.74407 6.19245 -0.102993 3.71157 0.00450241Z" transform="translate(38.80382 226.1184)" id="Path" fill="#FFB587" stroke="none" />
      <path d="M0 1.51383C0 1.74285 0.343432 1.98273 0.862888 2.18642L0.862888 0C0.397694 0.38053 0.0902453 0.919911 3.98291e-14 1.51383L0 1.51383Z" transform="translate(50.20366 226.9692)" id="Path" fill="#FFB587" stroke="none" />
      <path d="M31.3802 24.8186C28.7906 24.8186 26.762 28.0639 24.2222 28.0639C20.8902 28.0639 18.4298 24.9109 18.3899 19.5084C18.365 16.154 19.3671 15.0832 23.692 15.0832C28.0172 15.0832 29.2844 16.8532 31.3802 16.8532C32.4203 16.8532 33.2571 16.4173 34.364 15.9781L34.364 0L21.6773 0C19.6732 2.24903 17.5469 4.38631 15.3081 6.40216C6.70703 14.1398 0 17.5693 0 17.5693C0 17.5693 0.845231 21.2298 0.845231 29.8624C0.845231 34.8415 0.689028 42.9947 0.556796 49.0044L34.364 49.0044L34.364 26.0481C33.4198 25.3877 32.4633 24.8186 31.3802 24.8186Z" transform="translate(16.70252 206.9095)" id="Path" fill="#FFB587" stroke="none" />
      <path d="M6.29515 2.07659C6.29515 1.69099 5.21246 0.125654 2.58357 0.0115785C1.64352 -0.0649398 0.712254 0.240122 0 0.857897L0 3.04431C0.913229 3.37614 1.87697 3.54783 2.84869 3.5518C4.55237 3.5518 6.29515 2.46253 6.29515 2.07659Z" transform="translate(51.06656 226.1113)" id="Path" fill="#FFB587" stroke="none" />
      <path d="M33.6756 52.1894L33.6756 4.77751C33.6756 3.51044 33.1718 2.29526 32.2752 1.3993C31.3785 0.503341 30.1624 -1.85687e-06 28.8943 0L1.05102e-05 0L1.05102e-05 3.18499L28.8943 3.18499C29.7745 3.18499 30.4881 3.89799 30.4881 4.77751L30.4881 6.37001L3.98291e-14 6.37001L3.98291e-14 22.3481C1.49114 21.7339 3.09179 21.4294 4.70447 21.4532C9.02936 21.4532 10.0314 22.524 10.0066 25.8784C9.96667 31.2809 7.50623 34.4339 4.17425 34.4339C2.60302 34.4339 1.31354 33.3369 0 32.4181L0 55.3744L30.4881 55.3744C31.3335 55.3744 32.1442 55.0389 32.742 54.4416C33.3398 53.8442 33.6756 53.0341 33.6756 52.1894Z" transform="translate(51.06656 200.5395)" id="Path" fill="#FFB587" stroke="none" />
      <path d="M45.0572 4.54362L45.0652 4.48789L45.0516 4.48789C44.9732 3.7432 44.3455 3.17736 43.5962 3.17583C42.4079 3.17583 41.877 2.69558 41.0738 1.96838C40.1039 1.09114 38.8977 0 36.5757 0C34.2538 0 33.0475 1.09114 32.0777 1.96838C31.2745 2.69558 30.7436 3.17583 29.5553 3.17583C28.3677 3.17583 27.8368 2.69558 27.0336 1.96838C26.0644 1.09114 24.8582 0 22.5355 0C20.2129 0 19.0066 1.09114 18.0368 1.96838C17.2336 2.69558 16.7027 3.17583 15.5144 3.17583C14.3261 3.17583 13.7952 2.69558 12.9906 1.96838C12.0214 1.09114 10.8152 0 8.49248 0C6.17054 0 4.96432 1.09114 3.99517 1.96838C3.19125 2.69558 2.65962 3.17583 1.47134 3.17583C0.721964 3.17735 0.0943052 3.7432 0.015951 4.48789L0 4.48789L0 70.428L0.0141117 70.428C0.0837758 71.1807 0.714922 71.7569 1.47134 71.7584C3.79472 71.7584 5.00203 70.6672 5.9719 69.7907C6.77655 69.0628 7.30818 68.5826 8.49825 68.5826C9.68796 68.5826 10.2196 69.0628 11.0242 69.7907C11.9941 70.6672 13.2014 71.7584 15.5248 71.7584C16.2836 71.7569 16.9159 71.1772 16.9826 70.4219L16.9977 70.4276C16.9977 70.4276 17.0818 67.1718 17.1788 62.7621C17.3111 56.7524 17.4673 48.5992 17.4673 43.6201C17.4673 34.9875 16.622 31.327 16.622 31.327C16.622 31.327 23.3291 27.8974 31.9302 20.1598C34.169 18.144 36.2952 16.0067 38.2993 13.7577C39.3114 12.6223 40.2106 11.5507 40.9954 10.5727C41.9828 9.34205 42.7896 8.26008 43.4123 7.38767C43.8857 6.72439 44.2541 6.18094 44.514 5.78658C44.8625 5.51031 45.0662 5.09054 45.0675 4.64602C45.0675 4.61092 45.0596 4.57808 45.0572 4.54362Z" transform="translate(0.08046962 193.1518)" id="Path" fill="#FFB587" fill-opacity="0.3" stroke="none" />
    </g>
    <path d="M0 0L18 0L18 5L0 5L0 0Z" transform="translate(219 177)" id="Rectangle" fill="none" stroke="none" />
    <g id="Group" transform="translate(173 109)" opacity="0.3">
      <path d="M0 0L4.33393 0L4.33393 10.9058L0 10.9058L0 0Z" transform="translate(43.29787 31.10843)" id="Rectangle" fill="#FFB587" stroke="none" />
      <path d="M0 0L3.82705 0L3.82705 9.97257L0 9.97257L0 0Z" transform="translate(52.68283 32.04162)" id="Rectangle" fill="#FFB587" stroke="none" />
      <path d="M105.393 68.6359L103.086 68.6359L103.086 4.60469C103.086 3.38345 102.604 2.21222 101.746 1.34867C100.888 0.485117 99.7247 -1.40412e-05 98.5114 0L9.16131 0C6.63381 4.09337e-05 4.58488 2.0624 4.58489 4.60643L4.58489 68.6359L2.27819 68.6359C1.01999 68.6359 2.32382e-05 69.6625 0 70.9289L0 75.5725C3.48575e-05 76.8389 1.02 77.8655 2.27819 77.8655L105.393 77.8655C106.651 77.8655 107.671 76.8389 107.671 75.5725L107.671 70.9289C107.671 69.6625 106.651 68.6359 105.393 68.6359ZM64.6705 48.4587L69.0044 48.4587L69.0044 24.4661L66.8375 22.2849L64.6705 24.4661L64.6705 28.8283L60.3365 28.8283L60.3365 24.4661L58.1695 22.2849L56.0025 24.4661L56.0025 28.8283L51.6686 28.8283L51.6686 24.4661L49.5016 22.2849L47.3345 24.4661L47.3345 28.8283L43.0006 28.8283L43.0006 24.4661L40.8336 22.2849L38.6666 24.4661L38.6666 48.4587L43.0006 48.4587L43.0006 44.0964L47.3345 44.0964L47.3345 48.4587L51.6686 48.4587L51.6686 44.0964L56.0025 44.0964L56.0025 48.4587L60.3365 48.4587L60.3365 44.0964L64.6705 44.0964L64.6705 48.4587ZM63.0052 73.2507L44.6658 73.2507L44.6658 68.6359L63.0052 68.6359L63.0052 73.2507Z" transform="translate(0.297263 0.09898236)" id="Shape" fill="#FFB587" fill-rule="evenodd" stroke="none" />
      <path d="M0 0L4.33398 0L4.33398 10.9058L0 10.9058L0 0Z" transform="translate(60.63378 31.10843)" id="Rectangle" fill="#FFB587" stroke="none" />
    </g>
    <path d="M8.17712 0L45.8229 0C50.3368 0.00521041 53.9948 3.69018 54 8.23741L54 29.1614C53.9948 33.7086 50.3368 37.3936 45.8229 37.3988L43.875 37.3988L43.875 47.5984C43.8759 49.0364 42.9785 50.3193 41.634 50.8023C40.2896 51.2853 38.7889 50.8639 37.8863 49.7499L27.8767 37.3988L8.17712 37.3988C3.66316 37.3936 0.00516069 33.7086 0 29.1614L0 8.23741C0.00516455 3.69017 3.66316 0.00519874 8.17712 0ZM32.7657 20.2216L36.1883 16.5155C36.5096 16.1683 36.6168 15.6719 36.4678 15.2216C36.3187 14.7713 35.9372 14.4392 35.4733 14.3558L30.6961 13.4963L28.4437 8.94042C28.2265 8.50009 27.7806 8.22156 27.2924 8.22132C26.8043 8.22109 26.3582 8.49919 26.1405 8.93931L23.8876 13.4963L19.1144 14.3552C18.6498 14.4372 18.267 14.7686 18.1168 15.219C17.9666 15.6694 18.073 16.1664 18.3942 16.5143L21.8179 20.2216L21.1052 25.3585C21.0383 25.8389 21.2436 26.3168 21.637 26.5966C22.0305 26.8763 22.5462 26.9112 22.9732 26.6868L27.2918 24.4201L31.6081 26.6857C32.0352 26.9111 32.5516 26.8769 32.9458 26.5971C33.3399 26.3173 33.5455 25.8389 33.4784 25.3578L32.7657 20.2216Z" transform="translate(161 64)" id="Shape" fill="#FFB587" fill-rule="evenodd" stroke="none" />
    <path d="M39.0001 0C17.4714 0.0248971 0.0251239 17.3509 0 38.7313C0 41.7871 2.4944 44.2644 5.5714 44.2644C8.6484 44.2644 11.1428 41.7871 11.1428 38.7313C11.1428 23.4523 23.6149 11.0661 38.9999 11.0661C54.385 11.0661 66.857 23.4523 66.857 38.7313C66.857 50.3377 63.4784 56.7569 60.4994 62.4251C58.1463 66.8991 55.7144 71.5189 55.7144 77.4627C55.7128 79.4405 56.7744 81.2687 58.4988 82.258C60.2232 83.2473 62.3482 83.2473 64.0726 82.258C65.797 81.2687 66.8586 79.4405 66.857 77.4627C66.857 74.2368 68.3316 71.4325 70.3746 67.5475C73.593 61.4309 78 53.0557 78 38.7313C77.9749 17.351 60.5288 0.0249776 39.0001 0Z" transform="translate(105 138)" id="Path" fill="#FFB587" stroke="none" />
    <path d="M38.8199 0C26.5754 0.0130398 16.6526 10.0041 16.6395 22.3327C16.6395 25.8331 13.8481 33.499 5.54948 33.499C3.56737 33.4974 1.73514 34.5612 0.743633 36.2893C-0.247878 38.0174 -0.247878 40.147 0.743633 41.8751C1.73514 43.6032 3.56737 44.667 5.54948 44.6654C19.2495 44.6654 27.7296 33.0737 27.7296 22.3327C27.7296 16.1657 32.6948 11.1664 38.8197 11.1664C44.9446 11.1664 49.9097 16.1657 49.9097 22.3327C49.9097 36.2852 45.215 42.5336 40.2468 49.1526C38.0128 52.1296 35.7062 55.2047 33.8594 58.9178C32.4897 61.6761 33.6001 65.0302 36.3396 66.4093C39.0791 67.7884 42.4102 66.6704 43.78 63.9121C45.1662 61.115 47.0751 58.5742 49.0948 55.8863C54.3991 48.8201 61 40.0255 61 22.3327C60.987 10.0042 51.0642 0.0131906 38.8199 0Z" transform="translate(104 154)" id="Path" fill="#FFB587" stroke="none" />
    <path d="M39.376 2.47181e-07C37.8842 -0.000439064 36.4534 0.584724 35.3986 1.62667C34.3438 2.66862 33.7513 4.08193 33.7517 5.55547C33.7517 28.9331 4.14251 39.0784 3.84324 39.176C1.93673 39.8046 0.514769 41.3904 0.1134 43.3358C-0.287969 45.2812 0.392281 47.2903 1.89772 48.6057C3.40316 49.9211 5.50487 50.3429 7.41059 49.712C8.9457 49.2073 45 36.9733 45 5.55547C45.0004 4.08197 44.408 2.6687 43.3532 1.62676C42.2984 0.584826 40.8677 -0.000366761 39.376 2.47181e-07L39.376 2.47181e-07Z" transform="translate(104 171)" id="Path" fill="#FFB587" stroke="none" />
    <path d="M6.42275 0L41.5773 0C45.1201 0.0106407 47.9896 2.95082 48 6.58097L48 27.419C47.9896 31.0492 45.1201 33.9894 41.5773 34L6.42275 34C2.87987 33.9894 0.0103848 31.0492 0 27.419L0 6.58096C0.0103867 2.95082 2.87987 0.0106426 6.42275 0ZM42.5667 27.1848C42.8798 27.1334 43.1602 26.9566 43.3462 26.6933C43.7325 26.1449 43.6127 25.3795 43.0785 24.9823L31.5658 16.4401L40.5976 9.46948C40.9839 9.17127 41.1568 8.66403 41.0358 8.18425C40.9147 7.70446 40.5236 7.3466 40.0447 7.27751C39.9888 7.26947 39.9324 7.26546 39.876 7.26551C39.6171 7.26546 39.3652 7.35199 39.1587 7.51197L28.0462 16.089C28.0046 16.1212 23.8304 19.2494 20.0016 16.0874L8.89064 7.51197C8.35922 7.11974 7.62053 7.22626 7.2154 7.75354C6.81825 8.29415 6.9238 9.06225 7.4512 9.46948L16.4473 16.4123L4.89736 24.9823C4.36231 25.3792 4.24258 26.1453 4.62993 26.6936C5.01728 27.2418 5.76504 27.3645 6.30009 26.9676L18.4461 17.9549L18.545 18.0312C20.6313 19.8052 23.4333 20.4194 26.0453 19.6752C27.279 19.3492 28.4449 18.797 29.4867 18.0454L29.5676 17.9827L41.6763 26.9676C41.9332 27.1581 42.2535 27.2363 42.5667 27.1848Z" transform="translate(204 199)" id="Shape" fill="#FFB587" fill-rule="evenodd" stroke="none" />
    <path d="M35.2986 8.52972C35.3011 8.53118 35.304 8.5319 35.3069 8.53181C35.8229 8.53096 36.2639 8.15856 36.353 7.6484C36.4409 7.02908 36.6407 6.43105 36.9425 5.88372C37.4766 5.58893 38.0609 5.39675 38.6652 5.31701C39.176 5.23294 39.5521 4.7916 39.5557 4.27205C39.5592 3.75251 39.1893 3.30598 38.6797 3.2148C38.0703 3.12626 37.4822 2.92642 36.9445 2.62517C36.6417 2.08484 36.4411 1.49288 36.353 0.879227C36.2635 0.369932 35.8221 -0.00101202 35.3069 2.07419e-06L35.2986 2.07419e-06C34.7811 0.00317045 34.3415 0.381006 34.2587 0.893809C34.1793 1.50046 33.9878 2.08692 33.6942 2.62309C33.1489 2.92603 32.5531 3.12655 31.9361 3.2148C31.4255 3.30545 31.0546 3.75262 31.0582 4.27311C31.0617 4.79359 31.4389 5.23555 31.9507 5.3191C32.5616 5.39748 33.1528 5.58893 33.6942 5.88372C33.9879 6.42716 34.1786 7.02057 34.2567 7.63383C34.3395 8.14778 34.78 8.52654 35.2986 8.52972ZM50.1558 1.06478L50.1852 1.06466C52.2484 1.06492 54.0136 2.55225 54.3713 4.5919C54.6779 6.34032 55.3949 8.58279 55.8512 9.24461C56.5107 9.70363 58.707 10.4106 60.4861 10.7299C62.529 11.0909 64.0141 12.8792 63.9999 14.9613C63.9857 17.0435 62.4765 18.8113 60.4289 19.1443C58.7168 19.4226 56.5166 20.1022 55.8507 20.5498C55.3921 21.2287 54.6901 23.4561 54.373 25.2626C54.019 27.3064 52.2513 28.7981 50.1847 28.7969L50.1614 28.7969C48.0849 28.7844 46.3209 27.2688 45.9881 25.2114C45.6997 23.4297 45.0366 21.2347 44.5887 20.5496C43.9063 20.0999 41.7198 19.4344 39.9499 19.1457C37.9001 18.8154 36.3877 17.0474 36.3725 14.9636C36.3572 12.8798 37.8435 11.0896 39.8882 10.7291C41.6931 10.4099 43.9124 9.70512 44.5886 9.24475C45.0347 8.57751 45.699 6.4094 45.9887 4.64926C46.3204 2.59388 48.0815 1.07897 50.1558 1.06478ZM22.0812 15.9922L22.0729 15.9922C21.5539 15.9879 21.1137 15.6085 21.031 15.0942C20.8774 14.1296 20.4975 12.8836 20.182 12.5649C19.8645 12.2482 18.6233 11.8669 17.6623 11.7127C17.1496 11.6303 16.7713 11.188 16.7677 10.6667C16.7641 10.1455 17.1362 9.69803 17.6477 9.60843C18.6129 9.43758 19.8624 9.03964 20.182 8.71877C20.4955 8.40417 20.8815 7.14992 21.033 6.22069C21.1151 5.70716 21.5548 5.32833 22.0729 5.3248L22.0812 5.3248C22.5968 5.32471 23.038 5.69638 23.1273 6.20611C23.2975 7.16033 23.6919 8.4 24.0136 8.72085C24.3291 9.03754 25.5869 9.44382 26.5168 9.60841C27.0273 9.69854 27.3984 10.1454 27.3948 10.6657C27.3912 11.186 27.0139 11.6276 26.5023 11.7106C25.5558 11.8669 24.3291 12.2461 24.0115 12.5649C23.694 12.8857 23.2975 14.14 23.1273 15.1088C23.0382 15.6189 22.5972 15.9913 22.0812 15.9922ZM52.8394 12.2676C51.0938 10.5154 50.1848 5.3316 50.1848 5.3316C50.1848 5.3316 49.3483 10.5154 47.6027 12.2676C45.8571 14.0197 40.6204 14.9322 40.6204 14.9322C40.6204 14.9322 45.8571 15.7719 47.6027 17.5241C49.3483 19.2763 50.1848 24.5329 50.1848 24.5329C50.1848 24.5329 51.0938 19.2763 52.8394 17.5241C54.5849 15.7719 59.7492 14.9322 59.7492 14.9322C59.7492 14.9322 54.5849 14.0197 52.8394 12.2676ZM4.24047 19.936C4.24299 19.9375 4.24586 19.9382 4.24877 19.9381C4.76475 19.9373 5.20573 19.5649 5.29486 19.0547C5.38276 18.4354 5.58253 17.8374 5.88433 17.29C6.41848 16.9952 7.00272 16.803 7.60707 16.7233C8.11785 16.6392 8.49392 16.1979 8.49752 15.6784C8.50111 15.1588 8.13117 14.7123 7.6216 14.6211C7.01219 14.5326 6.42409 14.3327 5.8864 14.0315C5.58352 13.4911 5.38296 12.8992 5.29486 12.2855C5.20531 11.7762 4.76397 11.4053 4.24876 11.4063L4.24045 11.4063C3.72293 11.4095 3.28335 11.7873 3.20058 12.3001C3.12115 12.9068 2.92969 13.4932 2.63602 14.0294C2.09075 14.3323 1.49498 14.5329 0.877997 14.6211C0.3674 14.7118 -0.00356736 15.1589 2.5879e-05 15.6794C0.00361912 16.1999 0.380725 16.6418 0.892525 16.7254C1.50347 16.8038 2.09464 16.9952 2.63603 17.29C2.92971 17.8335 3.12043 18.4269 3.19852 19.0401C3.28131 19.5541 3.72181 19.9328 4.24047 19.936ZM36.3696 32L36.3613 32C35.8423 31.9958 35.4021 31.6163 35.3194 31.102C35.1658 30.1374 34.7859 28.8915 34.4704 28.5727C34.1529 28.256 32.9117 27.8747 31.9507 27.7206C31.438 27.6381 31.0597 27.1958 31.0561 26.6746C31.0525 26.1534 31.4246 25.7059 31.9361 25.6163C32.9013 25.4454 34.1508 25.0475 34.4704 24.7266C34.7839 24.412 35.1699 23.1577 35.3214 22.2285C35.4035 21.715 35.8432 21.3362 36.3613 21.3326L36.3696 21.3326C36.8852 21.3325 37.3264 21.7042 37.4157 22.2139C37.5859 23.1682 37.9803 24.4078 38.302 24.7287C38.6175 25.0454 39.8753 25.4516 40.8052 25.6162C41.3157 25.7064 41.6868 26.1532 41.6832 26.6735C41.6796 27.1938 41.3023 27.6354 40.7907 27.7185C39.8442 27.8747 38.6175 28.2539 38.2999 28.5727C37.9824 28.8935 37.5859 30.1478 37.4157 31.1166C37.3266 31.6268 36.8856 31.9992 36.3696 32Z" transform="translate(225 70)" id="Shape" fill="#FFB587" fill-rule="evenodd" stroke="none" />
  </g>
</svg>