<?xml version="1.0" encoding="utf-8"?>
<svg width="231px" height="257px" viewBox="0 0 231 257" version="1.1" xmlns:xlink="http://www.w3.org/1999/xlink" xmlns="http://www.w3.org/2000/svg">
  <desc>Created with Lunacy</desc>
  <g id="Header-1-copy" transform="translate(-25 0)">
    <g id="Group">
      <path d="M12.7722 2.60378C8.23879 2.60378 3.87398 -2.29382 0.727267 1.34491C-0.16141 2.37861 -0.244117 3.88222 0.525801 5.00751C3.26469 9.09688 7.85696 11.5504 12.7723 11.5504C17.6876 11.5504 22.2799 9.09688 25.0188 5.00751C25.7886 3.8822 25.7059 2.37865 24.8173 1.34491C21.6704 -2.29382 17.306 2.60378 12.7722 2.60378Z" transform="translate(39.81996 223.4936)" id="Path" fill="none" stroke="none" />
      <path d="M95.5924 7.43485C100.891 8.36413 104.748 12.9889 104.718 18.3786C104.751 30.6983 104.645 46.9894 103.95 54.6382L103.95 54.6382C101.893 77.3084 97.7388 89.6734 87.4857 103.64C75.6309 119.786 58.6827 123.852 53.7708 124.713L52.3664 124.959L50.9619 124.713C46.0464 123.85 29.0875 119.781 17.2366 103.642C6.98354 89.6719 2.82917 77.3048 0.773614 54.6386C0.0781626 47.0468 -0.0279377 30.73 0.00536117 18.3703C-0.0191569 12.9904 3.82572 8.37401 9.113 7.43522L50.9846 0.236767L52.3618 0L53.7389 0.236767L95.5924 7.43485ZM31.5262 59.4267C31.5262 70.9559 40.8545 80.3022 52.3615 80.3022C57.8874 80.3022 63.187 78.1028 67.0944 74.1879C71.0018 70.273 73.197 64.9632 73.197 59.4267C73.1969 47.8975 63.8686 38.5513 52.3616 38.5513C40.8545 38.5513 31.5262 47.8975 31.5262 59.4267Z" transform="translate(0.2306044 160.7062)" id="Shape" fill="#FF9AA2" fill-opacity="0.3" fill-rule="evenodd" stroke="none" />
      <path d="M8.92946 17.8932C13.8611 17.8932 17.8589 13.8877 17.8589 8.94662C17.8589 4.00554 13.8611 0 8.92946 0C3.99785 0 0 4.00554 0 8.94662C0 13.8877 3.99785 17.8932 8.92946 17.8932Z" transform="translate(43.66269 205.2219)" id="Oval" fill="none" stroke="none" />
      <path d="M20.8354 0C9.32831 1.04467e-05 -9.73151e-06 9.34627 0 20.8755C9.73151e-06 32.4047 9.32834 41.7509 20.8354 41.7509C32.3425 41.7509 41.6708 32.4046 41.6708 20.8754C41.6708 15.3389 39.4756 10.0292 35.5682 6.11426C31.6608 2.19936 26.3613 -5.01666e-06 20.8354 0ZM29.7648 14.911C29.7648 19.8521 25.767 23.8576 20.8354 23.8576C15.9038 23.8576 11.9059 19.8521 11.9059 14.911C11.9059 12.5382 12.8467 10.2626 14.5213 8.58479C16.1959 6.90698 18.4671 5.96439 20.8354 5.96439C25.767 5.96439 29.7648 9.96992 29.7648 14.911ZM20.8355 35.7865C25.7508 35.7865 30.3431 33.333 33.082 29.2436C33.8518 28.1183 33.7691 26.6147 32.8805 25.581C30.9368 23.3336 28.5287 24.3426 25.903 25.4428C24.2776 26.1239 22.5689 26.8399 20.8354 26.8399C19.1021 26.8399 17.3934 26.1239 15.768 25.4429C13.1423 24.3426 10.7341 23.3335 8.79047 25.581C7.90179 26.6147 7.81909 28.1183 8.589 29.2436C11.3279 33.333 15.9202 35.7865 20.8355 35.7865Z" transform="translate(31.75676 199.2575)" id="Shape" fill="#FF9AA2" fill-rule="evenodd" stroke="none" />
      <path d="M71.7106 28.9359C71.7105 35.7965 66.1738 41.3657 59.3264 41.3929L9.54622 41.3929C5.8648 41.409 2.50517 39.2936 0.922827 35.9632C-0.659516 32.6328 -0.179946 28.6863 2.15377 25.8336C4.48749 22.9809 8.25558 21.735 11.8256 22.6357C10.9191 18.6937 12.5184 14.5981 15.8541 12.319C19.1899 10.0399 23.5793 10.0437 26.9111 12.3288C29.0081 4.3027 36.7248 -0.917118 44.9386 0.134332C53.1525 1.18578 59.3114 8.18181 59.327 16.4783C66.1744 16.506 71.7106 22.0754 71.7106 28.9359Z" transform="translate(7.631525 0.09585978)" id="Path" fill="#FF9AA2" fill-opacity="0.3" stroke="none" />
      <path d="M56.9583 82.5061L7.62161 82.7103C3.58364 82.727 0.296702 79.4608 0.280016 75.4151L6.25824e-05 7.49823C-0.00796324 5.55135 0.756252 3.68101 2.12459 2.29868C3.49293 0.916339 5.3533 0.135235 7.29644 0.127196L38.0203 6.26188e-05C39.9598 -0.00795797 41.8233 0.754805 43.2023 2.12115L61.8765 20.6233C63.2608 21.9949 64.0434 23.8621 64.0514 25.8127L64.2547 75.1351C64.2628 77.082 63.4985 78.9523 62.1302 80.3347C60.7619 81.717 58.9015 82.4981 56.9583 82.5061L56.9583 82.5061Z" transform="translate(191.5471 178.4624)" id="Path" fill="#FF9AA2" fill-opacity="0.3" stroke="none" />
      <path d="M7.65933 2.93188C7.69197 2.83695 7.68249 2.73256 7.63331 2.64507L6.90089 1.34072C6.85146 1.25254 6.76645 1.19001 6.66767 1.16918C6.56889 1.14834 6.46594 1.17123 6.38522 1.23196L4.68616 2.50853L4.94982 0.394873C4.96241 0.29487 4.93148 0.19427 4.8649 0.118702C4.79833 0.0431347 4.70254 -0.000104512 4.60193 1.93679e-07L3.09669 1.93679e-07C2.99608 -0.000105599 2.90029 0.0431331 2.83372 0.118701C2.76714 0.194268 2.7362 0.294869 2.7488 0.394873L3.01177 2.50236L1.31511 1.21275C1.23532 1.15203 1.1334 1.12842 1.0351 1.1479C0.936807 1.16737 0.851528 1.22807 0.800808 1.31465L0.048187 2.59842C-0.0026025 2.68526 -0.0138396 2.78973 0.0173178 2.88542C0.0484753 2.9811 0.119043 3.05884 0.211174 3.09896L2.18073 3.95286L0.215286 4.77589C0.122981 4.81463 0.0515884 4.89103 0.0190791 4.98586C-0.0134301 5.08069 -0.0039599 5.18492 0.0451059 5.27231L0.777527 6.57667C0.826943 6.66499 0.912111 6.72756 1.01105 6.7482C1.11001 6.76967 1.21338 6.7466 1.29388 6.68508L3.01314 5.3893L2.7488 7.52286C2.73646 7.62278 2.76749 7.7232 2.83403 7.79865C2.90056 7.8741 2.9962 7.91734 3.09669 7.91739L4.60193 7.91739C4.70242 7.91734 4.79806 7.8741 4.86459 7.79865C4.93113 7.7232 4.96216 7.62278 4.94982 7.52286L4.68754 5.40405L6.34036 6.68268C6.41984 6.74412 6.5218 6.76848 6.6204 6.74958C6.719 6.73069 6.80479 6.67036 6.85603 6.58387L7.6292 5.27952C7.68128 5.19193 7.69277 5.08599 7.66069 4.98924C7.62862 4.89249 7.55614 4.8145 7.4621 4.77554L5.49666 3.95869L7.4621 3.14184C7.5548 3.10336 7.62661 3.02692 7.65933 2.93188L7.65933 2.93188Z" transform="translate(202.9355 199.8794)" id="Path" fill="#FF9AA2" stroke="none" />
      <path d="M7.65933 2.93188C7.69197 2.83695 7.68249 2.73256 7.63331 2.64507L6.90089 1.34072C6.85146 1.25254 6.76645 1.19001 6.66767 1.16918C6.56889 1.14834 6.46594 1.17123 6.38522 1.23196L4.68616 2.50853L4.94983 0.394873C4.96242 0.294869 4.93148 0.194269 4.8649 0.118702C4.79833 0.0431347 4.70254 -0.000104365 4.60193 1.93679e-07L3.09669 1.93679e-07C2.99608 -0.000105599 2.90029 0.0431331 2.83371 0.118701C2.76714 0.194268 2.7362 0.294869 2.74879 0.394873L3.01177 2.50236L1.31511 1.21275C1.23532 1.15203 1.13341 1.12842 1.03511 1.1479C0.93681 1.16737 0.851531 1.22807 0.800811 1.31465L0.0481862 2.59842C-0.00260305 2.68526 -0.0138396 2.78973 0.0173186 2.88542C0.0484768 2.9811 0.119046 3.05884 0.211177 3.09896L2.18073 3.95286L0.215285 4.77589C0.12298 4.81463 0.0515876 4.89103 0.0190784 4.98586C-0.0134308 5.08069 -0.00396067 5.18492 0.0451051 5.27231L0.777526 6.57667C0.826944 6.66499 0.912113 6.72756 1.01105 6.7482C1.11001 6.76967 1.21338 6.7466 1.29388 6.68508L3.01314 5.3893L2.74879 7.52286C2.73646 7.62278 2.76749 7.7232 2.83403 7.79865C2.90056 7.8741 2.9962 7.91734 3.09669 7.91739L4.60193 7.91739C4.70242 7.91734 4.79806 7.8741 4.86459 7.79865C4.93113 7.7232 4.96216 7.62278 4.94983 7.52286L4.68754 5.40405L6.34036 6.68268C6.41984 6.74412 6.5218 6.76848 6.6204 6.74958C6.719 6.73069 6.80479 6.67036 6.85603 6.58387L7.6292 5.27952C7.68128 5.19193 7.69277 5.08599 7.66069 4.98924C7.62862 4.89249 7.55614 4.8145 7.4621 4.77554L5.49666 3.95869L7.4621 3.14184C7.5548 3.10336 7.62661 3.02692 7.65933 2.93188Z" transform="translate(214.2019 199.8794)" id="Path" fill="#FF9AA2" stroke="none" />
      <path d="M7.65933 2.93188C7.69197 2.83695 7.68249 2.73256 7.63331 2.64507L6.90089 1.34072C6.85146 1.25254 6.76645 1.19001 6.66767 1.16918C6.56889 1.14834 6.46593 1.17123 6.38522 1.23197L4.68616 2.50853L4.94982 0.394873C4.96241 0.29487 4.93148 0.19427 4.8649 0.118702C4.79833 0.0431347 4.70254 -0.000104512 4.60193 1.93679e-07L3.09669 1.93679e-07C2.99608 -0.000105599 2.90029 0.0431331 2.83372 0.118701C2.76714 0.194268 2.7362 0.294869 2.7488 0.394873L3.01177 2.50236L1.31511 1.21275C1.23532 1.15203 1.1334 1.12842 1.0351 1.1479C0.936807 1.16737 0.851528 1.22807 0.800808 1.31465L0.048187 2.59842C-0.0026025 2.68526 -0.0138396 2.78973 0.0173178 2.88542C0.0484753 2.9811 0.119043 3.05884 0.211174 3.09896L2.18073 3.95286L0.215286 4.77589C0.122981 4.81463 0.0515884 4.89103 0.0190791 4.98586C-0.0134301 5.08069 -0.0039599 5.18492 0.0451059 5.27231L0.777527 6.57667C0.826943 6.66499 0.912111 6.72756 1.01105 6.7482C1.11001 6.76967 1.21338 6.7466 1.29388 6.68508L3.01314 5.3893L2.7488 7.52286C2.73646 7.62278 2.76749 7.7232 2.83403 7.79865C2.90056 7.8741 2.9962 7.91734 3.09669 7.91739L4.60193 7.91739C4.70242 7.91734 4.79806 7.87411 4.8646 7.79865C4.93113 7.7232 4.96216 7.62278 4.94982 7.52286L4.68754 5.40405L6.34036 6.68268C6.41984 6.74412 6.5218 6.76848 6.6204 6.74958C6.719 6.73069 6.80479 6.67036 6.85603 6.58387L7.6292 5.27952C7.68128 5.19193 7.69277 5.08599 7.66069 4.98924C7.62862 4.89249 7.55614 4.8145 7.4621 4.77554L5.49666 3.95869L7.4621 3.14184C7.55481 3.10336 7.62661 3.02692 7.65933 2.93188L7.65933 2.93188Z" transform="translate(202.9355 211.5989)" id="Path" fill="#FF9AA2" stroke="none" />
      <path d="M7.65933 2.93188C7.69197 2.83695 7.68249 2.73256 7.63331 2.64507L6.90089 1.34072C6.85146 1.25254 6.76645 1.19001 6.66767 1.16918C6.56889 1.14834 6.46593 1.17123 6.38522 1.23197L4.68616 2.50853L4.94983 0.394873C4.96242 0.294869 4.93148 0.194269 4.8649 0.118702C4.79833 0.0431347 4.70254 -0.000104365 4.60193 1.93679e-07L3.09669 1.93679e-07C2.99608 -0.000105599 2.90029 0.0431331 2.83371 0.118701C2.76714 0.194268 2.7362 0.294869 2.74879 0.394873L3.01177 2.50236L1.31511 1.21275C1.23532 1.15203 1.13341 1.12842 1.03511 1.1479C0.93681 1.16737 0.851531 1.22807 0.800811 1.31465L0.0481862 2.59842C-0.00260305 2.68526 -0.0138396 2.78973 0.0173186 2.88542C0.0484768 2.9811 0.119046 3.05884 0.211177 3.09896L2.18073 3.95286L0.215285 4.77589C0.12298 4.81463 0.0515876 4.89103 0.0190784 4.98586C-0.0134308 5.08069 -0.00396067 5.18492 0.0451051 5.27231L0.777526 6.57667C0.826944 6.66499 0.912113 6.72756 1.01105 6.7482C1.11001 6.76967 1.21338 6.7466 1.29388 6.68508L3.01314 5.3893L2.74879 7.52286C2.73646 7.62278 2.76749 7.7232 2.83403 7.79865C2.90056 7.8741 2.9962 7.91734 3.09669 7.91739L4.60193 7.91739C4.70242 7.91734 4.79806 7.8741 4.86459 7.79865C4.93113 7.7232 4.96216 7.62278 4.94983 7.52286L4.68754 5.40405L6.34036 6.68268C6.41984 6.74412 6.5218 6.76848 6.6204 6.74958C6.719 6.73069 6.80479 6.67036 6.85603 6.58387L7.6292 5.27952C7.68128 5.19193 7.69277 5.08599 7.66069 4.98924C7.62862 4.89249 7.55614 4.8145 7.4621 4.77554L5.49666 3.95869L7.4621 3.14184C7.55481 3.10336 7.62661 3.02692 7.65933 2.93188L7.65933 2.93188Z" transform="translate(214.2019 211.5989)" id="Path" fill="#FF9AA2" stroke="none" />
      <path d="M7.65934 2.93188C7.69197 2.83695 7.6825 2.73256 7.63331 2.64507L6.90089 1.34072C6.85146 1.25253 6.76645 1.19001 6.66767 1.16918C6.56889 1.14834 6.46594 1.17123 6.38522 1.23197L4.68617 2.50853L4.94983 0.394873C4.96242 0.294869 4.93148 0.194268 4.86491 0.118701C4.79833 0.0431331 4.70254 -0.000105599 4.60193 1.93679e-07L3.09669 1.93679e-07C2.99609 -0.000105599 2.9003 0.0431331 2.83372 0.118701C2.76715 0.194268 2.73621 0.294869 2.7488 0.394873L3.01178 2.50236L1.31512 1.21276C1.23532 1.15203 1.13341 1.12842 1.03511 1.1479C0.93681 1.16737 0.851531 1.22807 0.800812 1.31465L0.0481862 2.59842C-0.00260305 2.68526 -0.0138396 2.78973 0.0173186 2.88542C0.0484768 2.98111 0.119046 3.05884 0.211177 3.09896L2.18074 3.95286L0.215285 4.77589C0.12298 4.81463 0.0515876 4.89103 0.0190784 4.98586C-0.0134308 5.08069 -0.00396067 5.18492 0.0451052 5.27231L0.777526 6.57667C0.82708 6.66493 0.912241 6.72746 1.01116 6.74823C1.11008 6.769 1.21314 6.74598 1.29388 6.68508L3.01314 5.3893L2.7488 7.52286C2.73646 7.62278 2.76749 7.7232 2.83403 7.79865C2.90056 7.8741 2.9962 7.91734 3.09669 7.91739L4.60193 7.91739C4.70242 7.91734 4.79806 7.8741 4.8646 7.79865C4.93113 7.7232 4.96216 7.62278 4.94983 7.52286L4.68754 5.40405L6.34036 6.68268C6.41985 6.74412 6.5218 6.76848 6.6204 6.74959C6.719 6.73069 6.80479 6.67036 6.85604 6.58387L7.6292 5.27952C7.68128 5.19193 7.69277 5.08599 7.66069 4.98924C7.62862 4.8925 7.55614 4.8145 7.46211 4.77555L5.49666 3.95869L7.46211 3.14184C7.55481 3.10336 7.62661 3.02692 7.65934 2.93188Z" transform="translate(225.4683 211.5989)" id="Path" fill="#FF9AA2" stroke="none" />
      <path d="M7.65933 2.93188C7.69197 2.83695 7.6825 2.73256 7.63331 2.64507L6.90089 1.34072C6.85146 1.25254 6.76645 1.19001 6.66767 1.16918C6.56889 1.14834 6.46594 1.17123 6.38522 1.23197L4.68617 2.50853L4.94983 0.394873C4.96242 0.294869 4.93148 0.194268 4.86491 0.118701C4.79833 0.0431331 4.70254 -0.000105599 4.60193 1.93679e-07L3.09669 1.93679e-07C2.99608 -0.000105599 2.90029 0.0431331 2.83371 0.118701C2.76714 0.194268 2.7362 0.294869 2.74879 0.394873L3.01177 2.50236L1.31511 1.21275C1.23532 1.15203 1.13341 1.12842 1.03511 1.1479C0.93681 1.16737 0.851531 1.22807 0.800811 1.31465L0.0481862 2.59842C-0.00260305 2.68526 -0.0138396 2.78973 0.0173186 2.88542C0.0484768 2.9811 0.119046 3.05884 0.211177 3.09896L2.18073 3.95286L0.215285 4.77589C0.12298 4.81463 0.0515876 4.89103 0.0190784 4.98586C-0.0134308 5.08069 -0.00396067 5.18492 0.0451051 5.27231L0.777526 6.57667C0.82708 6.66493 0.912241 6.72746 1.01116 6.74823C1.11008 6.76899 1.21314 6.74598 1.29388 6.68508L3.01314 5.3893L2.74879 7.52286C2.73646 7.62278 2.76749 7.7232 2.83403 7.79865C2.90056 7.8741 2.9962 7.91734 3.09669 7.91739L4.60193 7.91739C4.70242 7.91734 4.79806 7.8741 4.86459 7.79865C4.93113 7.7232 4.96216 7.62278 4.94983 7.52286L4.68754 5.40405L6.34036 6.68268C6.41985 6.74412 6.5218 6.76848 6.6204 6.74958C6.719 6.73069 6.80479 6.67036 6.85604 6.58387L7.6292 5.27952C7.68128 5.19193 7.69277 5.08599 7.66069 4.98924C7.62862 4.89249 7.55614 4.8145 7.4621 4.77554L5.49666 3.95869L7.4621 3.14184C7.55481 3.10336 7.62661 3.02692 7.65933 2.93188Z" transform="translate(236.735 211.5989)" id="Path" fill="#FF9AA2" stroke="none" />
      <path d="M7.65934 2.93188C7.69197 2.83695 7.6825 2.73256 7.63331 2.64507L6.90089 1.34072C6.85146 1.25254 6.76645 1.19001 6.66767 1.16918C6.56889 1.14834 6.46594 1.17123 6.38522 1.23197L4.68617 2.50854L4.94982 0.394873C4.96241 0.29487 4.93148 0.19427 4.8649 0.118702C4.79833 0.0431347 4.70254 -0.000104512 4.60193 1.93679e-07L3.09669 1.93679e-07C2.99608 -0.000105599 2.90029 0.0431331 2.83372 0.118701C2.76714 0.194268 2.73621 0.294869 2.7488 0.394873L3.01177 2.50236L1.31511 1.21275C1.23532 1.15203 1.1334 1.12843 1.03511 1.1479C0.936809 1.16737 0.85153 1.22807 0.800809 1.31465L0.048187 2.59842C-0.0026025 2.68526 -0.0138396 2.78973 0.0173178 2.88542C0.0484753 2.9811 0.119043 3.05884 0.211174 3.09896L2.18073 3.95286L0.215286 4.77589C0.122981 4.81463 0.0515884 4.89103 0.0190791 4.98586C-0.0134301 5.08069 -0.0039599 5.18492 0.0451059 5.27231L0.777527 6.57667C0.826942 6.665 0.912111 6.72756 1.01105 6.7482C1.11001 6.76967 1.21338 6.7466 1.29388 6.68508L3.01314 5.3893L2.7488 7.52286C2.73646 7.62278 2.76749 7.7232 2.83403 7.79865C2.90056 7.8741 2.9962 7.91734 3.09669 7.91739L4.60193 7.91739C4.70242 7.91734 4.79806 7.87411 4.8646 7.79865C4.93113 7.7232 4.96216 7.62278 4.94982 7.52286L4.68754 5.40405L6.34036 6.68268C6.41984 6.74412 6.5218 6.76848 6.6204 6.74959C6.719 6.7307 6.80479 6.67036 6.85604 6.58387L7.6292 5.27952C7.68128 5.19193 7.69277 5.08599 7.66069 4.98924C7.62862 4.89249 7.55614 4.8145 7.46211 4.77554L5.49666 3.95869L7.46211 3.14184C7.55481 3.10336 7.62661 3.02692 7.65934 2.93188Z" transform="translate(202.9355 223.3184)" id="Path" fill="#FF9AA2" stroke="none" />
      <path d="M7.65934 2.93188C7.69197 2.83695 7.6825 2.73256 7.63331 2.64507L6.90089 1.34072C6.85146 1.25254 6.76645 1.19001 6.66767 1.16918C6.56889 1.14834 6.46594 1.17123 6.38522 1.23197L4.68617 2.50854L4.94983 0.394873C4.96242 0.294869 4.93148 0.194269 4.86491 0.118702C4.79833 0.0431347 4.70254 -0.000104365 4.60193 1.93679e-07L3.09669 1.93679e-07C2.99608 -0.000105599 2.90029 0.0431331 2.83372 0.118701C2.76714 0.194268 2.73621 0.294869 2.7488 0.394873L3.01177 2.50236L1.31512 1.21275C1.23532 1.15203 1.13341 1.12843 1.03511 1.1479C0.936812 1.16737 0.851533 1.22807 0.800812 1.31465L0.0481862 2.59842C-0.00260305 2.68526 -0.0138396 2.78973 0.0173186 2.88542C0.0484768 2.9811 0.119046 3.05884 0.211177 3.09896L2.18073 3.95286L0.215285 4.77589C0.12298 4.81463 0.0515876 4.89103 0.0190784 4.98586C-0.0134308 5.08069 -0.00396067 5.18492 0.0451052 5.27231L0.777526 6.57667C0.826943 6.665 0.912113 6.72756 1.01105 6.7482C1.11001 6.76967 1.21338 6.7466 1.29388 6.68508L3.01314 5.3893L2.7488 7.52286C2.73646 7.62278 2.76749 7.7232 2.83403 7.79865C2.90056 7.8741 2.9962 7.91734 3.09669 7.91739L4.60193 7.91739C4.70242 7.91734 4.79806 7.8741 4.8646 7.79865C4.93113 7.7232 4.96216 7.62278 4.94983 7.52286L4.68754 5.40405L6.34036 6.68268C6.41985 6.74412 6.5218 6.76848 6.6204 6.74959C6.719 6.7307 6.80479 6.67036 6.85604 6.58387L7.6292 5.27952C7.68128 5.19193 7.69277 5.08599 7.66069 4.98924C7.62862 4.89249 7.55614 4.8145 7.46211 4.77554L5.49666 3.95869L7.46211 3.14184C7.55481 3.10336 7.62661 3.02692 7.65934 2.93188L7.65934 2.93188Z" transform="translate(214.2019 223.3184)" id="Path" fill="#FF9AA2" stroke="none" />
      <path d="M7.65933 2.93188C7.69196 2.83695 7.68249 2.73256 7.6333 2.64507L6.90088 1.34072C6.85145 1.25254 6.76645 1.19001 6.66766 1.16918C6.56888 1.14834 6.46593 1.17123 6.38521 1.23197L4.68616 2.50854L4.94982 0.394873C4.96241 0.294869 4.93148 0.194268 4.8649 0.118701C4.79832 0.0431331 4.70253 -0.000105599 4.60193 1.93679e-07L3.09669 1.93679e-07C2.99608 -0.000105599 2.90029 0.0431331 2.83371 0.118701C2.76714 0.194268 2.7362 0.294869 2.7488 0.394873L3.01177 2.50236L1.31512 1.21275C1.23532 1.15203 1.13341 1.12843 1.03511 1.1479C0.936812 1.16737 0.851533 1.22807 0.800812 1.31465L0.0481862 2.59842C-0.00260305 2.68526 -0.0138396 2.78973 0.0173186 2.88542C0.0484768 2.9811 0.119046 3.05884 0.211177 3.09896L2.18074 3.95286L0.215285 4.77589C0.12298 4.81463 0.0515876 4.89103 0.0190784 4.98586C-0.0134308 5.08069 -0.00396067 5.18492 0.0451052 5.27231L0.777526 6.57667C0.82708 6.66492 0.912241 6.72746 1.01116 6.74823C1.11008 6.769 1.21313 6.74598 1.29388 6.68508L3.01314 5.3893L2.7488 7.52286C2.73646 7.62278 2.76749 7.7232 2.83403 7.79865C2.90056 7.8741 2.9962 7.91734 3.09669 7.91739L4.60193 7.91739C4.70242 7.91734 4.79806 7.8741 4.8646 7.79865C4.93113 7.7232 4.96216 7.62278 4.94983 7.52286L4.68754 5.40405L6.34036 6.68268C6.41985 6.74412 6.5218 6.76848 6.6204 6.74959C6.719 6.7307 6.80479 6.67036 6.85604 6.58387L7.6292 5.27952C7.68128 5.19193 7.69277 5.08599 7.66069 4.98924C7.62862 4.89249 7.55614 4.8145 7.46211 4.77554L5.49666 3.95869L7.46211 3.14184C7.55481 3.10336 7.6266 3.02692 7.65933 2.93188L7.65933 2.93188Z" transform="translate(225.4683 223.3184)" id="Path" fill="#FF9AA2" stroke="none" />
      <path d="M7.65934 2.93188C7.69197 2.83695 7.6825 2.73256 7.63331 2.64507L6.90089 1.34072C6.85146 1.25254 6.76645 1.19001 6.66767 1.16918C6.56889 1.14834 6.46594 1.17123 6.38522 1.23197L4.68617 2.50854L4.94983 0.394873C4.96242 0.294869 4.93148 0.194268 4.86491 0.118701C4.79833 0.0431331 4.70254 -0.000105599 4.60193 1.93679e-07L3.09669 1.93679e-07C2.99608 -0.000105599 2.90029 0.0431331 2.83372 0.118701C2.76714 0.194268 2.73621 0.294869 2.7488 0.394873L3.01177 2.50236L1.31512 1.21275C1.23532 1.15203 1.13341 1.12843 1.03511 1.1479C0.936812 1.16737 0.851533 1.22807 0.800812 1.31465L0.0481862 2.59842C-0.00260305 2.68526 -0.0138396 2.78973 0.0173186 2.88542C0.0484768 2.9811 0.119046 3.05884 0.211177 3.09896L2.18073 3.95286L0.215285 4.77589C0.12298 4.81463 0.0515876 4.89103 0.0190784 4.98586C-0.0134308 5.08069 -0.00396067 5.18492 0.0451052 5.27231L0.777526 6.57667C0.82708 6.66492 0.912241 6.72746 1.01116 6.74823C1.11008 6.769 1.21313 6.74598 1.29388 6.68508L3.01314 5.3893L2.7488 7.52286C2.73646 7.62278 2.76749 7.7232 2.83403 7.79865C2.90056 7.8741 2.9962 7.91734 3.09669 7.91739L4.60193 7.91739C4.70242 7.91734 4.79806 7.8741 4.8646 7.79865C4.93113 7.7232 4.96216 7.62278 4.94983 7.52286L4.68754 5.40405L6.34036 6.68268C6.41985 6.74412 6.5218 6.76848 6.6204 6.74959C6.71901 6.7307 6.80479 6.67036 6.85604 6.58387L7.6292 5.27952C7.68128 5.19193 7.69277 5.08599 7.66069 4.98924C7.62862 4.89249 7.55614 4.8145 7.46211 4.77554L5.49666 3.95869L7.46211 3.14184C7.55481 3.10336 7.62661 3.02692 7.65934 2.93188Z" transform="translate(236.735 223.3184)" id="Path" fill="#FF9AA2" stroke="none" />
      <path d="M7.65934 2.93188C7.69197 2.83695 7.6825 2.73256 7.63331 2.64508L6.90089 1.34072C6.85146 1.25254 6.76645 1.19001 6.66767 1.16918C6.56889 1.14834 6.46594 1.17123 6.38522 1.23197L4.68617 2.50854L4.94982 0.394873C4.96241 0.29487 4.93148 0.19427 4.8649 0.118702C4.79833 0.0431347 4.70254 -0.000104512 4.60193 1.93679e-07L3.09669 1.93679e-07C2.99608 -0.000105599 2.90029 0.0431331 2.83372 0.118701C2.76714 0.194268 2.73621 0.294869 2.7488 0.394873L3.01177 2.50236L1.31511 1.21275C1.23532 1.15203 1.1334 1.12843 1.03511 1.1479C0.936809 1.16737 0.85153 1.22807 0.800809 1.31465L0.048187 2.59842C-0.0026025 2.68526 -0.0138396 2.78973 0.0173178 2.88542C0.0484753 2.9811 0.119043 3.05884 0.211174 3.09896L2.18073 3.95286L0.215286 4.77589C0.12298 4.81463 0.0515881 4.89103 0.019079 4.98586C-0.0134302 5.08069 -0.00395998 5.18492 0.0451059 5.27231L0.777527 6.57667C0.826942 6.665 0.912111 6.72756 1.01105 6.7482C1.11001 6.76967 1.21338 6.7466 1.29388 6.68508L3.01314 5.3893L2.7488 7.52286C2.73646 7.62278 2.76749 7.7232 2.83403 7.79865C2.90056 7.8741 2.9962 7.91734 3.09669 7.91739L4.60193 7.91739C4.70242 7.91734 4.79806 7.87411 4.8646 7.79865C4.93113 7.7232 4.96216 7.62278 4.94982 7.52286L4.68754 5.40405L6.34036 6.68268C6.41984 6.74412 6.5218 6.76848 6.6204 6.74959C6.719 6.7307 6.80479 6.67036 6.85604 6.58387L7.6292 5.27952C7.68128 5.19193 7.69277 5.08599 7.66069 4.98924C7.62862 4.89249 7.55614 4.8145 7.46211 4.77554L5.49666 3.9587L7.46211 3.14184C7.55481 3.10336 7.62661 3.02692 7.65934 2.93188L7.65934 2.93188Z" transform="translate(202.9355 235.0378)" id="Path" fill="#FF9AA2" stroke="none" />
      <path d="M7.65934 2.93188C7.69197 2.83695 7.6825 2.73256 7.63331 2.64508L6.90089 1.34072C6.85146 1.25254 6.76645 1.19001 6.66767 1.16918C6.56889 1.14834 6.46594 1.17123 6.38522 1.23197L4.68617 2.50854L4.94983 0.394873C4.96242 0.294869 4.93148 0.194269 4.86491 0.118702C4.79833 0.0431347 4.70254 -0.000104365 4.60193 1.93679e-07L3.09669 1.93679e-07C2.99608 -0.000105599 2.90029 0.0431331 2.83372 0.118701C2.76714 0.194268 2.73621 0.294869 2.7488 0.394873L3.01177 2.50236L1.31512 1.21275C1.23532 1.15203 1.13341 1.12843 1.03511 1.1479C0.936812 1.16737 0.851533 1.22807 0.800812 1.31465L0.0481862 2.59842C-0.00260305 2.68526 -0.0138396 2.78973 0.0173186 2.88542C0.0484768 2.9811 0.119046 3.05884 0.211177 3.09896L2.18073 3.95286L0.215285 4.77589C0.12298 4.81463 0.0515874 4.89103 0.0190782 4.98586C-0.013431 5.08069 -0.00396075 5.18492 0.0451052 5.27231L0.777526 6.57667C0.826943 6.665 0.912113 6.72756 1.01105 6.7482C1.11001 6.76967 1.21338 6.7466 1.29388 6.68508L3.01314 5.3893L2.7488 7.52286C2.73646 7.62278 2.76749 7.7232 2.83403 7.79865C2.90056 7.8741 2.9962 7.91734 3.09669 7.91739L4.60193 7.91739C4.70242 7.91734 4.79806 7.8741 4.8646 7.79865C4.93113 7.7232 4.96216 7.62278 4.94983 7.52286L4.68754 5.40405L6.34036 6.68268C6.41985 6.74412 6.5218 6.76848 6.6204 6.74959C6.719 6.7307 6.80479 6.67036 6.85604 6.58387L7.6292 5.27952C7.68128 5.19193 7.69277 5.08599 7.66069 4.98924C7.62862 4.89249 7.55614 4.8145 7.46211 4.77554L5.49666 3.9587L7.46211 3.14184C7.55481 3.10336 7.62661 3.02692 7.65934 2.93188L7.65934 2.93188Z" transform="translate(214.2019 235.0378)" id="Path" fill="#FF9AA2" stroke="none" />
      <path d="M7.65933 2.93188C7.69196 2.83695 7.68249 2.73256 7.6333 2.64508L6.90088 1.34072C6.85145 1.25254 6.76645 1.19001 6.66766 1.16918C6.56888 1.14834 6.46593 1.17123 6.38521 1.23197L4.68616 2.50854L4.94982 0.394873C4.96241 0.294869 4.93148 0.194268 4.8649 0.118701C4.79832 0.0431331 4.70253 -0.000105599 4.60193 1.93679e-07L3.09669 1.93679e-07C2.99608 -0.000105599 2.90029 0.0431331 2.83371 0.118701C2.76714 0.194268 2.7362 0.294869 2.7488 0.394873L3.01177 2.50236L1.31512 1.21275C1.23532 1.15203 1.13341 1.12843 1.03511 1.1479C0.936812 1.16737 0.851533 1.22807 0.800812 1.31465L0.0481862 2.59842C-0.00260305 2.68526 -0.0138396 2.78973 0.0173186 2.88542C0.0484768 2.9811 0.119046 3.05884 0.211177 3.09896L2.18074 3.95286L0.215285 4.77589C0.12298 4.81463 0.0515874 4.89103 0.0190782 4.98586C-0.013431 5.08069 -0.00396075 5.18492 0.0451052 5.27231L0.777526 6.57667C0.82708 6.66492 0.912241 6.72746 1.01116 6.74823C1.11008 6.769 1.21313 6.74598 1.29388 6.68508L3.01314 5.3893L2.7488 7.52286C2.73646 7.62278 2.76749 7.7232 2.83403 7.79865C2.90056 7.8741 2.9962 7.91734 3.09669 7.91739L4.60193 7.91739C4.70242 7.91734 4.79806 7.8741 4.8646 7.79865C4.93113 7.7232 4.96216 7.62278 4.94983 7.52286L4.68754 5.40405L6.34036 6.68268C6.41985 6.74412 6.5218 6.76848 6.6204 6.74959C6.719 6.7307 6.80479 6.67036 6.85604 6.58387L7.6292 5.27952C7.68128 5.19193 7.69277 5.08599 7.66069 4.98924C7.62862 4.89249 7.55614 4.8145 7.46211 4.77554L5.49666 3.9587L7.46211 3.14184C7.55481 3.10336 7.6266 3.02692 7.65933 2.93188L7.65933 2.93188Z" transform="translate(225.4683 235.0378)" id="Path" fill="#FF9AA2" stroke="none" />
      <path d="M7.65934 2.93188C7.69197 2.83695 7.6825 2.73256 7.63331 2.64508L6.90089 1.34072C6.85146 1.25254 6.76645 1.19001 6.66767 1.16918C6.56889 1.14834 6.46594 1.17123 6.38522 1.23197L4.68617 2.50854L4.94983 0.394873C4.96242 0.294869 4.93148 0.194268 4.86491 0.118701C4.79833 0.0431331 4.70254 -0.000105599 4.60193 1.93679e-07L3.09669 1.93679e-07C2.99608 -0.000105599 2.90029 0.0431331 2.83372 0.118701C2.76714 0.194268 2.73621 0.294869 2.7488 0.394873L3.01177 2.50236L1.31512 1.21275C1.23532 1.15203 1.13341 1.12843 1.03511 1.1479C0.936812 1.16737 0.851533 1.22807 0.800812 1.31465L0.0481862 2.59842C-0.00260305 2.68526 -0.0138396 2.78973 0.0173186 2.88542C0.0484768 2.9811 0.119046 3.05884 0.211177 3.09896L2.18073 3.95286L0.215285 4.77589C0.12298 4.81463 0.0515874 4.89103 0.0190782 4.98586C-0.013431 5.08069 -0.00396075 5.18492 0.0451052 5.27231L0.777526 6.57667C0.82708 6.66492 0.912241 6.72746 1.01116 6.74823C1.11008 6.769 1.21313 6.74598 1.29388 6.68508L3.01314 5.3893L2.7488 7.52286C2.73646 7.62278 2.76749 7.7232 2.83403 7.79865C2.90056 7.8741 2.9962 7.91734 3.09669 7.91739L4.60193 7.91739C4.70242 7.91734 4.79806 7.8741 4.8646 7.79865C4.93113 7.7232 4.96216 7.62278 4.94983 7.52286L4.68754 5.40405L6.34036 6.68268C6.41985 6.74412 6.5218 6.76848 6.6204 6.74959C6.71901 6.7307 6.80479 6.67036 6.85604 6.58387L7.6292 5.27952C7.68128 5.19193 7.69277 5.08599 7.66069 4.98924C7.62862 4.89249 7.55614 4.8145 7.46211 4.77554L5.49666 3.9587L7.46211 3.14184C7.55481 3.10336 7.62661 3.02692 7.65934 2.93188Z" transform="translate(236.735 235.0378)" id="Path" fill="#FF9AA2" stroke="none" />
    </g>
    <path d="M0 0L6 0L6 4L0 4L0 0Z" transform="translate(112 123)" id="Rectangle" fill="none" stroke="none" />
    <path d="M7.4512e-06 10.0947L1.65302 10.0947C2.55465 10.0947 3.28556 10.8215 3.28557 11.7181L3.28557 15.0056C3.28449 15.5142 3.04258 15.9926 2.63266 16.2969L2.96129 16.6236C3.2035 16.8646 3.53207 17 3.87469 17C4.21731 17 4.54588 16.8646 4.78809 16.6236L12.4511 9.00478C14.5185 6.94259 14.516 3.605 12.4453 1.54595C10.3747 -0.513094 7.01832 -0.515641 4.94452 1.54026L3.87468 2.60352L2.80609 1.5409C2.04322 0.780904 1.06342 0.273059 0 0.0864518L0 10.0947L7.4512e-06 10.0947Z" transform="translate(111 94)" id="Path" fill="none" stroke="none" />
    <path d="M0 0L14 0L14 4L0 4L0 0Z" transform="translate(68 104)" id="Rectangle" fill="none" stroke="none" />
    <path d="M0 0L6 0L6 4L0 4L0 0Z" transform="translate(112 123)" id="Rectangle" fill="none" stroke="none" />
    <path d="M15.4969 0.0048043C14.0379 -0.000322267 12.6374 0.5542 11.607 1.54494L10.4982 2.60783L9.39076 1.54557C7.24261 -0.515078 3.75964 -0.515207 1.61132 1.54528C-0.536991 3.60578 -0.537125 6.94662 1.61102 9.00727L9.55158 16.6238C9.8026 16.8647 10.1431 17 10.4982 17C10.8533 17 11.1938 16.8647 11.4449 16.6238L19.3867 9.00727C20.9615 7.49945 21.433 5.22967 20.5811 3.25805C19.7291 1.28644 17.7219 0.00206628 15.4969 0.00481541L15.4969 0.0048043Z" transform="translate(65 71)" id="Path" fill="none" stroke="none" />
    <path d="M16.5139 31.2878L16.846 31.6188C17.0907 31.8629 17.4227 32 17.7689 32C18.1151 32 18.4471 31.8629 18.6919 31.6188L26.4349 23.9013C28.524 21.8124 28.5214 18.4316 26.4291 16.3459C24.3368 14.2602 20.9454 14.2576 18.8499 16.3401L17.7689 17.4172L16.6892 16.3408C15.9183 15.5709 14.9283 15.0565 13.8538 14.8675L13.8538 0L2.03284 0C0.911483 0.00329756 0.00327679 0.908679 0 2.02651L0 31.6242L15.5241 31.6242C15.8821 31.6231 16.2298 31.5049 16.5139 31.2878L16.5139 31.2878Z" transform="translate(97 79)" id="Path" fill="none" stroke="none" />
    <path d="M0 0L14 0L14 4L0 4L0 0Z" transform="translate(68 104)" id="Rectangle" fill="none" stroke="none" />
    <path d="M0 0L6 0L6 4L0 4L0 0Z" transform="translate(112 123)" id="Rectangle" fill="none" stroke="none" />
    <path d="M63.1227 24.2853L75 24.2853L75 3.31165C75 2.43335 74.6494 1.59101 74.0252 0.969946C73.401 0.348886 72.5544 -1.49725e-05 71.6716 0L6.66529 0C4.82641 1.03923e-05 3.33571 1.48322 3.3357 3.31285L3.3357 49.3621L1.65747 49.3621C0.742079 49.3622 1.25336e-05 50.1005 0 51.0113L0 54.3509C1.25336e-05 55.2617 0.742079 56 1.65747 56L61.0802 56L61.0802 26.3177C61.0835 25.1966 61.996 24.2886 63.1227 24.2853ZM40.0945 33.4299L47.8745 25.6904C49.9762 23.596 49.9749 20.2033 47.8716 18.1105C45.7682 16.0177 42.3584 16.0164 40.2534 18.1076L39.1672 19.1876L38.0823 18.1082C35.978 16.0143 32.566 16.0141 30.4615 18.1079C28.357 20.2017 28.3569 23.5965 30.4612 25.6904L38.2399 33.4299C38.4858 33.6746 38.8194 33.8122 39.1672 33.8122C39.515 33.8122 39.8486 33.6746 40.0945 33.4299ZM45.8392 52.6811L32.4964 52.6811L32.4964 49.3621L45.8392 49.3621L45.8392 52.6811Z" transform="translate(36 55)" id="Shape" fill="#FF9AA2" fill-rule="evenodd" stroke="none" />
    <path d="M13.9865 0L33.9477 0C35.0798 0.00331767 35.9967 0.915349 36 2.04139L36 51.9586C35.9967 53.0847 35.0798 53.9967 33.9477 54L2.05231 54C0.920214 53.9967 0.00330818 53.0847 0 51.9586L0 31.8563L15.6728 31.8563C16.0342 31.8552 16.3853 31.7362 16.6721 31.5174L17.0074 31.8509C17.2545 32.0967 17.5897 32.2349 17.9392 32.2349C18.2887 32.2349 18.6239 32.0967 18.871 31.8509L26.6881 24.0767C28.8027 21.9734 28.8027 18.5634 26.6881 16.4601C24.5735 14.3568 21.1451 14.3568 19.0305 16.4601L17.9392 17.545L16.8491 16.4607C16.0708 15.6852 15.0713 15.167 13.9865 14.9766L13.9865 0ZM14.5881 48.533L21.2915 48.533L21.2915 45.1992L14.5881 45.1992L14.5881 48.533Z" transform="translate(97 79)" id="Shape" fill="#FF9AA2" fill-rule="evenodd" stroke="none" />
    <path d="M16 31.6596L8.8209 24.1853C7.33339 22.6394 6.88799 20.3122 7.69273 18.2907C8.49747 16.2693 10.3935 14.9524 12.4954 14.9553C12.8064 14.9564 13.1167 14.9862 13.4226 15.0442L13.4226 0L1.96957 0C0.883117 0.00333675 0.00317482 0.919477 0 2.0506L0 32L15.0409 32C15.3878 31.9989 15.7247 31.8793 16 31.6596L16 31.6596Z" transform="translate(97 79)" id="Path" fill="#FF9AA2" stroke="none" />
    <path d="M24.6225 18.8966L24.6225 9.50586C22.6338 8.43012 20.411 7.86011 18.15 7.84606C12.6742 7.84606 9.38071 11.6553 9.38071 17.9541C9.38071 22.8184 11.6028 26.3632 16.2733 26.3632C19.107 26.3632 20.8693 24.7034 21.7889 22.6691C22.1717 24.4415 23.7401 26.515 26.8049 26.515C31.9352 26.515 35 21.5356 35 14.8598C35 7.09205 28.95 0 18.1127 0C7.54385 0 0 7.42988 0 17.6138C0 28.2115 7.19835 35 18.1127 35C21.1311 34.9895 24.1245 34.4536 26.959 33.4161L25.6168 29.6461C23.2164 30.49 20.6942 30.9357 18.15 30.9656C9.61189 30.9656 5.01598 25.6851 5.01598 17.5771C5.01598 9.61845 9.80328 3.99769 18.1127 3.99769C26.1537 3.99769 30.0213 8.22305 30.0213 14.9357C30.0213 21.0093 28.6418 23.0461 26.6135 23.0461C25.234 23.0461 24.6225 22.0645 24.6225 18.8966ZM19.9893 11.692L19.9893 20.669C19.5668 21.6507 18.6869 22.9311 16.9643 22.9311C15.1623 22.9311 14.3196 21.4989 14.3196 17.9541C14.3196 13.1266 15.6992 11.2783 17.9959 11.2783C18.6823 11.2723 19.362 11.4134 19.9893 11.692Z" transform="translate(113 193)" id="Shape" fill="#FF9AA2" fill-rule="evenodd" stroke="none" />
    <path d="M142 2.16352C142 3.35836 141.076 4.32695 139.936 4.32701C138.267 4.32701 137.522 5.03427 136.393 6.10441C135.033 7.3948 133.34 9 130.082 9C126.823 9 125.13 7.39427 123.77 6.10441C122.641 5.03427 121.896 4.32701 120.227 4.32701C118.56 4.32701 117.816 5.03374 116.688 6.10388C115.328 7.39427 113.636 9 110.379 9C107.121 9 105.429 7.39427 104.069 6.10441C102.941 5.03427 102.196 4.32701 100.528 4.32701C98.8611 4.32701 98.1165 5.03374 96.989 6.10388C95.6292 7.39427 93.9375 9 90.6805 9C87.4235 9 85.7318 7.39427 84.3726 6.10388C83.2456 5.03374 82.501 4.32701 80.835 4.32701C79.169 4.32701 78.4244 5.03374 77.2974 6.10388C75.9382 7.39427 74.2469 9 70.9904 9C67.7329 9 66.0412 7.39427 64.6815 6.10388C63.554 5.03374 62.8094 4.32701 61.1429 4.32701C59.4763 4.32701 58.7317 5.03374 57.6043 6.10388C56.245 7.39427 54.5528 9 51.2963 9C48.0388 9 46.3466 7.39427 44.9869 6.10388C43.8594 5.03374 43.1143 4.32701 41.4477 4.32701C39.7817 4.32701 39.0371 5.03374 37.9096 6.10388C36.5504 7.39427 34.8582 9 31.6012 9C28.3442 9 26.6525 7.39427 25.2932 6.10388C24.1662 5.03374 23.4217 4.32701 21.7556 4.32701C20.0896 4.32701 19.345 5.03374 18.218 6.10388C16.8588 7.39427 15.1671 9 11.9101 9C8.65308 9 6.96136 7.39427 5.60214 6.10388C4.47465 5.03374 3.73005 4.32701 2.06352 4.32701C0.923869 4.32701 0 3.35838 0 2.16351C0 0.968635 0.923869 2.25239e-14 2.06352 2.25239e-14C5.32052 2.25239e-14 7.01274 1.60573 8.37196 2.89612C9.49944 3.96625 10.244 4.67298 11.9101 4.67298C13.5761 4.67298 14.3212 3.96625 15.4482 2.89612C16.8074 1.60573 18.4991 0 21.7556 0C25.0121 0 26.7038 1.60573 28.0631 2.89612C29.19 3.96625 29.9351 4.67298 31.6012 4.67298C33.2677 4.67298 34.0123 3.96625 35.1398 2.89612C36.499 1.60573 38.1907 0 41.4477 0C44.7047 0 46.397 1.60573 47.7567 2.89612C48.8842 3.96625 49.6293 4.67298 51.2963 4.67298C52.9623 4.67298 53.7069 3.96625 54.8344 2.89612C56.1936 1.60573 57.8859 0 61.1429 0C64.3999 0 66.0916 1.60573 67.4513 2.89612C68.5788 3.96625 69.3234 4.67298 70.9904 4.67298C72.656 4.67298 73.4006 3.96625 74.5275 2.89612C75.8868 1.60573 77.5785 0 80.835 0C84.0915 0 85.7832 1.60573 87.1424 2.89612C88.2699 3.96625 89.0145 4.67298 90.6805 4.67298C92.3471 4.67298 93.0917 3.96625 94.2191 2.89612C95.5789 1.60573 97.2706 0 100.528 0C103.786 0 105.478 1.60573 106.838 2.89559C107.966 3.96573 108.712 4.67298 110.379 4.67298C112.046 4.67298 112.791 3.96625 113.918 2.89612C115.278 1.60573 116.97 0 120.227 0C123.486 0 125.178 1.60519 126.539 2.89559C127.667 3.96573 128.413 4.67298 130.082 4.67298C131.75 4.67298 132.496 3.96573 133.625 2.89559C134.985 1.60573 136.678 0 139.936 0C141.076 6.3458e-05 142 0.96867 142 2.16352Z" transform="translate(30 142)" id="Path" fill="#FF9AA2" stroke="none" />
    <path d="M55.8487 23L8.15133 23C3.65497 22.9873 0.0131849 19.453 0 15.0894L0 7.9107C0.0131559 3.54701 3.65494 0.0127314 8.15133 0L55.8487 0C60.3451 0.0127314 63.9868 3.54701 64 7.9107L64 15.0894C63.9868 19.453 60.345 22.9873 55.8487 23ZM12.2327 10.1381C12.2735 10.2595 12.366 10.3581 12.4867 10.409L15.067 11.4926L12.492 12.5371C12.371 12.5862 12.2775 12.6832 12.2349 12.8035C12.1923 12.9239 12.2047 13.0562 12.269 13.167L13.2286 14.8223C13.2934 14.9343 13.4049 15.0137 13.5345 15.04C13.6642 15.0672 13.7997 15.0379 13.9052 14.9598L16.1575 13.3155L15.8112 16.023C15.795 16.1498 15.8357 16.2772 15.9228 16.373C16.01 16.4688 16.1353 16.5236 16.267 16.5237L18.2391 16.5237C18.3707 16.5236 18.496 16.4688 18.5832 16.373C18.6704 16.2772 18.711 16.1498 18.6948 16.023L18.3511 13.3342L20.5166 14.9568C20.6207 15.0348 20.7542 15.0657 20.8834 15.0417C21.0126 15.0177 21.125 14.9412 21.1921 14.8314L22.2051 13.1762C22.2732 13.065 22.2883 12.9306 22.2463 12.8078C22.2042 12.6851 22.1093 12.5861 21.9862 12.5366L19.4113 11.5L21.9862 10.4635C22.1076 10.4147 22.2016 10.3178 22.2445 10.1972C22.2874 10.0767 22.275 9.94411 22.2105 9.83303L21.251 8.17781C21.1862 8.06591 21.0748 7.98657 20.9454 7.96013C20.816 7.93369 20.6811 7.96273 20.5753 8.03981L18.3494 9.65977L18.6949 6.97751C18.7113 6.85062 18.6707 6.723 18.5835 6.62712C18.4963 6.53125 18.3709 6.47637 18.2391 6.47645L16.267 6.47645C16.1352 6.47631 16.0097 6.53117 15.9225 6.62706C15.8353 6.72295 15.7947 6.85061 15.8112 6.97751L16.1557 9.65192L13.9328 8.01546C13.8283 7.93842 13.6948 7.90848 13.566 7.93319C13.4373 7.9579 13.3256 8.0349 13.2591 8.14475L12.2731 9.77383C12.2065 9.88404 12.1918 10.0166 12.2327 10.1381ZM27.2468 10.409C27.1261 10.3581 27.0337 10.2595 26.9929 10.138C26.9521 10.0166 26.9669 9.884 27.0334 9.77383L28.0193 8.14475C28.0858 8.03488 28.1975 7.95786 28.3263 7.93314C28.4551 7.90843 28.5887 7.9384 28.6932 8.01546L30.916 9.65192L30.5714 6.97751C30.555 6.85061 30.5955 6.72295 30.6827 6.62706C30.7699 6.53117 30.8954 6.47631 31.0272 6.47645L32.9992 6.47645C33.131 6.47625 33.2565 6.53109 33.3438 6.627C33.431 6.7229 33.4715 6.8506 33.4549 6.97751L33.1096 9.65977L35.3355 8.03981C35.4413 7.96273 35.5761 7.93368 35.7056 7.96012C35.835 7.98656 35.9463 8.06591 36.0111 8.17781L36.9707 9.83303C37.0351 9.94412 37.0475 10.0767 37.0046 10.1972C36.9617 10.3177 36.8678 10.4146 36.7464 10.4635L34.1714 11.5L36.7464 12.5366C36.8696 12.586 36.9646 12.685 37.0066 12.8078C37.0486 12.9306 37.0336 13.065 36.9653 13.1762L35.9525 14.8314C35.8853 14.9412 35.7729 15.0177 35.6437 15.0417C35.5145 15.0657 35.381 15.0348 35.2768 14.9568L33.1114 13.3342L33.4549 16.023C33.4711 16.1498 33.4305 16.2772 33.3433 16.373C33.2561 16.4688 33.1308 16.5236 32.9992 16.5237L31.0272 16.5237C30.8956 16.5236 30.7702 16.4688 30.6831 16.373C30.5959 16.2772 30.5553 16.1498 30.5714 16.023L30.9178 13.3155L28.6653 14.9598C28.5598 15.0379 28.4244 15.0672 28.2948 15.04C28.1652 15.0137 28.0536 14.9344 27.9889 14.8223L27.0293 13.167C26.9651 13.0561 26.9527 12.9239 26.9953 12.8035C27.0379 12.6832 27.1314 12.5863 27.2523 12.5371L29.8273 11.4926L27.2468 10.409ZM41.7531 10.1381C41.794 10.2595 41.8865 10.3581 42.0072 10.409L44.5873 11.4926L42.0124 12.5371C41.8915 12.5862 41.798 12.6832 41.7554 12.8035C41.7128 12.9239 41.7252 13.0562 41.7895 13.167L42.749 14.8223C42.814 14.9343 42.9256 15.0136 43.0552 15.04C43.1848 15.0663 43.3199 15.0371 43.4257 14.9598L45.678 13.3155L45.3317 16.023C45.3155 16.1498 45.3561 16.2772 45.4433 16.373C45.5305 16.4688 45.6558 16.5236 45.7875 16.5237L47.7595 16.5237C47.8912 16.5236 48.0164 16.4687 48.1036 16.3729C48.1908 16.2772 48.2314 16.1498 48.2153 16.023L47.8716 13.3342L50.037 14.9568C50.1412 15.0348 50.2747 15.0657 50.4039 15.0417C50.5331 15.0177 50.6454 14.9412 50.7126 14.8314L51.7255 13.1762C51.7937 13.065 51.8087 12.9306 51.7667 12.8078C51.7247 12.6851 51.6298 12.5861 51.5066 12.5366L48.9317 11.5L51.5066 10.4635C51.628 10.4147 51.7221 10.3178 51.765 10.1972C51.8079 10.0767 51.7955 9.94411 51.7309 9.83303L50.7714 8.17781C50.7066 8.06591 50.5953 7.98657 50.4658 7.96013C50.3364 7.93369 50.2015 7.96273 50.0958 8.03981L47.8698 9.65977L48.2153 6.97751C48.2317 6.85062 48.1912 6.723 48.104 6.62713C48.0168 6.53126 47.8913 6.47637 47.7595 6.47645L45.7875 6.47645C45.6557 6.47631 45.5302 6.53117 45.4429 6.62706C45.3557 6.72295 45.3152 6.85061 45.3317 6.97751L45.6762 9.65192L43.4533 8.01546C43.3488 7.93842 43.2153 7.90847 43.0865 7.93318C42.9577 7.9579 42.846 8.0349 42.7796 8.14475L41.7935 9.77383C41.727 9.88404 41.7123 10.0166 41.7531 10.1381Z" transform="translate(156 106)" id="Shape" fill="#FF9AA2" fill-opacity="0.3" fill-rule="evenodd" stroke="none" />
    <path d="M8.15133 0L55.8487 0C60.3451 0.0127334 63.9868 3.54702 64 7.9107L64 15.0894C63.9868 19.453 60.345 22.9873 55.8487 23L8.15133 23C3.65497 22.9873 0.013187 19.453 0 15.0894L0 7.9107C0.0131559 3.54701 3.65495 0.0127314 8.15133 0ZM36.7464 12.5366C36.8696 12.586 36.9646 12.685 37.0066 12.8078C37.0486 12.9306 37.0336 13.065 36.9653 13.1762L35.9525 14.8314C35.8853 14.9411 35.7729 15.0177 35.6437 15.0417C35.5145 15.0657 35.381 15.0348 35.2768 14.9568L33.1114 13.3342L33.4549 16.023C33.4711 16.1498 33.4305 16.2772 33.3433 16.373C33.2561 16.4688 33.1308 16.5236 32.9992 16.5236L31.0272 16.5236C30.8956 16.5236 30.7702 16.4688 30.6831 16.373C30.5959 16.2772 30.5553 16.1498 30.5714 16.023L30.9178 13.3154L28.6653 14.9598C28.5598 15.0379 28.4244 15.0672 28.2948 15.04C28.1652 15.0137 28.0536 14.9343 27.9889 14.8223L27.0293 13.167C26.9651 13.0561 26.9527 12.9239 26.9953 12.8035C27.0379 12.6832 27.1314 12.5863 27.2523 12.5371L29.8273 11.4926L27.2468 10.409C27.1261 10.3581 27.0337 10.2594 26.9929 10.138C26.9521 10.0166 26.9669 9.88399 27.0334 9.77382L28.0193 8.14474C28.0858 8.03486 28.1975 7.95784 28.3263 7.93313C28.4551 7.90842 28.5887 7.93838 28.6932 8.01545L30.916 9.65191L30.5714 6.9775C30.5549 6.8506 30.5955 6.72294 30.6827 6.62705C30.7699 6.53116 30.8954 6.4763 31.0272 6.47644L32.9992 6.47644C33.131 6.47623 33.2565 6.53108 33.3438 6.62698C33.431 6.72289 33.4715 6.85058 33.4549 6.9775L33.1096 9.65975L35.3355 8.03979C35.4413 7.96271 35.5761 7.93367 35.7055 7.96011C35.835 7.98655 35.9463 8.06589 36.011 8.1778L36.9707 9.83303C37.0351 9.94413 37.0475 10.0767 37.0046 10.1972C36.9617 10.3177 36.8677 10.4146 36.7464 10.4635L34.1714 11.5L36.7464 12.5366ZM22.2463 12.8078C22.2042 12.6851 22.1093 12.5861 21.9862 12.5366L19.4113 11.5L21.9862 10.4635C22.1076 10.4147 22.2016 10.3178 22.2445 10.1972C22.2874 10.0767 22.275 9.94411 22.2105 9.83303L21.251 8.1778C21.1862 8.0659 21.0748 7.98656 20.9454 7.96012C20.816 7.93368 20.6811 7.96272 20.5753 8.03979L18.3494 9.65975L18.6949 6.9775C18.7113 6.85061 18.6708 6.72298 18.5835 6.62711C18.4963 6.53123 18.3709 6.47635 18.2391 6.47644L16.267 6.47644C16.1352 6.4763 16.0097 6.53116 15.9225 6.62705C15.8353 6.72294 15.7947 6.8506 15.8112 6.9775L16.1558 9.65191L13.9328 8.01545C13.8283 7.93841 13.6948 7.90846 13.5661 7.93317C13.4373 7.95788 13.3256 8.03489 13.2591 8.14474L12.2731 9.77382C12.2066 9.88403 12.1918 10.0166 12.2327 10.1381C12.2735 10.2595 12.366 10.3581 12.4868 10.409L15.067 11.4926L12.492 12.5371C12.3711 12.5862 12.2775 12.6832 12.2349 12.8035C12.1924 12.9239 12.2048 13.0562 12.2691 13.167L13.2286 14.8223C13.2934 14.9343 13.405 15.0137 13.5346 15.0399C13.6642 15.0672 13.7997 15.0379 13.9052 14.9598L16.1576 13.3154L15.8112 16.023C15.795 16.1498 15.8357 16.2772 15.9229 16.373C16.01 16.4688 16.1354 16.5236 16.267 16.5236L18.2391 16.5236C18.3708 16.5236 18.4961 16.4688 18.5832 16.373C18.6704 16.2772 18.7111 16.1498 18.6949 16.023L18.3512 13.3342L20.5166 14.9568C20.6207 15.0348 20.7543 15.0657 20.8834 15.0417C21.0126 15.0177 21.125 14.9412 21.1921 14.8314L22.2051 13.1762C22.2732 13.065 22.2883 12.9306 22.2463 12.8078ZM51.7667 12.8078C51.7247 12.6851 51.6298 12.5861 51.5066 12.5366L48.9317 11.5L51.5066 10.4635C51.628 10.4147 51.7221 10.3178 51.765 10.1972C51.8078 10.0767 51.7955 9.94411 51.7309 9.83303L50.7714 8.1778C50.7066 8.0659 50.5953 7.98656 50.4658 7.96012C50.3364 7.93368 50.2015 7.96272 50.0958 8.03979L47.8698 9.65975L48.2153 6.9775C48.2317 6.85061 48.1912 6.72298 48.104 6.62711C48.0168 6.53123 47.8913 6.47635 47.7595 6.47644L45.7874 6.47644C45.6557 6.4763 45.5302 6.53116 45.4429 6.62705C45.3557 6.72294 45.3152 6.85059 45.3317 6.9775L45.6762 9.65191L43.4533 8.01545C43.3488 7.93841 43.2153 7.90846 43.0865 7.93317C42.9577 7.95788 42.846 8.03489 42.7796 8.14474L41.7935 9.77382C41.727 9.88403 41.7123 10.0166 41.7531 10.1381C41.794 10.2595 41.8865 10.3581 42.0072 10.409L44.5873 11.4926L42.0124 12.5371C41.8915 12.5862 41.798 12.6832 41.7554 12.8035C41.7128 12.9239 41.7252 13.0562 41.7895 13.167L42.749 14.8223C42.814 14.9343 42.9256 15.0136 43.0552 15.04C43.1848 15.0663 43.3198 15.0371 43.4257 14.9598L45.678 13.3154L45.3317 16.023C45.3155 16.1498 45.3561 16.2772 45.4433 16.373C45.5305 16.4688 45.6558 16.5236 45.7875 16.5236L47.7595 16.5236C47.8912 16.5235 48.0164 16.4687 48.1036 16.3729C48.1908 16.2772 48.2314 16.1498 48.2153 16.023L47.8716 13.3342L50.037 14.9568C50.1412 15.0348 50.2747 15.0657 50.4039 15.0417C50.5331 15.0177 50.6454 14.9412 50.7125 14.8314L51.7255 13.1762C51.7937 13.065 51.8087 12.9306 51.7667 12.8078Z" transform="translate(180 134)" id="Shape" fill="#FF9AA2" fill-rule="evenodd" stroke="none" />
    <path d="M8.15133 0L55.8487 0C60.3451 0.0127294 63.9868 3.54701 64 7.91069L64 15.0894C63.9868 19.453 60.345 22.9873 55.8487 23L8.15133 23C3.65497 22.9873 0.013187 19.453 0 15.0894L0 7.91069C0.0131559 3.54701 3.65495 0.0127294 8.15133 0ZM36.7464 12.5366C36.8696 12.586 36.9646 12.685 37.0066 12.8078C37.0486 12.9306 37.0336 13.065 36.9653 13.1762L35.9525 14.8314C35.8853 14.9411 35.7729 15.0177 35.6437 15.0417C35.5145 15.0656 35.381 15.0347 35.2768 14.9568L33.1114 13.3342L33.4549 16.023C33.4711 16.1498 33.4305 16.2772 33.3433 16.373C33.2561 16.4687 33.1308 16.5236 32.9992 16.5236L31.0272 16.5236C30.8956 16.5236 30.7703 16.4687 30.6831 16.373C30.5959 16.2772 30.5553 16.1498 30.5714 16.023L30.9178 13.3154L28.6653 14.9598C28.5598 15.0379 28.4244 15.0672 28.2948 15.0399C28.1652 15.0137 28.0537 14.9343 27.9889 14.8223L27.0293 13.167C26.9651 13.0561 26.9527 12.9238 26.9953 12.8035C27.0379 12.6832 27.1314 12.5862 27.2523 12.5371L29.8273 11.4926L27.2468 10.409C27.1261 10.3581 27.0337 10.2594 26.9929 10.138C26.9521 10.0165 26.9669 9.88397 27.0334 9.7738L28.0193 8.14472C28.0858 8.03484 28.1975 7.95782 28.3263 7.93311C28.4551 7.9084 28.5886 7.93836 28.6932 8.01543L30.916 9.65189L30.5714 6.97748C30.5549 6.85058 30.5955 6.72292 30.6827 6.62703C30.7699 6.53114 30.8954 6.47628 31.0272 6.47642L32.9992 6.47642C33.131 6.47622 33.2565 6.53106 33.3438 6.62697C33.431 6.72287 33.4715 6.85057 33.4549 6.97748L33.1096 9.65973L35.3355 8.03977C35.4413 7.96269 35.5761 7.93365 35.7055 7.96009C35.8349 7.98652 35.9463 8.06587 36.011 8.17778L36.9707 9.83299C37.0351 9.94409 37.0475 10.0766 37.0046 10.1972C36.9617 10.3177 36.8677 10.4146 36.7464 10.4634L34.1714 11.5L36.7464 12.5366ZM22.2463 12.8078C22.2042 12.6851 22.1093 12.5861 21.9862 12.5366L19.4113 11.5L21.9862 10.4634C22.1076 10.4147 22.2016 10.3177 22.2445 10.1972C22.2874 10.0767 22.275 9.94407 22.2105 9.833L21.2509 8.17778C21.1862 8.06588 21.0748 7.98654 20.9454 7.9601C20.8159 7.93366 20.6811 7.9627 20.5753 8.03977L18.3493 9.65973L18.6948 6.97748C18.7113 6.85059 18.6707 6.72297 18.5835 6.62709C18.4963 6.53122 18.3708 6.47634 18.2391 6.47642L16.267 6.47642C16.1352 6.47628 16.0097 6.53114 15.9225 6.62703C15.8352 6.72292 15.7947 6.85058 15.8112 6.97748L16.1557 9.65189L13.9328 8.01543C13.8283 7.93839 13.6948 7.90844 13.566 7.93316C13.4373 7.95787 13.3256 8.03487 13.2591 8.14472L12.2731 9.7738C12.2065 9.88401 12.1918 10.0166 12.2327 10.138C12.2735 10.2595 12.366 10.3581 12.4867 10.409L15.067 11.4926L12.492 12.5371C12.371 12.5862 12.2775 12.6832 12.2349 12.8035C12.1923 12.9239 12.2047 13.0561 12.2691 13.167L13.2286 14.8223C13.2934 14.9343 13.4049 15.0137 13.5345 15.0399C13.6642 15.0671 13.7997 15.0379 13.9052 14.9598L16.1575 13.3154L15.8112 16.023C15.795 16.1498 15.8357 16.2772 15.9228 16.373C16.01 16.4687 16.1353 16.5236 16.267 16.5236L18.2391 16.5236C18.3707 16.5236 18.496 16.4687 18.5832 16.373C18.6704 16.2772 18.711 16.1498 18.6948 16.023L18.3511 13.3342L20.5166 14.9568C20.6207 15.0347 20.7542 15.0657 20.8834 15.0417C21.0126 15.0177 21.125 14.9411 21.1921 14.8314L22.2051 13.1762C22.2733 13.065 22.2883 12.9306 22.2463 12.8078ZM51.7667 12.8078C51.7247 12.6851 51.6298 12.5861 51.5066 12.5366L48.9317 11.5L51.5066 10.4634C51.628 10.4147 51.7221 10.3177 51.765 10.1972C51.8078 10.0767 51.7955 9.94407 51.7309 9.833L50.7714 8.17778C50.7066 8.06588 50.5953 7.98654 50.4658 7.9601C50.3364 7.93366 50.2015 7.9627 50.0958 8.03977L47.8698 9.65973L48.2153 6.97748C48.2317 6.85059 48.1912 6.72297 48.104 6.62709C48.0168 6.53122 47.8913 6.47634 47.7595 6.47642L45.7874 6.47642C45.6556 6.47628 45.5302 6.53114 45.4429 6.62703C45.3557 6.72292 45.3152 6.85058 45.3317 6.97748L45.6762 9.65189L43.4533 8.01543C43.3488 7.93839 43.2153 7.90844 43.0865 7.93316C42.9577 7.95787 42.846 8.03487 42.7796 8.14472L41.7935 9.7738C41.727 9.88401 41.7123 10.0166 41.7531 10.138C41.794 10.2595 41.8865 10.3581 42.0072 10.409L44.5873 11.4926L42.0124 12.5371C41.8915 12.5862 41.798 12.6832 41.7554 12.8035C41.7128 12.9239 41.7252 13.0561 41.7895 13.167L42.749 14.8223C42.814 14.9343 42.9256 15.0136 43.0552 15.04C43.1848 15.0663 43.3199 15.0371 43.4257 14.9598L45.678 13.3154L45.3317 16.023C45.3155 16.1498 45.3561 16.2772 45.4433 16.373C45.5305 16.4687 45.6558 16.5236 45.7874 16.5236L47.7595 16.5236C47.8912 16.5235 48.0164 16.4686 48.1036 16.3729C48.1908 16.2772 48.2314 16.1497 48.2153 16.023L47.8716 13.3342L50.037 14.9568C50.1412 15.0347 50.2747 15.0657 50.4039 15.0417C50.5331 15.0177 50.6454 14.9411 50.7125 14.8314L51.7255 13.1762C51.7937 13.065 51.8087 12.9306 51.7667 12.8078Z" transform="translate(138 163)" id="Shape" fill="#FF9AA2" fill-rule="evenodd" stroke="none" />
  </g>
</svg>