<svg width="231" height="257" xmlns="http://www.w3.org/2000/svg"><path d="M27.592 226.097c-4.533 0-8.898-4.897-12.045-1.258a3.011 3.011 0 00-.201 3.662 14.74 14.74 0 0012.246 6.543 14.74 14.74 0 0012.247-6.543 3.012 3.012 0 00-.202-3.662c-3.147-3.64-7.511 1.258-12.045 1.258z" fill="none"/><path d="M70.823 168.141c5.299.93 9.156 5.554 9.126 10.944.033 12.32-.073 28.61-.768 36.26-2.057 22.67-6.212 35.035-16.465 49.001-11.854 16.146-28.803 20.212-33.715 21.073l-1.404.246-1.404-.246c-4.916-.863-21.875-4.932-33.726-21.07-10.253-13.97-14.407-26.338-16.463-49.004-.695-7.592-.801-23.909-.768-36.268-.025-5.38 3.82-9.997 9.108-10.936l41.871-7.198 1.377-.237 1.378.237 41.853 7.198zM6.757 220.133c0 11.53 9.328 20.875 20.835 20.875 5.526 0 10.826-2.199 14.733-6.114a20.896 20.896 0 006.103-14.761c0-11.53-9.329-20.876-20.836-20.876-11.507 0-20.835 9.347-20.835 20.876z" fill="#FF9AA2" fill-opacity=".3" fill-rule="evenodd"/><path d="M27.592 223.115c4.932 0 8.93-4.005 8.93-8.946 0-4.942-3.998-8.947-8.93-8.947-4.931 0-8.93 4.005-8.93 8.947 0 4.94 3.999 8.946 8.93 8.946z" fill="none"/><path d="M27.592 199.257c-11.507 0-20.835 9.347-20.835 20.876 0 11.53 9.328 20.875 20.835 20.875 11.507 0 20.836-9.346 20.836-20.875a20.896 20.896 0 00-6.103-14.761 20.815 20.815 0 00-14.733-6.115zm8.93 14.911c0 4.942-3.998 8.947-8.93 8.947-4.931 0-8.93-4.005-8.93-8.947 0-2.372.941-4.648 2.616-6.326a8.92 8.92 0 016.314-2.62c4.932 0 8.93 4.005 8.93 8.946zm-8.93 20.876a14.74 14.74 0 0012.247-6.543 3.012 3.012 0 00-.202-3.663c-1.943-2.247-4.352-1.238-6.977-.138-1.626.681-3.334 1.397-5.068 1.397-1.733 0-3.442-.716-5.067-1.397-2.626-1.1-5.034-2.109-6.978.138a3.011 3.011 0 00-.201 3.663 14.74 14.74 0 0012.246 6.543z" fill="#FF9AA2" fill-rule="evenodd"/><path d="M54.342 29.032c0 6.86-5.537 12.43-12.384 12.457h-49.78a9.503 9.503 0 01-8.624-5.43 9.537 9.537 0 011.231-10.13 9.494 9.494 0 019.672-3.197 9.828 9.828 0 014.029-10.317 9.785 9.785 0 0111.057.01C11.64 4.399 19.356-.821 27.57.23c8.214 1.052 14.373 8.048 14.389 16.344 6.847.028 12.383 5.597 12.383 12.458zM223.505 260.969l-49.336.204c-4.038.016-7.325-3.25-7.342-7.295l-.28-67.917a7.348 7.348 0 012.125-5.2 7.32 7.32 0 015.172-2.171l30.723-.128a7.32 7.32 0 015.182 2.122l18.675 18.502a7.348 7.348 0 012.175 5.19l.203 49.321a7.348 7.348 0 01-2.125 5.2 7.32 7.32 0 01-5.172 2.171z" fill="#FF9AA2" fill-opacity=".3"/><path d="M185.595 202.811a.352.352 0 00-.026-.287l-.733-1.304a.35.35 0 00-.515-.109l-1.7 1.277.264-2.114a.351.351 0 00-.348-.395h-1.505a.35.35 0 00-.348.395l.263 2.108-1.696-1.29a.35.35 0 00-.515.102l-.752 1.284a.352.352 0 00.163.5l1.97.854-1.966.823a.351.351 0 00-.17.497l.732 1.304a.35.35 0 00.516.108l1.72-1.295-.265 2.133a.352.352 0 00.348.395h1.505a.35.35 0 00.348-.395l-.262-2.119 1.653 1.28a.35.35 0 00.516-.1l.773-1.304a.352.352 0 00-.167-.504l-1.966-.817 1.966-.817a.351.351 0 00.197-.21zM196.861 202.811a.352.352 0 00-.026-.287l-.732-1.304a.35.35 0 00-.516-.109l-1.699 1.277.264-2.114a.351.351 0 00-.348-.395h-1.505a.35.35 0 00-.348.395l.263 2.108-1.697-1.29a.35.35 0 00-.514.102l-.753 1.284a.352.352 0 00.163.5l1.97.854-1.966.823a.351.351 0 00-.17.497l.732 1.304a.35.35 0 00.517.108l1.719-1.295-.264 2.133a.352.352 0 00.348.395h1.505a.35.35 0 00.348-.395l-.263-2.119 1.653 1.28a.35.35 0 00.516-.1l.773-1.304a.352.352 0 00-.167-.504l-1.965-.817 1.965-.817a.351.351 0 00.197-.21zM185.595 214.53a.352.352 0 00-.026-.286l-.733-1.304a.35.35 0 00-.515-.11l-1.7 1.277.264-2.113a.351.351 0 00-.348-.395h-1.505a.35.35 0 00-.348.395l.263 2.107-1.696-1.29a.35.35 0 00-.515.103l-.752 1.283a.352.352 0 00.163.5l1.97.855-1.966.823a.351.351 0 00-.17.496l.732 1.305a.35.35 0 00.516.108l1.72-1.296-.265 2.134a.352.352 0 00.348.394h1.505a.35.35 0 00.348-.394l-.262-2.12 1.653 1.28a.35.35 0 00.516-.1l.773-1.304a.352.352 0 00-.167-.504l-1.966-.816 1.966-.817a.351.351 0 00.197-.21zM196.861 214.53a.352.352 0 00-.026-.286l-.732-1.304a.35.35 0 00-.516-.11l-1.699 1.277.264-2.113a.351.351 0 00-.348-.395h-1.505a.35.35 0 00-.348.395l.263 2.107-1.697-1.29a.35.35 0 00-.514.103l-.753 1.283a.352.352 0 00.163.5l1.97.855-1.966.823a.351.351 0 00-.17.496l.732 1.305a.35.35 0 00.517.108l1.719-1.296-.264 2.134a.352.352 0 00.348.394h1.505a.35.35 0 00.348-.394l-.263-2.12 1.653 1.28a.35.35 0 00.516-.1l.773-1.304a.352.352 0 00-.167-.504l-1.965-.816 1.965-.817a.351.351 0 00.197-.21zM208.128 214.53a.352.352 0 00-.026-.286l-.733-1.304a.35.35 0 00-.515-.11l-1.7 1.277.264-2.113a.351.351 0 00-.348-.395h-1.505a.35.35 0 00-.348.395l.263 2.107-1.697-1.29a.35.35 0 00-.514.103l-.753 1.283a.352.352 0 00.163.5l1.97.855-1.965.823a.351.351 0 00-.17.496l.732 1.305a.35.35 0 00.516.108l1.72-1.296-.265 2.134a.352.352 0 00.348.394h1.505a.35.35 0 00.348-.394l-.262-2.12 1.653 1.28a.35.35 0 00.515-.1l.773-1.304a.352.352 0 00-.167-.504l-1.965-.816 1.965-.817a.351.351 0 00.198-.21zM219.394 214.53a.352.352 0 00-.026-.286l-.732-1.304a.35.35 0 00-.516-.11l-1.699 1.277.264-2.113a.351.351 0 00-.348-.395h-1.505a.35.35 0 00-.348.395l.263 2.107-1.697-1.29a.35.35 0 00-.514.103l-.753 1.283a.352.352 0 00.163.5l1.97.855-1.966.823a.351.351 0 00-.17.496l.733 1.305a.35.35 0 00.516.108l1.72-1.296-.265 2.134a.352.352 0 00.348.394h1.505a.35.35 0 00.348-.394l-.262-2.12 1.652 1.28a.35.35 0 00.516-.1l.773-1.304a.352.352 0 00-.167-.504l-1.965-.816 1.965-.817a.351.351 0 00.197-.21zM185.595 226.25a.352.352 0 00-.026-.287l-.733-1.304a.35.35 0 00-.515-.109l-1.7 1.277.264-2.114a.351.351 0 00-.348-.395h-1.505a.35.35 0 00-.348.395l.263 2.108-1.696-1.29a.35.35 0 00-.515.102l-.752 1.284a.352.352 0 00.163.5l1.97.854-1.966.823a.351.351 0 00-.17.497l.732 1.304a.35.35 0 00.516.108l1.72-1.295-.265 2.133a.352.352 0 00.348.395h1.505a.35.35 0 00.348-.395l-.262-2.119 1.653 1.28a.35.35 0 00.516-.1l.773-1.304a.352.352 0 00-.167-.504l-1.966-.817 1.966-.817a.351.351 0 00.197-.21zM196.861 226.25a.352.352 0 00-.026-.287l-.732-1.304a.35.35 0 00-.516-.109l-1.699 1.277.264-2.114a.351.351 0 00-.348-.395h-1.505a.35.35 0 00-.348.395l.263 2.108-1.697-1.29a.35.35 0 00-.514.102l-.753 1.284a.352.352 0 00.163.5l1.97.854-1.966.823a.351.351 0 00-.17.497l.732 1.304a.35.35 0 00.517.108l1.719-1.295-.264 2.133a.352.352 0 00.348.395h1.505a.35.35 0 00.348-.395l-.263-2.119 1.653 1.28a.35.35 0 00.516-.1l.773-1.304a.352.352 0 00-.167-.504l-1.965-.817 1.965-.817a.351.351 0 00.197-.21zM208.128 226.25a.352.352 0 00-.026-.287l-.733-1.304a.35.35 0 00-.515-.109l-1.7 1.277.264-2.114a.351.351 0 00-.348-.395h-1.505a.35.35 0 00-.348.395l.263 2.108-1.697-1.29a.35.35 0 00-.514.102l-.753 1.284a.352.352 0 00.163.5l1.97.854-1.965.823a.351.351 0 00-.17.497l.732 1.304a.35.35 0 00.516.108l1.72-1.295-.265 2.133a.352.352 0 00.348.395h1.505a.35.35 0 00.348-.395l-.262-2.119 1.653 1.28a.35.35 0 00.515-.1l.773-1.304a.352.352 0 00-.167-.504l-1.965-.817 1.965-.817a.351.351 0 00.198-.21zM219.394 226.25a.352.352 0 00-.026-.287l-.732-1.304a.35.35 0 00-.516-.109l-1.699 1.277.264-2.114a.351.351 0 00-.348-.395h-1.505a.35.35 0 00-.348.395l.263 2.108-1.697-1.29a.35.35 0 00-.514.102l-.753 1.284a.352.352 0 00.163.5l1.97.854-1.966.823a.351.351 0 00-.17.497l.733 1.304a.35.35 0 00.516.108l1.72-1.295-.265 2.133a.352.352 0 00.348.395h1.505a.35.35 0 00.348-.395l-.262-2.119 1.652 1.28a.35.35 0 00.516-.1l.773-1.304a.352.352 0 00-.167-.504l-1.965-.817 1.965-.817a.351.351 0 00.197-.21zM185.595 237.97a.352.352 0 00-.026-.287l-.733-1.304a.35.35 0 00-.515-.11l-1.7 1.277.264-2.113a.351.351 0 00-.348-.395h-1.505a.35.35 0 00-.348.395l.263 2.107-1.696-1.29a.35.35 0 00-.515.102l-.752 1.284a.352.352 0 00.163.5l1.97.855-1.966.823a.351.351 0 00-.17.496l.732 1.304a.35.35 0 00.516.109l1.72-1.296-.265 2.134a.352.352 0 00.348.394h1.505a.35.35 0 00.348-.394l-.262-2.12 1.653 1.28a.35.35 0 00.516-.1l.773-1.304a.352.352 0 00-.167-.504l-1.966-.817 1.966-.816a.351.351 0 00.197-.21zM196.861 237.97a.352.352 0 00-.026-.287l-.732-1.304a.35.35 0 00-.516-.11l-1.699 1.277.264-2.113a.351.351 0 00-.348-.395h-1.505a.35.35 0 00-.348.395l.263 2.107-1.697-1.29a.35.35 0 00-.514.102l-.753 1.284a.352.352 0 00.163.5l1.97.855-1.966.823a.351.351 0 00-.17.496l.732 1.304a.35.35 0 00.517.109l1.719-1.296-.264 2.134a.352.352 0 00.348.394h1.505a.35.35 0 00.348-.394l-.263-2.12 1.653 1.28a.35.35 0 00.516-.1l.773-1.304a.352.352 0 00-.167-.504l-1.965-.817 1.965-.816a.351.351 0 00.197-.21zM208.128 237.97a.352.352 0 00-.026-.287l-.733-1.304a.35.35 0 00-.515-.11l-1.7 1.277.264-2.113a.351.351 0 00-.348-.395h-1.505a.35.35 0 00-.348.395l.263 2.107-1.697-1.29a.35.35 0 00-.514.102l-.753 1.284a.352.352 0 00.163.5l1.97.855-1.965.823a.351.351 0 00-.17.496l.732 1.304a.35.35 0 00.516.109l1.72-1.296-.265 2.134a.352.352 0 00.348.394h1.505a.35.35 0 00.348-.394l-.262-2.12 1.653 1.28a.35.35 0 00.515-.1l.773-1.304a.352.352 0 00-.167-.504l-1.965-.816 1.965-.817a.351.351 0 00.198-.21zM219.394 237.97a.352.352 0 00-.026-.287l-.732-1.304a.35.35 0 00-.516-.11l-1.699 1.277.264-2.113a.351.351 0 00-.348-.395h-1.505a.35.35 0 00-.348.395l.263 2.107-1.697-1.29a.35.35 0 00-.514.102l-.753 1.284a.352.352 0 00.163.5l1.97.855-1.966.823a.351.351 0 00-.17.496l.733 1.304a.35.35 0 00.516.109l1.72-1.296-.265 2.134a.352.352 0 00.348.394h1.505a.35.35 0 00.348-.394l-.262-2.12 1.652 1.28a.35.35 0 00.516-.1l.773-1.304a.352.352 0 00-.167-.504l-1.965-.816 1.965-.817a.351.351 0 00.197-.21z" fill="#FF9AA2"/><path d="M87 123h6v4h-6v-4zM86 104.095h1.653c.902 0 1.633.727 1.633 1.623v3.288a1.613 1.613 0 01-.653 1.29l.328.328a1.295 1.295 0 001.827 0l7.663-7.62a5.257 5.257 0 00-.006-7.458 5.33 5.33 0 00-7.5-.006l-1.07 1.064-1.069-1.063A5.265 5.265 0 0086 94.086v10.009zM43 104h14v4H43v-4z" fill="none"/><path d="M87 123h6v4h-6v-4zM55.497 71.005a5.587 5.587 0 00-3.89 1.54l-1.109 1.063-1.107-1.062c-2.148-2.061-5.631-2.061-7.78 0a5.126 5.126 0 000 7.461l7.94 7.617c.252.24.592.376.947.376s.696-.135.947-.376l7.942-7.617c1.574-1.508 2.046-3.777 1.194-5.749-.852-1.972-2.86-3.256-5.084-3.253zM88.514 110.288l.332.33a1.307 1.307 0 001.846 0l7.743-7.717a5.335 5.335 0 00-.006-7.555 5.375 5.375 0 00-7.58-.006l-1.08 1.077-1.08-1.076a5.315 5.315 0 00-2.835-1.473V79H74.033A2.036 2.036 0 0072 81.027v29.597h15.524c.358 0 .706-.12.99-.336zM43 104h14v4H43v-4z" fill="none"/><path d="M87 123h6v4h-6v-4z" fill="none"/><path d="M74.123 79.285H86V58.312c0-.879-.35-1.721-.975-2.342a3.337 3.337 0 00-2.353-.97H17.665a3.321 3.321 0 00-3.33 3.313v46.05h-1.678c-.915 0-1.657.737-1.657 1.648v3.34c0 .91.742 1.649 1.657 1.649H72.08V81.318a2.043 2.043 0 012.043-2.033zM51.094 88.43l7.78-7.74a5.343 5.343 0 00-.002-7.58 5.408 5.408 0 00-7.619-.002l-1.086 1.08-1.085-1.08a5.408 5.408 0 00-7.62 0 5.343 5.343 0 000 7.582l7.778 7.74a1.315 1.315 0 001.855 0zm5.745 19.251H43.496v-3.319H56.84v3.32z" fill="#FF9AA2" fill-rule="evenodd"/><path d="M85.987 79h19.96A2.053 2.053 0 01108 81.041v49.918a2.053 2.053 0 01-2.052 2.041H74.052A2.053 2.053 0 0172 130.959v-20.103h15.673c.361 0 .712-.12 1-.339l.334.334a1.321 1.321 0 001.864 0l7.817-7.774a5.365 5.365 0 000-7.617 5.435 5.435 0 00-7.658 0l-1.09 1.085-1.09-1.084a5.37 5.37 0 00-2.864-1.484V79zm.601 48.533h6.704v-3.334h-6.704v3.334z" fill="#FF9AA2" fill-rule="evenodd"/><path d="M88 110.66l-7.18-7.475c-1.487-1.546-1.932-3.873-1.127-5.894.804-2.022 2.7-3.339 4.802-3.336.311.001.622.031.928.09V79H73.97c-1.087.003-1.967.92-1.97 2.05V111h15.04c.348-.001.685-.12.96-.34z" fill="#FF9AA2"/><path d="M112.623 211.897v-9.391a13.784 13.784 0 00-6.473-1.66c-5.476 0-8.77 3.81-8.77 10.108 0 4.864 2.223 8.41 6.893 8.41 2.834 0 4.596-1.66 5.516-3.695.383 1.773 1.951 3.846 5.016 3.846 5.13 0 8.195-4.98 8.195-11.655 0-7.768-6.05-14.86-16.887-14.86C95.543 193 88 200.43 88 210.614 88 221.21 95.198 228 106.113 228a26 26 0 008.846-1.584l-1.342-3.77a23.34 23.34 0 01-7.467 1.32c-8.538 0-13.134-5.28-13.134-13.389 0-7.959 4.787-13.58 13.097-13.58 8.04 0 11.908 4.226 11.908 10.939 0 6.073-1.38 8.11-3.407 8.11-1.38 0-1.991-.981-1.991-4.15zm-4.634-7.205v8.977c-.422.982-1.302 2.262-3.025 2.262-1.802 0-2.644-1.432-2.644-4.977 0-4.827 1.38-6.676 3.676-6.676a4.808 4.808 0 011.993.414z" fill="#FF9AA2" fill-rule="evenodd"/><path d="M147 144.164c0 1.194-.924 2.163-2.064 2.163-1.669 0-2.414.707-3.543 1.777-1.36 1.29-3.053 2.896-6.311 2.896-3.259 0-4.952-1.606-6.312-2.896-1.129-1.07-1.874-1.777-3.543-1.777-1.667 0-2.411.707-3.539 1.777-1.36 1.29-3.052 2.896-6.309 2.896-3.258 0-4.95-1.606-6.31-2.896-1.128-1.07-1.873-1.777-3.541-1.777-1.667 0-2.412.707-3.539 1.777-1.36 1.29-3.052 2.896-6.309 2.896s-4.948-1.606-6.307-2.896c-1.127-1.07-1.872-1.777-3.538-1.777-1.666 0-2.41.707-3.538 1.777-1.359 1.29-3.05 2.896-6.307 2.896-3.257 0-4.949-1.606-6.309-2.896-1.127-1.07-1.872-1.777-3.538-1.777-1.667 0-2.411.707-3.539 1.777-1.359 1.29-3.051 2.896-6.308 2.896-3.257 0-4.95-1.606-6.31-2.896-1.127-1.07-1.872-1.777-3.538-1.777-1.666 0-2.41.707-3.538 1.777-1.36 1.29-3.052 2.896-6.309 2.896s-4.949-1.606-6.308-2.896c-1.127-1.07-1.871-1.777-3.537-1.777s-2.411.707-3.538 1.777c-1.36 1.29-3.05 2.896-6.308 2.896-3.257 0-4.949-1.606-6.308-2.896-1.127-1.07-1.872-1.777-3.538-1.777-1.14 0-2.064-.969-2.064-2.163 0-1.195.924-2.164 2.064-2.164 3.257 0 4.949 1.606 6.308 2.896 1.127 1.07 1.872 1.777 3.538 1.777 1.666 0 2.411-.707 3.538-1.777 1.36-1.29 3.051-2.896 6.308-2.896 3.256 0 4.948 1.606 6.307 2.896 1.127 1.07 1.872 1.777 3.538 1.777 1.667 0 2.411-.707 3.539-1.777 1.359-1.29 3.05-2.896 6.308-2.896 3.257 0 4.949 1.606 6.309 2.896 1.127 1.07 1.872 1.777 3.54 1.777 1.665 0 2.41-.707 3.537-1.777 1.36-1.29 3.052-2.896 6.309-2.896s4.949 1.606 6.308 2.896c1.128 1.07 1.872 1.777 3.54 1.777 1.665 0 2.41-.707 3.536-1.777 1.36-1.29 3.051-2.896 6.308-2.896 3.256 0 4.948 1.606 6.307 2.896 1.128 1.07 1.872 1.777 3.538 1.777 1.667 0 2.412-.707 3.54-1.777 1.359-1.29 3.05-2.896 6.308-2.896s4.95 1.606 6.31 2.896c1.128 1.07 1.874 1.777 3.541 1.777 1.667 0 2.412-.707 3.539-1.777 1.36-1.29 3.052-2.896 6.309-2.896 3.259 0 4.951 1.605 6.312 2.896 1.128 1.07 1.874 1.777 3.543 1.777 1.668 0 2.414-.707 3.543-1.777 1.36-1.29 3.053-2.896 6.311-2.896 1.14 0 2.064.969 2.064 2.164z" fill="#FF9AA2"/><path d="M186.849 129H139.15c-4.496-.013-8.138-3.547-8.151-7.91v-7.18c.013-4.363 3.655-7.897 8.151-7.91h47.698c4.496.013 8.138 3.547 8.151 7.91v7.18c-.013 4.363-3.655 7.897-8.151 7.91zm-43.616-12.862c.04.121.133.22.254.271l2.58 1.084-2.575 1.044a.451.451 0 00-.257.266.434.434 0 00.034.364l.96 1.655a.464.464 0 00.677.137l2.252-1.644-.347 2.708a.437.437 0 00.112.35c.087.096.212.15.344.15h1.972a.466.466 0 00.344-.15.437.437 0 00.112-.35l-.344-2.689 2.166 1.623a.47.47 0 00.675-.126l1.013-1.655a.435.435 0 00.041-.368.452.452 0 00-.26-.271l-2.575-1.037 2.575-1.037a.451.451 0 00.259-.266.434.434 0 00-.034-.364l-.96-1.655a.47.47 0 00-.676-.138l-2.226 1.62.346-2.682a.437.437 0 00-.111-.35.465.465 0 00-.345-.152h-1.972a.465.465 0 00-.344.151.437.437 0 00-.112.35l.345 2.675-2.223-1.637a.47.47 0 00-.674.13l-.986 1.629a.435.435 0 00-.04.364zm15.014.271a.451.451 0 01-.254-.271.435.435 0 01.04-.364l.986-1.63a.47.47 0 01.674-.13l2.223 1.638-.345-2.674a.437.437 0 01.112-.35.465.465 0 01.344-.152H164c.132 0 .258.055.345.151a.436.436 0 01.11.35l-.344 2.683 2.226-1.62a.47.47 0 01.675.138l.96 1.655a.434.434 0 01.034.364.452.452 0 01-.259.266l-2.575 1.037 2.575 1.037a.45.45 0 01.26.27.434.434 0 01-.04.37l-1.014 1.654a.47.47 0 01-.676.125l-2.165-1.622.344 2.689a.437.437 0 01-.112.35.466.466 0 01-.344.15h-1.972a.466.466 0 01-.344-.15.437.437 0 01-.112-.35l.347-2.708-2.253 1.645a.464.464 0 01-.37.08.457.457 0 01-.306-.218l-.96-1.655a.434.434 0 01-.034-.364.452.452 0 01.257-.266l2.575-1.044-2.58-1.084zm14.506-.27c.041.12.134.22.254.27l2.58 1.084-2.575 1.044a.452.452 0 00-.257.266.434.434 0 00.035.364l.959 1.655a.47.47 0 00.677.137l2.252-1.644-.346 2.708a.437.437 0 00.111.35c.088.096.213.15.345.15h1.972a.466.466 0 00.344-.15.437.437 0 00.111-.35l-.343-2.689 2.165 1.623a.47.47 0 00.676-.126l1.013-1.655a.434.434 0 00.04-.368.451.451 0 00-.26-.271l-2.574-1.037 2.575-1.037a.452.452 0 00.258-.266.433.433 0 00-.034-.364l-.96-1.655a.47.47 0 00-.676-.138l-2.225 1.62.345-2.682a.437.437 0 00-.111-.35.465.465 0 00-.344-.152h-1.972a.465.465 0 00-.345.151.437.437 0 00-.111.35l.344 2.675-2.223-1.637a.47.47 0 00-.673.13l-.986 1.629a.435.435 0 00-.04.364z" fill="#FF9AA2" fill-opacity=".3" fill-rule="evenodd"/><path d="M163.151 134h47.698c4.496.013 8.138 3.547 8.151 7.91v7.18c-.013 4.363-3.655 7.897-8.151 7.91H163.15c-4.496-.013-8.138-3.547-8.151-7.91v-7.18c.013-4.363 3.655-7.897 8.151-7.91zm28.595 12.537a.45.45 0 01.26.27.434.434 0 01-.04.37l-1.014 1.654a.47.47 0 01-.676.125l-2.165-1.622.344 2.689a.437.437 0 01-.112.35.465.465 0 01-.344.15h-1.972a.465.465 0 01-.344-.15.437.437 0 01-.112-.35l.347-2.708-2.253 1.645a.464.464 0 01-.37.08.457.457 0 01-.306-.218l-.96-1.655a.434.434 0 01-.034-.364.452.452 0 01.257-.266l2.575-1.044-2.58-1.084a.452.452 0 01-.254-.271.435.435 0 01.04-.364l.986-1.63a.47.47 0 01.674-.13l2.223 1.638-.345-2.675a.437.437 0 01.112-.35.465.465 0 01.344-.15H188c.132 0 .258.054.345.15a.436.436 0 01.11.35l-.344 2.683 2.225-1.62a.47.47 0 01.676.138l.96 1.655a.434.434 0 01.034.364.452.452 0 01-.259.266l-2.575 1.037 2.575 1.037zm-14.5.27a.452.452 0 00-.26-.27l-2.575-1.037 2.575-1.037a.451.451 0 00.259-.266.434.434 0 00-.035-.364l-.959-1.655a.47.47 0 00-.676-.138l-2.226 1.62.346-2.682a.437.437 0 00-.111-.35.465.465 0 00-.345-.152h-1.972a.465.465 0 00-.345.151.437.437 0 00-.11.35l.344 2.675-2.223-1.637a.47.47 0 00-.674.13l-.986 1.629a.435.435 0 00-.04.364c.04.121.133.22.254.271l2.58 1.084-2.575 1.044a.452.452 0 00-.257.266.434.434 0 00.034.364l.96 1.655a.457.457 0 00.306.218.464.464 0 00.37-.08l2.253-1.645-.347 2.708a.437.437 0 00.112.35c.087.096.212.15.344.15h1.972a.465.465 0 00.344-.15.437.437 0 00.112-.35l-.344-2.689 2.166 1.623a.47.47 0 00.675-.126l1.013-1.655a.435.435 0 00.041-.368zm29.52 0a.451.451 0 00-.26-.27l-2.574-1.037 2.575-1.037a.452.452 0 00.258-.266.434.434 0 00-.034-.364l-.96-1.655a.47.47 0 00-.676-.138l-2.225 1.62.345-2.682a.437.437 0 00-.111-.35.465.465 0 00-.344-.152h-1.973a.465.465 0 00-.344.151.437.437 0 00-.111.35l.344 2.675-2.223-1.637a.47.47 0 00-.673.13l-.986 1.629a.435.435 0 00-.04.364c.04.121.133.22.253.271l2.58 1.084-2.575 1.044a.452.452 0 00-.257.266.434.434 0 00.035.364l.959 1.655a.47.47 0 00.677.138l2.252-1.645-.346 2.708a.437.437 0 00.111.35c.088.096.213.15.345.15h1.972a.466.466 0 00.344-.15.437.437 0 00.111-.35l-.343-2.689 2.165 1.623a.47.47 0 00.676-.126l1.013-1.655a.434.434 0 00.04-.368zM121.151 163h47.698c4.496.013 8.138 3.547 8.151 7.91v7.18c-.013 4.363-3.655 7.897-8.151 7.91H121.15c-4.496-.013-8.138-3.547-8.151-7.91v-7.18c.013-4.363 3.655-7.897 8.151-7.91zm28.595 12.537a.45.45 0 01.26.27.434.434 0 01-.04.37l-1.014 1.654a.47.47 0 01-.676.125l-2.165-1.622.344 2.689a.437.437 0 01-.112.35.466.466 0 01-.344.15h-1.972a.466.466 0 01-.344-.15.437.437 0 01-.112-.35l.347-2.708-2.253 1.645a.463.463 0 01-.37.08.457.457 0 01-.306-.218l-.96-1.655a.435.435 0 01-.034-.364.452.452 0 01.257-.266l2.575-1.044-2.58-1.084a.452.452 0 01-.254-.271.435.435 0 01.04-.364l.986-1.63a.47.47 0 01.674-.13l2.223 1.638-.345-2.675a.437.437 0 01.112-.35.465.465 0 01.344-.15H146c.132 0 .258.054.345.15a.436.436 0 01.11.35l-.344 2.683 2.225-1.62a.47.47 0 01.676.138l.96 1.655a.434.434 0 01.034.364.452.452 0 01-.259.266l-2.575 1.037 2.575 1.037zm-14.5.27a.452.452 0 00-.26-.27l-2.575-1.037 2.575-1.037a.451.451 0 00.259-.266.434.434 0 00-.035-.364l-.96-1.655a.47.47 0 00-.676-.138l-2.225 1.62.346-2.683a.437.437 0 00-.112-.35.465.465 0 00-.344-.15h-1.972a.465.465 0 00-.345.15.436.436 0 00-.11.35l.344 2.675-2.223-1.637a.47.47 0 00-.674.13l-.986 1.629a.434.434 0 00-.04.364c.04.121.133.22.254.271l2.58 1.084-2.575 1.044a.451.451 0 00-.257.266.434.434 0 00.034.364l.96 1.655a.457.457 0 00.305.218.464.464 0 00.371-.08l2.252-1.645-.346 2.708a.437.437 0 00.112.35c.087.096.212.15.344.15h1.972a.466.466 0 00.344-.15.437.437 0 00.112-.35l-.344-2.689 2.166 1.623a.47.47 0 00.675-.126l1.013-1.655a.434.434 0 00.041-.368zm29.52 0a.451.451 0 00-.26-.27l-2.574-1.037 2.575-1.037a.451.451 0 00.258-.266.434.434 0 00-.034-.364l-.96-1.655a.47.47 0 00-.676-.138l-2.225 1.62.345-2.683a.437.437 0 00-.111-.35.465.465 0 00-.344-.15h-1.973a.465.465 0 00-.344.15.437.437 0 00-.111.35l.344 2.675-2.223-1.637a.47.47 0 00-.673.13l-.986 1.629a.435.435 0 00-.04.364c.04.121.133.22.253.271l2.58 1.084-2.575 1.044a.452.452 0 00-.257.266.434.434 0 00.035.364l.959 1.655a.47.47 0 00.677.138l2.252-1.645-.346 2.708a.437.437 0 00.111.35c.088.096.213.15.344.15h1.973a.466.466 0 00.344-.15.437.437 0 00.111-.35l-.343-2.689 2.165 1.623a.47.47 0 00.676-.126l1.013-1.655a.434.434 0 00.04-.368z" fill="#FF9AA2" fill-rule="evenodd"/></svg>
