<svg id="Layer_1" xmlns="http://www.w3.org/2000/svg" viewBox="0 0 454 400"><style>.st0{fill:#d1d2d3}.st3{fill:#f8e094}.st5{fill:#ccc}</style><path class="st0" d="M328.6 72.3c-3.8-3.8-7.9-7.4-12.2-10.7-.9-.7-2.1-.5-2.8.3-.7.8-.6 2.1.3 2.8 4.1 3.2 8.1 6.7 11.9 10.4.4.4.9.6 1.4.6s1-.2 1.4-.6c.8-.8.8-2.1 0-2.8zM303.3 52.3c-4.6-2.9-9.3-5.5-14.2-7.9-1-.5-2.2-.1-2.7.9-.5 1.1-.1 2.3.9 2.8 4.7 2.3 9.4 4.9 13.8 7.6.3.2.7.3 1.1.3.7 0 1.3-.3 1.7-.9.6-.9.3-2.2-.6-2.8zM274.3 38.1c-5.1-1.8-10.3-3.4-15.5-4.6-1.1-.3-2.2.4-2.4 1.5-.4 1.1.3 2.2 1.4 2.4 5.1 1.2 10.2 2.7 15.1 4.5.2.1.4.1.7.1.8 0 1.6-.5 1.9-1.3.4-1-.2-2.2-1.2-2.6zM242.8 30.7c-5.3-.7-10.8-1.1-16.2-1.2-1.1 0-2 .9-2 2-.1 1 .8 1.9 1.9 1.9 5.3.1 10.5.5 15.7 1.2h.3c1 0 1.9-.7 2-1.7.1-1.1-.6-2.1-1.7-2.2zM108.5 270.4c-.7-.9-1.9-1-2.8-.3s-1 1.9-.3 2.8c3.3 4.2 6.9 8.3 10.7 12.2.4.4.9.6 1.4.6s1-.2 1.4-.6c.8-.8.8-2 0-2.8-3.6-3.9-7.1-7.8-10.4-11.9zM104.3 91.5c-.9-.6-2.1-.4-2.8.5-3.2 4.4-6.1 9-8.8 13.6-.5 1-.2 2.2.8 2.7.3.2.7.3 1 .3.7 0 1.4-.4 1.7-1 2.6-4.5 5.5-9 8.5-13.3.7-.9.5-2.1-.4-2.8zM127.7 293.1c-.7.9-.6 2.1.3 2.8 3.7 3 7.5 5.9 11.5 8.6v-4.9c-3.1-2.2-6.1-4.4-9-6.8-.9-.7-2.1-.6-2.8.3zM123 67.9c-4 3.6-7.9 7.5-11.5 11.5-.7.8-.7 2.1.2 2.8.4.3.9.5 1.3.5.5 0 1.1-.2 1.5-.7 3.5-3.9 7.3-7.7 11.2-11.2.8-.7.9-2 .1-2.8-.7-.8-1.9-.8-2.8-.1zM91.9 243.7c-.5-1-1.7-1.4-2.7-.9s-1.4 1.7-.9 2.7c2.4 4.8 5 9.6 7.9 14.2.4.6 1 .9 1.7.9.4 0 .7-.1 1.1-.3.9-.6 1.2-1.8.6-2.8-2.9-4.5-5.4-9.1-7.7-13.8zM81.2 214.1c-.3-1.1-1.3-1.7-2.4-1.5-1.1.3-1.7 1.3-1.5 2.4 1.3 5.2 2.8 10.5 4.6 15.5.3.8 1.1 1.3 1.9 1.3.2 0 .5 0 .7-.1 1-.4 1.6-1.5 1.2-2.6-1.7-4.8-3.2-9.9-4.5-15zM78.4 198.6c-.7-5.2-1.1-10.5-1.2-15.7 0-1.1-.9-2-2-2s-2 .9-2 2c.1 5.4.5 10.8 1.2 16.2.1 1 1 1.7 2 1.7h.3c1-.1 1.8-1.1 1.7-2.2zM178 144c.1 0 .1 0 0 0zM205.7 210.9l-.1.2c.1 0 .1-.1.1-.2zM221.4 102.6c0 .1 0 .1 0 0zM161.1 241.7h-.1v.1l.1-.1zM180.6 219.3l-.1-.2c0 .1.1.2.1.2zM298.6 198.5l.1.2c0-.2-.1-.2-.1-.2zM213.1 213z"/><path class="st0" d="M321.9 164c-.2-1.4-1.2-2.5-2.6-2.8l-10.5-2.5c-1.7-.4-3.2-1-4.6-1.7v.1c-.1.2-.2.2-.3.2 0 0-.1-.1-.2-.1h-.1c-.1-.2-.1-.3 0-.5-3.4-1.8-5.9-4.3-7.2-7.5-.6-1.4-.9-2.8-1-4.3l-.1.1-.1.1c-.1.1-.2.1-.2.1s-.1 0-.1-.1v-.1c-.2 0-.2-.1-.2-.2v-.2l.1-.2c0-.1.1-.2.1-.2h.4c-.1-3.4 1-7 3.2-10.5l5.6-9.2c.7-1.2.7-2.7-.2-3.8-6.2-8.6-13.7-16-22.2-22.1-1.1-.8-2.6-.9-3.8-.2l-9.2 5.6c-3.4 2-6.8 3.1-10.2 3.1-7.2 0-13-6.2-15-14.5l-2.3-10.5c-.3-1.3-1.5-2.4-2.8-2.6-10.4-1.6-21.1-.6-31.4 1-1.4.2-2.5 1.2-2.8 2.6l-2.6 10.5c-2 8.3-7.8 13.5-15 13.5-2 0-4.1-.4-6.2-1.2 0 .1-.1.2-.3.3l-.1.1-.1-.1v-.2-.1l.1-.1c-1.2-.5-2.4-1.1-3.6-1.8l-8-4.9h-.1l-.1-.1-.8-.5v.1l-.2.1-.2.1c-.1-.1-.2-.1-.3-.1h-.2l-.1-.1v-.3h.1v-.1h-.1c0-.1.1-.1.1-.1-1-.3-2.2-.2-3.1.5-8.6 6.2-16 13.7-22.1 22.1-.8 1.1-.9 2.6-.2 3.8l5.6 9.2c3.3 5.3 4 10.9 2.1 15.6-1.9 4.7-6.4 8.1-12.5 9.5l-10.5 2.5c-1.3.3-2.4 1.4-2.6 2.8-.8 5.2-1.2 10.5-1.2 15.7 0 5.3.4 10.6 1.2 15.7.2 1.4 1.2 2.5 2.6 2.8l10.5 2.5c6.1 1.5 10.5 4.9 12.5 9.6.1.2.1.4.2.6 0-.2.1-.3.3-.4.1 0 .2 0 .4.1.1.2.1.3.1.5l-.1.1h-.1l-.1.1c-.1.1-.1.2-.3.2.2.7.4 1.4.5 2.2 0 .2 0 .3.1.5.1 0 .2.1.2.1-.1-.2-.1-.3-.1-.4v-.2l.2-.1h.1c.1 0 .2 0 .3.1v.4c.1 0 .1.1 0 .2l-.1.1h-.3l-.1-.1.1.2c0 .1-.1.2-.1.3-.1 0-.1.1-.1.1l-.1.1c.1 1.3 0 2.6-.3 3.9h.1v.4l-.1.1c0 .1-.1.1-.1.1-.5 2.1-1.4 4.2-2.7 6.4l-5.6 9.2c-.7 1.2-.7 2.7.2 3.8 6.2 8.6 13.7 16 22.1 22.1 1.1.8 2.6.9 3.8.1l9.2-5.6c3.3-2 6.8-3.1 10.2-3.1 7.2 0 13 5.2 15 13.5l2.5 10.5c.3 1.4 1.4 2.4 2.8 2.6 5.2.8 10.5 1.2 15.7 1.2s10.5-.4 15.7-1.2c1.4-.2 2.5-1.2 2.8-2.6l2.5-10.5c2-8.3 7.8-13.5 15-13.5 3.3 0 6.8 1.1 10.2 3.1l9.2 5.6c1.2.7 2.7.7 3.8-.1 3.6-2.6 6.9-5.4 10.1-8.4l-.1-.1c0-.2 0-.3.1-.4l.1-.1.3.1.1.1c4.3-4.1 8.2-8.5 11.7-13.3.8-1.1.9-2.6.2-3.8l-5.6-9.2c-3.3-5.4-4-10.9-2.1-15.6s6.4-8.1 12.5-9.6l10.5-2.5c1.4-.3 2.4-1.4 2.6-2.8.8-5.2 1.2-10.5 1.2-15.7-.4-5.3-.8-10.6-1.5-15.8zm-195.2 31.4c-.1 0-.1.1-.1.1l-.1.1h-.3c-.1-.1-.1-.2-.1-.4-.1-.2 0-.2 0-.2l.2-.1c.1.1.1.1.2.1 0 0 .1.1.2.1l.1.1c0 .1-.1.2-.1.2zm22.1-26.5l.2-.1c.3 0 .3.2.3.3v.1l-.1.1-.1.1c-.2 0-.2 0-.3-.1s-.1-.3-.1-.4h.1zm.4 39.9l-.1.1h-.1c-.2 0-.2-.2-.2-.2h-.2v-.2l.1-.1-.1-.1v-.2l.1-.1c.1 0 .1-.1.1-.1 0-.1.1-.2.3-.2h.1c.1.1.1.2.1.4v.1c.1.3 0 .5-.1.6zm.1-2.5v.1c0 .1 0 .2-.1.2l-.1.1-.1.1c-.1 0-.2 0-.2-.1-.1-.1-.1-.1-.1-.2v-.1l-.1-.2c.1 0 .1-.1.1-.1.1-.2.1-.3.4-.3v.2l.1-.1h.1l.1.1c0 .1-.1.2-.1.3zm-.4-6.4l.2-.2c.1.1.2.1.2.4l-.2.1c-.1 0-.2-.1-.2-.3zm.6-.7v.1l-.1.2h-.1c0 .1-.1.1-.2.1-.1-.1-.2-.2-.3-.4 0-.2.1-.3.2-.4.1-.1.1 0 .2 0h.1c.2 0 .2 0 .2.1.1 0 .1 0 .1.1s-.1.2-.1.2zm-.6 23v-.1l.3-.2.1.1.1.1c0 .1 0 .2-.1.3s-.2.1-.3.1l-.1-.1v-.2zm-.4 3.7l.1-.1c.2 0 .3 0 .4.2.1.1.1.2 0 .3 0 .1 0 .2-.1.2v.3c0 .2-.2.2-.2.2l-.2-.1v-1zm.7 15.2c-.2 0-.3-.1-.4-.2l-.1.1s0-.4.1-.6c.1-.1.2-.2.3-.2l.1.1.1.1c0 .1 0 .1.1.1l.1.2v.1c0 .2-.2.3-.3.3zm.5 2.9c-.1 0-.2-.1-.2-.1v-.2c.1-.1.3-.1.3 0l.1.1c-.1.2-.1.2-.2.2zm.3-22.9l-.1.1s-.1.1-.2.1-.2-.1-.2-.2h-.1l-.1-.1c-.1 0-.1-.2-.1-.3l.1-.1v-.2l.2-.1h.2c.2.1.3.3.4.6l-.1.2zm127.5-72.3l.1.2c-.1.1-.1.2-.3.2l-.1-.3s.1-.2.3-.1zm-1.9 39.2h.1c.1 0 .2 0 .3.1.1 0 .1.1.1.2l-.1.1h-.2c-.2 0-.3-.2-.3-.3l.1-.1zm-10.4 13.2v-.1l.1-.1c.2-.1.3 0 .3.1v.2s.1.1 0 .2c0 .1-.1.1-.2.1l-.1-.2c0-.1 0-.2-.1 0v-.2zm-3.6-10v-.1s0-.1.1-.2h.1c.3 0 .3.2.3.3v.2c-.1.1-.2.1-.2.1-.1 0-.1-.1-.2-.1h-.1v-.2zm-1.6 6.5c0 .1-.1.1-.1.1l-.1.1c-.1.1-.1.1-.3.1-.2-.2-.1-.3-.1-.4l.1-.1.2-.1.1.1v-.1c.1 0 .2.1.2.3zm.2 3l.2.2c-.1.1-.2.2-.3.2l-.1-.1c-.2-.1-.3-.2-.3-.3v-.2c0-.1.1-.1.2-.1h.1c.2.1.2.2.2.3zm-1.3-75.1l.1-.2c.2 0 .3.1.4.3l-.1.1s-.1.1-.2.1h-.1c-.2-.1-.1-.2-.1-.3zm-1.1 74.7v-.1l.1-.1c.3-.1.5 0 .6.2s.1.4 0 .5l-.1.1s-.1.1-.2.1h-.1l-.1-.1c-.1 0-.1 0-.2-.1-.1-.2-.1-.3 0-.5zm0 5.8c.1-.1.3-.1.4 0v.2l-.2.1h-.1l-.2-.1c0-.1.1-.2.1-.2zm-3.5-84.1l.1-.1h.2l.1.3c0 .2-.1.2-.2.1-.1 0-.2 0-.2-.1v-.2zm-4.6-3.9c0 .1-.1.1-.2.2s-.1.2-.4.1c-.1 0-.2-.2-.3-.3 0-.1 0-.2.1-.3l.2.1h.4s.1 0 .1.1c.1 0 .1.1.1.1zm-.6-7.7c.1 0 .2.1.2.1l.1-.1c.1.1.2.3.2.4s-.1.3-.2.4c-.1 0-.1.1-.1.1l-.1.1c-.1 0-.2-.1-.2-.1-.3-.1-.3-.4-.3-.5 0-.2.2-.4.4-.4zm-.5-2.1h.1c.1 0 .1.1.1.1l.1.2c0 .1-.1.2-.2.1-.1 0-.2-.1-.2-.2 0 0 0-.1.1-.2zm-1.2 22.4h.1c.2-.1.3 0 .3 0l.2.1v.2c.1.1.1.2 0 .4v.2c-.1.1-.1.1-.1.3l-.1.1h-.1c-.1 0-.2-.1-.2-.1l-.1-.2v-.1-.4c-.1 0-.1-.1-.1-.1 0-.2.1-.4.1-.4zm-1 4.6v-.2-.1h.4l.1.2c.1.3 0 .4-.1.5h-.1c-.1 0-.2-.1-.2-.1-.1-.1-.1-.2-.1-.3zm-2.1-21v-.3l.1-.1.1-.1h.1l.1-.1c.1 0 .2.1.2.1s0 .1.1.3c.1.1.1.3-.2.6l-.1.1c-.1 0-.2-.1-.2-.1h-.1l-.1-.1v-.3zm-3.4-13.3h.2c.1 0 .1-.1.2-.1h.2c.3.1.5.2.4.4v.1c-.1.2-.3.2-.5.2h-.2l-.1-.1-.1-.1c-.1 0-.2-.2-.1-.4zm-1.3 27.5h.2l.1.1c0 .1 0 .2-.1.2-.3 0-.3-.1-.3-.2l.1-.1zm-4.8-2.4l.1-.1c0-.1.1-.2.3-.2l.1.1c0 .1 0 .1.1.1h.1v.6c-.1.1-.1.1-.2.1h-.1s-.1.1-.2.1h-.1l-.1-.1v-.1h-.1l-.1-.1c0-.2.1-.3.2-.4zm-1.2-32l.1-.1.3-.1.2.1c.1.2.1.4 0 .5s-.2.2-.4.2l-.1-.1-.1-.1v-.1c-.1 0-.1-.1-.1-.1 0-.1.1-.2.1-.2zm-.3 14.8l.1-.1h.1c.1-.1.2-.1.3-.1l.2.1c0 .2 0 .4-.1.5s-.2.2-.4.2l-.1-.2v-.1c-.1 0-.2-.1-.1-.3zm-2 29.8l.2-.1h.5l.1.1h.5c.3.1.2.4.2.6l-.2.1h-.4l-.1.1c-.1 0-.2 0-.2-.1h-.4c-.2-.2-.3-.4-.2-.7zm-.5.8l.1-.1h.1c.1 0 .2.1.3.1.1.1.2.1.3.1l.2.1c.1.1.1.2.1.4l-.1.1h-.2c-.2.1-.3.1-.4.1h-.1c-.1 0-.2-.1-.2-.1l-.1-.2v-.2s-.1-.1 0-.3zm.2-31.1c0 .1.1.1.1.2.1.1 0 .2 0 .2v.1l-.2.1c-.2 0-.4-.1-.4-.2l-.1-.1c0-.1.1-.1.1-.2.1 0 .1-.1.1-.1l.1-.1c.2-.1.3 0 .3.1zm-.9-5.8l.1-.2h.2c.1 0 .2.1.2.1v-.1c.1 0 .1.1.1.1l.1.1c.1.1 0 .2.1.3 0 .2-.1.4-.5.3h-.3l-.1-.2-.1-.1c0-.2.1-.3.2-.3zm-.7 35c.3.2.2.4.1.6l-.2-.1c0 .1-.1.1-.2.1h-.1l-.1-.1-.1-.1v-.3l.1-.1h.2s.1-.1.2-.1l.1.1zm-.9-32c0-.1.1-.1.1-.2l.1-.1c.2-.1.3 0 .3 0l.1.1v.4l-.1.1c-.1.1-.1.1-.1.4h-.1c0-.1-.1-.1-.1-.2v-.1h-.1l-.2-.2c0-.1.1-.1.1-.2zM227.1 86l.1-.1.1-.1.1.1v.4l-.2.1h-.2l-.1-.2c.1-.1.1-.2.2-.2zm-.9-.9l.1-.1.2-.1c.1.1.3.2.3.5v.1c0 .1-.1.1-.2.1s-.2 0-.3-.1c0-.1-.1-.1-.1-.1l-.1-.2.1-.1zm-.6-3.5c.1 0 .2 0 .3.1v.2c0 .2-.2.3-.3.3s-.2-.1-.2-.3c-.1 0-.1-.1-.1-.2 0 0 .2-.1.3-.1zm.2 12.3h.2l.1.3c.1 0 .2.1 0 0 .2.1.1.1.1.2V94.7h-.1s-.1 0-.1-.1c-.1.1-.1.1-.2.1-.3 0-.5-.2-.5-.4s.2-.4.5-.4zm.4 8l-.1.1c-.1 0-.3.1-.4.1-.2 0-.2-.2-.2-.3s0-.2-.1-.3v-.2c.1 0 .1 0 .1-.1v-.1h.2l.1-.1c.3 0 .4.3.4.4v.2h-.1c.1.1.1.1.1.3zm-1.4 11.3l.1-.2h.3l.1.2c.1.2 0 .3 0 .5h-.1c-.2 0-.4-.1-.5-.2l-.1-.1.2-.2zm-.3-1s0 .1-.1.2c0 .1 0 .1-.1.1h-.4l-.1-.1s-.1 0-.1-.1c-.1-.1 0-.2 0-.2.1-.2.3-.3.5-.3h.1c.1 0 .1.1.2.2v.2zm-.8 2.9c-.1.1-.1.2-.1.2l-.1.1v.1c-.1.2-.3.2-.4.3 0 .1 0 .1-.1.1h-.1c-.1 0-.2-.1-.3-.2 0-.2-.1-.4 0-.6l.1-.1v-.4l.1-.1s0-.1.1-.1c.1-.1.2-.1.6 0 0 .1.1.1.1.1.1.2.2.3.1.6zm.7-6l-.2.2-.2.1h-.1l-.2-.1v-.1-.2l.1-.1h.3l.3-.2v.2h-.1l.1.2zm-1.6-3.7c.1 0 .1.1.1.1l.1.1v.2c-.1.1-.1.1-.1.2 0 0 .1 0 .1.1 0 .2-.1.2-.1.3v.1c.1-.1.2-.1.2-.1h.1v-.1l.1-.1h.1l.1-.1v-.1c.1.1.1.1.1.2v.1s.1.1.1.2h.1l.1-.1h.2l.1.1c.1 0 .2.2.2.4l-.1.1h-.1c0 .1-.1.1-.2.1h-.1l-.1-.1-.1-.1c0-.1-.1-.2-.1-.3 0 .1 0 .1-.1.2h-.2c0 .1-.1.2-.3.2h-.1c-.1-.1-.1-.2-.1-.3v-.2s-.1 0-.2.1h-.2-.2l-.1-.2c.1-.2.1-.2-.1-.3v-.2s.1-.1.1-.2c.1-.2.2-.5.5-.5.1 0 .2.1.2.2zm-1.1-10l-.1-.1v-.1h.1l-.1-.1c0-.2.1-.2.1-.2h.1c.1-.1.2-.1.4 0l.1.1c.1.2 0 .3-.2.5-.1 0-.2-.1-.4-.1zm-.1 7.8h-.1c-.1 0-.2-.1-.2-.2v-.1-.2c0-.1 0-.1.1-.1h.1l.1-.1c.1 0 .2.1.2.2s0 .3-.2.5zm.2 35.6l.2-.2c.2.2.1.3.1.3l-.1.2-.1-.1-.1-.2zm-.1-46.8h.2c0-.1.1-.2.3-.1l.1.1c.1.1.2.1.2.3 0 .2-.1.2-.2.3-.1.1-.2.2-.5.2h-.1l-.1-.1c-.1-.1-.1-.3-.1-.4l.1-.1c0-.1 0-.1.1-.2zm-.8-12.1l.1-.1c.1 0 .2 0 .4.1l.1.1c0 .1 0 .2-.1.3v.1l-.1.1h-.3c-.1-.1-.2-.4-.1-.6zm0 29.6h-.1c-.1 0-.3-.1-.3-.3-.1-.2 0-.4.1-.5h.5c.1.1.1.2.2.3v.2l-.1.2-.1.1h-.2zm.1 30.5v.2h-.1v.2h-.2l-.1.1c-.1-.1-.1-.2-.1-.2l-.1-.1V139.9c.2-.1.3 0 .4 0l.2.1zm-1.1-60.7c0-.1 0-.1 0 0 0-.1 0 0 .1 0v-.2c.2-.2.4-.2.6.2.1.1.1.3.1.5l-.1.1h-.4c-.1 0-.2-.1-.3-.1l-.1-.1c0-.2.1-.3.1-.4zm-1.7 4.5l.1-.1.1-.1s0-.1.1-.1h.2c.1 0 .3.1.3.3-.1.2-.2.2-.3.3l-.2.1c-.2 0-.4-.1-.3-.4zm0 30.8v-.2l.1-.2c.2 0 .3.1.3.1l.2.1c0 .2-.1.3-.1.3v.1l-.2.1s-.1 0-.3.1l-.1-.2c.1-.1.1-.2.1-.2zm-1-27.8s.1.1.2.1l.1.1c0 .1-.1.1-.1.2-.1 0-.1.1-.1.1l-.1.1c-.1 0-.1-.1-.2-.1l-.1-.1-.1-.1c.1-.2.2-.3.4-.3zm-1 12.1c0-.1 0-.1 0 0l.1-.2c.2 0 .3 0 .4.1s.1.2.1.4l-.1.1h-.4l-.1-.2-.1-.1c.1 0 .1 0 .1-.1zm-.7 20.5h.4v.2c0 .2-.1.4-.4.4v-.1-.2c-.1-.1-.1-.2 0-.3zm.1 4.4l.3-.1c.1.1.3.2.3.5l-.1.1h-.1c-.1 0-.2 0-.2-.1h-.2l-.1-.2c0-.1.1-.2.1-.2zm.4 1.7c0-.1 0-.2.1-.3h.1l.2-.1c.2 0 .5.1.3.2 0 .1-.1.2-.1.2v.1l-.1.1-.2.1c-.1 0-.1-.1-.1-.1l-.2-.2zm-.6-23.1l.2-.2h.2l.1-.1c.1.1.1.1.1.2.1 0 .2.1.2.2s0 .2-.1.3c-.1.1-.3.1-.4.1h-.2l-.1-.2c-.1 0-.1 0-.1-.1s.1-.2.1-.2zm-.1 33.6c.1 0 .2-.1.4 0 .1.2.1.3 0 .4H215.4c-.1 0-.1 0-.2-.1-.1 0-.1-.1-.1-.2l.2-.1zm-1.1-28l.1-.1c.1-.1.1-.1.2-.1h.1c.1 0 .1.1.1.1l.3.1v.6l-.1.1h-.2v.1h-.2c-.1-.1-.1-.1-.1-.2l-.1-.1-.2-.1c0-.2.1-.3.1-.4zm-.2 12l.1.1v-.2l.1-.2c.1 0 .1 0 .4.1V120.1l-.2.1h-.1v.1c0 .2-.2.4-.4.4l-.1.1h-.1c-.1 0-.2-.1-.2-.1-.1-.1-.1-.2-.1-.3v-.2c0-.1.2-.2.3-.2l.1.1c.1-.1.2-.1.2-.1zm-1-35.9l.1-.3h.5l.1.1c.1.1 0 .2 0 .4s-.2.2-.2.2H213.2c-.3-.1-.2-.3-.2-.4zm-1 14.5l.1-.2h.2c0 .1.1.1.1.1s.1 0 .2.1v.2c-.1.1-.1.2-.2.2-.1.1-.2.1-.2.2-.2-.1-.2-.3-.2-.4v-.2zm0 38.4h.1v-.1c0-.1.1-.1.2-.1h.4l.1.1c.1.1.1.3.1.4v.2l-.2.1c-.1 0-.2.1-.3.1h-.2s-.1-.1-.1-.2c0-.2 0-.2-.1-.2l-.1-.2s0-.1.1-.1zm-.6-18.3v-.2l.1-.1c.2 0 .2.2.2.3l.2.1c-.1 0-.1.1-.1.1-.1.1-.2.2-.3.2l-.1-.1c-.1-.1 0-.2 0-.3zm-.8 1.7l.2-.1h.1c.1.1.1.1.3.2v.2l.1.1c0 .1 0 .2-.1.3-.1 0-.1.1-.1.1l-.1.1h-.1l-.1-.1h-.1c-.2-.1-.3-.3-.3-.5s.1-.3.2-.3zm-1.6-16.8l.1-.1-.1.1.1-.2v-.1c0-.1.1-.1.2-.1h.1v.1l.1-.2c.1 0 .2 0 .1.1h.1l.1.1c.1.2 0 .3 0 .4v.2l-.1.1c-.1.1-.2.1-.2.1-.1.1-.2.1-.3.1l-.1-.2-.1-.2v-.2zm-5.2-5.8v-.3l.1-.1.1-.1c.1 0 .2.1.2.1h.2l.1.1c0 .3-.2.5-.5.5h-.1l-.1-.2zm.6 34.9c0 .1-.1.2-.1.2l-.2.2c-.1 0-.1 0-.2-.1v-.2l.1-.1h.1v-.1l.2-.1c0 .1.1.1.1.2zm-.7-19.1h.2c.1-.1.1-.1.2-.1s.1 0 .2.2c-.1.2-.2.3-.5.3h-.1l-.1-.2c0-.1 0-.1.1-.2zm-.3 19.2c.1 0 .2.1.3.2v.1c0 .1 0 .1-.1.1l-.1.1h-.1l-.1-.1-.1-.2c.1-.3.2-.3.2-.2zm-3.4 15.8c.1-.1.2-.1.3-.1h.2c.2.1.4.5.2.8l-.1.1H200.3h-.1l-.1-.1-.1-.1v-.2c-.1-.1-.1-.2-.1-.3l.1-.1zm-2.3-31.4l.1-.1c0-.2.1-.5.3-.6 0-.2 0-.2.1-.2h.2c.1-.1.2-.1.4-.1.3 0 .6.1.7.2v.1c0 .2.1.3.1.5s.1.4.1.6v.1s0 .1-.1.1c0 .1-.1.2-.1.2l-.1.1-.1.1c-.1-.1-.2 0-.3 0-.1.1-.2.1-.4.1 0 0-.1.1-.2.1h-.1l-.1-.1v-.1l-.1-.1v-.1s-.1 0-.1-.1l-.1-.2-.2-.2v-.3zm-1.2 30.5h.1c.2 0 .5.1.4.6-.1.1-.2.1-.3.1h-.2c-.2-.2-.3-.4 0-.7zm-2.6 10.1v-.1l.1-.2v-.2l.1-.1h.4v.1l.1.1-.1.2c.1-.1.1 0 0 0 0 0-.1.1-.1.4h-.2-.1c-.1 0-.1 0-.2-.2zm-4.7-40.8v-.2h.1v-.3c0-.1.1-.1.1-.1h.1l.1-.2c.2.1.3.2.5.3v.2l.1.1c0-.1.1-.1.1-.2l.2-.1h.1c.1 0 .2 0 .3.1 0 .1 0 .2.1.5l.1.1c-.2.2-.4.3-.6.3l-.1-.1s-.1 0-.1-.1h-.8l-.1-.1-.2-.1v-.1zm-.1 21.2c-.1 0-.1.1-.1.1l.1-.1c.2 0 .2.1.3.2 0 .1-.3.2-.4.2l-.1-.1s-.1-.1 0-.2c0-.1.1-.1.2-.1zm-.9-18.8v-.2l.1-.1h.2c.1 0 .2 0 .3.1s.1.2-.1.2l-.1.1h-.1s-.1.1-.2.1l-.1-.2zm-7.7 9.9h-.1c-.3 0-.4-.3-.4-.4v-.2c.1-.1.2-.1.3-.1s.2.1.3.1v.1c.1.3 0 .4-.1.5zm-1.1-12v-.4c0-.1.1-.1.1-.1.2-.1.4-.2.6-.1l-.1-.1c-.1-.3.1-.3.2-.4 0-.1.1-.1.1-.1h.1c.2 0 .2.2.2.3v.1l-.1.2h-.1l-.2.1s.1 0 0 .2c0 0 0 .1.3.4-.1.1-.1.1-.2.1h-.1v-.1l-.2.2h-.4l-.1-.1h-.1c-.1-.1 0-.1 0-.2zm-1.4-9.5c.2-.2.4-.2.6-.1l.1.1v.2l-.1.1c-.1.1-.3.1-.4.1h-.2l-.1-.1c0-.1 0-.2.1-.3zm.3 36.3v.2l-.1.1h-.1c-.1 0-.2-.1-.3-.2 0-.1.1-.1.1-.1-.2-.1-.3-.2-.3-.6 0-.1.1-.2.2-.2l.2-.2c.2 0 .4 0 .6.2v.1c0 .3-.2.6-.3.7zm-1.2-5.8c.1 0 .2 0 .2.1l.1.1v.1h.1l.1-.1c.2.1.3.3.3.5l-.1.1c0 .1 0 .1-.2.2-.1 0-.1.2-.4.2v.1c0 .1-.1.1-.1.1l-.1.2-.2.1h-.1l-.1-.2c.1-.2 0-.2-.1-.3l-.1-.1c0-.1 0-.2.1-.3 0-.1.1-.1.2-.1v-.1c0-.1 0-.2.1-.3l.1-.1h.1l.1-.2c-.1 0-.1 0 0 0zM177 125c0 .2 0 .4-.2.5v-.1c-.3 0-.4 0-.5-.1l-.1-.1.1-.1v-.2c.2-.2.5-.2.7.1zm-.8-9.7h.1c.2-.1.3 0 .3.1v.1c.1.1.1.2.1.4l-.2.1s-.1.1-.3.1h-.1l-.1-.1-.1-.1c0-.3.1-.5.3-.6zm-.7 24c.1.1.1.2.2.3.1.2.1.3.4.1l.1.1c0 .2-.1.3-.1.3v.1l-.1.1-.2.1c-.1 0-.2 0-.3.1s-.2.1-.3.1-.2 0-.3-.1v-.1c.1-.1.2-.3.4-.3l-.1-.1h-.1c-.2-.2-.2-.3-.1-.4V139.3h.5zm-2.1 78.9c.1-.1.1-.1.1-.2.1-.1.1-.1.1-.2v-.1c.3-.1.4 0 .5.1h.1l.1.1c0 .2-.1.3-.2.4 0 .1-.1.1-.1.2l-.2.1-.1.1c-.1 0-.2 0-.2-.1-.1-.1 0-.2 0-.2s-.1-.1-.1-.2zm-.6-2.8h-.1v-.2c-.1-.2-.1-.3-.2-.3.1 0 .1 0 .1-.1l.3-.1c.1 0 .2 0 .2.1l.2.1c.1.2 0 .4-.1.5 0 .1-.1.1-.1.2l-.1.1-.1-.1-.1-.2c0 .1 0 0 0 0zm-2.4-48.1c0-.1.2-.2.3-.2h.1l.2.1c0 .1.1.1.1.3l-.1.1h-.1c-.1.1-.2.1-.3.1h-.1l-.1-.2c.1 0 .1-.1.1-.1l-.1-.1zm.7 29.6l.1-.1c.1-.1.2 0 .2 0V197.1l-.1.2c-.3 0-.3-.3-.2-.4zm.1-3.6c-.1-.2 0-.3 0-.3v-.1l.1-.2H171.6l.2.1v.1c0 .1.1.2 0 .3l-.1.1h-.5zm.5-30.7v-.1c0-.3.1-.4.3-.5l.2-.1c.1.1.2.1.2.1 0 .1.1.2.1.3 0 .2 0 .2-.1.3l-.1.1-.1.1h-.1c-.2 0-.3-.1-.4-.2zm1.1-7.4c.2 0 .3.1.3.1l.1.2.1-.1v-.1c.1-.2.3-.2.4-.2H174c.1.1.1.2.1.2l-.1.2c-.1.1-.1.1-.2.1l-.1.1-.2.1c-.1-.1-.3-.2-.4-.3-.1.1-.1.3-.4.3l-.1-.1s-.1 0-.1-.1v-.2c0-.2.2-.2.3-.2l-.1.1.1-.1zm-.9-11.8c0-.3.2-.4.3-.4s.1-.1.1-.1l.1-.1h.2c0-.1.1-.1.1-.1.1 0 .2.1.2.2.1 0 .2.1.2.2s-.1.2-.2.1c0 .1 0 .2-.1.2h-.4v.2h-.1c-.1 0-.2-.1-.2-.1l-.1.1c-.1 0-.1-.1-.1-.2zm.4 1l.1-.1.1-.1c.2 0 .2 0 .3.1 0 .1 0 .1-.1.2l.1.1c0 .1-.1.2-.1.2l-.1.2h-.1c-.2 0-.4-.1-.4-.3 0-.2.1-.3.2-.3zm2.7 32.3c0 .1-.1.2-.1.2v.1l-.2.1s0-.1-.1-.1c-.1-.1-.3-.2-.3-.4l.1-.1h.1l.1-.1h.2l.1.2s.1.1 0 0l.1.1zm-.2-30.9l-.1.2h-.4c0 .1-.1.1-.2.1h-.1c-.1 0-.1-.1-.1-.1l-.1-.1-.1-.1v-.3l.1-.1h.1c0-.1.1-.1.2-.1.1-.1.3-.1.5 0h.1l.1.1c.1.2 0 .3 0 .4zm-1.9 46.7v-.1c0-.1.1-.2.2-.2s.1 0 .2.1l-.1.3c.3 0 .4.1.5.3.1.1.1.2 0 .4l-.1.1H173.3h-.2l-.1-.2v-.1-.2c0-.1.1-.2.2-.3-.1 0-.2 0-.3-.1zm.5-24.7c.3.1.3.2.3.3l-.1.1c-.1-.1-.2-.1-.2-.4zm.5 30.6v.1c0 .2-.1.3-.2.3h-.1l-.1.1c-.1-.1-.2-.2-.2-.3 0-.2 0-.3.1-.4.3 0 .4.1.5.2zm-.6 6.9c.1-.1.1-.1.2-.3.3-.1.5.1.7.5l-.1.1c-.3.1-.5.2-.6.2h-.2l-.1-.1c-.1-.2 0-.3.1-.4zm.4-51.1v.2l-.1.1h-.1c-.1 0-.2-.1-.2-.1-.1-.1-.1-.2-.1-.3l.2-.1c.1 0 .2 0 .3.2zm-.4 61.5l.1-.2H173.7l.1.1v.2l-.2.1h-.2l-.1-.1v-.1zm.8 5.7H174.4c.1 0 .3.1.2.4l-.1.1h-.3-.1l-.1-.2c0-.1.1-.2.1-.3zm.2-6l-.1-.1c0-.2.1-.2.2-.3h.1c.2 0 .3.1.3.1l.2.1c0 .2 0 .4-.2.5-.2 0-.4-.1-.5-.3zm.7-21.2h-.2l-.2-.1c0-.2 0-.3.1-.4s.2-.1.4-.1l.1.1v.1c0 .1 0 .3-.2.4zm.1-28.7l-.1-.2s.1-.1.2-.1.2.1.2.2c0 0 0 .1-.1.2l-.2-.1c0 .1 0 0 0 0zm-.9-50.7c0-.2 0-.3.1-.4s.1-.2.1-.3l.1-.1H174.8v.1h.2c.2.3.2.5.2.6l-.1.1v.1l-.1.1v.2l-.2.1h-.5c-.1 0-.2-.1-.2-.2s0-.2.1-.3zm-.5 20.6c.1 0 .2.1.2.1.1.1.1.2.1.3l-.2.1c-.2-.1-.2-.2-.2-.3l.1-.2zm-.2 4.1l.1-.1c.1 0 .2.1.2.1 0 .1 0 .2.2.2v.2c0 .1-.1.1-.2.1h-.1l-.2.1c-.1 0-.1-.1-.1-.1l-.1-.2-.1-.1c0-.1.1-.2.2-.2h.1zm-.8-24.1l.2-.1h.1c.1 0 .3 0 .3.3.1.2-.1.3-.2.3h-.1l-.1.1c-.1 0-.2 0-.2-.1-.1-.1-.1-.3 0-.5zm0 25.2h.2l.1.1c0 .1 0 .2-.1.2v.2l-.1.1v.1l-.1.1c.1 0 .1.1.1.2l-.1.1c-.2 0-.3-.1-.3-.2l-.1-.1s-.1-.1-.2-.1l-.1-.1c0-.3.1-.5.2-.6h.5zm-1.3-36l.3-.3h.2l.2.1.1.1c0 .2 0 .3-.1.4v.1l-.1.1h-.1c-.4 0-.5-.2-.5-.5 0 .1 0 .1 0 0zm-.9 40.3l.1-.1-.1-.1c0-.1.1-.1.1-.1 0-.1 0-.2.1-.2 0-.2 0-.2.1-.3l.1-.1h.2c.1-.1.1 0 .2 0h.1l-.2.1v.1c.1.1.1.1.1.2.1.1.3.2.4.3v.2l.1.1v.1h.2c.1 0 .1.1.1.1h.2c.1 0 .2-.1.3 0l.1.2v.1c0 .1-.1.2-.2.3 0 .1.1.1.1.2.1.1.1.1.1.2l-.1.1v.1l-.1.2h-.1v.1c0 .1-.1.2-.2.2h-.1v.4l-.2.1c-.2-.1-.3-.3-.3-.5s-.1-.4-.2-.4l-.1-.2c.1-.1.1-.2 0-.3 0 0-.1-.1-.2-.1l-.1-.2v-.1h-.2l-.1.1c-.1 0-.2-.1-.2-.1-.1-.1 0-.3 0-.4l-.1-.1c0-.1 0-.2.1-.2zm-1 5.7c.2-.1.3-.1.3-.1l.1.1v.3l-.2.1v.1l-.1.1c-.1-.1-.1-.1-.1-.2 0 0-.1-.1 0-.4zm-.6 44.3l.1-.1h.2l.1.1c.1.2-.1.3-.1.3l-.2.1c-.1 0-.1-.2-.1-.3v-.1zm-.9-94.1l.1-.1c.2 0 .2.1.2 0 .1.1.1.1.1.2l-.1.1h-.2l-.1-.2zm-.7 55.8l.1.2c0 .2 0 .3-.1.5h-.2c-.1 0-.2-.1-.2-.2-.1 0-.1-.1-.1-.2.1-.2.3-.3.5-.3zm-2.4-28.9l-.1-.2.1-.1h-.1c0-.2 0-.2.1-.4h.5l.2.2V127.5l-.1.1h-.1c-.1.1-.2.1-.3.1h-.2zm-.2 49.7c-.1 0-.2-.1-.3-.1l-.1-.2c0-.1.1-.2.2-.2h.2l.2.1c.1.2-.1.3-.2.4zm-.3-73.2c.1-.1.2-.2.5-.2l.1.1.3.2s.1.1.1.2v.1c0 .1-.1.2-.3.2h-.4l-.2.1c-.1 0-.1-.1-.1-.2-.1-.1-.1-.2-.1-.2-.1-.1 0-.2.1-.3zm-.1 81.3l.5.1c.1 0 .1 0 0 .2 0 .1.1.2.1.4l-.1.1v-.1h-.1c-.1 0-.3-.1-.4-.2-.1-.1-.1-.2-.1-.4l.1-.1zm-.8-70.5c.1-.1.2-.1.3-.1l.1.2v.2l-.1.1c-.1 0-.2-.1-.2-.1-.1 0-.1-.1-.1-.3zm-.2 78.9v-.1c.1-.1.2-.2.4-.2 0 0 .1.1.2.1l.1.1c.1.3 0 .4-.1.6l-.1.1h-.2-.1l-.2-.2v-.4zm.5 27.5c-.1.1-.2.2-.3.2l-.1-.1c-.1-.1 0-.2 0-.2s.1 0 .2-.1l.2.2zm-1.1-105.2c.1-.1.1-.2.3-.3.2 0 .3.1.2.4v.1c-.1.1-.2.1-.3.1h-.1l-.1-.3zm-.6 16.5h.1c.1.1.1.3.1.4v.1l-.2.2c0 .1-.1.1 0 0-.2.1-.2.1-.3.1h-.1l-.2.1c-.1 0-.2-.1-.2-.2-.1-.1-.2-.1-.2-.3v-.2s0-.1.1-.2c0-.1.1-.1.1-.1h.1v.1l.2-.2h.4c0 .1.1.1.1.2zm-.8 74.1h-.1c-.1 0-.2 0-.2-.1-.2 0-.2-.1-.2-.1 0-.1.1-.2.1-.3 0-.2.1-.2.2-.2s.1-.1.2 0 .1.1.1.2h.1V206.6l-.1.1-.1.1zm.1 1.3v.2c-.1 0-.2.1-.2 0-.1 0-.2 0-.2-.1v-.2H161.3l.1.1zm-.8-4.8l.1-.1h.2l.1.1c0 .1.1.2 0 .3l-.2.1c-.2-.1-.2-.2-.2-.3v-.1zm-.2-1.3h-.2l-.1-.1c-.2-.3-.1-.3-.1-.5v-.2l.1-.1h.2c.1-.1.3-.1.4.1 0 .1 0 .1.2.3v.3l-.1.1c-.1 0-.2.1-.4.1zm.6-41.9h-.1c-.3-.1-.3-.1-.5-.2v-.1c.1-.1.1-.2.1-.2.1-.1.1-.1.1-.2l.1-.3h.2s0-.1.2-.2c.1 0 .1.1 0 0l.1.2c0 .2-.1.3-.1.3v.1c.1.2.1.4-.1.6zm0 36.2c-.1.1-.1.1-.2.1 0 0-.1-.1-.2-.1l-.2.1c-.1-.1-.2-.5-.1-.6h.2c0 .1.2.1.3.1l.1.2c.1 0 .1.1.1.2zm-.2-88.8c0-.2 0-.2.1-.3 0 0 .1 0 .1-.1.1 0 .1 0 .2-.1h.2c.1 0 .2 0 .3.3.1 0 .1.1.1.1h-.1l.2.1c0 .1 0 .4-.2.5 0 0 0 .1-.1.1h-.2-.1c-.1 0-.1-.1-.1-.1-.1 0-.2-.1-.3-.2l-.1-.1v-.2zm-.8-3.2l.2-.1.1-.1s.1 0 .1.1v.1c0 .1-.1.2-.2.2h-.1l-.1-.2zm.1 15.2V119.2H160.4c.2 0 .3.1.3.2.1 0 .1.1.1.1l.1.2c-.1.2-.2.2-.3.2s-.1 0-.1.1l-.2.1c-.2 0-.2-.1-.2-.2v-.4c0 .1 0 0 0 0zm.4 17.6v.2l-.2.1h-.1c-.1-.1-.3-.1-.2-.4l.2-.1s.1.1.2.1l.1.1zm-.6-4.5h.1c.1 0 .2 0 .2.1V133l-.2.1c-.1-.1-.2-.2-.2-.3 0-.1 0-.1.1-.2zm-.1 21.4c0-.2.1-.2.2-.2v-.1c.1-.1.2-.1.3-.1.2 0 .4 0 .5.1l-.1.1v.1h.1v-.1l.1.1c0 .4-.3.5-.6.7h-.1c-.1-.1-.1-.1-.1-.2h-.1c-.1 0-.2-.1-.2-.1-.1-.1 0-.2 0-.3zm.1 43.4v-.1l.1-.1v-.1c0-.1.1-.3.3-.3H160.6l.1.1c0 .1-.1.2-.1.3l.1.1h.2c.1 0 .2.1.2.3l-.1.1v.1l-.1.1h-.4l-.2-.1c-.1-.1-.1-.1-.1-.2h-.3c-.2-.2-.2-.3 0-.2zm-.2 24.9l.2-.1.1.1.1.1.1.2c0 .1-.1.1-.1.1h-.2-.1l-.1-.3v-.1zm-.3-70.6l.1.1c.1.3-.2.4-.3.4h-.1c-.1-.1-.1-.2-.1-.3 0-.1.2-.2.4-.2zm-2-41.5h.1c.2 0 .2.1.2.2v.3c-.1.1-.1.1-.2.1s-.3-.2-.3-.3.1-.2.2-.3zm-.8 56.8c.1-.2.3-.3.5-.3.2.1.4.2.3.6 0 .2-.2.5-.5.5l-.1-.1v-.1c0-.2-.1-.3-.2-.4v-.2zm-.2 3.9c-.1 0-.2-.1-.2-.2-.1-.1-.1-.3-.1-.4l.1-.1h.3c-.1-.1 0-.1 0 0 .1 0 .2.1.3.4l-.2.1-.2.2zm.1 35.6V206.8c0 .1-.1.1-.1.1l-.3-.2c0-.1 0-.1.1-.2 0-.1.1-.1.2-.1l.1.1zm.2-5.7c.1-.1.2-.1.3-.1l.1.1c0 .2-.1.3-.3.3l-.1-.1c-.1-.1 0-.1 0-.2zm-.4-32.2l.2.1h.2c0 .2 0 .3-.1.4v.1H156.3c-.1 0-.2 0-.3-.1v-.1-.1-.2c.1-.1.1-.1.2-.1h.1zm-.8-32.2h.1l-.1-.2c.1-.1.2-.1.3 0l.1.1c0 .1 0 .1-.1.2 0 .1-.1.1-.2.1l-.1-.2zM155 155V154.7h.2l.2-.1h.1c.2.1.3.1.5.3v.1c0 .2-.1.2-.1.3v.1c0 .1-.1.1-.2.1l-.2.1c-.1 0-.1-.1-.1-.1-.1-.1-.2-.1-.3-.2l-.1-.1v-.2zm.1 3.1l.1-.1h.1c.1-.1.2-.2.4-.1h.1c.1.1.1.2.1.4v.2c-.1.1-.2.1-.3.1h-.2c-.1 0-.1-.1-.2-.1v-.1c0-.1-.1-.2-.1-.3zm-.1 9v-.1-.2-.1l.1-.2v.1h.2l.2.2.1.1-.1.2v.4l-.2.1-.3-.3s-.1 0 0-.2zm-.2-.3c0 .1-.1.4-.2.5h-.1c-.3 0-.4-.3-.4-.5v-.2c0-.1.1-.1.2-.1s.3.1.4.2l.1.1zm-.6-7.9l.2.1v.2h-.1l.1.1c-.1.1-.2.1-.3.2-.2 0-.2-.2-.1-.2l-.1-.2c0-.1.1-.2.3-.2zm-.6-1.7v-.1l.1-.1c.1.1.2.1.2.2v.3h-.1c-.1 0-.2 0-.2-.1v-.2zm-2.5-6.5c0-.1.1-.2 0-.3v-.2c.2-.2.5-.2.6 0v.9l-.1.1c-.2 0-.2 0-.2.1h-.1l-.1-.1c-.2-.2-.1-.4-.1-.5zm-.1 11.5l-.1-.1v-.1c-.1-.1 0-.2 0-.3v-.1l.1-.1c.2 0 .4.2.5.4.1-.2.3-.2.6-.1.1 0 .1.1 0 0 .2.3 0 .5-.2.6l-.1.1h-.1c-.2-.1-.2-.2-.3-.3-.1.1-.1.1-.2.1l-.2-.1zm.2 35.3c0-.1.1-.1.1-.1 0-.1 0-.1.1-.2h.1c.1-.1.1-.1.2-.1s.1 0 .2.1c0 .1.1.1.1.1l.1.2.1.2v.1s0 .1-.1.2H151.8l-.1.2c-.1 0-.2-.1-.2-.2l-.1-.2c0-.1 0-.1-.2-.3zm.4 5.3l-.1-.2c-.1-.1-.1-.3 0-.4 0-.1.2-.2.4-.2l.1.1v.1c.1.1.1.2.1.4-.1.2-.2.2-.3.2h-.2zm.4 1l-.1-.1v-.2c.1-.1.2-.1.2-.1h.1l.1.2c0 .1-.1.2-.3.2zm1-6.9h-.2-.1s-.1 0-.2-.1v-.1s.1-.1.2-.1.2 0 .3.1v.2zm0-40.1h-.1v-.2c0-.1-.1-.2 0-.4l.1-.1c.2 0 .2.1.3.1h.1l.1.1c.1.1 0 .2 0 .3v.2l-.1.1c-.2 0-.3 0-.4-.1zm.5 73.3l-.1-.3c.1-.1.3-.1.4 0 .1.1.1.2.1.3l-.1.1h-.2l-.1-.1zm1 2.7s-.1.1-.2.1-.2-.1-.3-.2c0-.1-.1-.1-.1-.1v-.2l-.1-.2c.1 0 .1-.1.1 0 0 0 0-.1.1-.2h.1c.3.1.7.2.6.7l-.2.1zm.5-53.6l-.1-.1c-.1 0-.1-.1-.1-.1-.1-.1 0-.2.1-.3l.1-.1c.1 0 .2.1.2.1h.2c.2.2.3.3.1.6 0 .1-.2.2-.3.2l-.2-.3zm.7 32.4c-.1.1-.1.1-.2.1-.2 0-.3-.1-.3-.4-.1-.1 0-.3.1-.4h.1c.2 0 .4.2.4.6l-.1.1zm.1-49.3s-.1 0-.2-.1v-.1c0-.2.1-.3.1-.3l.2-.1c.1 0 .2.1.2.2.1.1.1.2 0 .3l-.2.1h-.1zm1 87.4v.1c-.1 0-.2.1-.4.1-.1 0-.2-.1-.3-.1-.2-.3-.1-.4 0-.3v-.2l.1-.1c.1-.1.2 0 .3 0h.2l.1.1v.4zm.3-4l-.1.1c-.2 0-.2-.2-.2-.3l-.1-.2c0-.2.3-.2.4 0 .1.1.1.2 0 .4zm.9-48.2l-.1.1c-.1.1-.2.1-.3.1-.2 0-.4-.1-.5-.5 0-.1.1-.1.1-.2v-.1l.1-.1c.2 0 .4 0 .5.1h.1l.1.2v.4zm.5-30.9s0-.1-.1-.1l-.1-.2c0-.2.1-.4.4-.4.2 0 .3 0 .3.1l.2.4v.2l-.2.1c-.1.1-.1.1-.2.1-.2 0-.2-.1-.3-.2zm.6 43.8l-.3-.2s.1-.2.4-.2l.1.1v.2c0 .1-.1.1-.2.1.1 0 .1.1 0 0zm.4 18.4c-.1 0-.2-.1-.2-.2-.1-.1-.1-.3.1-.4.2 0 .3.1.4.2 0 .2-.1.3-.2.4h-.1zm.4.1c.1-.1.4-.1.5 0s.1.2.1.4v.1c-.1.1-.2.1-.3.1h-.2l-.2-.2c0-.1 0-.3.1-.4zm.5 9.8v.1c0 .1-.1.2-.2.2h-.1l-.1-.1.2-.2.1-.1s.1 0 .1.1zm.2 15.9c-.1 0-.1 0-.1.1l-.2.1c-.2 0-.2-.1-.2-.2v-.1l-.1-.2c.1 0 .1-.1.1-.1V253.9H160.4c.2 0 .3.1.3.2.1 0 .1.1.1.1l.1.2c-.1.1-.2.2-.3.2zm.5-11.4v.3l-.1.1h-.5l-.1-.2v-.2l.2-.1h-.1c0-.1.2-.2.4-.1l.1.1v.1h.1zm.6-.5s0 .1-.1.1h-.1l-.1-.1h-.1c-.1 0-.1-.1-.1-.1-.1 0-.2-.1-.3-.2l-.1-.1V242c0-.1 0-.1.1-.2 0 0 .1 0 .1-.1.1 0 .1 0 .2-.1.1.1.1.1.2.3.1 0 .2 0 .3.1.1 0 .1.1.1.1h-.1l.2.1c0 .1 0 .4-.2.5zm.2-94.4c-.1-.1-.1-.2.1-.3 0-.2.1-.2.2-.3l.1-.1.1-.1c.2.1.4.3.4.6 0 .1.1.2.1.5l-.1.1h-.1c-.1.1-.2.1-.3.1l-.1-.1-.2-.2c-.1-.1-.2-.1-.2-.2zm.1 64.1c0-.1-.1-.2.1-.5l.1-.1.1-.1c.2 0 .3.1.4.2.1.2.1.4 0 .6l-.1.1h-.4-.1l-.1-.2zm.3 18.4l-.1-.2c.1-.1 0-.1 0-.2v-.2l.1-.1v-.1c.1 0 .2-.1.3-.1h.4c.1 0 .2.1.2.2v.4c-.1.2-.3.3-.6.3h-.3zm.9 20.1v.1c-.1.1-.2.1-.3.1h-.1l-.1-.2v-.1c.1-.1.1-.2.3-.3.2.1.3.2.2.4zm.1-22.5c0 .1-.1.1-.2.1l-.1-.1h-.2c-.1 0-.1-.1-.1-.2l-.1-.1c-.1-.2 0-.3.1-.3l.2-.1c.1 0 .2.1.3.1l.1.2v.1c0 .1.1.2 0 .3zm.6 21.6l-.1.1c-.1 0-.2-.1-.2-.1-.1 0-.1-.1-.1-.2v-.1c.1-.1.2-.1.3-.1l.1.2v.2zm.2-23.6v.1l-.2.1h-.2l-.3.2c-.1 0-.2-.1-.2-.2h-.1c-.1-.1-.1-.1-.1-.2l.1-.1v-.1c0-.1.1-.2.1-.2v-.1c.1-.1.2-.2.3-.2.2 0 .4.2.5.3.2.2.1.3.1.4zm.1-32.9l-.1-.3c-.1 0-.1-.1-.1-.5.1-.2.2-.3.4-.4h.1c.1 0 .2 0 .2.1h.1l.1.2v.1c.1.1.2.2.1.4 0 .1-.1.1-.1.1l-.1.2c-.1.1-.2 0-.3 0l-.3.1c.1 0 .1 0 0 0zm1 13.3l.1.2c0 .1 0 .2-.2.2h-.1l-.1-.1v-.2c.1-.1.2-.1.3-.1zm.2 32.4c0 .1-.1.2-.3.2h-.4c-.1.1-.1 0-.1-.1-.1-.1-.1-.2-.1-.2-.1-.1 0-.2.1-.3s.2-.2.5-.2l.1.1c0 .1.1.1.1.2 0 0 .1.1.1.3zm.4-65.5h-.1c-.1.1-.2.2-.4.2h-.1c-.1 0-.1-.1-.1-.1v-.1l-.1-.2V173.2l.2-.1h.1c.1 0 .3 0 .5.1.1.1.1.3.1.4l-.1.1zm1.6 59.6l-.2.1-.2.2c-.1-.1-.2-.1-.3-.1h-.2l-.1-.1v-.3h.1v-.1h-.1c0-.1.1-.1.1-.1v-.1l.1-.1c.1-.1.2 0 .2 0l.2-.1c.2 0 .3.2.3.3v.1l.1.1v.2zm-.6-3.4v-.2-.1l.1-.1h.4l.1.1c0 .2 0 .3-.1.4s-.2.1-.3.1l-.2-.2c0 .1 0 0 0 0zm.5-38.4c-.2.2-.4.2-.5.2h-.1l-.1-.1v-.3l.1-.2c.1-.1.1-.1.2-.1 0-.1.1-.2.3-.1l.1.1.1.1c0 .2 0 .3-.1.4zm.5-30.3l-.1.1h-.1c-.1 0-.2-.1-.2-.1l-.1-.1c0-.1.1-.2.2-.2s.2.1.3.1v.2zm0-37.1h-.5l-.1-.1-.1-.2v-.1-.3-.1h.2c.2 0 .3.1.3.2l.2.2c.1.2.1.3 0 .4zm.5 111.6h-.2l-.1-.1v-.1l.1-.1h.2c.1 0 .1.1.1.2l-.1.1zm.6-2.1l-.1.1-.1.1h-.1c-.1-.1-.2-.1-.3-.1l-.1-.1v-.3c-.1 0-.1-.1-.1-.2 0 0 .1-.1.2-.1h.4l.2.2.1.1c0 .2 0 .2-.1.3zm.7-4.3c-.1.1-.2.1-.3.1s-.2-.1-.3-.1l-.1-.1v-.1c0-.1 0-.3.2-.4h.2c.1 0 .3.1.3.3 0 .1-.1.2 0 .3zm-.1-3.5s-.1.1-.2.1h-.1l-.1-.2v-.1c0-.2-.1-.4.2-.6.2 0 .4 0 .5.1s.1.1.1.2c.1 0 .1.1.1.2-.1.2-.4.3-.5.3zm.6-1l-.2.1-.1.1h-.1l-.1-.2-.1-.1.2-.1.1-.1h.1l.1.1.1.2zm.2-84.7v.2h-.4l-.1-.2.1-.2c.2 0 .3.2.4.2zm.6 78c-.1 0-.2-.1-.3-.1-.1-.1-.1-.1-.1-.2-.1 0-.1-.1-.1-.4v-.1l.1-.2h.1l.1-.1H171v.1l.1-.1c.1.1.1.1.1.2.1 0 .1 0 .2.1v.2c0 .1.1.2.1.3v.1c0 .1 0 .1-.1.1l-.2.1h-.3zm1.2 21.4v.1l-.1.1h-.1c-.4 0-.5-.2-.5-.4v-.1c0-.1.1-.1.3-.3h.2l.2.1.1.1c0 .2 0 .3-.1.4zm-.2-18.3l.1-.1s.1 0 .1.1v.1c0 .1-.1.2-.2.2h-.1l-.1-.1.3-.2h-.1zm.6-3.8l-.1.1h-.3c.1 0 .1.1.1.3l-.1.1h-.4l-.1-.1v-.2c-.1 0-.1 0-.1-.1s0-.1.1-.2c0-.2.1-.5.2-.5l.1-.1c.1 0 .2.1.2.1v.1l.1-.2c.1 0 .1.1.1.1.1.1.3.3.2.6zm.1 1.1l.2-.1c.1 0 .1.1.1.1l.1.2c0 .1-.1.2-.2.2s-.1-.1-.2-.1v-.3zm.5 32.1h-.1l-.1.1c-.1 0-.2 0-.2-.1-.1-.1-.1-.3 0-.5l.2-.1h.1c.1 0 .3 0 .3.3.1.2-.1.3-.2.3zm0-14.6c-.1 0-.2-.1-.2-.2v-.1l-.1-.1v-.3-.1c-.1-.1-.1-.1-.1-.2l.1-.1c0-.1-.1-.1-.1-.2s0-.2.1-.3h.1c.2.1.2.2.3.3l-.2.3h.2l.2.1h.1l.2.1c.1.6-.4.7-.6.8zm.6-9.6l.1-.1v-.1l.2-.1c.1 0 .3.1.3.4l-.2.1h-.3l-.1-.2zm1.4 23.1v.1l-.1.1v.2l-.2.1h-.5c-.1 0-.2-.1-.2-.2s0-.2.1-.3c0-.2 0-.3.1-.4s.1-.2.1-.3l.1-.1h.1l.2-.1v.1h.2c.2.3.2.6.2.7l-.1.1zm0-20h-.2s-.1-.1-.1-.2.2-.3.3-.2l.1.1.1.1c0 .1-.1.2-.2.2zm.4-30.8c0-.1-.1-.1-.2-.2s0-.2 0-.2l.1-.1c.2 0 .3.1.3.2l.1.1.1.1v.1c-.1.1-.1.1-.2.1l-.2-.1c.1.1 0 .1 0 0zm1 52s-.1.1-.3.1h-.1l-.1-.1-.1-.1c0-.3.1-.5.3-.6h.1c.2-.1.3 0 .3.1v.1c.1.1.1.2.1.4l-.2.1zm.3-53.9v.1s0 .1-.1.2h-.4l-.1-.1c-.1-.1-.1-.2-.1-.3v-.2c.1-.1.2-.2.3-.1.2 0 .3.1.4.2v.2zm.4-31.9c-.1 0-.2-.1-.2-.2s0-.2.2-.3c.1 0 .3 0 .1.4l-.1.1zm.2 36v-.1l.2-.1h.4l.1.1c0 .1.2.4 0 .6h-.2c0 .1 0 .1-.1.1s-.1-.1-.3-.3c-.2-.1-.1-.2-.1-.3zm.1 15c0-.1.1-.1.1-.1l.1-.1h.4l.1.1c.1 0 .1.1.1.1.1.1.2.2.1.5H178.1c-.2 0-.4-.1-.5-.3v-.1l-.1-.1zm1.2 26.7l-.1.1c-.1.1-.3.1-.4.1h-.2l-.1-.1c0-.1 0-.2.1-.3.2-.1.4-.2.6-.1l.1.1v.2zm0-17.8c-.1.2-.3.4-.5.4s-.3-.1-.4-.3v-.1c.1-.2.2-.4.5-.4.2 0 .3.1.4.3v.1zm0-36.5c0 .1-.1.1-.1.2l-.1.1h-.2s0 .2-.1.2h-.3v-.2h-.2c0-.3.1-.5.4-.6v-.2l.2-.1.1-.1c.1 0 .2.1.2.1h.1l.1.2c0 .2 0 .3-.1.4zm1.1 24.7l-.1.1h-.1c-.1 0-.2-.1-.2-.1h-.3v-.3l.2-.1c.1-.1.1-.1.2-.1h.1l.1.2v-.1c.1.1.2.2.1.4zm.8 38.1l-.1.2h-.1l-.2.1-.2-.2c-.1-.3.1-.3.2-.4 0-.1.1-.1.1-.1h.1c.2 0 .2.2.2.4zm.3-31.5c0 .2-.1.3-.3.4h-.5c-.1-.1-.1-.2-.1-.2l-.1-.1v-.1c0-.1.1-.2.1-.2v.1l.1-.2.1-.1c0-.1.2-.2.3-.2l.1.1v.2l.4.1c-.1.1-.1.1-.1.2zm.3-111.8l-.2-.1v-.2c0-.1 0-.2.1-.2h.1v-.1c.1-.1.3-.1.4 0s.2.1.2.1l.1.1c0 .2-.1.4-.2.5l-.1.1-.1.1c-.1 0-.1 0-.2-.2 0-.1-.1-.1-.1-.1zm.6 33.9h-.1s-.1.1-.4 0c0-.2.2-.3.4-.3.1 0 .1.1.2.1l-.1.2zm.3-17.9h-.2l-.1-.1.1-.1.1-.1-.1-.1c0-.1.1-.2.1-.2v-.1h.1v-.1h.1l.1-.3c.2 0 .3.1.4.2l.1.1h.1c.1.1.1.3 0 .4s-.1.2-.1.2l-.2.1c-.1.1-.1.2-.2.2s-.1 0-.1-.1l-.1.1-.1-.1zm.8 14.3l-.1-.1-.1.1h-.1l-.2.1c-.1 0-.1-.1-.1-.1-.1-.1 0-.2.1-.2l.1-.1h.3c.1 0 .1 0 .3-.1.1 0 .2 0 .2.1v.2l-.1.1H182.9zm1.1 13.7h-.1c-.1.1-.2.1-.2.2l-.1.1h-.3l-.1-.1v-.1c-.2-.2 0-.5 0-.6l.1-.1c.1-.1.2 0 .4 0 .2.1.3.2.3.6zm.4-8.9s-.1 0-.1-.1v-.1-.1c-.1-.2 0-.3.1-.4l.2-.2c.2 0 .6 0 .6.6 0 .1-.1.2-.2.2h-.1c-.1.1-.2.1-.3.1h-.2zm.8 53.7c-.1.1-.3.1-.4.1s-.2-.1-.2-.2-.1-.2.1-.2v-.1H185l.1.2v-.1s.1 0 .1.1c.1.1 0 .2 0 .2zm.2-79.2l-.1-.2v-.1c0-.1-.1-.2 0-.4l.1-.1.2-.1h.1s.1 0 .2.1c0 .6-.4.7-.5.8zm.6 12.4c0-.1 0-.1 0 0 0-.2.2-.3.3-.3h.1c.2.1.4.3.4.6l-.1.1s-.1 0-.1.1-.1.2-.3.3c-.2 0-.2-.2-.1-.1v-.1h.1v-.1l-.2.1c-.2-.2-.2-.3-.1-.6zm.9 17.6v.1l-.1.1H186.5c.1 0 .1-.1.1-.1l-.2.1c-.2-.1-.3-.3-.2-.5 0-.1.1-.1.1-.1l.1-.1c.1 0 .1-.1.2-.1.2 0 .3.1.4.3 0 .1 0 .2-.1.3zm.1-16c-.1 0-.3.1-.6 0l-.3.1c0-.1 0-.2.1-.3 0-.1.1-.1.1-.1 0-.1.1-.2.1-.2l.2-.2c.3.1.5.2.5.6l-.1.1zm0-10.8c.1-.2.1-.2 0-.3-.1-.1-.2-.2-.2-.3v-.2h-.1v.1c-.2 0-.2-.1-.2-.2v-.2c.1 0 .1-.1.1-.1 0-.1.1-.1.1-.2v-.3h.1c.1-.1.1-.1.2-.1v.2l.1-.3c.1 0 .2.1.3.1h.4l.1.2-.1.2s0 .1.1.1l.1.2c-.1.1-.1.2 0 .3.1.1.1.3.1.5v.2c-.1 0-.1.1-.1.2v.2l-.1.1h-.4c-.2-.1-.3-.1-.5-.4zm.4 10.6l.1-.1c.1 0 .2.1.2.2s-.1.2-.2.2l-.1-.1v-.2zm.5 36l-.2.1c0-.1-.1-.1-.1-.1h-.1l-.1-.2c.1-.1.2-.1.3-.1l.2.2v.1zm-.1-18.4c-.1 0-.2 0-.3-.1v-.1c0-.1.1-.1.1-.1l-.1-.2.1-.1c.1-.1.2-.2.5-.1.3 0 .3.2.3.2l-.1.1c-.1.1-.1.2-.2.2l-.1.1-.2.1zm15.2 75.8v.1l-.1.1h-.2l-.1.1c-.1 0-.2-.1-.2-.2-.1 0-.2 0-.2-.1v-.2l-.1-.1v-.1h.1v-.2h.1c.3-.1.6-.1.7.1.1.1.1.2.1.4l-.1.1zm.7 43.2c0 .1 0 .1-.1.1l-.1.1h-.1l-.1-.1v-.1l-.1-.1c.1-.3.2-.3.2-.2.1 0 .2.1.3.2v.1zm0-19.1l-.1-.2c0-.1 0-.1.1-.2h.2c.1-.1.1-.1.2-.1s.1 0 .2.1v.1c-.1.2-.2.2-.5.3h-.1zm.6 18.8l-.2.2c-.1 0-.1 0-.2-.1v-.2l.1-.1h.1v-.1l.2-.1c0 .1.1.1.1.2s-.1.2-.1.2zm-.3-34.9h-.1l-.1-.1v-.1-.3l.1-.1.1-.1c.1 0 .2.1.2.1h.2l.1.1c0 .3-.2.5-.5.5zm1.3-19.8c0 .1-.1.1-.2.1s-.1 0-.2-.1v-.1c0-.1.1-.2.2-.2h.1l.2.1c0 .1-.1.1-.1.2zm.4-1.9v.2l-.1.1-.1.1c-.1 0-.2 0-.3-.1 0 0 0-.1-.1-.1l-.1-.1c0-.1 0-.2.1-.2l.1-.2h.4l.1.3zm4.1 27.4v.2l-.1.1c-.1.1-.2.1-.2.1-.1.1-.2.1-.3.1l-.1-.2-.1-.2v-.2l.1-.1h-.1l.1-.1v-.1c0-.1.1-.1.2-.1l.2-.1c.1 0 .2 0 .1.1h.1l.1.1c.1.2 0 .3 0 .4zm1.3-5.8c0 .1-.1.1-.1.2h-.2c-.2 0-.3-.1-.3-.2l-.1-.1c.1-.1.2-.2.3-.2H211l.1.2v.1zm.7 21c-.1.1-.2.2-.3.2l-.1-.1c-.1-.1 0-.2 0-.3v-.2l.1-.1c.2 0 .2.2.2.3l.2.1c-.1 0-.1.1-.1.1zm2.4-34h-.1l-.1-.2v-.1c0-.2.1-.3.2-.4h.1l.1.1.3.2c-.1.3-.2.4-.5.4zm1.7 34.7v.1c0 .2-.1.4-.4.4v-.2-.2c-.1-.1-.1-.2 0-.3h.2c.1.1.2.1.2.2zm.2-16.8c-.1.1-.3.1-.4.1h-.2l-.1-.2c-.1 0-.1 0-.1-.1s.1-.2.1-.2l.2-.2h.2l.1-.1c.1.1.1.1.1.2.1 0 .2 0 .2.2 0 .1 0 .2-.1.3zm.6-3.4h-.4l-.1-.2-.1-.1c.1 0 .1 0 .1-.1v-.1l.1-.1c.2 0 .3 0 .4.1s.1.2.1.4l-.1.1zm.3-15.1h-.2l-.1-.1h-.2s-.1-.1 0-.2.1-.2.2-.2v-.1c.1-.1.1-.1.2-.1h.1c.2 0 .4.2.4.3 0 .3-.2.4-.4.4zm1.7-.1l-.2.1c-.2-.1-.4-.2-.3-.4l.1-.1.1-.1s0-.1.1-.1h.2c.1 0 .3.1.3.3-.1.2-.2.2-.3.3zm2.3 56c-.1.1-.1.1-.1.2h-.2l-.1.1c-.1-.1-.1-.2-.1-.2l-.1-.1V274.5c.2-.1.3 0 .4 0l.2.1v.2zm.4-59.8v.1l-.1.1h-.3c-.2-.1-.3-.4-.2-.6l.1-.1c.1 0 .2 0 .4.1l.1.1c.1.1 0 .2 0 .3zm.7 15.2c-.1 0-.2-.1-.4-.1l-.1-.1v-.1h.1l-.1-.1c0-.2.1-.2.1-.2h.1c.1-.1.2-.1.4 0l.1.1c.1.2 0 .3-.2.5zm.2-2.9c-.1.1-.2.2-.5.2h-.1l-.1-.1c-.1-.1-.1-.3-.1-.4l.1-.1c0-.1 0-.1.1-.2h.2c0-.1.1-.2.3-.1l.1.1c.1.1.2.1.2.3 0 .1-.1.2-.2.3zm3.9 1.8V229.4h-.1s-.1 0-.1-.1c-.1.1-.1.1-.2.1-.3 0-.5-.2-.5-.4s.2-.4.5-.4h.2l.1.3c.2.1.1.1.1.2zm0-1.3c-.2.1-.3.2-.5.2h-.2v-.1h-.1v-.1c-.1 0-.1-.1-.1-.1l-.1-.1c0-.1.1-.1.2-.2 0-.1.1-.1.1-.1 0-.2.2-.2.3-.1.1 0 .2.1.2.1h.1c.2.1.2.2.2.3l-.1.2zm-.1-2.5h-.4l-.1-.1v-.1-.4h.5l.1.1v.1c0 .1.1.2-.1.4zm-.2-8.8c0 .2-.2.3-.3.3s-.2 0-.2-.3c-.1 0-.1-.1-.1-.2 0 0 .2-.1.3-.1s.2 0 .3.1v.2zm.7.5h-.1v-.3c0-.1.2-.3.4-.3.1 0 .2.1.2.1h.1l.1.1c0 .1 0 .1.1.2v.3l-.1.1c-.2.1-.3.1-.4.1 0 0-.1-.1-.2-.1 0-.1-.1-.1-.1-.2zm.3 3.9c.1-.1.1-.2.2-.2l.1-.1.1-.1.1.1v.4l-.2.1h-.2l-.1-.2zm1 27c-.1 0-.1.1-.2.2-.2 0-.3 0-.3-.1h-.1l-.2-.1c.1-.1.1-.1.1-.2.1-.1.1-.1.1-.2l.1-.1c.4 0 .5.3.5.4v.1zm0-6.4h-.2l-.1-.1v-.1l-.2-.1c0-.1.1-.1.1-.2.1-.1.2-.1.3-.1h.1l.2.1v.4l-.2.1zm1.5-2c0 .2-.2.3-.5.3l-.1-.1v-.5l.1-.1c.2 0 .3.1.4.2l.1.1v.1zm1.1-15.3l-.1-.1h-.1l-.1-.1c.1 0 .1-.1.1-.2.1-.1.1-.1.1-.2l.2-.1H230.9l.1.1c0 .1.1.1.1.1.1.1.2.2.1.4-.2.2-.3.2-.6.1h-.1zm1.1-6.4c0 .1-.1.1-.1.1h-.1l-.1.1c-.1 0-.2-.1-.2-.2v-.2l-.1-.1-.2-.2c0-.1.2-.1.3-.1s.3.1.4.2c.1.1.1.2.1.4zm.1 18.6v.2l-.3.1s-.1 0-.2-.1c-.1 0-.1-.1-.1-.1 0-.1.1-.2.1-.2l.2-.1s.1 0 .1.1h.1l.1.1zm-1-5.6v-.1l-.1-.2c0-.1.1-.2.2-.2l.1.1h.1l.1.1c.1.1 0 .3 0 .3v.1c-.1.1-.2.1-.2.1-.2 0-.2-.1-.2-.2zm1 39.1v.2c0 .1-.1.1-.1.1-.1.1-.2.1-.1.3H231.2c-.1 0-.2 0-.3-.1v-.1-.2c0-.2.1-.5.2-.6h.1c.1-.1.1 0 .2 0h.1l.1.2v-.1s.1 0 .1.1c.1.1 0 .2 0 .2zm1 .5V270.7c0 .1 0 .2-.2.2 0 0 0 .1-.1.1h-.4c-.2-.2-.3-.4-.2-.7l.1-.1c.2-.1.4-.1.7 0l.1.2zm-.7-42.5l.2-.1.1-.1h.2l.1.1c.1 0 .1 0 .2.1v.2c0 .1-.1.1-.1.1-.1.1-.2.1-.2.1-.1 0-.1-.1-.2-.1h-.1c-.2-.1-.2-.2-.2-.3zm1 12.7c-.1 0-.2-.1-.3-.1h-.1l-.1-.1c0-.1.1-.2.1-.3v-.1l.2-.1h.1c.1 0 .3.1.3.3-.1.3-.3.3-.2.4zm3.3-6.7l.3-.1c.1-.1.1-.1.2-.1h.1c.1 0 .2.2.2.3v.1l-.1.2H236.7c-.3 0-.4-.2-.4-.4zm.8 25.4v.1l-.1.2-.1.1-.1-.1c-.1 0-.1-.1-.2-.1l-.1-.1c-.1-.2-.1-.3 0-.5l.2-.1h.3c.1.2.1.4.1.5zm1.4 11.4c-.1 0-.2 0-.2-.2v-.1l.2-.1c.1 0 .1 0 .2.1v.2l-.2.1zm-.2-6.6v-.4l.1-.2c.4-.1.6.2.4.5v.1c0 .1-.1.1-.1.1l-.1.1h-.1c0-.1-.1-.1-.1-.1l-.1-.1zm.8 8.7l-.2.1c-.2-.2-.2-.3-.2-.4l.2-.1c0-.1.1-.1.2-.1l.1.1c0 .2 0 .3-.1.4zM241 244v.1l-.1.2h-.2c-.2 0-.3 0-.4-.1l-.1-.1c0-.2 0-.3.1-.4v-.1l.1-.1c.2 0 .3.1.5.1l.1.1c.1.2 0 .3 0 .3zm-.6-26.6v-.3l.1-.1h.3c.2.1.2.3.2.5l-.2.1c-.1 0-.2-.1-.2-.1l-.2-.1zm-17.8-3.1c-.6 0-1.3 0-1.9-.1v.2l-.1.1h-.4c-.1 0-.2-.1-.3-.1l-.1-.1v-.1c-2.1-.2-4.1-.5-6.1-1 0 .1-.1.1-.3.1-.1 0-.2-.1-.2-.1h-.1l-.1-.2c-9.7-2.8-17.7-9.7-21.9-18.7 0 .1 0 .2-.1.3 0 0 0 .1-.2 0l-.1.1c-.1 0-.2-.1-.2-.1h-.1V194.3l-.1.1v-.1c0-.1 0-.2.1-.2.1-.1.2-.1.2-.1l.2-.1c0 .1.1.1.1.1h.1c-2-4.3-3-9.1-3-14.2 0-19.8 16.7-35.7 36.7-34.5 17.2 1.1 31.2 15.1 32.3 32.2 1.3 20-14.7 36.8-34.4 36.8zm34.2-6.9c.1 0 .1.2.1.3-.1.1-.2.2-.3.2-.1 0-.2-.1-.3-.2v-.3l.2-.1c.1.1.2.1.3.1-.1 0-.2 0-.2.1l.2-.1zm-6.5 5.2c.1 0 .2.1.3.2l.1.1c-.1.1-.1.1-.2.1s-.2-.1-.2-.1l-.2-.1c0-.2.1-.2.2-.2zm-.6 36.5c0 .2-.1.3-.3.3h-.1l-.1-.1.1-.1c0-.2.1-.2.1-.2l.2-.1c.1 0 .1.1.1.2zm-2.9-38.2l-.1.2c-.1 0-.1 0-.1.1l-.1.1h-.1c-.3 0-.3-.2-.4-.3-.1 0-.1-.1-.1-.2v-.2c.1-.2.3-.2.4-.2h.2l.2.1v.2c.1.1.1.1.1.2zm-.2 5v.1c-.1.1-.2.2-.4.2s-.3-.1-.4-.2c-.1-.2-.1-.3 0-.5l.1-.1c.2 0 .7 0 .7.5zm-.4-7.6l-.2.1c-.2-.1-.2-.2-.2-.3l.1-.1v-.2l.2-.1h.1c.2-.1.3-.2.5-.2l.1.1c.1 0 .2 0 .2.1.1.1 0 .1 0 .2l.1.1c-.1.2-.2.3-.4.3h-.5zm.3 31.5c-.1 0-.2-.1-.3-.1 0 .1-.1.1-.2.1s-.2 0-.3-.1v-.2l.1-.1s0-.1.1-.1c.1-.1.1-.2.2-.2s.1 0 .1-.1l.2-.1h.1s.1 0 .2.1.1.1.1.2v.1l.1.1c-.1.2-.2.3-.4.4zm.6-1.6v.2l-.1.1c-.1.1-.2.1-.3.1-.2 0-.4-.2-.5-.4s0-.3.1-.3l.1-.2c.2 0 .3.1.4.1h.2l.1.1v.3zm-.1-27.7h-.1c-.1-.1-.2-.1-.2-.1s-.1 0-.2-.1l-.1-.1v-.1-.1h.1l-.1-.2c.1-.1.3-.2.4-.2.2 0 .4.1.3.4.1.2 0 .4-.1.5zm.9 6h-.1l-.1-.1v-.1l-.1-.1-.1-.1c-.1-.2 0-.4.1-.6l.1-.1c.1-.1.2 0 .3 0h.2v-.1s.2 0 .3.1l.1.1v.4c0 .1.1.2.1.3v.1c-.1.1-.3.1-.4.1h-.2s-.1.1-.2.1zm.4 18.3c-.1-.2 0-.3.1-.4v-.1h.1c.1 0 .2.1.2.2.1.1.2.2 0 .5-.1 0-.2 0-.3-.1l-.1-.1zm.2 8.4s0-.1.1-.2h.1c.1 0 .1.1.1.1l.1.2c0 .1-.1.1-.2.1s-.2-.1-.2-.2zm.6 1.9c.1 0 .2.1.2.1l.1-.1c.1.1.2.3.2.4s-.1.3-.2.4c-.1 0-.1.1-.1.1l-.1.1c-.1 0-.2-.1-.2-.1v.1c-.3-.2-.3-.5-.3-.6 0-.2.2-.4.4-.4zm.4 7.9c-.1.1-.1.1-.4.1-.1 0-.2-.2-.3-.3 0-.1 0-.2.1-.3l.2.1h.4s.1 0 .1.1c.1 0 .1 0 .1.1s-.1.1-.2.2zm1.2-6.4c-.1 0-.1.1-.1.1l-.1.1c-.5 0-.7-.3-.7-.7l.1-.1c.1-.1.2-.1.3-.1.3 0 .5.3.5.7zm0-32.7c-.1.1-.1.1-.2.1s-.1.1-.2.1h-.1c-.1 0-.2-.1-.2-.1l-.1-.1-.2-.2v-.1V213.3c.1-.1.3-.2.5-.2h.1c.2 0 .3.2.3.3v.1c0 .1 0 .1.1.2h.1c0 .1-.1.2-.1.2zm.3-2.4c-.2 0-.3-.1-.4-.2-.1-.1-.1-.3 0-.4h.2s.1-.1.2-.1h.1l.1.1.1.1c.1.1 0 .1 0 .2l.1.1c-.1.1-.2.2-.4.2zm1.5 34.1c-.1.1-.2 0-.2 0h-.1l-.2-.1v-.4c0-.1.1-.1.2-.1-.1-.1-.1-.2-.1-.3v-.2l.1-.1.2-.1h.2l.1.1c.1 0 .2 0 .2.1v.5l-.1.1-.1.1-.1.1v.1h.1l.1.3c.1.1.1.2.3.2l-.1.1c-.3-.1-.4-.2-.5-.4zm1.1 6.4c0 .1 0 .1-.1.1-.1.1-.1.1-.2.1s-.1-.1-.2-.1c0-.1-.1-.1-.1-.1l-.1-.1c-.1-.2 0-.2 0-.3v-.1l.1-.1c.3-.1.5.1.6.5v.1zm.4-56.2h.1c.1.1.2.1.2.2.1.1.1.3 0 .4l-.1.1c-.2 0-.3-.1-.3-.3-.1-.1 0-.3.1-.4zm.6 44.7c-.1.1-.1.1-.2.1l-.2.2-.1-.1v-.1c-.1-.2-.2-.3-.2-.4 0-.2.1-.2.2-.2l.1.1v-.2h.1c.2 0 .3.2.3.3v.1c0 .1.1.1 0 .2zm1.3-41.1l.1-.2h.2l.1.2v.1l-.1.2h-.2l-.1-.3zm.1 28.7v-.1c.1-.1.2-.1.3-.1s.2.1.3.2c.1 0 .1.1.2.1V228.5c0 .1-.1.1-.1.2h-.2v.1h-.1c-.1 0-.2-.1-.2-.1h-.1c-.1-.1-.2-.4-.1-.6zm.6 9.8v.1c-.1 0-.2-.1-.4-.1-.1-.1-.2-.3-.2-.4 0-.2.1-.4.4-.4v.1h.2c.1.1.2.3.3.4 0 .2-.3.1-.3.3zm1-9.5l-.1.1h-.1H257.1l-.1-.1c-.1 0-.1-.1-.1-.1-.1-.1-.1-.3.1-.4l.1-.1h.4c.1.2.1.2.1.4v.2zm.7-2.5c-.1 0-.1.1-.1.1l-.2.1H257.7l-.1-.1V225.7c.1 0 .1-.1.1-.1 0-.1.1-.3.4-.2h.1c.1 0 .1.1.1.1v.4zm.2-9.7l-.2-.1v-.1l-.1.1-.1-.1s0-.1-.1-.1l-.1-.1c0-.2.1-.3.1-.4v-.2l.1-.1H258.4l.3.2.1.1c0 .4-.2.7-.3.8zm.5-19c-.1 0-.2 0-.2-.1-.1 0-.1-.2-.1-.4v-.1c.1-.1.2-.1.3-.1h.2l.1.1c0 .2 0 .4-.1.5 0 .1-.1.1-.2.1zm.3 5.3l.2-.1h.1c.1 0 .2 0 .3.1V202.8s0 .2-.2.2c-.3 0-.3-.3-.4-.5zm1.1 19.6l-.1.1h-.2c-.1 0-.3-.1-.4-.3-.1-.1-.1-.3 0-.4s.3-.1.4 0c.1 0 .1 0 .2.1l.1.1v.4zm-.2-95.9h-.1c-.2 0-.2-.1-.3-.2l-.2-.1v-.1c0-.1-.1-.2 0-.3v-.1c.1-.1.2-.1.3-.1h.4l.1.2.1.1c0 .1-.1.1-.1.2 0 .2-.2.4-.2.4zm.4 79.3c-.1 0-.2-.1-.1-.1v-.2-.1l.1-.1c.1.1.2.1.2.4l-.2.1zm.3-7.3h.1c.1 0 .2 0 .2.1s.1.1.1.1l.1.1c0 .1-.1.2-.2.2l-.1.2c-.1 0-.2 0-.2-.2-.1-.2-.1-.4 0-.5zm.5 39.2h-.1c-.2 0-.2-.1-.3-.2h-.1c-.1-.1 0-.4.1-.6h.1c.4 0 .5.2.7.4 0 .3 0 .5-.4.4zm.6-20c-.1.1-.3.1-.4.1l-.1-.1v-.1c-.1-.1-.1-.2-.1-.4l.1-.1c.2.1.2 0 .5.1l.1.1c.1.1 0 .3-.1.4zm.6-23.4c-.1 0-.2-.1-.2-.1v-.2c-.1 0-.3-.2-.3-.5l.1-.1h.4l.1.1V193.5h-.1l.1.2.1.1c0 .2-.1.2-.2.2zm.4.7c-.2-.2-.1-.3-.1-.3 0-.1.1-.1.2-.1l.2.2c-.1.1-.2.2-.3.2zm1.9 24l.1.1h.1c.1 0 .1.1.2.1v.1h.1l.2.1c0 .2-.2.4-.4.5-.3 0-.4-.2-.7-.3 0-.3.1-.6.4-.6zm.4 32.4l-.1.1c-.1-.1-.2-.2-.2-.3-.1-.1 0-.3.1-.4h.1c.1.1.3.2.3.5l-.2.1zm.3-28.7H265.3c-.1 0-.2 0-.3-.1v-.5c0-.1.1-.1.1-.1.1 0 .2-.1.4-.1 0 .1.1.2.2.2l.1.2c0 .2-.1.4-.2.4zm.9-6.6c-.1 0-.3-.1-.4-.2-.1-.1-.1-.3-.1-.4l.1-.1h.3l.1.2c0 .1.1.2.1.4l-.1.1zm1.2 22H267.4c-.1 0-.2-.1-.3-.2v-.1c.1-.2.2-.3.3-.4h.1c.2.1.3.2.4.3 0 .1-.1.3-.2.4zm1.1-17.5h-.1c-.1.1-.1.1-.2.1s-.1 0-.2-.1v-.2c-.1-.1-.1-.2-.1-.3l.1-.1h.2l.1.1c.2.1.3.2.3.4l-.1.1zm1-9.1c-.1.1-.1.3-.4.3l-.1-.1-.1-.2c0-.1.1-.1.1-.2 0 0 0-.1.1-.2.2-.1.3 0 .3.1l.2.2c-.1 0-.1 0-.1.1zm.7.2l-.1.1h-.1c-.1 0-.2-.1-.2-.1h-.1l-.1-.1c0-.2 0-.3.1-.5l.1-.1c.2 0 .3.1.4.2.1.2.1.4 0 .5zm0-81.8l-.1.1-.2.1c-.1-.1-.1-.1-.1-.2s0-.2.1-.2l.2-.1c.1 0 .1.1.2.1 0 .1 0 .1-.1.2zm1.7 103.6c-.1.1-.1.1-.1.2l-.1.1h-.8l-.1-.1v-.1c-.2-.3-.4-.8 0-1h.1c.1 0 .2.1.3.2.1 0 .1.1.2.1.1-.1.3-.1.4 0l.1.3.1.1c-.1.1-.1.1-.1.2zM275 192v-.1c0-.1.1-.1.1-.1l.2-.1c.2.1.4.2.4.7l-.1.1h-.2c-.1 0-.2-.1-.4 0 0-.1-.1-.3 0-.5zm.6 50.5h-.1c-.1-.1-.3-.2-.4-.4-.1-.3 0-.3.1-.4v-.1l.1-.1.1-.1h.2c.1 0 .2.1.2.2l.2.1v.4c-.1.1-.1.2-.1.3l-.1.1h-.2zm1 1.7h-.4l-.2-.2v-.1-.1l-.1-.1c0-.1.1-.2.2-.2l.1-.1.2-.1c.1 0 .1.1.2.1s.1.1.2.1V243.8l.1.1c-.1.1-.2.1-.3.3zm.4-31.9v.1c-.1.1-.1.1-.2.1s-.1-.1-.2-.1h-.1l-.2-.1v.1c0-.2-.1-.3 0-.5h.1v-.1l.1-.1h.2c0 .1.1.1.2.1l.1.2c.1 0 .1.1.1.2 0 0 0 .1-.1.1zm.6 44.9v.1c0 .1-.2.1-.2.1s-.1 0-.2-.1c-.1 0-.1-.1-.1-.2l.1-.1s.1-.2.3-.1l.1.1c.1.1 0 .1 0 .2zm2.8-62.9V194.6l-.1.1h-.3l-.1-.2h-.2v-.1l-.2-.1c0-.2.1-.3.1-.4v-.2c.1 0 .2-.1.3-.1 0-.1 0-.1.1-.1.2 0 .3.1.3.2 0 0 .1.1.1.2.1-.1.1 0 0 0l.1.3s0 .1-.1.1zm.6 9.6l-.1-.1c-.1-.1 0-.2 0-.2v-.1l.1-.2c.1 0 .2.1.2.3 0 .1-.1.3-.2.3zm8.7 15.8v.2c-.1.1-.1.1-.2.1s-.2-.1-.2-.1v-.2s.1-.1.2-.1.2 0 .2.1zm-1.7 1v.1l-.1.1c-.3 0-.4-.1-.6-.3v-.1l.2-.2s.1 0 .1-.1H287.9l.1-.1s.1 0 .1.1c.1 0 .1 0 0 .1.1.3 0 .3-.1.4zm.6-22.3l-.1.1-.1.1c-.1 0-.2-.1-.3-.2l.1-.1v-.1l.2-.1c0-.1.1-.1.1-.1h.2c.1.1.1.1.1.2s-.1.2-.2.2zm.3-8.1c-.2 0-.2-.1-.2-.2l.1-.2c-.1 0-.1-.1-.1-.2l.2-.1.1-.1c.2 0 .2.2.2.2l.1.2c0 .1-.1.2-.2.2l-.1.1-.1.1zm.8 36.4l-.1.1h-.1s-.1.1-.2.1h-.1l-.1-.1v-.2-.2H289.4c.1 0 .2 0 .3.1v.2zm1.3-20h-.1l-.1-.1c0-.1-.1-.2-.1-.3v-.1c.1-.1.2-.1.3-.1l.1-.1.3.3c0 .2-.2.4-.4.4zm8.3 26.4h.5c.2.1.1.4.1.4l-.1.1c-.1.1-.2.1-.3.1s-.2-.1-.2-.1c-.1-.1-.1-.2-.1-.4l.1-.1zm-.2 1.4c0 .1-.1.3-.3.3h-.1l-.1-.1s-.1-.1 0-.2.2-.1.2-.1c0-.1 0-.1.2 0l.1.1zm-.9-1.1c0-.1.1-.1.2-.1h.1l.1-.1c.3 0 .3.3.3.4l-.1.1c-.1.1-.2.1-.2.2-.1 0-.3 0-.4-.3-.1-.1 0-.2 0-.2zm-2.6-10.5c0-.1 0-.1.1-.1v-.1l.1-.1c.2-.1.3 0 .5.1.1.3 0 .4-.1.4v.1l-.1.1c-.2 0-.4 0-.5-.1v-.1c-.1-.1 0-.1 0-.2zm-3.6-27.5l-.1-.1-.1-.1c0-.2.1-.3.2-.3h.1l.2-.1c.2.1.2.2.2.3v.1l-.1.2h-.4zm.9 12.7v.3s-.1.1-.3.1c-.1 0-.3 0-.4-.1v-.1c.1-.1.1-.2.2-.2.1-.1.1-.1.1-.2l.2-.1h.1l.1.2v.1zm.6 6.7c-.2 0-.3-.1-.3-.2v-.1c.1-.2.2-.3.4-.3s.3.1.4.3c0 .1-.2.2-.5.3zm.6-34.7v.1l-.1.1c-.1 0-.2-.1-.2-.2.1-.2.2-.3.3-.3v.3c0-.1 0 0 0 0zm0-14.3v.2s-.1 0-.1-.1c-.2 0-.3-.1-.4-.2-.1-.1-.1-.3-.1-.4l.1-.1.2-.1h.2l.1.2c0 .1.1.1.1.2 0 .2-.1.2-.1.3zm1.6-7.4c-.1 0-.1.1-.2.1v.2l-.1.1h-.1c-.2 0-.4 0-.5-.1h-.1l-.1-.1v-.1-.2l-.1-.1c0-.1.1-.2.2-.2v-.1h.1c.1-.2.3-.1.4 0v.1h.1l.1.1c.1.2.2.2.4.2l-.1.1zm3 40.1v.2c-.1.2-.2.3-.2.3h.1-.1c-.2 0-.3-.2-.4-.5 0 0-.1-.1-.1-.2h-.1l-.2-.1c-.1-.1 0-.2.1-.2v-.2c0-.1 0-.1.1-.1s.2.1.2.1h.2v.1l.1.1c.1 0 .2 0 .3.1.1.2 0 .3 0 .4zm14.4-11.3l.1-.1c.1 0 .2.1.2.1.1 0 .1.1.1.2l-.1.1h-.2l-.1-.1v-.2zm-3.9-5.1c.1.1.1.2.1.3l-.1.1c-.2 0-.4 0-.4-.4.2-.1.4-.1.4 0zm-7.7 15.7v.1l-.1.1h-.1c-.1 0-.2-.1-.3-.1-.1-.1-.1-.3-.1-.5l.1-.1c.1 0 .2-.1.2-.1l.2.1.1.1c.1.1.2.2.2.3l-.2.1zm1.1-35.3c-.2-.1-.2-.2-.2-.3 0 0 0-.1.1-.1s.2 0 .3.3l-.2.1zm.9 18.1l-.1-.1c0-.2.1-.3.2-.4l.1-.1c.1 0 .2 0 .3.1.1 0 .1.1.2.1s.1.1.1.1v.2c-.1.1-.2.2-.4.2s-.3-.1-.4-.1zm1 9.8h-.2c0-.3.1-.3.2-.3h.2l.1.1c0 .1-.1.2-.3.2zm.2-8.6l-.1-.1v-.1-.3c.1-.2.3-.2.5-.2 0 0 0-.1.1-.1v-.1l-.1-.1c0-.2.2-.3.4-.3l.1.1v.1c0 .1 0 .2.1.2l.1.2c0 .2-.1.2-.2.2l-.1.1c0 .1-.1.1-.1.1v.2l-.2.1v-.1l-.1.1.1.1h-.2-.1c0-.1-.1-.1-.2-.1zm.8 19.7l-.2.1h-.2l-.1-.1c-.1-.2 0-.3.1-.3l.2-.1.1.1.1.1.1.1-.1.1zm.7-6.1c-.1 0-.1.1-.1.1l-.1.1h-.3c-.1-.1-.1-.2-.1-.4-.1-.2 0-.2 0-.2l.2-.1c.1.1.1.1.2.1 0 0 .1.1.2.1l.1.1c0 .1-.1.2-.1.2zm1.9-13.7c0-.1 0-.2.1-.3s.2 0 .2 0l.3.1c0 .1-.1.2-.1.3v.1l-.2.1c-.2 0-.3-.2-.3-.3zm1.1 10.8l-.2.1c-.1-.1-.1-.2-.2-.2l-.2.1c-.2 0-.2-.2-.3-.3l.2-.1h.2l.1.2.1-.2h.1v.1l.2-.1c.1 0 .2.1.2.3l-.2.1zm1-21.6h-.1c-.1 0-.2-.1-.2-.1-.1-.1-.1-.2-.1-.3l.1-.1c.2 0 .4.1.4.4l-.1.1zm.5 18.2l.1-.1c.1-.1.2 0 .2 0l.1.2v.1l-.2.1c-.1 0-.2-.1-.2-.3zm1 2.8v.1l-.2.2h-.5l-.1-.1c0-.1 0-.2.1-.3 0-.1.1-.1.3-.2l.2-.1h.1l.1.1c.1 0 .1.1.1.1 0 .1-.1.2-.1.2zm1.8-.4l-.1.1v.2l-.1.1-.1.1c-.1 0-.2 0-.2-.1s.1-.2.1-.3c-.1 0-.1-.1-.2-.1l-.2-.3v-.1c0-.2 0-.4.4-.4h.1l.1.1c.1 0 .1.1.1.1.1.2.2.3.1.6zm3.1-.8c-.1.1-.1.1-.2.1s-.1-.1-.2-.1v-.2s.1-.1.2-.1.2 0 .2.1v.2zm.7 1.8v.1l-.1.2h-.1c-.3 0-.4-.1-.4-.4l.2-.1H317.2l.1.2zm.1-10.2v.1l-.2.1h-.1l-.1-.2.1-.1.2-.1c.2.1.2.2.1.2zm.8 10.1h-.1c-.2-.1-.3-.2-.1-.5.1 0 .2.1.3.2 0 .1 0 .2-.1.3zm.1-3.5c0 .1-.1.2-.1.2l-.1.2h-.1c-.1 0-.2-.1-.2-.1l-.2-.1v-.2-.1l.1-.2h.3l.1.1c.1 0 .2.1.2.1v.1zM151.5 162zM221.5 102.6s-.1 0 0 0z"/><path class="st0" d="M230.9 102.9c-.1-.1-.1 0 0 0zM185.1 196.4l.1.2v-.1l-.1-.1zM220.9 109.4l-.1.1c.1 0 .1-.1.1-.1zM161.1 107.1h-.1v.1l.1-.1z"/><path id="Fill-9731" class="st0" d="M36.7 298.9l16.9-12.3 12.3 16.9L49 315.8l-12.3-16.9zm.7-9.1l15.7-11.4-.8 4.9-15.6 11.3.7-4.8zm-3.2-2l-1.8 11.1 15.8 21.6 21.7-15.8.6-12.6-14.7-20.2-21.6 15.9z"/><path id="Fill-9733" class="st0" d="M364.7 216.1L385 221l-4.9 20.3-20.3-4.9 4.9-20.3zm7.3-5.3l18.9 4.5-4.2 2.6-18.9-4.5 4.2-2.6zm-.6-3.8l-9.6 5.9-6.2 26 26.1 6.3 9.9-7.7 5.8-24.2-26-6.3z"/><path id="Fill-9735" class="st0" d="M358.3 374.2h-139c-1.6 0-2.9-1.3-2.9-2.9s1.3-2.9 2.9-2.9h139c1.6 0 2.9 1.3 2.9 2.9s-1.3 2.9-2.9 2.9"/><path id="Fill-12590" class="st0" d="M332.1 386.8h-86.7c-1 0-1.8-1.3-1.8-2.9s.8-2.9 1.8-2.9h86.7c1 0 1.8 1.3 1.8 2.9s-.8 2.9-1.8 2.9"/><path id="Fill-15462" class="st0" d="M290 399.5h-18.3c-1.6 0-2.9-1.3-2.9-2.9s1.3-2.9 2.9-2.9H290c1.6 0 2.9 1.3 2.9 2.9s-1.3 2.9-2.9 2.9"/><path id="Fill-15464" class="st0" d="M306.1 399.5h-4.9c-1.6 0-2.9-1.3-2.9-2.9s1.3-2.9 2.9-2.9h4.9c1.6 0 2.9 1.3 2.9 2.9s-1.3 2.9-2.9 2.9"/><path id="Fill-15466" class="st0" d="M425.6 166h15.7c1.6 0 2.9 1.3 2.9 2.9 0 1.6-1.3 3-2.9 3h-90.8c-1.6 0-2.9-1.3-2.9-2.9 0-1.6 1.3-2.9 2.9-2.9l75.1-.1"/><path id="Fill-17182" class="st0" d="M397.1 184.6h-18.3c-1.6 0-2.9-1.3-2.9-2.9 0-1.6 1.3-2.9 2.9-2.9h18.3c1.6 0 2.9 1.3 2.9 2.9.1 1.5-1.2 2.9-2.9 2.9"/><path id="Fill-17184" class="st0" d="M408.2 184.6c-1.6 0-2.9-1.3-2.9-2.9 0-1.6 1.3-2.9 2.9-2.9h4.9c1.6 0 2.9 1.3 2.9 2.9 0 1.6-1.3 2.9-2.9 2.9h-4.9"/><path id="Fill-17186" class="st0" d="M188.8 313.6L178 324.4c-1.1-2.7-3.2-5.9-6.6-9.2-3-3-6.2-5.3-9.2-6.5L173 298h.2c1.9 0 5.8 2 9.7 5.9 4.8 4.6 6.1 8.6 5.9 9.7m-3.7-12c-4.2-4.2-8.8-6.7-11.8-6.7-.9 0-1.7.3-2.2.8l-15.3 15.2-.1.1-.1.1-.2.2.1-.1c-1.8 2.4.9 8.4 6.2 13.7 5.4 5.4 11.6 8.1 13.9 6.1-.1.1-.1.2-.2.3l-.1.1.1.1 15.6-15.9c2.2-2.2-.4-8.5-5.9-14"/><path id="Fill-17188" class="st0" d="M393.9 341.8l.4 1.8 9.5 23.3-15.3 3.8 5.4-28.9zm-1.7-7l-7.4 40 32.8-8.3-25.4-31.7z"/><path id="Fill-17190" d="M168.8 171.2c.1-.7.2-1.5.3-2.3l.6-2.4c-.2.8-.4 1.5-.6 2.3l-.3 2.4zm95.3-26.7c-.6-.6-1.2-1.3-1.8-1.9-.6-.6-1.1-1.3-1.8-1.9.7.6 1.2 1.2 1.8 1.9l1.8 1.9zm-74.7-7.9c-.6.4-1.2.9-1.7 1.3l-1.6 1.5c1.9-1.8 4-3.3 6.1-4.8 2.2-1.3 4.3-2.7 6.6-3.7-.8.4-1.7.8-2.5 1.2l-2.3 1.4c-.8.5-1.6.9-2.3 1.5l-2.3 1.6zm-8.2 7.7c-.8.8-1.3 1.6-1.9 2.4l-1.8 2.4c-.6.9-1.1 1.8-1.7 2.7-.6.9-1.2 1.9-1.7 3 .4-1 1-1.9 1.6-2.8.6-.9 1.1-1.9 1.7-2.8.6-.9 1.3-1.7 1.9-2.5s1.2-1.7 1.9-2.4zm63.9-14.2c-.5-.2-1-.5-1.5-.7s-1.1-.4-1.6-.6l-3.3-1.2c-2.5-.6-4.9-1.4-7.5-1.7l-1.9-.3c-.6-.1-1.2-.2-1.9-.2l-3.7-.2c7.4.2 14.7 1.8 21.4 4.9zm25.8 24.4c-.4-.8-.9-1.6-1.3-2.4l-1.4-2.4c-1-1.5-2.2-3-3.3-4.5-4-4.9-9-9.2-14.5-12.5-.6-.4-1.3-.8-1.9-1.2l-2-1c-1.4-.6-2.7-1.3-4.1-1.8-6.4-2.5-13.2-3.8-20.1-3.8-1.6.1-3.3.2-4.9.2-1.6.2-3.3.5-4.9.7-1 .1-1.9.4-2.9.7l-2.9.7c-1 .3-1.9.7-2.8 1-.9.4-1.9.7-2.8 1.1l-2.7 1.3c-.9.4-1.8.8-2.7 1.4l-2.6 1.6c-.4.3-.9.5-1.3.8l-1.2.9-2.8 2.1c-.9.8-1.7 1.6-2.6 2.3l-1.3 1.2c-.4.4-.8.9-1.2 1.3l-2.3 2.7c-.6.8-1.4 1.8-2 2.7l-.8 1.1c-.3.3-.5.7-.8 1.1l-1.4 2.2c-1 1.5-1.7 3.1-2.4 4.6l-.8 1.7c-.2.6-.4 1.2-.6 1.7-.4 1.2-.8 2.3-1.3 3.5l-.9 3.6c-.1.6-.3 1.2-.4 1.8l-.3 1.8c-1.3 8-.9 16.2 1.3 23.9.1.5.2 1 .4 1.5l.5 1.4 1 2.8c.2.5.4.9.6 1.4l.7 1.4 1.2 2.7 1.6 2.6c.5.8 1 1.8 1.6 2.5l1.8 2.4.9 1.2 1 1.1.3.3 1.4 1.5c.5.5.9 1 1.4 1.4l3 2.7c1 .9 2.2 1.6 3.2 2.5 1.1.9 2.2 1.5 3.4 2.2 2.3 1.5 4.8 2.6 7.2 3.7l3.8 1.4 1 .3c.3.1.7.2 1 .3l2 .5c7.9 2 16.2 2.2 24.1.6 8.3-1.7 16.1-5.4 22.6-10.5 9.9-7.8 17.1-19 19.8-31.1.3-.8.4-2 .4-2.3.1-1.1.4-2.8.6-4.4.1-1.5.1-3 .2-4.3 0-1.4-.1-1-.4 1.8-.1.6-.1 1.4-.2 2.4-.1 1.1-.4 2.5-.6 4.2-.1.7-.2 1.3-.3 1.9-.1.2-.2.5-.2.5-.1.2-.4 1.2-1.1 3.9-.1.5-.2.8-.3.9-.3.6-.6 1.5-1.8 4.6-.4.7-.8 1.6-1.1 2.2-.4.7-.7 1.5-1.2 2.3s-1 1.6-1.5 2.5c-.3.4-.5.9-.8 1.3-.1.2-.3.5-.4.7l-.5.7c-.7.9-1.3 1.8-2 2.7-3.5 4.4-7.7 8.2-12.4 11.4-4.7 3.1-9.9 5.4-15.3 7l-2.2.6c-.7.2-1.5.4-2.2.5l-4.5.7-4.5.2c-.4 0-.8 0-1.1.1l-1.1-.1-2.3-.1c-6.3-.4-12.5-1.9-18.3-4.4-.8-.4-1.5-.7-2.3-1.1s-1.6-.7-2.3-1.2c-1.4-.9-2.9-1.7-4.1-2.5-4.3-2.9-8.1-6.5-11.6-10.7-.8-1.1-1.9-2.5-2.5-3.3-.7-1.1-1.4-2.2-2-3.3-.3-.6-.7-1.1-1-1.7s-.6-1.2-.8-1.8c-.4-.9-.8-1.7-1.3-2.6-.3-.9-.7-1.8-1-2.7-.9-2.3-1.4-4.6-2.1-6.9-.2-.5-.2-1-.3-1.6l-.2-1.6c-.2-1-.4-2.1-.5-3.1-.1-1.1-.1-2.1-.2-3.2s-.1-2.2 0-3.3c0-.8.1-1.6.1-2.5.1-.8 0-1.7.2-2.5.3-1.6.5-3.3.7-4.8.2-.6.4-1.7.6-2.5l.1-.2-.4 1.8c-.2.6-.3 1.2-.4 1.8-.2 1.2-.4 2.5-.5 3.7.1-.3.1-.5.1-.7.2-1.2.3-2.3.5-3.5s.6-2.3.9-3.4l.4-1.7c.2-.6.4-1.1.6-1.7.4-1.1.8-2.2 1.2-3.4.4-1 .9-1.9 1.4-2.8.5-.9.9-1.9 1.4-2.8 1.1-1.8 2.1-3.7 3.5-5.3l1.9-2.5 2.1-2.4 1.2-1.3c.4-.4.8-.8 1.3-1.2l2.5-2.3 2.7-2.1 1.4-1 1.5-.9 2.9-1.8c1-.6 2.1-1 3.1-1.5 2-1.1 4.2-1.7 6.4-2.6 4.6-1.3 9.3-2.4 14.2-2.5 7.7-.3 15.5 1 22.6 3.9 6.5 2.7 12.5 6.6 17.5 11.5 3.7 3.7 6.9 7.9 9.4 12.4 1 1.9 1.7 3.5 2.5 5.1.6 1.6 1.2 3.1 1.8 4.8 0-.1.8 2.9 1.4 5v-.2c-.3-1.1-.5-2-.8-3 .3 1.3.7 2.6.9 3.3.2.9.3 1.2.5 2.5.5 3.2.4 2.2.3 1.6.1.6.2 1.1.2 1.7l.1 1.7c.1 1.2.1 2.3.2 3.5v-.1c-.2-2.9-.1-5.4-.6-7.8-.2-1.2-.3-2.4-.6-3.6l-.9-3.6v.1c.4 1.4.7 2.8 1.1 4.1 0 .1.1.2.1.3.1.5.1.6.1-.1-.1-.7-.5-2-1-4.3-.3-1.4-.8-2.6-1.1-3.5-.4-1.2-.8-2.1-1.1-2.8-.8-1.6-1.6-3.3-2.4-5-.5-.8-1-1.7-1.5-2.6-.5-.9-1-1.8-1.7-2.6.2.3.4.6.7.9.2.3.4.6.5.9.3.6.6 1.1.9 1.5.3.5.6.9.8 1.4.3.4.5.9.7 1.3.5.4.5.4.5.5z" fill="#ddd"/><path id="Fill-17217" d="M47.4 145.2c-7.5.5-14-5.2-14.5-12.7s5.2-14 12.7-14.5 14 5.2 14.5 12.7c.5 7.5-5.2 14-12.7 14.5m43.7-23.7c-.1-.6-.6-1.1-1.3-1.2l-4.8-.8c-2.8-.5-4.9-1.9-6-4-1-2.1-.9-4.6.5-7.1l2.3-4.4c.3-.6.2-1.2-.2-1.7-3.1-3.7-6.7-6.9-10.8-9.4-.5-.3-1.2-.3-1.7 0l-4 2.8c-1.5 1-3 1.6-4.5 1.7-3.3.2-6.1-2-7.2-5.7L52 87.1c-.2-.6-.7-1-1.4-1.1-4.7-.4-9.6-.1-14.2 1-.6.1-1.1.6-1.2 1.3l-.9 4.8c-.7 3.9-3.1 6.4-6.4 6.6-1.5.1-3.1-.3-4.7-1.1L19 96.3c-.6-.3-1.2-.2-1.7.2-3.7 3.1-6.9 6.7-9.4 10.8-.3.5-.3 1.2 0 1.7l2.8 4c1.7 2.3 2.1 4.8 1.4 7s-2.7 3.9-5.4 4.7L2 126.1c-.6.2-1 .7-1.1 1.4-.2 2.4-.2 4.8-.1 7.2.2 2.4.5 4.8 1 7.1.1.6.6 1.1 1.3 1.2l4.8.8c2.8.5 4.9 1.9 6 4 1 2.1.9 4.6-.5 7.1l-2.3 4.3c-.3.6-.2 1.2.2 1.7 3.1 3.7 6.7 6.9 10.8 9.4.5.3 1.2.3 1.7 0l4-2.8c1.5-1 3-1.6 4.5-1.7 3.3-.2 6.1 2 7.2 5.7l1.5 4.7c.2.6.7 1 1.4 1.1 2.4.2 4.8.2 7.2.1 2.4-.2 4.8-.5 7.1-1 .6-.1 1.1-.6 1.2-1.3l.8-4.8c.7-3.9 3.1-6.4 6.4-6.6 1.5-.1 3.1.3 4.7 1.1l4.3 2.3c.6.3 1.2.2 1.7-.2 3.7-3.1 6.9-6.7 9.4-10.8.3-.5.3-1.2 0-1.7l-2.8-4c-1.7-2.3-2.2-4.8-1.4-7 .7-2.2 2.7-3.9 5.4-4.7l4.7-1.5c.6-.2 1-.7 1.1-1.4.2-2.4.2-4.8.1-7.2-.3-2.4-.7-4.8-1.2-7.1" fill="#fdc900"/><path id="Fill-17219" class="st3" d="M70.9 94.5s8.9 7.2 9 7.9c.2.8-.6 4.3-1.4 4.9s-.2-2.6-.3-4c-.2-1.4-7.3-7.3-7.3-7.3s-2.6-1.8 0-1.5"/><path id="Fill-17221" class="st3" d="M88.1 121.9s.7-1.5 2.1 0c0 0 1.5 9.7.7 13.4-.8 3.8-1.3-7-1.3-7l-1.5-6.4z"/><path id="Fill-17223" class="st3" d="M42.4 87.1h6.2s2.6-.8 3 2.2c.3 3 2.6 7 2.6 7s-.1 1.5-1.6-.8-1.7-6.4-2.9-7c-1.1-.6-6.8-.5-6.8-.5s-1.9-.3-.5-.9"/><path id="Fill-17225" class="st3" d="M50.6 114.5s16.1-1.2 14.4 19.1c-.5 5.7 2.5 1.6 2.1-3.2-.5-4.8 1.9-12.6-8.2-15.9-10.2-3.4-8.3 0-8.3 0"/><path id="Fill-17227" d="M47.1 146.3s-17.3.9-15.2-19.4c.5-5.6-2.2-.2-1.9 3.6.4 4.8 1.8 13.2 8.8 15.8 10.1 3.4 8.3 0 8.3 0" fill="#ffd766"/><path class="st5" d="M393.5 59.9c-27.3 0-49.5 22.2-49.5 49.5 0 26.5 20.7 48.2 47.2 49.5 9.3.4 18.3-1.7 26.3-6.1-15.2 4.5-31.2-1-41.4-14.2-7-8.2-9.7-19.1-9.7-30.3.2-10.8 3.8-20.9 9.7-27.9 10.3-13.3 26.5-18.6 41.4-14.2-7.2-4-15.4-6.1-23.8-6.2"/><path class="st5" d="M426.6 72.5c-11.5-7.6-26.1-8.1-38.3-.6l-.1.1c17.4-5.2 33.5 13.2 33.5 37.4 0 24.1-16.1 42.6-33.5 37.4 12.2 7.6 26.9 7.1 38.5-.6 10.4-9.3 16.4-22.8 16.4-36.8-.1-14.1-6.1-27.5-16.5-36.9z"/><path id="XMLID_17_" class="st5" d="M156.9 45.6c0 7.7 6.3 14.1 14.1 14.1 7.7 0 14.1-6.3 14.1-14.1 0-7.7-6.3-14.1-14.1-14.1-7.7.1-14.1 6.4-14.1 14.1z"/><path id="XMLID_18_" class="st5" d="M203.4 27.1c.1-.2.1-.4 0-.6-3.3-5.5-7.9-10.1-13.5-13.4C184.2 9.8 177.6 8 171 8c-11.5 0-22.2 5.2-29.4 14.2-.2.2-.2.5-.1.7l10.6 18.3c.1.2.3.3.5.3h.1c.2 0 .5-.2.5-.5 2.1-8.1 9.4-13.7 17.7-13.7.5 0 1.1 0 1.6.1h30.3c.2 0 .5-.1.6-.3z"/><path id="XMLID_19_" class="st5" d="M176.6 63.5c-.2-.2-.4-.3-.7-.2-1.6.4-3.2.7-4.9.7-7.1 0-13.6-4.1-16.6-10.6l-15.1-26.2c-.1-.2-.3-.3-.5-.3s-.4.1-.5.3c-3.2 5.6-4.8 12-4.8 18.4 0 9.1 3.3 17.8 9.2 24.7 5.9 6.8 14 11.2 22.8 12.5h.1c.2 0 .4-.1.5-.3l10.6-18.3c0-.2 0-.5-.1-.7z"/><path id="XMLID_20_" class="st5" d="M205.4 31.5h-21.2c-.3 0-.5.2-.6.4s0 .5.1.7c3.5 3.5 5.5 8.1 5.5 13.1 0 3.7-1.1 7.4-3.3 10.4l-15.1 26.2c-.1.2-.1.4 0 .6s.3.3.5.3c10-.1 19.3-4.1 26.3-11.2s10.9-16.5 10.9-26.4c0-4.7-.9-9.4-2.6-13.7 0-.2-.2-.4-.5-.4z"/><g id="Layer_2"><g id="Layer_1-2"><g id="Layer_2-2"><g id="Firefox_-_Large"><radialGradient id="SVGID_1_" cx="-15131.379" cy="-8704.924" r="66.441" fx="-15135.618" fy="-8704.924" gradientTransform="matrix(.76 .03 -.05 1.12 11422.31 10467.19)" gradientUnits="userSpaceOnUse"><stop offset=".1" stop-color="#ffea00"/><stop offset=".17" stop-color="#ffde00"/><stop offset=".28" stop-color="#ffbf00"/><stop offset=".43" stop-color="#ff8e00"/><stop offset=".77" stop-color="#ff272d"/><stop offset=".87" stop-color="#e0255a"/><stop offset=".95" stop-color="#cc2477"/><stop offset="1" stop-color="#c42482"/></radialGradient><path d="M333.1 232.4c-3.5 4.1-5.2 13.4-1.6 22.7 3.6 9.4 9.1 7.3 12.5 16.9 4.5 12.6 2.4 29.6 2.4 29.6s5.4 15.7 9.2-1c8.4-31.3-22.5-60.5-22.5-68.2z" fill="url(#SVGID_1_)"/><radialGradient id="_Path__1_" cx="-7911.972" cy="-8183.146" r="116.594" gradientTransform="matrix(1.23 0 0 1.23 10043.47 10306.77)" gradientUnits="userSpaceOnUse"><stop offset="0" stop-color="#00ccda"/><stop offset=".22" stop-color="#0083ff"/><stop offset=".26" stop-color="#007af9"/><stop offset=".33" stop-color="#0060e8"/><stop offset=".33" stop-color="#005fe7"/><stop offset=".44" stop-color="#2639ad"/><stop offset=".52" stop-color="#401e84"/><stop offset=".57" stop-color="#4a1475"/></radialGradient><path id="_Path_" d="M290 362.5c36.1 0 65.4-29.4 65.4-65.7s-29.3-65.7-65.4-65.7-65.4 29.4-65.4 65.7c0 36.3 29.3 65.7 65.4 65.7z" fill="url(#_Path__1_)"/><linearGradient id="SVGID_2_" gradientUnits="userSpaceOnUse" x1="299.268" y1="-27.647" x2="271.058" y2="-119.927" gradientTransform="translate(0 354)"><stop offset="0" stop-color="#000f43" stop-opacity=".4"/><stop offset=".48" stop-color="#001962" stop-opacity=".17"/><stop offset="1" stop-color="#002079" stop-opacity="0"/></linearGradient><path d="M339.1 337.3c-1.4 1-2.9 1.9-4.4 2.7 2-3 3.9-6.1 5.6-9.3 1.4-1.5 2.7-3 3.7-4.7.5-.8 1.1-1.8 1.7-2.9 3.7-6.6 7.7-17.3 7.8-28.3v-.8c0-2.8-.3-5.5-.8-8.2 0 .2.1.4.1.6 0-.2-.1-.3-.1-.5.1.3.1.6.1.9.8 6.4.2 12.6-2.5 17.2 0 .1-.1.1-.1.2 1.4-7 1.9-14.6.3-22.3 0 0-.6-3.7-5.2-15.1-2.7-6.5-7.3-11.9-11.5-15.8-3.6-4.5-6.9-7.5-8.8-9.4-3.8-4-5.4-7-6.1-9-.6-.3-7.8-7.3-8.4-7.6-3.2 4.9-13.1 20.3-8.4 34.7 2.1 6.5 7.6 13.3 13.3 17.1.2.3 3.4 3.7 4.9 11.4 1.5 7.9.7 14.1-2.4 23.3-3.7 8-13.3 16-22.2 16.8-19.1 1.7-26.1-9.6-26.1-9.6 6.8 2.7 14.4 2.2 19-.7 4.6-2.9 7.4-5 9.7-4.1 2.2.8 4-1.6 2.4-4.1-2.5-3.9-7.1-5.9-11.7-5.1-4.6.8-8.9 4.4-14.9.9-.4-.2-.8-.5-1.1-.7-.4-.3 1.3.4.9.1-1.2-.6-3.3-2-3.8-2.5-.1-.1.9.3.8.2-5.7-4.7-5-7.8-4.8-9.8.1-1.6 1.2-3.6 2.9-4.4.8.5 1.4.8 1.4.8s-.4-.7-.6-1.1c.1 0 .1 0 .2-.1.7.3 2.2 1.2 3 1.7 1 .7 1.4 1.4 1.4 1.4s.3-.1.1-.8c-.1-.3-.4-1.1-1.4-1.9h.1c.6.4 1.2.8 1.7 1.2.3-1.1.8-2.2.7-4.1-.1-1.4 0-1.7-.3-2.3-.2-.5.1-.6.5-.2-.1-.4-.2-.7-.3-1.1.5-1.7 10.1-6 10.8-6.5 1.1-.8 2.1-1.9 2.8-3.1.5-.8.9-2 1-3.8.1-1.3-.6-2.2-10.2-3.2-2.7-.3-4.2-2.2-5.1-4-.2-.4-.3-.7-.5-1.1-.2-.4-.3-.8-.4-1.2 1.6-4.5 4.2-8.4 8.2-11.3.2-.2-.9.1-.6-.1.2-.2 1.9-.9 2.2-1 .4-.2-1.6-1-3.3-.8-1.8.2-2.2.4-3.1.8.4-.4 1.6-.9 1.4-.9-1.9.3-4.3 1.4-6.3 2.7 0-.2 0-.4.1-.6-.9.4-3.3 2-4 3.4v-.8c-.7.6-1.4 1.3-1.9 2-5.5-2.2-10.3-2.4-14.4-1.4-.9-.9-1.3-.2-3.4-4.7-.1-.3.1.3 0 0-.3-.9.2 1.2 0 0-3.4 2.7-7.9 5.8-10.1 7.9 0 .1 2.5-.7 0 0-.9.3-.8.8-1 5.5v1.1c-1.7 2.2-2.9 4.1-3.4 5-2.2 3.9-4.7 9.9-7.1 19.4 1.1-2.6 2.3-5.1 3.8-7.4-2 5-3.9 13-4.3 25.2.5-2.5 1.1-5 1.8-7.5-.5 10.1 1.3 20.2 5.1 29.6 1.4 3.4 3.6 8.5 7.5 14.1 12.2 12.8 29.3 20.8 48.3 20.8 19.6-.3 37.4-9 49.7-22.8z" fill="url(#SVGID_2_)"/><radialGradient id="SVGID_3_" cx="-8915.283" cy="-7115.74" r="39.328" gradientTransform="matrix(1.22 .12 -.12 1.22 10384.54 10066.28)" gradientUnits="userSpaceOnUse"><stop offset="0" stop-color="#ffea00"/><stop offset=".5" stop-color="#ff272d"/><stop offset="1" stop-color="#c42482"/></radialGradient><path d="M324.4 346.6c24-2.8 34.6-27.5 21-28-12.4-.4-32.4 29.3-21 28z" fill="url(#SVGID_3_)"/><radialGradient id="SVGID_4_" cx="-8918.842" cy="-7153.45" r="65.674" gradientTransform="matrix(1.22 .12 -.12 1.22 10384.54 10066.28)" gradientUnits="userSpaceOnUse"><stop offset="0" stop-color="#ffe900"/><stop offset=".16" stop-color="#ffaf0e"/><stop offset=".32" stop-color="#ff7a1b"/><stop offset=".47" stop-color="#ff4e26"/><stop offset=".62" stop-color="#ff2c2e"/><stop offset=".76" stop-color="#ff1434"/><stop offset=".89" stop-color="#ff0538"/><stop offset="1" stop-color="#ff0039"/></radialGradient><path d="M347.1 313.6c16.5-9.6 12.2-30.4 12.2-30.4s-6.4 7.4-10.7 19.2c-4.3 11.7-11.4 17-1.5 11.2z" fill="url(#SVGID_4_)"/><radialGradient id="SVGID_5_" cx="-8909.553" cy="-7092.571" r="60.263" gradientTransform="matrix(1.22 .12 -.12 1.22 10384.54 10066.28)" gradientUnits="userSpaceOnUse"><stop offset="0" stop-color="#ff272d"/><stop offset=".5" stop-color="#c42482"/><stop offset=".99" stop-color="#620700"/></radialGradient><path d="M294.7 358.9c23 7.3 42.8-10.8 30.6-16.8-11.1-5.5-41.6 13.3-30.6 16.8z" fill="url(#SVGID_5_)"/><radialGradient id="SVGID_6_" cx="324.989" cy="-77.035" r="115.26" fx="329.111" fy="-79.073" gradientTransform="translate(0 354)" gradientUnits="userSpaceOnUse"><stop offset=".16" stop-color="#ffea00"/><stop offset=".23" stop-color="#ffde00"/><stop offset=".37" stop-color="#ffbf00"/><stop offset=".54" stop-color="#ff8e00"/><stop offset=".76" stop-color="#ff272d"/><stop offset=".8" stop-color="#f92433"/><stop offset=".84" stop-color="#e91c45"/><stop offset=".89" stop-color="#cf0e62"/><stop offset=".94" stop-color="#b5007f"/></radialGradient><path d="M348.8 322.4c.6-.8 1.3-3.3 2-4.5 4.1-6.6 4.1-11.8 4.1-11.9 2.5-12.3 2.2-17.3.7-26.5-1.2-7.5-6.5-18.1-11.1-23.3-4.7-5.3-1.4-3.6-6-7.4-4-4.5-7.9-8.9-10.1-10.7-15.4-12.9-15-15.6-14.7-16l-.2.2c-.2-.7-.3-1.3-.3-1.3s-8.4 8.4-10.2 22.4c-1.2 9.1 2.3 18.7 7.2 24.8 2.6 3.2 5.5 6 8.7 8.5 3.7 5.4 5.8 12 5.8 19.1 0 17.9-14.5 32.3-32.4 32.3-2.4 0-4.9-.3-7.2-.8-8.4-1.6-13.3-5.9-15.7-8.8-1.4-1.7-2-2.9-2-2.9 7.6 2.7 15.9 2.1 21-.7s8.2-4.9 10.7-4.1c2.5.8 4.5-1.6 2.7-4.1-1.7-2.5-6.2-6-12.9-5.1-5.1.7-9.8 4.4-16.5.9-.4-.2-.9-.5-1.3-.7-.4-.3 1.4.4 1 .1-1.3-.6-3.6-2-4.2-2.5-.1-.1 1 .3.9.2-6.3-4.6-5.5-7.8-5.3-9.7.2-1.6 1.3-3.6 3.2-4.4.9.5 1.5.8 1.5.8s-.4-.7-.6-1.1c.1 0 .1 0 .2-.1.8.3 2.4 1.2 3.3 1.7 1.2.7 1.5 1.4 1.5 1.4s.3-.1.1-.8c-.1-.3-.4-1.1-1.6-1.9h.1c.7.3 1.3.7 1.9 1.2.3-1 .9-2.1.8-4.1-.1-1.4 0-1.7-.3-2.3-.2-.5.1-.6.6-.2-.1-.4-.2-.7-.4-1.1.5-1.6 11.1-5.9 11.9-6.4 1.2-.8 2.3-1.8 3.1-3 .6-.8 1-2 1.1-3.8 0-.8-.2-1.4-3-2.1-1.7-.4-4.3-.7-8.3-1.1-2.9-.3-4.7-2.2-5.6-3.9-.2-.4-.4-.7-.5-1.1-.2-.4-.3-.8-.4-1.2 1.8-4.6 4.9-8.5 9-11.2.2-.2-.9 0-.7-.1.3-.2 2.1-.9 2.4-1 .4-.2-1.8-1-3.7-.8-2 .2-2.4.4-3.4.8.4-.4 1.8-.9 1.5-.9-2.1.3-4.8 1.4-7 2.7 0-.2 0-.4.1-.6-1.1.4-3.6 2-4.4 3.4v-.8c-.8.6-1.5 1.3-2.2 2-6.1-2.2-11.4-2.3-16-1.4-1-.9-2.6-2.2-4.8-6.7-.1-.3-.2.6-.4.3-.9-2-1.4-5.4-1.3-7.7 0 0-1.8.8-3.3 4.3-.3.6-.5 1-.6 1.3-.1.1.2-1.1.1-1.1-.3.4-.9 1.1-1.2 1.9-.2.6-.5.9-.7 1.7v.1c0-.2.1-.9 0-.8-.7 1.4-1.3 2.9-1.8 4.4-.8 2.7-1.8 6.3-1.9 11v1.1c-1.9 2.2-3.2 4-3.7 5-2.5 3.8-5.2 9.8-7.9 19.2 1.2-2.6 2.6-5 4.2-7.4-2.2 5-4.3 12.9-4.8 25 .5-2.5 1.2-5 2-7.4-.4 8.1.6 18.1 5.7 29.4 3 6.6 10 20.1 27.1 30.7 0 0 5.8 4.3 15.8 7.6.7.3 1.5.5 2.2.8-.2-.1-.5-.2-.7-.3 6.6 2 13.5 3 20.5 3 25.8 0 33.4-10.3 33.4-10.3l-.1.1c.4-.3.7-.7 1.1-1.1-4.1 3.8-13.4 4.1-16.8 3.8 5.9-1.7 9.8-3.2 17.4-6.1.9-.3 1.8-.7 2.7-1.1l.3-.1.6-.3c3.7-1.7 7.2-3.9 10.4-6.5 7.6-6.1 9.3-12 10.1-15.9-.1.4-.5 1.2-.8 1.8-2 4.2-6.3 6.8-11 9 2.2-3 4.3-6 6.2-9.2 1.5-1.6 2-4 3.1-5.6z" fill="url(#SVGID_6_)"/><radialGradient id="SVGID_7_" cx="318.38" cy="-130.489" r="131.362" gradientTransform="translate(0 354)" gradientUnits="userSpaceOnUse"><stop offset=".28" stop-color="#ffea00"/><stop offset=".4" stop-color="#fd0"/><stop offset=".63" stop-color="#ffba00"/><stop offset=".86" stop-color="#ff9100"/><stop offset=".93" stop-color="#ff6711"/><stop offset=".99" stop-color="#ff4a1d"/></radialGradient><path d="M339.5 336.9c3.1-3.4 5.9-7.3 8-11.8 5.4-11.4 13.9-30.4 7.2-50.3-5.2-15.7-12.4-24.3-21.5-32.7-14.8-13.6-19-19.7-19-23.3 0 0-17.1 19.1-9.7 39 7.4 19.9 22.6 19.2 32.7 39.9 11.8 24.4-9.6 51.1-27.3 58.5 1.1-.2 39.3-8.9 41.4-30.8 0 .5-.9 6.6-11.8 11.5z" fill="url(#SVGID_7_)"/><linearGradient id="SVGID_8_" gradientUnits="userSpaceOnUse" x1="-9016.328" y1="-7140.648" x2="-8971.085" y2="-7152.18" gradientTransform="matrix(1.22 .12 -.12 1.22 10384.54 10066.28)"><stop offset="0" stop-color="#c42482" stop-opacity=".5"/><stop offset=".47" stop-color="#ff272d" stop-opacity=".5"/><stop offset=".49" stop-color="#ff2c2c" stop-opacity=".51"/><stop offset=".68" stop-color="#ff7a1a" stop-opacity=".72"/><stop offset=".83" stop-color="#ffb20d" stop-opacity=".87"/><stop offset=".94" stop-color="#ffd605" stop-opacity=".96"/><stop offset="1" stop-color="#ffe302"/></linearGradient><path d="M290 266c.1-1.3-.6-2.2-11.3-3.2-4.4-.4-6.1-4.5-6.6-6.2-1.6 4.1-2.2 8.3-1.9 13.5.2 3.4 2.5 7 3.6 9.1 0 0 .2-.3.4-.4 2-2.1 10.6-5.4 11.4-5.8.9-.6 4.2-3 4.4-7z" fill="url(#SVGID_8_)"/><linearGradient id="SVGID_9_" gradientUnits="userSpaceOnUse" x1="295.613" y1="-1505.23" x2="287.572" y2="-1525.838" gradientTransform="matrix(.99 .1 -.1 .99 -202.21 1718.51)"><stop offset="0" stop-color="#891551" stop-opacity=".6"/><stop offset="1" stop-color="#c42482" stop-opacity="0"/></linearGradient><path d="M242.9 242c-.1-.3-.2.6-.4.3-.9-2-1.4-5.3-1.3-7.7 0 0-1.8.8-3.3 4.3-.3.6-.5 1-.6 1.3-.1.1.2-1.1.1-1.1-.3.4-.9 1.1-1.2 1.8-.2.6-.5 1-.7 1.7-.1.2.1-.9 0-.8-3.5 6.7-4.2 17-3.8 16.5 7.4-7.9 16-9.8 16-9.8-.9-.6-2.8-2.5-4.8-6.5z" fill="url(#SVGID_9_)"/><linearGradient id="SVGID_10_" gradientUnits="userSpaceOnUse" x1="-11.99" y1="132.082" x2="1.878" y2="147.832" gradientTransform="matrix(.99 .1 -.1 .99 276.92 158.1)"><stop offset=".01" stop-color="#891551" stop-opacity=".5"/><stop offset=".48" stop-color="#ff272d" stop-opacity=".5"/><stop offset="1" stop-color="#ff272d" stop-opacity="0"/></linearGradient><path d="M271.2 325c-10.3-4.4-22-10.6-21.5-24.6.6-18.5 17.3-14.9 17.3-14.9-.6.1-2.3 1.3-2.9 2.6-.6 1.6-1.8 5.2 1.7 9 5.5 5.9-11.2 14.1 14.5 29.4.6.4-6.1-.2-9.1-1.5z" fill="url(#SVGID_10_)"/><linearGradient id="SVGID_11_" gradientUnits="userSpaceOnUse" x1="14.666" y1="159.249" x2="14.676" y2="148.23" gradientTransform="matrix(.99 .1 -.1 .99 276.92 158.1)"><stop offset="0" stop-color="#c42482"/><stop offset=".08" stop-color="#c42482" stop-opacity=".81"/><stop offset=".21" stop-color="#c42482" stop-opacity=".57"/><stop offset=".33" stop-color="#c42482" stop-opacity=".36"/><stop offset=".45" stop-color="#c42482" stop-opacity=".2"/><stop offset=".56" stop-color="#c42482" stop-opacity=".09"/><stop offset=".67" stop-color="#c42482" stop-opacity=".02"/><stop offset=".77" stop-color="#c42482" stop-opacity="0"/></linearGradient><path d="M267.5 315.8c7.3 2.5 15.8 2.1 20.9-.7 3.4-1.9 7.8-4.9 10.5-4.2-2.3-.9-4.1-1.3-6.2-1.5h-1.2c-.8 0-1.6 0-2.3.1-1.3.1-2.8.9-4.1.8-.1 0 1.3-.6 1.2-.5-.7.1-1.5.2-2.3.3-.5.1-1 .1-1.5.1-15.2 1.3-28-8.2-28-8.2-1.1 3.7 4.9 11 13 13.8z" fill="url(#SVGID_11_)"/><linearGradient id="SVGID_12_" gradientUnits="userSpaceOnUse" x1="311.038" y1="-129.777" x2="356.08" y2="-29.06" gradientTransform="translate(0 354)"><stop offset="0" stop-color="#fff14f"/><stop offset=".27" stop-color="#ffee4c"/><stop offset=".45" stop-color="#ffe643"/><stop offset=".61" stop-color="#ffd834"/><stop offset=".76" stop-color="#ffc41e"/><stop offset=".89" stop-color="#ffab02"/><stop offset=".9" stop-color="#ffa900"/><stop offset=".95" stop-color="#ffa000"/><stop offset="1" stop-color="#ff9100"/></linearGradient><path d="M339.5 337c15.3-15.1 23.1-33.4 19.8-53.9 0 0 1.3 10.5-3.7 21.3 2.4-10.5 2.7-23.6-3.7-37.1-8.5-18.1-22.4-27.6-27.7-31.5-8.1-6-11.4-12.1-11.5-13.4-2.4 4.9-9.7 21.8-.8 36.4 8.3 13.6 21.5 17.7 30.7 30.2 17.1 23-3.1 48-3.1 48z" fill="url(#SVGID_12_)"/><linearGradient id="SVGID_13_" gradientUnits="userSpaceOnUse" x1="319.933" y1="-71.853" x2="298.599" y2="-14.567" gradientTransform="translate(0 354)"><stop offset="0" stop-color="#ff8e00"/><stop offset=".04" stop-color="#ff8e00" stop-opacity=".86"/><stop offset=".08" stop-color="#ff8e00" stop-opacity=".73"/><stop offset=".13" stop-color="#ff8e00" stop-opacity=".63"/><stop offset=".18" stop-color="#ff8e00" stop-opacity=".56"/><stop offset=".23" stop-color="#ff8e00" stop-opacity=".51"/><stop offset=".28" stop-color="#ff8e00" stop-opacity=".5"/><stop offset=".39" stop-color="#ff8e00" stop-opacity=".48"/><stop offset=".52" stop-color="#ff8e00" stop-opacity=".42"/><stop offset=".68" stop-color="#ff8e00" stop-opacity=".31"/><stop offset=".84" stop-color="#ff8e00" stop-opacity=".17"/><stop offset="1" stop-color="#ff8e00" stop-opacity="0"/></linearGradient><path d="M337.3 297.8c-5.4-11.1-12.1-15.9-18.4-21.2.7 1 .9 1.4 1.3 2.1 5.6 5.9 13.8 20.4 7.8 38.6-11.2 34.2-56.2 18.1-60.9 13.6 1.9 19.8 35.1 29.3 56.7 16.5 12.4-11.6 22.3-31.4 13.5-49.6z" fill="url(#SVGID_13_)"/></g></g></g></g></svg>