<?xml version="1.0" encoding="UTF-8"?>
<svg width="19px" height="25px" viewBox="0 0 19 25" version="1.1" xmlns="http://www.w3.org/2000/svg" xmlns:xlink="http://www.w3.org/1999/xlink">
    <!-- Generator: Sketch 46.2 (44496) - http://www.bohemiancoding.com/sketch -->
    <title>Group 9</title>
    <desc>Created with Sketch.</desc>
    <defs></defs>
    <g id="Page-1" stroke="none" stroke-width="1" fill="none" fill-rule="evenodd">
        <g id="Group-9" fill="#FFFFFF">
            <path d="M17.6622318,3.49012876 C17.9197425,3.69613734 18.0742489,3.97939914 18.0742489,4.31416309 L18.0742489,13.4300429 C18.0742489,13.9193133 17.739485,14.3313305 17.2759657,14.4343348 L15.4218884,14.8978541 C14.5206009,15.1296137 13.5678112,15.232618 12.5635193,15.232618 C11.2244635,15.232618 9.85965665,14.9751073 8.49484979,14.4858369 L8.41759657,14.4600858 C6.69227468,13.8420601 4.83819742,13.7133047 3.11287554,14.0480687 L2.16008584,14.2283262 L2.16008584,23.3699571 C2.16008584,23.9364807 1.69656652,24.4 1.13004292,24.4 C0.563519313,24.4 0.1,23.9364807 0.1,23.3699571 L0.1,1.43004292 C0.1,0.863519313 0.563519313,0.4 1.13004292,0.4 C1.69656652,0.4 2.16008584,0.863519313 2.16008584,1.43004292 L2.16008584,3.07811159 L2.70085837,2.9751073 C4.81244635,2.53733906 7.02703863,2.71759657 9.08712446,3.46437768 L9.19012876,3.46437768 C11.044206,4.15965665 13.0270386,4.26266094 14.932618,3.77339056 L16.7866953,3.30987124 C17.0699571,3.23261803 17.37897,3.28412017 17.6622318,3.49012876 Z M6.40329905,11.4694842 C6.35973716,11.7453761 6.5920672,11.9777062 6.86795913,11.9341443 C7.49234612,11.8470205 8.04412996,11.556608 8.46522817,11.1355098 L7.20193356,9.87221518 C6.78083536,10.2933134 6.49042281,10.8450972 6.40329905,11.4694842 Z M12.879499,5.87904258 C12.8940196,5.64671254 12.6907308,5.44342375 12.4584008,5.45794438 C10.8320905,5.53054752 9.3800277,6.16945514 8.30550126,7.21494032 C7.52138737,6.99713091 6.34521653,7.05521342 5.90959771,8.15878112 C6.2726134,8.26042551 6.70823222,8.44919367 7.14385105,8.73960622 C7.12933043,8.76864748 7.1148098,8.79768873 7.10028917,8.82672999 C7.0131654,8.98645689 7.05672729,9.17522505 7.17289231,9.29139007 L9.04605327,11.164551 C9.17673892,11.2952367 9.36550708,11.3242779 9.51071335,11.2371542 C9.53975461,11.2226335 9.56879586,11.2081129 9.59783712,11.1935923 C9.88824967,11.6292111 10.0770178,12.0648299 10.1786622,12.4278456 C11.2967505,11.9486649 11.3403124,10.816056 11.122503,10.0319421 C12.1679882,8.95741564 12.8068958,7.50535288 12.879499,5.87904258 Z" id="Combined-Shape" fill-rule="nonzero"></path>
            <path d="M10.4109923,6.73575961 C10.7449667,6.40178518 11.2677093,6.40178518 11.6016837,6.73575961 C11.9356582,7.06973405 11.9356582,7.59247664 11.6016837,7.92645108 C11.2677093,8.26042551 10.7449667,8.26042551 10.4109923,7.92645108 C10.0770178,7.59247664 10.0915385,7.05521342 10.4109923,6.73575961 Z" id="Path"></path>
        </g>
    </g>
</svg>