<svg id="Layer_1" data-name="Layer 1" xmlns="http://www.w3.org/2000/svg" viewBox="0 0 416.11 119.35"><defs></defs><title>mozilla</title><path d="M354.6 80.45c0 3.38 1.63 6.05 6.18 6.05 5.35 0 11.06-3.84 11.4-12.57a55.5 55.5 0 0 0-7.55-.69c-5.38 0-10.03 1.51-10.03 7.21z" fill="#FFF" fill-rule="evenodd"/><path d="M0 0v119.35h416.11V0zm121.42 96h-22V66.49c0-9.07-3-12.57-9-12.57-7.21 0-10.12 5.12-10.12 12.45v18.29h6.95v11.4h-22V66.49c0-9.07-3-12.57-9-12.57-7.21 0-10.12 5.12-10.12 12.45v18.29h10v11.4h-32v-11.4h7V55h-7.45V43.57h22.56v7.91c3.14-5.58 8.61-9 15.94-9 7.55 0 14.54 3.61 17.1 11.29 2.91-7 8.84-11.29 17.1-11.29 9.42 0 18 5.7 18 18.16v24h7zm33.39 1.16c-16.17 0-27.35-9.89-27.35-26.65 0-15.36 9.31-28 28.14-28s28 12.68 28 27.35c0 16.76-12.09 27.35-28.84 27.35zM238.36 96h-45.85L191 88.13 219.83 55h-16.4l-2.33 8.15L190.27 62l1.86-18.39h46.13l1.16 7.91-29.1 33.18h17l2.44-8.15 11.87 1.16zm28.39 0H251V77.2h15.71zm0-33.63H251v-18.8h15.71zM275 96l22.7-80h14.78l-22.7 80zm30.49 0l22.7-80H343l-22.73 80zm78.19 1.16c-7 0-10.82-4.08-11.52-10.47-3 5.35-8.38 10.47-16.87 10.47-7.55 0-16.17-4.08-16.17-15 0-12.92 12.45-15.94 24.44-15.94a68.8 68.8 0 0 1 8.61.47V65c0-5.35-.12-11.75-8.61-11.75-3.14 0-5.59.23-8 1.51l-1.94 7.45-12-1.28 2.33-13.61c9.19-3.73 13.84-4.8 22.46-4.8 11.29 0 20.83 5.82 20.83 17.81V83.1c0 3 1.16 4.08 3.61 4.08a7.89 7.89 0 0 0 2.21-.35l.12 7.91a20.3 20.3 0 0 1-9.45 2.47z" fill="#FFF" fill-rule="evenodd"/><path d="M155.39 54c-7.68 0-12.45 5.7-12.45 15.59 0 9.07 4.19 16.05 12.36 16.05 7.8 0 12.92-6.28 12.92-16.29-.03-10.54-5.73-15.35-12.83-15.35z" fill="#FFF" fill-rule="evenodd"/></svg>
