<?xml version="1.0" encoding="utf-8"?>
<svg width="24px" height="24px" viewBox="0 0 24 24" version="1.1" xmlns:xlink="http://www.w3.org/1999/xlink" xmlns="http://www.w3.org/2000/svg">
  <desc>Created with Lunacy</desc>
  <defs>
    <path d="M13.577 0L2.423 0C1.0855 0.00165294 0.00165272 1.0855 0 2.423L0 8.577C0.00165272 9.9145 1.0855 10.9983 2.423 11L3 11L3 14C3.00008 14.4227 3.26586 14.7996 3.66393 14.9417C4.062 15.0837 4.50638 14.9601 4.774 14.633L7.74 11L13.577 11C14.9145 10.9983 15.9983 9.9145 16 8.577L16 2.423C15.9983 1.0855 14.9145 0.00165294 13.577 0ZM2.12389 8.87611C2.04457 8.79678 2 8.68919 2 8.577L2 2.423C2 2.18938 2.18938 2 2.423 2L13.577 2C13.8106 2 14 2.18938 14 2.423L14 8.577C14 8.68919 13.9554 8.79678 13.8761 8.87611C13.7968 8.95543 13.6892 9 13.577 9L7.266 9C6.96566 8.99975 6.68111 9.13449 6.491 9.367L5 11.194L5 10C5 9.44772 4.55229 9 4 9L2.423 9C2.31081 9 2.20322 8.95543 2.12389 8.87611Z" transform="translate(4 5)" id="path_1" />
    <clipPath id="mask_1">
      <use xlink:href="#path_1" />
    </clipPath>
  </defs>
  <g id="Icon-/-IRC">
    <path d="M13.577 0L2.423 0C1.0855 0.00165294 0.00165272 1.0855 0 2.423L0 8.577C0.00165272 9.9145 1.0855 10.9983 2.423 11L3 11L3 14C3.00008 14.4227 3.26586 14.7996 3.66393 14.9417C4.062 15.0837 4.50638 14.9601 4.774 14.633L7.74 11L13.577 11C14.9145 10.9983 15.9983 9.9145 16 8.577L16 2.423C15.9983 1.0855 14.9145 0.00165294 13.577 0ZM2.12389 8.87611C2.04457 8.79678 2 8.68919 2 8.577L2 2.423C2 2.18938 2.18938 2 2.423 2L13.577 2C13.8106 2 14 2.18938 14 2.423L14 8.577C14 8.68919 13.9554 8.79678 13.8761 8.87611C13.7968 8.95543 13.6892 9 13.577 9L7.266 9C6.96566 8.99975 6.68111 9.13449 6.491 9.367L5 11.194L5 10C5 9.44772 4.55229 9 4 9L2.423 9C2.31081 9 2.20322 8.95543 2.12389 8.87611Z" transform="translate(4 5)" id="Combined-Shape" fill="#000000" fill-rule="evenodd" stroke="none" />
    <g clip-path="url(#mask_1)">
      <g id="Color-/-Black">
        <path d="M0 0L24 0L24 24L0 24L0 0Z" id="Rectangle" fill="#FFFFFF" stroke="none" />
      </g>
    </g>
  </g>
</svg>