<svg width="24" height="24" xmlns:xlink="http://www.w3.org/1999/xlink" xmlns="http://www.w3.org/2000/svg"><defs><clipPath id="b"><use xlink:href="#a"/></clipPath><path d="M13 0H3C1.3 0 0 1.3 0 3v6c0 1.7 1.3 3 3 3h10c1.7 0 3-1.3 3-3V3c0-1.7-1.3-3-3-3zm0 2c.1 0 .2 0 .3.1h-.1L8 5.9 2.8 2.1h-.1c.1-.1.2-.1.3-.1h10zm0 8c.6 0 1-.4 1-1V3c0-.1 0-.2-.1-.3 0 .1 0 .2-.1.2l-5.5 4c-.1.1-.2.1-.3.1-.1 0-.2 0-.3-.1l-5.5-4c-.1 0-.2 0-.2-.1V9c0 .6.4 1 1 1h10z" transform="translate(4 6)" id="a"/></defs><path d="M17 6H7C5.3 6 4 7.3 4 9v6c0 1.7 1.3 3 3 3h10c1.7 0 3-1.3 3-3V9c0-1.7-1.3-3-3-3zm0 2c.1 0 .2 0 .3.1h-.1L12 11.9 6.8 8.1h-.1c.1-.1.2-.1.3-.1h10zm0 8c.6 0 1-.4 1-1V9c0-.1 0-.2-.1-.3 0 .1 0 .2-.1.2l-5.5 4c-.1.1-.2.1-.3.1-.1 0-.2 0-.3-.1l-5.5-4c-.1 0-.2 0-.2-.1V15c0 .6.4 1 1 1h10z" fill-rule="evenodd"/><g clip-path="url(#b)"><path d="M0 0h24v24H0V0z" fill="#FFF"/></g></svg>
