<svg width="24" height="24" xmlns:xlink="http://www.w3.org/1999/xlink" xmlns="http://www.w3.org/2000/svg"><defs><clipPath id="b"><use xlink:href="#a"/></clipPath><path d="M13.577 0H2.423A2.426 2.426 0 000 2.423v6.154A2.426 2.426 0 002.423 11H3v3a1 1 0 001.774.633L7.74 11h5.837A2.426 2.426 0 0016 8.577V2.423A2.426 2.426 0 0013.577 0zM2.124 8.876A.423.423 0 012 8.577V2.423C2 2.189 2.19 2 2.423 2h11.154c.234 0 .423.19.423.423v6.154a.423.423 0 01-.423.423H7.266a1 1 0 00-.775.367L5 11.194V10a1 1 0 00-1-1H2.423a.423.423 0 01-.3-.124z" transform="translate(4 5)" id="a"/></defs><path d="M17.577 5H6.423A2.426 2.426 0 004 7.423v6.154A2.426 2.426 0 006.423 16H7v3a1 1 0 001.774.633L11.74 16h5.837A2.426 2.426 0 0020 13.577V7.423A2.426 2.426 0 0017.577 5zM6.124 13.876A.423.423 0 016 13.577V7.423C6 7.189 6.19 7 6.423 7h11.154c.234 0 .423.19.423.423v6.154a.423.423 0 01-.423.423h-6.311a1 1 0 00-.775.367L9 16.194V15a1 1 0 00-1-1H6.423a.423.423 0 01-.3-.124z" fill-rule="evenodd"/><g clip-path="url(#b)"><path d="M0 0h24v24H0V0z" fill="#FFF"/></g></svg>
