<svg width="168" height="48" xmlns="http://www.w3.org/2000/svg"><g fill-rule="nonzero" fill="#FFF"><path d="M62.586 21.25c-3.075 0-4.986 2.284-4.986 6.245 0 3.635 1.678 6.431 4.94 6.431 3.122 0 5.173-2.516 5.173-6.524 0-4.24-2.284-6.152-5.127-6.152zM144.885 31.83c0 1.35.653 2.422 2.47 2.422 2.144 0 4.428-1.537 4.567-5.033-.978-.14-2.05-.28-3.029-.28-2.143 0-4.008.607-4.008 2.89z"/><path d="M.047 0v48h167.767V0H.047zm48.932 38.214h-8.855V26.237c0-3.635-1.351-5.033-3.728-5.033-2.89 0-4.194 2.05-4.194 4.986v7.363h2.796v4.66H26.61V26.238c0-3.635-1.352-5.033-3.728-5.033-2.89 0-4.195 2.05-4.195 4.986v7.363h4.195v4.66H9.833v-4.66h2.796V21.437H9.833v-4.194h8.854v2.982c1.398-2.237 3.496-3.588 6.431-3.588 3.03 0 5.826 1.445 6.85 4.52 1.166-2.796 3.636-4.52 6.945-4.52 3.774 0 7.316 2.283 7.316 7.27v9.646h2.796v4.66h-.046zm13.374.28c-6.477 0-10.951-3.962-10.951-10.673 0-6.151 3.728-11.23 11.278-11.23 7.55 0 11.23 5.079 11.23 10.95 0 6.711-4.846 10.952-11.557 10.952zm33.833-.28H77.872l-.606-3.356 11.557-13.421h-6.57l-.933 3.355-4.334-.326.746-7.223H96.14l.466 3.122-11.65 13.188h6.803l.979-3.308 4.753.512-1.305 7.457zm11.977 0h-6.058V30.29h6.058v7.923zm0-13.515h-6.058v-7.456h6.058v7.456zm3.961 13.515l9.041-32.156h5.918l-9.087 32.156h-5.872zm12.163 0l9.088-32.156h5.918l-9.087 32.156h-5.919zm32.249.28c-2.796 0-4.334-1.632-4.614-4.195-1.211 2.144-3.355 4.194-6.757 4.194-3.03 0-6.478-1.63-6.478-6.011 0-5.173 4.987-6.385 9.787-6.385 1.165 0 2.516.047 3.448.186v-.652c0-2.144-.046-4.707-3.448-4.707-1.258 0-2.237.093-3.216.606l-.699 2.377-4.753-.513.839-4.846c3.681-1.492 5.592-1.911 9.04-1.911 4.52 0 8.389 2.33 8.389 7.13v9.134c0 1.212.42 1.631 1.398 1.631.28 0 .512-.047.839-.14l.046 3.17c-1.165.558-2.516.931-3.821.931z"/></g></svg>
