<svg width="24" height="24" xmlns="http://www.w3.org/2000/svg" viewBox="0 0 54 54"><path fill="none" d="M-.2.1h53.8v53.4H-.2z"/><path d="M49.7 16.5c1.3 3.1 2 6.3 2 9.7s-.7 6.6-2 9.7c-1.3 3.1-3.1 5.7-5.3 8-2.2 2.2-4.9 4-8 5.3-3.1 1.3-6.3 2-9.7 2-3.4 0-6.6-.7-9.7-2s-5.7-3.1-8-5.3c-2.2-2.2-4-4.9-5.3-8-1.3-3.1-2-6.3-2-9.7s.7-6.6 2-9.7c1.3-3.1 3.1-5.7 5.3-8 2.2-2.2 4.9-4 8-5.3s6.3-2 9.7-2c3.4 0 6.6.7 9.7 2 3.1 1.3 5.7 3.1 8 5.3 2.2 2.3 3.9 5 5.3 8zM34.8 37.7l4.1-19.3c.2-.8.1-1.4-.3-1.8-.4-.4-.8-.4-1.4-.2l-24.1 9.3c-.5.2-.9.4-1.1.7-.2.3-.2.5-.1.7.1.2.4.4.9.5l6.2 1.9 14.3-9c.4-.3.7-.3.9-.2.1.1.1.2-.1.4L22.5 31.3l-.5 6.4c.4 0 .8-.2 1.3-.6l3-2.9 6.2 4.6c1.3.7 2 .3 2.3-1.1z"/></svg>