<?xml version="1.0" encoding="UTF-8"?>
<svg fill="none" version="1.1" viewBox="0 0 847 810.89" xmlns="http://www.w3.org/2000/svg">
<path d="m351.02 138.74h0.073c26.668-93.229 142.87-138.74 261.3-138.74 81.832 0 155.29 25.905 205.65 67.033-30.053 1.417-59.727 7.314-88.038 17.496 40.692 15.125 75.648 38.393 101.55 67.178-19.545-3.364-39.365-4.863-59.193-4.477 48.734 70.595 74.77 154.38 74.632 240.16 0 233.89-189.6 423.5-423.49 423.5-230.28 0-423.49-192.81-423.49-423.5 0-36.432 4.8399-74.051 14.241-109.33 2.469-7.405 5.905-14.508 10.467-17.109 5.711-3.255 10.914 6.449 11.749 9.607 6.192 23.195 14.524 45.766 24.889 67.42-0.907-48.351 19.747-92.394 48.157-130.48 18.949-25.398 36.518-48.932 44.625-116.85 0.544-4.561 4.864-7.84 9.232-6.412 61.66 20.182 94.62 122.86 89.502 208.72 34.061 4.876 33.904-30.709 33.904-30.709-10.89-33.469-3.63-95.674 64.129-123.5z" fill="url(#i)"/>
<path d="m833.13 279.54c10.297 232.92-181.18 433.74-414.67 433.74-218.58 0-397.7-168.95-413.9-383.38-2.8905 20.08-4.4105 40.334-4.5495 60.62 1.6577 229.44 194.4 420.36 423.49 420.36 233.89 0 423.49-189.6 423.49-423.5 0-37.267-4.828-73.409-13.867-107.85z" fill="url(#h)" opacity=".9"/>
<path d="m413.17 169.6c-4.562-8.071-25.627-20.013-34.835-22.094 34.847-111.62 212.38-145.89 321.03-126.14 45.218 8.228 101.53 32.863 118.66 45.665-50.359-41.128-123.83-67.033-205.65-67.033-118.42 0-234.63 45.507-261.3 138.74h-0.194c-67.759 27.83-75.019 90.06-64.129 123.52 10.454-39.918 60.197-88.971 126.41-92.649z" fill="url(#g)" style="mix-blend-mode:screen"/>
<path d="m536.24 92.514c-95.129 18.718-126.21 24.841-158.05 55.103 35.755-94.657 127.02-113.85 235.78-70.7-25.883 5.335-51.794 10.538-77.73 15.609z" fill="url(#f)"/>
<path d="m22.99 265.1c-25.991 106.41-5.905 231.47 112.16 336.42-35.15-38.442-78.068-180.37 16.637-281.77 6.377-6.837 17.352-1.815 17.702 7.526 7.805 210.73 177.84 339.44 373.88 315.37-60.741-3.412-261.62-73.773-112.19-101.6 78.104-14.556 200.57-37.365 200.57-147.26 0-178.13-137.73-230.21-221.26-222.47-57.16 5.299-108.04 41.575-123.7 90.906 6.014 19.444-17.956 33.057-33.94 30.77 5.131-85.849-27.829-188.59-89.502-208.77-4.356-1.428-8.688 1.851-9.232 6.413-8.107 67.916-25.676 91.451-44.612 116.85-28.423 38.103-49.077 82.134-48.17 130.48-10.364-21.655-18.697-44.225-24.889-67.42-0.69-2.614-4.477-9.91-9.051-10.249-2.48-0.181-3.799 2.238-4.416 4.792z" fill="url(#e)"/>
<path d="m378.71 551.83c115 93.375 346.26 23.365 346.26-203.66-93.363 141.52-212.28 239.14-346.25 203.66z" fill="url(#d)" style="mix-blend-mode:screen"/>
<path d="m151.79 319.75c1.046-1.17 2.363-2.064 3.836-2.604 1.473-0.541 3.056-0.71 4.61-0.494-84.772 103.39-16.395 284.98 30.528 329.59 2.625 7.429-44.516-31.205-51.013-40.244-35.695-30.286-86.853-180.36 12.039-286.25z" fill="url(#c)" style="mix-blend-mode:screen"/>
<path d="m423.49 560.38c115.02 0 208.27-76.084 208.27-169.94 0-93.859-93.253-169.94-208.27-169.94-98.13 0-208.32 63.838-208.27 172.42 0.048 167.79 177.31 264.32 328.41 249.7-11.349-1.319-82.158-5.082-130.01-59.217-4.32-4.876-11.81-13.394-8.41-18.924 3.388-5.53 12.729-4.114 18.271-4.114z" fill="url(#b)"/>
<path d="m609.08 313.22-164.61 157.52c-14.605 10.381-30.153 11.131-45.496 1.718l-161.45-158.65c4.607-7.402 9.785-14.434 15.488-21.029l16.94 15.851c42.397 39.736 76.676 71.837 124.99 113.07 21.804 18.609 28.58 18.246 49.972 0 55.272-47.19 95.698-82.884 148.25-129.82 5.857 6.686 11.174 13.827 15.9 21.356z" fill="#fff" opacity=".6"/>
<mask id="j" x="303" y="432" width="418" height="334" maskUnits="userSpaceOnUse">
<path d="m720.27 511.92c0 93.859-93.254 169.94-208.28 169.94-5.553 0-14.882-1.428-18.282 4.113-3.4 5.518 4.089 14.036 8.409 18.913 44.963 50.867 110.19 57.268 127.31 58.95l2.699 0.266c-151.1 14.617-328.37-81.916-328.41-249.7-0.158-27.937 7.617-55.344 22.421-79.037l162.24 147.35c11.543 10.479 30.987 10.479 42.53 0l165.31-150.15c15.367 23.692 24.055 50.699 24.055 79.351z" fill="#fff"/>
</mask>
<g transform="translate(-88.505 -121.48)" mask="url(#j)">
<path d="m255.48 315.91h526.43v477.3h-526.43z" fill="url(#a)" opacity=".7"/>
<g filter="url(#k)">
<path d="m463.65 583.7c-30.673-31.919-122.54-137.97-122.54-137.97l7.103 0.314 143.82 107.41c10.768 7.828 26.135 7.744 36.807-0.182l141.02-107.08 7.477-0.593s-88.861 103.54-122.9 137.65c-34.036 34.11-60.124 32.38-90.797 0.46z" clip-rule="evenodd" fill="#458fcd" fill-rule="evenodd"/>
</g>
</g>
<path d="m452.72 135.48c22.288-7.018 20.327-29.076 20.327-29.076s-11.144-13.128-33.226-5.856c-20.666 6.812-23.873 21.538-23.873 21.538s11.289 21.416 36.772 13.394z" fill="#fff"/>
<defs>
<filter id="k" x="302.39" y="406.88" width="413.67" height="240.08" color-interpolation-filters="sRGB" filterUnits="userSpaceOnUse">
<feFlood flood-opacity="0" result="BackgroundImageFix"/>
<feBlend in="SourceGraphic" in2="BackgroundImageFix" result="shape"/>
<feGaussianBlur result="effect1_foregroundBlur_4383_20931" stdDeviation="19.3597"/>
</filter>
<linearGradient id="i" x1="235.49" x2="832.5" y1="261.06" y2="817.92" gradientTransform="translate(-88.505 -121.48)" gradientUnits="userSpaceOnUse">
<stop stop-color="#1B91F3" offset="0"/>
<stop stop-color="#0B68CB" offset="1"/>
</linearGradient>
<radialGradient id="h" cx="0" cy="0" r="1" gradientTransform="matrix(142.69 328.45 -314.64 136.69 145.89 331.19)" gradientUnits="userSpaceOnUse">
<stop stop-color="#0B4186" stop-opacity="0" offset=".53"/>
<stop stop-color="#0B4186" stop-opacity=".45" offset="1"/>
</radialGradient>
<radialGradient id="g" cx="0" cy="0" r="1" gradientTransform="matrix(-47.128 -60.33 99.833 -77.987 434.38 184.11)" gradientUnits="userSpaceOnUse">
<stop stop-color="#EF3ACC" stop-opacity="0" offset="0"/>
<stop stop-color="#EF3ACC" stop-opacity=".64" offset="1"/>
</radialGradient>
<linearGradient id="f" x1="401.61" x2="616.43" y1="403.61" y2="164.47" gradientTransform="translate(-88.505 -121.48)" gradientUnits="userSpaceOnUse">
<stop stop-color="#0F5DB0" offset="0"/>
<stop stop-color="#0F5DB0" stop-opacity="0" offset="1"/>
</linearGradient>
<radialGradient id="e" cx="0" cy="0" r="1" gradientTransform="matrix(242.6 -503.25 621.66 299.68 263.78 618.13)" gradientUnits="userSpaceOnUse">
<stop stop-color="#094188" offset=".02"/>
<stop stop-color="#0B4186" stop-opacity="0" offset=".97"/>
</radialGradient>
<linearGradient id="d" x1="778.1" x2="678.21" y1="576.76" y2="822.01" gradientTransform="translate(-88.505 -121.48)" gradientUnits="userSpaceOnUse">
<stop stop-color="#E247C4" stop-opacity="0" offset="0"/>
<stop stop-color="#E247C4" stop-opacity=".64" offset="1"/>
</linearGradient>
<linearGradient id="c" x1="158.7" x2="246.7" y1="356.82" y2="711.01" gradientTransform="translate(-88.505 -121.48)" gradientUnits="userSpaceOnUse">
<stop stop-color="#EF3ACC" offset=".1"/>
<stop stop-color="#EF3ACC" stop-opacity="0" offset="1"/>
</linearGradient>
<linearGradient id="b" x1="512" x2="512" y1="404.2" y2="762.36" gradientTransform="translate(-88.505 -121.48)" gradientUnits="userSpaceOnUse">
<stop stop-color="#fff" offset="0"/>
<stop stop-color="#BEE1FE" offset=".91"/>
<stop stop-color="#96CEFD" offset="1"/>
</linearGradient>
<linearGradient id="a" x1="518.7" x2="518.7" y1="606.88" y2="756.91" gradientUnits="userSpaceOnUse">
<stop stop-color="#BCE0FD" offset="0"/>
<stop stop-color="#88CCFC" offset="1"/>
</linearGradient>
</defs>
</svg>
