<svg width="18" height="15" viewBox="0 0 18 15" xmlns="http://www.w3.org/2000/svg"><path d="M5.654 15c6.793 0 10.51-5.773 10.51-10.77 0-.163 0-.325-.008-.487.72-.532 1.347-1.204 1.844-1.964-.663.302-1.376.5-2.125.597.764-.465 1.347-1.21 1.628-2.096-.713.436-1.505.746-2.348.916C14.478.458 13.52 0 12.46 0c-2.037 0-3.694 1.698-3.694 3.787 0 .295.036.583.094.864C5.79 4.497 3.068 2.983 1.246.695.93 1.254.75 1.904.75 2.598c0 1.314.655 2.473 1.64 3.152-.604-.022-1.173-.19-1.67-.472v.052c0 1.83 1.275 3.366 2.96 3.713-.31.088-.633.133-.972.133-.237 0-.468-.022-.69-.067.467 1.505 1.836 2.598 3.45 2.627-1.27 1.02-2.86 1.624-4.59 1.624-.295 0-.59-.014-.878-.05C1.628 14.373 3.573 15 5.654 15" fill-rule="nonzero" fill="#FFF"/></svg>