<svg width="18" height="13" viewBox="0 0 18 13" xmlns="http://www.w3.org/2000/svg"><path d="M7.142 8.897V3.704l4.863 2.606-4.863 2.587zM17.82 2.804S17.644 1.53 17.105.97C16.42.234 15.653.23 15.3.187 12.783 0 9.005 0 9.005 0h-.008S5.218 0 2.7.187C2.346.23 1.58.234.894.97.355 1.53.18 2.804.18 2.804S0 4.3 0 5.796v1.402c0 1.496.18 2.992.18 2.992s.176 1.273.715 1.834c.685.736 1.584.713 1.985.79C4.32 12.956 9 13 9 13s3.782-.006 6.3-.193c.353-.043 1.12-.047 1.805-.783.54-.56.715-1.834.715-1.834S18 8.694 18 7.198V5.796c0-1.496-.18-2.992-.18-2.992z" fill="#FFFFFE" fill-rule="evenodd"/></svg>